<svg xmlns="http://www.w3.org/2000/svg" width="18.699" height="14.078" viewBox="0 0 18.699 14.078"><defs><style>.a{fill:#fff;}</style></defs><g transform="translate(0 -63.265)"><g transform="translate(0 63.265)"><path class="a" d="M17.708,66.316a5.349,5.349,0,0,0,.977-3.051l-1.094,0a4.033,4.033,0,0,1-.792,2.427,4.608,4.608,0,0,0-3.519-.121c-2.45.927-3.411,4.95-6.217,5.841-2.127.675-4.459.092-5.762.268-3.238.436-.244,5.662,6.9,5.661C17.868,77.343,20.355,68.892,17.708,66.316Zm-16.4,7.195a.889.889,0,0,1-.188-.63c.058-.229,1.75-.1,1.848-.1,4.775.28,6.011-.593,8.365-3.833A15.475,15.475,0,0,1,12.562,67.4a4.629,4.629,0,0,1,.356,1.558,8.278,8.278,0,0,1,2.046-.217,7.779,7.779,0,0,1,.247,2.092,6.143,6.143,0,0,1,2.207-.49C15.836,77.442,3.943,77.653,1.311,73.511Zm16.263-4.256a5.027,5.027,0,0,0-1.361.123,7.621,7.621,0,0,0-.31-1.311c-.126-.356-.024-.266-.392-.351a5.4,5.4,0,0,0-1.691-.021,7.452,7.452,0,0,0-.369-1C14.61,66.091,17.8,66.051,17.574,69.255Z" transform="translate(0 -63.265)"/></g></g></svg>