<svg xmlns="http://www.w3.org/2000/svg" width="26.875" height="29.344" viewBox="0 0 26.875 29.344"><defs><style>.a{fill:#fff;}</style></defs><g transform="translate(-17.756)"><g transform="translate(17.756)"><path class="a" d="M41.8,12.13h-.073V10.35a10.35,10.35,0,1,0-20.7,0v1.78H20.59a2.958,2.958,0,0,0-2.833,3.051v4.54a2.869,2.869,0,0,0,2.8,2.941h2.725a.69.69,0,0,0,.657-.722q0-.021,0-.041V13c0-.436-.254-.872-.654-.872h-.8V10.35a8.9,8.9,0,1,1,17.8,0v1.78h-.8c-.4,0-.654.436-.654.872v8.9a.69.69,0,0,0,.613.759l.041,0h.835l-.073.109a5.738,5.738,0,0,1-4.612,2.288,3.6,3.6,0,0,0-7.118.69,3.632,3.632,0,0,0,3.632,3.6,3.741,3.741,0,0,0,2.615-1.126,3.2,3.2,0,0,0,.872-1.743A7.191,7.191,0,0,0,41.4,23.606l.69-1.017a2.473,2.473,0,0,0,2.542-2.506v-4.54C44.632,13.982,43.47,12.13,41.8,12.13ZM22.479,21.209H20.59a1.416,1.416,0,0,1-1.382-1.45c0-.013,0-.026,0-.039V15.18a1.506,1.506,0,0,1,1.38-1.6h1.888ZM33.7,27.2a2.143,2.143,0,0,1-1.562.69,2.215,2.215,0,0,1-2.179-2.143,2.143,2.143,0,1,1,4.285,0v0A1.925,1.925,0,0,1,33.7,27.2Zm9.479-7.118c0,.981-.944,1.126-1.38,1.126H40.274V13.583H41.8c.8,0,1.38,1.126,1.38,1.961Z" transform="translate(-17.756)"/></g></g></svg>