<svg xmlns="http://www.w3.org/2000/svg" width="239.835" height="45.937" viewBox="0 0 239.835 45.937"><defs><style>.a{fill:#fff;}</style></defs><g transform="translate(-30 -34)"><g transform="translate(30 34)"><path class="a" d="M1825.254,1673.089l-16.575-17.819v-5.763l19.4,20.862a18.76,18.76,0,0,1-2.827,2.719m-16.575,3.205v-5.416l5.7,6.131c-.186,0-.371.015-.559.015a18.575,18.575,0,0,1-5.144-.73m-8.419-5.147,6.875-7.392v5.763l-3.9,4.191a18.627,18.627,0,0,1-2.974-2.562m-4.769-16.1,11.643-12.517v5.616l-11.784,12.669a18.333,18.333,0,0,1,.141-5.768m1.439,11.191a18.456,18.456,0,0,1-1.391-4.263l11.6-12.467v5.76Zm10.2-9.61v5.763l-7.5,8.059a18.676,18.676,0,0,1-2.268-3.325Zm0,19.146a18.927,18.927,0,0,1-3.114-1.552l3.114-3.349Zm0-34.786v.177l-11.219,12.063a18.724,18.724,0,0,1,11.219-12.24m20.153,4.526-4.079,4.148-2.517-2.707,3.785-3.853a18.78,18.78,0,0,1,2.811,2.411m3.24,4.615a18.372,18.372,0,0,1,1.4,3.843l-2.419,2.461-2.518-2.7Zm-4.171,2.919-2.516-2.7,4.07-4.142a18.7,18.7,0,0,1,2.16,3.069Zm-6.156-12.178a18.466,18.466,0,0,1,3.493,1.713l-3.634,3.693-2.516-2.7Zm-3.29,2.022-2.925-3.143a18.51,18.51,0,0,1,5.235.8Zm-8.232-1.726v-.692a18.264,18.264,0,0,1,3.281-.635l20.219,21.736a18.483,18.483,0,0,1-1.056,3.723Zm0,1.362,22.042,23.7a18.5,18.5,0,0,1-2.052,3.4l-19.99-21.489Zm11.35,33.424a18.529,18.529,0,0,1-4.446.984l-6.9-7.427v-5.76Zm-11.35-13.563v-5.762l15.825,17.011a18.544,18.544,0,0,1-3.542,1.958Zm23.74-2.827-2.281-2.45,2.019-2.055a18.623,18.623,0,0,1,.3,3.325c0,.4-.015.79-.04,1.18m-18.6-20.849a19.668,19.668,0,1,0,19.669,19.669,19.691,19.691,0,0,0-19.669-19.669" transform="translate(-1794.155 -1632.115)"/><g transform="translate(49.002)"><path class="a" d="M1960.9,1633.986a2.668,2.668,0,1,1-2.668-2.668,2.669,2.669,0,0,1,2.668,2.668" transform="translate(-1917.376 -1628.713)"/><path class="a" d="M2119.163,1679.047v-20.493c0-3.857,1.056-6.79,3.141-8.719,2.068-1.913,5.2-2.893,9.323-2.915v4.341c-5.556.034-7.824,2.133-7.824,7.218v20.568" transform="translate(-1992.603 -1635.888)"/><path class="a" d="M2215.094,1678.985a5.209,5.209,0,0,1-1.728-3.714v-14.112c0-4.413-1.2-8.068-3.467-10.572a13.2,13.2,0,0,0-18.422,0c-2.268,2.5-3.467,6.159-3.467,10.572v17.826h6.442a5.712,5.712,0,0,1-1.77-4.705v.114l-.032.031v-13.266c0-6.247,3-9.976,8.037-9.976s8.038,3.729,8.038,9.976v17.826Z" transform="translate(-2024.261 -1635.851)"/><path class="a" d="M2006.375,1656.271c0,5.45-3.859,9.87-8.619,9.87s-8.618-4.42-8.618-9.87v-4.581c0-5.451,3.859-9.87,8.618-9.87s8.619,4.419,8.619,9.87Zm-8.619-18.742a13,13,0,0,0-9.034,3.594V1626.5h-6.377a5.712,5.712,0,0,1,1.77,4.7v-.113l.011-.011v20.633c0,.96.05,5.611.142,6.175a14.829,14.829,0,0,0,2.054,5.992,14.244,14.244,0,0,0,2.4,2.936v-.031a13.049,13.049,0,0,0,9.034,3.693,13.629,13.629,0,0,0,13.629-13.63v-5.687a13.629,13.629,0,0,0-13.629-13.629" transform="translate(-1929.691 -1626.496)"/><path class="a" d="M2055.5,1661.124c0-5.45,3.858-9.87,8.618-9.87s8.619,4.419,8.619,9.87v4.58c0,5.452-3.859,9.869-8.619,9.869s-8.618-4.418-8.618-9.869Zm8.618,18.742a13,13,0,0,0,9.034-3.594v2.709h6.377a5.711,5.711,0,0,1-1.771-4.7v-1.33l-.012.012v-7.273c0-.959-.049-5.611-.142-6.175a14.83,14.83,0,0,0-2.053-5.992,14.237,14.237,0,0,0-2.4-2.935v.031a13.051,13.051,0,0,0-9.034-3.692,13.629,13.629,0,0,0-13.629,13.629v5.687a13.629,13.629,0,0,0,13.629,13.63" transform="translate(-1961.025 -1635.888)"/><path class="a" d="M1911.957,1666.406v-13.23c0-4.412-1.2-8.067-3.467-10.571a12.011,12.011,0,0,0-9.21-3.745,12.417,12.417,0,0,0-8.026,2.639v-11.9h-6.385a5.294,5.294,0,0,1,1.745,3.914v19.322c0,.115-.012.225-.012.342v17.881h6.409a5.7,5.7,0,0,1-1.769-4.67v-13.211c0-6.246,3-9.974,8.038-9.974s8.037,3.729,8.037,9.974v17.881h6.409a5.68,5.68,0,0,1-1.769-4.65" transform="translate(-1884.869 -1627.923)"/><path class="a" d="M1956.165,1646.665V1678.9h6.409a5.682,5.682,0,0,1-1.769-4.65v-27.589Z" transform="translate(-1917.652 -1635.77)"/><path class="a" d="M2164.7,1633.986a2.669,2.669,0,1,1-2.669-2.668,2.669,2.669,0,0,1,2.669,2.668" transform="translate(-2011.085 -1628.713)"/><path class="a" d="M2159.961,1646.665V1678.9h6.409a5.68,5.68,0,0,1-1.769-4.65v-27.589Z" transform="translate(-2011.362 -1635.77)"/></g></g></g></svg>