<svg xmlns="http://www.w3.org/2000/svg" width="200" height="36" viewBox="0 0 200 36"><defs><style>.a{fill:#d6000f;}.b{fill:#2f2f2f;}.c{fill:none;}</style></defs><g transform="translate(2 2)"><g transform="translate(0 1.734)"><path class="a" d="M-552.909,747.364A15.25,15.25,0,0,0-568,762.769a15.25,15.25,0,0,0,15.091,15.4,15.25,15.25,0,0,0,15.091-15.4,15.25,15.25,0,0,0-15.091-15.405m13.621,12.955c.233,1.352-8.615,2.123-13.5,2.429,4.691-1.418,13.263-3.786,13.5-2.429m-4.31-6.016a7.607,7.607,0,0,0,.555-1.443,14.313,14.313,0,0,1,2.111,2.851A14.518,14.518,0,0,1-539.568,759a7.218,7.218,0,0,0-1.5-.23l-2.692-1.393Zm-.42-2.348c1.031.883-5.262,7.279-8.81,10.717,2.7-4.164,7.776-11.6,8.81-10.717m-4.161-2.452a13.966,13.966,0,0,1,3.117,1.627,7.341,7.341,0,0,0-1.3.809l-2.939.7-1.811-2.464a7.633,7.633,0,0,0-.483-1.47,13.825,13.825,0,0,1,3.413.8m-4.729-.852c1.346,0,.553,9.029,0,13.991-.554-4.962-1.349-13.991,0-13.991m-4.731.852a13.823,13.823,0,0,1,3.412-.8,7.636,7.636,0,0,0-.483,1.47l-1.812,2.464-2.939-.7a7.34,7.34,0,0,0-1.3-.809,13.962,13.962,0,0,1,3.117-1.627m-4.159,2.451c1.031-.883,6.109,6.553,8.81,10.717-3.549-3.437-9.844-9.832-8.81-10.717m-3.088,3.756a14.356,14.356,0,0,1,2.111-2.851,7.617,7.617,0,0,0,.556,1.443l.163,3.076-2.692,1.393a7.218,7.218,0,0,0-1.5.23,14.566,14.566,0,0,1,1.363-3.292m-1.643,4.606c.234-1.352,8.807,1.012,13.5,2.429-4.883-.3-13.731-1.073-13.5-2.429m0,4.9a14.678,14.678,0,0,1-.178-3.57,7.307,7.307,0,0,0,1.335.741l2.063,2.249-1.185,2.833a7.465,7.465,0,0,0-1.006,1.162,14.613,14.613,0,0,1-1.028-3.416m1.643,4.606c-.673-1.189,7.383-5,11.869-7-3.932,2.971-11.194,8.188-11.869,7m6.027,5.7a14.037,14.037,0,0,1-2.938-1.942,14.254,14.254,0,0,1-2.384-2.617,7.214,7.214,0,0,0,1.489-.308l3,.369.877,2.948a7.665,7.665,0,0,0-.039,1.55m1.22.509c-1.264-.47,2.506-8.677,4.688-13.147-1.142,4.856-3.419,13.618-4.688,13.147m4.732.852a13.786,13.786,0,0,1-3.475-.441,7.492,7.492,0,0,0,.947-1.213l2.528-1.683,2.528,1.683a7.482,7.482,0,0,0,.946,1.213,13.784,13.784,0,0,1-3.474.441m4.729-.851c-1.264.47-3.545-8.291-4.688-13.146,2.183,4.469,5.956,12.675,4.688,13.146m4.161-2.452a14.043,14.043,0,0,1-2.939,1.942,7.649,7.649,0,0,0-.038-1.55l.876-2.948,3-.369a7.219,7.219,0,0,0,1.489.308,14.251,14.251,0,0,1-2.384,2.617m3.087-3.755c-.672,1.19-7.936-4.026-11.869-7,4.487,1.991,12.544,5.8,11.869,7m.615-1.192a7.434,7.434,0,0,0-1.006-1.162l-1.184-2.833,2.062-2.249a7.291,7.291,0,0,0,1.335-.741,14.651,14.651,0,0,1-.178,3.57,14.551,14.551,0,0,1-1.029,3.416" transform="translate(568 -747.364)"/></g><g transform="translate(36.101 4.665)"><path class="b" d="M-464.511,765.739c-2.515-1.118-4.687-2.083-4.687-4.185,0-2.038,1.178-3.754,4-3.754a11.034,11.034,0,0,1,6.518,2.326v-3.742l-.627-.36a14.216,14.216,0,0,0-5.384-1,9.1,9.1,0,0,0-5.711,1.835,5.556,5.556,0,0,0-2.359,4.7c0,4.256,3.783,5.9,6.822,7.224l.486.212c2.738,1.077,4.127,2.453,4.127,4.09,0,2.569-1.652,3.872-4.91,3.872-2.323,0-5.638-1.546-7.434-2.766l1.309,4.569.627.36a14.556,14.556,0,0,0,5.5,1.114c5.224,0,8.47-2.739,8.47-7.148,0-4.341-3.585-5.935-6.748-7.341" transform="translate(473.666 -755.024)"/></g><g transform="translate(81.604 0)"><path class="b" d="M-353.424,742.833h-1.339a3.968,3.968,0,0,1,1.339,2.953V760.1c0,3.907,1.011,7.024,3,9.264a9.551,9.551,0,0,0,7.41,3.338,9.551,9.551,0,0,0,7.41-3.338c2.06-2.307,3.061-5.337,3.061-9.264a14.144,14.144,0,0,0-2.781-8.934A8.429,8.429,0,0,0-342.5,747.5a8.864,8.864,0,0,0-6.044,2.333,6.392,6.392,0,0,0-1.049,1.111c-.027.038-.053.074-.082.112l-.192.252v-8.474Zm15.415,24.134a6.039,6.039,0,0,1-5,2.459,6.041,6.041,0,0,1-5-2.461,11.408,11.408,0,0,1-1.849-6.865c0-5.578,2.823-9.326,7.024-9.326,4.094,0,6.739,3.66,6.739,9.326a10.9,10.9,0,0,1-1.908,6.867" transform="translate(354.763 -742.833)"/></g><g transform="translate(108.71 4.665)"><path class="b" d="M-273.519,755.024a9.423,9.423,0,0,0-7.353,3.4c-2.031,2.219-3.06,5.316-3.06,9.206,0,3.927,1,6.958,3.06,9.264a9.537,9.537,0,0,0,7.353,3.339,9.536,9.536,0,0,0,7.353-3.338c2.06-2.307,3.061-5.337,3.061-9.264,0-3.89-1.029-6.988-3.061-9.207a9.423,9.423,0,0,0-7.353-3.394m4.827,19.529a6.363,6.363,0,0,1-4.827,2.4,6.362,6.362,0,0,1-4.828-2.4c-1.344-1.608-2.026-3.939-2.026-6.926s.682-5.317,2.026-6.927a6.361,6.361,0,0,1,4.827-2.4,6.362,6.362,0,0,1,4.828,2.4c1.344,1.608,2.026,3.939,2.026,6.925s-.682,5.318-2.026,6.927" transform="translate(283.932 -755.024)"/></g><g transform="translate(149.108 4.665)"><path class="b" d="M-167.956,755.024a9.422,9.422,0,0,0-7.353,3.4c-2.031,2.219-3.06,5.316-3.06,9.206,0,3.928,1,6.958,3.06,9.264a9.537,9.537,0,0,0,7.353,3.339,9.452,9.452,0,0,0,6.438-2.5,11.088,11.088,0,0,0,3.666-6.408h-3.615c-.834,3.748-3.314,5.627-6.49,5.627-3.7,0-6.368-3.127-6.8-7.967l-.01-.114H-157.6v-2.256a11.92,11.92,0,0,0-3-8.141,9.409,9.409,0,0,0-7.352-3.449m-6.735,10.759c.462-5.139,3.712-7.441,6.735-7.441s6.273,2.3,6.735,7.441Z" transform="translate(178.369 -755.024)"/></g><g transform="translate(132.263 0)"><path class="b" d="M-214.879,763.418v-11.88h5.774v-3.276h-5.774v-5.428h-2.456a12.493,12.493,0,0,1-.339,2.673,7.822,7.822,0,0,1-.765,1.973,5.824,5.824,0,0,1-.434.659,4.8,4.8,0,0,1-3.513,1.924v1.488h3.947v11.811c0,2.91.811,5.124,2.41,6.578s3.993,2.183,7.153,2.2v-3.276c-4.262-.026-6-1.609-6-5.446" transform="translate(222.386 -742.833)"/></g><g transform="translate(56.26 4.665)"><path class="b" d="M-400.1,776.2v.085l-.008.009v-8.668c0-3.907-1.011-7.024-3-9.264a9.553,9.553,0,0,0-7.409-3.338,9.661,9.661,0,0,0-7.467,3.394c-1.993,2.24-3,5.338-3,9.207a14.766,14.766,0,0,0,2.722,8.989,8.708,8.708,0,0,0,7.234,3.614,8.865,8.865,0,0,0,6.045-2.333,6.415,6.415,0,0,0,1.049-1.111c.027-.038.053-.075.082-.113l.192-.252v3.33h4.927a4.271,4.271,0,0,1-1.359-3.55m-10.593.752c-4.094,0-6.739-3.661-6.739-9.326a10.9,10.9,0,0,1,1.908-6.866,6.037,6.037,0,0,1,5-2.459,5.935,5.935,0,0,1,4.944,2.515,10.944,10.944,0,0,1,1.909,6.81c0,5.579-2.823,9.326-7.025,9.326" transform="translate(420.989 -755.024)"/></g><g transform="translate(175.219 4.666)"><path class="b" d="M-89.358,779.731a3.907,3.907,0,0,1-1.326-2.8v-11.1a11.531,11.531,0,0,0-2.659-7.977,9.3,9.3,0,0,0-7.068-2.825,9.3,9.3,0,0,0-7.067,2.825,11.53,11.53,0,0,0-2.66,7.977v13.9h4.942a4.272,4.272,0,0,1-1.358-3.55v.086l-.024.023V765.827c0-4.713,2.305-7.527,6.167-7.527s6.168,2.814,6.168,7.527v13.9Z" transform="translate(110.138 -755.025)"/></g></g><rect class="c" width="200" height="36"/></svg>