<svg xmlns="http://www.w3.org/2000/svg" width="186" height="40" viewBox="0 0 186 40"><defs><style>.a{fill:#517e71;}.b{fill:#2f2f2f;}.c{fill:none;}</style></defs><g transform="translate(676.385 -745.7)"><path class="a" d="M-650.655,786.146l-12.647-13.6v-4.4l14.8,15.919a14.384,14.384,0,0,1-2.156,2.075m-12.647,2.445v-4.133l4.351,4.678c-.141,0-.283.011-.426.011a14.16,14.16,0,0,1-3.925-.557m-6.424-3.928,5.245-5.64v4.4l-2.977,3.2a14.168,14.168,0,0,1-2.268-1.955m-3.639-12.281,8.884-9.551v4.286l-8.991,9.666a14.212,14.212,0,0,1-.125-1.856,14.274,14.274,0,0,1,.232-2.544m1.1,8.539a14.117,14.117,0,0,1-1.062-3.253l8.848-9.512v4.395Zm7.786-7.333v4.4l-5.719,6.15a14.237,14.237,0,0,1-1.73-2.537Zm0,14.609a14.456,14.456,0,0,1-2.376-1.184l2.376-2.555Zm0-26.543v.136l-8.56,9.2a14.29,14.29,0,0,1,8.56-9.34m15.377,3.453-3.112,3.166-1.921-2.065,2.889-2.94a14.319,14.319,0,0,1,2.145,1.839m2.472,3.521a14.05,14.05,0,0,1,1.067,2.932l-1.845,1.877-1.922-2.064Zm-3.182,2.228-1.92-2.064,3.106-3.16a14.281,14.281,0,0,1,1.648,2.341Zm-4.7-9.293a14.08,14.08,0,0,1,2.665,1.308l-2.773,2.818-1.92-2.064Zm-2.511,1.543-2.232-2.4a14.127,14.127,0,0,1,3.994.608Zm-6.281-1.317v-.528a13.943,13.943,0,0,1,2.5-.485l15.428,16.585a14.13,14.13,0,0,1-.805,2.841Zm0,1.039,16.819,18.083a14.168,14.168,0,0,1-1.567,2.6l-15.252-16.4Zm8.66,25.5a14.145,14.145,0,0,1-3.393.751l-5.268-5.667v-4.4Zm-8.66-10.349v-4.4l12.075,12.98a14.148,14.148,0,0,1-2.7,1.494Zm18.114-2.157-1.74-1.87,1.541-1.568a14.247,14.247,0,0,1,.231,2.537c0,.3-.012.6-.031.9m-14.189-15.908a15.025,15.025,0,0,0-15.008,15.008,15.023,15.023,0,0,0,15.008,15.006,15.023,15.023,0,0,0,15.008-15.006,15.025,15.025,0,0,0-15.008-15.008" transform="translate(0 -7.183)"/><path class="b" d="M-508.905,754.556a2.036,2.036,0,0,1-2.036,2.036,2.036,2.036,0,0,1-2.036-2.036,2.036,2.036,0,0,1,2.036-2.036,2.036,2.036,0,0,1,2.036,2.036" transform="translate(-94.881 -2.833)"/><path class="b" d="M-349.377,792.637V777c0-2.943.807-5.181,2.4-6.653s3.97-2.208,7.114-2.224v3.313c-4.238.026-5.97,1.627-5.97,5.507v15.694" transform="translate(-191.05 -12.005)"/><path class="b" d="M-259.864,792.571a3.973,3.973,0,0,1-1.318-2.834V778.969a11.785,11.785,0,0,0-2.645-8.066,9.166,9.166,0,0,0-7.029-2.858,9.166,9.166,0,0,0-7.028,2.858,11.783,11.783,0,0,0-2.644,8.066v13.6h4.915a4.358,4.358,0,0,1-1.351-3.59v.087l-.024.023V778.969c0-4.766,2.292-7.612,6.132-7.612s6.133,2.845,6.133,7.612v13.6Z" transform="translate(-231.521 -11.959)"/><path class="b" d="M-467.86,770.419c0,4.159-2.945,7.531-6.576,7.531s-6.576-3.372-6.576-7.531v-3.5c0-4.159,2.944-7.531,6.576-7.531s6.576,3.372,6.576,7.531Zm-6.576-14.3a9.918,9.918,0,0,0-6.894,2.743V747.7H-486.2a4.357,4.357,0,0,1,1.351,3.59V751.2l.009-.009v15.744c0,.732.039,4.281.109,4.711a11.308,11.308,0,0,0,1.567,4.571,10.843,10.843,0,0,0,1.83,2.241v-.023a9.958,9.958,0,0,0,6.894,2.818,10.4,10.4,0,0,0,10.4-10.4v-4.339a10.4,10.4,0,0,0-10.4-10.4" transform="translate(-110.624 0)"/><path class="b" d="M-414.228,778.961c0-4.159,2.944-7.531,6.576-7.531s6.576,3.372,6.576,7.531v3.5c0,4.159-2.944,7.531-6.576,7.531s-6.576-3.372-6.576-7.531Zm6.576,14.3a9.917,9.917,0,0,0,6.894-2.743v2.067h4.866a4.358,4.358,0,0,1-1.352-3.59v-1.014l-.009.009v-5.55c0-.732-.037-4.281-.108-4.711a11.307,11.307,0,0,0-1.567-4.572,10.861,10.861,0,0,0-1.83-2.24v.024a9.959,9.959,0,0,0-6.894-2.818,10.4,10.4,0,0,0-10.4,10.4v4.339a10.4,10.4,0,0,0,10.4,10.4" transform="translate(-150.681 -12.005)"/><path class="b" d="M-563,778.886V768.791a11.784,11.784,0,0,0-2.644-8.066,9.166,9.166,0,0,0-7.028-2.857,9.476,9.476,0,0,0-6.124,2.013V750.8h-4.871a4.041,4.041,0,0,1,1.331,2.987v14.743c0,.088-.009.172-.009.261v13.643h4.89a4.343,4.343,0,0,1-1.35-3.563v-10.08c0-4.765,2.292-7.611,6.133-7.611s6.132,2.845,6.132,7.611v13.643h4.89a4.335,4.335,0,0,1-1.35-3.548" transform="translate(-53.325 -1.823)"/><path class="b" d="M-512.375,767.868v24.6h4.89a4.335,4.335,0,0,1-1.349-3.548V767.868Z" transform="translate(-95.234 -11.855)"/><path class="b" d="M-305.109,754.556a2.036,2.036,0,0,1-2.036,2.036,2.036,2.036,0,0,1-2.036-2.036,2.036,2.036,0,0,1,2.036-2.036,2.036,2.036,0,0,1,2.036,2.036" transform="translate(-214.678 -2.833)"/><path class="b" d="M-308.579,767.868v24.6h4.89a4.335,4.335,0,0,1-1.349-3.548V767.868Z" transform="translate(-215.032 -11.855)"/></g><rect class="c" width="186" height="40"/></svg>