<svg xmlns="http://www.w3.org/2000/svg" width="210" height="90" viewBox="0 0 210 90"><defs><style>.a{fill:none;}.b{fill:#2f2f2f;}</style></defs><rect class="a" width="210" height="90"/><g transform="translate(-219.259 -130.449)"><g transform="translate(220.259 133.449)"><path class="b" d="M227.124,153.577h2.159v-18.2h6.7v-1.933H220.428v1.933h6.7Z" transform="translate(-220.132 -133.449)"/><path class="b" d="M244.111,153.577h2.159V133.449h-2.159v8.674H234.054v-8.674H231.9v20.128h2.159v-9.465h10.056Z" transform="translate(-211.509 -133.449)"/><path class="b" d="M257.449,151.644H246.741v-7.588h9.691v-1.933h-9.691v-6.741H257.11v-1.933H244.582v20.128h12.867Z" transform="translate(-201.969 -133.449)"/><path class="b" d="M246.406,168.446H236.052v-7.588h9.371v-1.933h-9.371v-6.741h10.027v-1.933H233.96v20.128h12.446Z" transform="translate(-209.957 -120.815)"/><path class="b" d="M246.741,153.249l9.746,17.1.018.031h2.557V150.251h-2.091v16.962l-9.746-16.931-.018-.031H244.65v20.128h2.092Z" transform="translate(-201.918 -120.815)"/><path class="b" d="M261.666,170.379h2.092V152.184h5.75v-1.933H255.916v1.933h5.75Z" transform="translate(-193.447 -120.815)"/><path class="b" d="M277.919,170.348l.018.032h2.549l-5.662-9.532a6.659,6.659,0,0,0,1.89-.5,4.944,4.944,0,0,0,2.628-2.661,5.179,5.179,0,0,0,.387-2.031,5.769,5.769,0,0,0-.5-2.512,4.4,4.4,0,0,0-1.4-1.677,5.932,5.932,0,0,0-2.127-.929,11.73,11.73,0,0,0-2.649-.284h-6.487v20.128h2.092v-9.352h3.921Zm-1.54-12.076a6.348,6.348,0,0,1-3.625.88H268.66v-7.024h4.177a9.348,9.348,0,0,1,1.98.2,4.375,4.375,0,0,1,1.51.611,2.917,2.917,0,0,1,.962,1.081,3.5,3.5,0,0,1,.349,1.636A2.984,2.984,0,0,1,276.379,158.271Z" transform="translate(-185.437 -120.814)"/><path class="b" d="M286.126,150.251h-1.782L276.92,170.3l-.032.084h2.046l1.864-5.256h8.776l1.89,5.256h2.069l-7.391-20.088Zm2.751,12.884H281.5l3.69-10.375Z" transform="translate(-177.677 -120.814)"/><path class="b" d="M291.438,168.446v-18.2h-2.092v20.128H301.2v-1.933Z" transform="translate(-168.308 -120.815)"/><path class="b" d="M234.947,167.476H232.59l-8.7,8.923v-8.923h-2.159V187.6h2.159V177.024l9.162,10.558.019.021H235.5l-9.219-10.994Z" transform="translate(-219.154 -107.862)"/><rect class="b" width="2.159" height="20.128" transform="translate(20.017 59.614)"/><path class="b" d="M235.654,169.409h6.7V187.6h2.159V169.409h6.7v-1.933H235.654Z" transform="translate(-208.683 -107.862)"/><path class="b" d="M261.664,183.458a6.188,6.188,0,0,1-2.574,2.239,7.82,7.82,0,0,1-3.252.7,8.19,8.19,0,0,1-3.436-.7,7.831,7.831,0,0,1-2.593-1.885,8.435,8.435,0,0,1-1.64-2.754,9.537,9.537,0,0,1-.576-3.3,9.734,9.734,0,0,1,.562-3.3,8.254,8.254,0,0,1,1.626-2.754,7.83,7.83,0,0,1,2.593-1.885,8.269,8.269,0,0,1,3.464-.7,6.808,6.808,0,0,1,1.778.224,7.687,7.687,0,0,1,1.526.589,5.623,5.623,0,0,1,1.216.837,5.08,5.08,0,0,1,.823.948l.037.056,1.8-1.318-.033-.051a5.957,5.957,0,0,0-1.286-1.331,8.544,8.544,0,0,0-1.706-1.006,10.356,10.356,0,0,0-4.178-.881,10.828,10.828,0,0,0-4.163.8,9.989,9.989,0,0,0-5.529,5.543,11.044,11.044,0,0,0-.8,4.233,11.243,11.243,0,0,0,.781,4.234,9.829,9.829,0,0,0,5.5,5.543,11,11,0,0,0,4.2.8,9.9,9.9,0,0,0,2.516-.3,9.363,9.363,0,0,0,2.1-.823,8.121,8.121,0,0,0,1.68-1.205,8.382,8.382,0,0,0,1.239-1.454l.035-.053-1.687-1.084Z" transform="translate(-201.411 -108.08)"/><path class="b" d="M269.257,176.15h-9.3v-8.674H257.8V187.6h2.159v-9.465h9.3V187.6h2.159V167.476h-2.159Z" transform="translate(-192.03 -107.862)"/><path class="b" d="M270.953,178.083h9.691V176.15h-9.691v-6.741h10.369v-1.933H268.794V187.6H281.66v-1.933H270.953Z" transform="translate(-183.763 -107.862)"/><path class="b" d="M290.642,184.436l-9.39-16.927-.018-.032h-2.642V187.6h2.159V170.476l9.407,17.128H292.8V167.476h-2.159Z" transform="translate(-176.395 -107.862)"/><path class="b" d="M236.6,166.233a6.2,6.2,0,0,1-2.574,2.239,7.819,7.819,0,0,1-3.252.7,8.19,8.19,0,0,1-3.436-.7,7.831,7.831,0,0,1-2.593-1.885,8.435,8.435,0,0,1-1.64-2.754,9.537,9.537,0,0,1-.576-3.3,9.734,9.734,0,0,1,.562-3.3,8.252,8.252,0,0,1,1.626-2.754,7.83,7.83,0,0,1,2.593-1.885,8.269,8.269,0,0,1,3.464-.7,6.808,6.808,0,0,1,1.778.224,7.687,7.687,0,0,1,1.526.589,5.542,5.542,0,0,1,1.216.837,5.08,5.08,0,0,1,.823.948l.037.056,1.8-1.317-.035-.051a5.985,5.985,0,0,0-1.284-1.331,8.615,8.615,0,0,0-1.708-1.007,10.4,10.4,0,0,0-4.178-.879,10.828,10.828,0,0,0-4.163.8,9.989,9.989,0,0,0-5.529,5.543,11.043,11.043,0,0,0-.8,4.233,11.228,11.228,0,0,0,.781,4.233,9.825,9.825,0,0,0,5.5,5.545,11,11,0,0,0,4.2.8,9.9,9.9,0,0,0,2.516-.3,9.411,9.411,0,0,0,2.106-.823,8.159,8.159,0,0,0,1.678-1.205,8.384,8.384,0,0,0,1.239-1.454l.035-.053-1.687-1.084Z" transform="translate(-220.259 -121.032)"/></g><g transform="translate(344.759 189.012)"><path class="b" d="M310.88,177.5a2.29,2.29,0,0,0-.674.256l-.5.247c-.506.237-1.205.6-2.078,1.072a4.374,4.374,0,0,0-.6-1.3,1.073,1.073,0,0,0-1.046-.378,2.9,2.9,0,0,0-1.451.717c-.491.406-.953.82-1.374,1.232a8,8,0,0,1-.9.816.394.394,0,0,1-.091.079l-.023-.005a.631.631,0,0,1-.011-.065,4.086,4.086,0,0,1,.145-1.177.428.428,0,0,0,.14-.392.628.628,0,0,0-.025-.075,6.15,6.15,0,0,1,.783-1.782.505.505,0,0,0,.091-.34.369.369,0,0,0-.14-.249.413.413,0,0,0-.315-.068l-.137.042a1.865,1.865,0,0,0-.69.937,8.3,8.3,0,0,0-.431,1.251l-.583.193c-.576.194-1.41.424-2.475.685-.771.189-1.666.359-2.658.506l-.032.011c-.568.082-2.843.377-2.866.38-.105.012-.184.021-.24.023a1.378,1.378,0,0,1,.06-.24,31.408,31.408,0,0,1,2.533-6.379,15,15,0,0,1,2.747-3.739,7.43,7.43,0,0,1,1.358-1.02.121.121,0,0,0,.049-.049l.016-.028a.132.132,0,0,0,.014-.042.542.542,0,0,0-.135-.517.636.636,0,0,0-.59-.056l-.042.023c-.082.047-.165.093-.254.151a11.728,11.728,0,0,0-3.055,3.38,27.721,27.721,0,0,0-2.335,4.648,27.262,27.262,0,0,0-1.561,5.1l-.1.531a.14.14,0,0,0,0,.039.781.781,0,0,1-.024.252c-.007.035-.018.116-.042.457a4.8,4.8,0,0,0,.035.89,3.175,3.175,0,0,0,.534,1.494,1.522,1.522,0,0,0,1.16.654,1.315,1.315,0,0,0,.144-.009,2,2,0,0,0,1.386-.969,2.71,2.71,0,0,0,.459-1.911,2.749,2.749,0,0,0-1.181-1.906l1.219-.149c.815-.1,1.8-.266,2.924-.494a33.7,33.7,0,0,0,3.318-.887,4.087,4.087,0,0,0-.026,1.034,1.128,1.128,0,0,0,.24.634.6.6,0,0,0,.545.182,4.107,4.107,0,0,0,1.88-1.354c.375-.368.743-.708,1.093-1.009a1.861,1.861,0,0,1,.925-.5c.377-.042.631.315.773,1.065a.358.358,0,0,1-.019.184,2.41,2.41,0,0,1-.592.394,33.1,33.1,0,0,0-3.28,2.151c-2.824,2.034-4.65,3.938-5.428,5.661a3.921,3.921,0,0,0-.448,2.069,1.948,1.948,0,0,0,.941,1.475,2.716,2.716,0,0,0,1.472.4,3.943,3.943,0,0,0,.447-.028,6.271,6.271,0,0,0,3.579-2.052,15.764,15.764,0,0,0,2.977-4.354,13.282,13.282,0,0,0,1.305-5.075c0-.033,0-.137.161-.247,1-.562,1.8-.972,2.369-1.218a7.79,7.79,0,0,0,.806-.394c.219-.131.319-.287.3-.463a.478.478,0,0,0-.145-.289A.384.384,0,0,0,310.88,177.5Zm-4.1,3.161a13.308,13.308,0,0,1-1.307,4.45,14.975,14.975,0,0,1-2.716,3.93,5.385,5.385,0,0,1-3.04,1.783,2.011,2.011,0,0,1-1.246-.2,1.1,1.1,0,0,1-.566-.886,2.479,2.479,0,0,1-.009-.385,5.491,5.491,0,0,1,1.465-2.973,19.812,19.812,0,0,1,3.061-2.847,37.188,37.188,0,0,1,3.1-2.136C306.248,180.969,306.607,180.761,306.784,180.661Zm-14.173,3.823a2.232,2.232,0,0,1-.34-1.037,6.642,6.642,0,0,1,.068-1.748c.067-.3.21-.357.314-.37.021,0,.04,0,.061,0a1.364,1.364,0,0,1,.841.459,1.974,1.974,0,0,1,.629,1.221,1.745,1.745,0,0,1-.8,1.628.631.631,0,0,1-.291.142C292.93,184.8,292.767,184.7,292.611,184.483Z" transform="translate(-291.323 -163.034)"/><path class="b" d="M320.6,169.177a1.639,1.639,0,0,0-.4,1.107.526.526,0,0,0,.559.492c.086-.01.289-.067.307-.392l-.009-.06a.738.738,0,0,1,.156-.47.6.6,0,0,0,.149-.438.447.447,0,0,0-.168-.308.43.43,0,0,0-.319-.089A.453.453,0,0,0,320.6,169.177Z" transform="translate(-269.607 -162.267)"/><path class="b" d="M363.464,171.862a.961.961,0,0,0-.433.193,11.8,11.8,0,0,1-2.551,1.44,8.972,8.972,0,0,1-2.115.587c-.745.091-.878.032-.9.019a.441.441,0,0,1-.131-.307,2.182,2.182,0,0,0-.636-1.328,1.325,1.325,0,0,0-1.058-.477c-.293.035-.52.261-.676.683-.019.086-.049.089-.058.091l-.1.01a.564.564,0,0,0-.258.119.287.287,0,0,0-.039,0,5.926,5.926,0,0,0-2.181,1c-.92.592-1.8,1.19-2.617,1.773-.59.413-1.039.72-1.33.9a5.869,5.869,0,0,1-2.006.816c-.78.095-1.184-.2-1.275-.941a2.794,2.794,0,0,1,.093-1.044.89.89,0,0,0,.235-.144.435.435,0,0,0,.126-.359.5.5,0,0,0-.088-.221c.047-.1.089-.2.145-.3a2.041,2.041,0,0,1,1.447-1.233.787.787,0,0,1,.307,0c.046.014.047.026.049.035a.34.34,0,0,1-.016.126.569.569,0,0,0-.025.231c.014.117.1.266.433.3a.461.461,0,0,0,.371-.293.892.892,0,0,0,.072-.489.81.81,0,0,0-.408-.6,1.283,1.283,0,0,0-.865-.161,2.935,2.935,0,0,0-2.064,1.564,5.6,5.6,0,0,0-.462.922c-.026.012-.049.023-.077.033a34.4,34.4,0,0,0-3.973,1.694,2.443,2.443,0,0,1-.646.277c-.046,0-.058,0-.058,0a1.032,1.032,0,0,1-.107-.208,1.634,1.634,0,0,0-.249-.385,4.213,4.213,0,0,1-.277-.368.831.831,0,0,1-.135-.363.9.9,0,0,1,.137-.541.41.41,0,0,0,.058-.251.46.46,0,0,0-.526-.391,12.7,12.7,0,0,0-2.544,1.78c-.876.7-1.78,1.391-2.688,2.046a5.233,5.233,0,0,1-2.009,1.039c-.226.025-.326-.047-.361-.245a3.643,3.643,0,0,1,.14-1c.051-.224.11-.445.173-.664.354-.324.51-.589.482-.815a.4.4,0,0,0-.119-.235c.166-.37.293-.484.357-.517.277-.135.315-.31.3-.434a.632.632,0,0,0-.159-.352.379.379,0,0,0-.338-.147c-.27.033-.531.333-.82.946-.133.282-.256.578-.368.885a15.775,15.775,0,0,1-3.048,2.011,2.154,2.154,0,0,1-.717.224,1.328,1.328,0,0,1-.746-.117.957.957,0,0,1-.468-.666.262.262,0,0,1,.056-.214,1.494,1.494,0,0,1,.229-.214l.116-.1a27.287,27.287,0,0,0,3.574-4.32,20.332,20.332,0,0,0,2.609-4.941,4.2,4.2,0,0,0,.244-1.824,1.232,1.232,0,0,0-1.375-1.242,3.513,3.513,0,0,0-2.064,1.447,17.469,17.469,0,0,0-2.034,3.182,24.776,24.776,0,0,0-1.579,3.87,15.331,15.331,0,0,0-.717,3.63c0,.091-.016.151-.06.18a9.71,9.71,0,0,1-1.1.706,3.424,3.424,0,0,1-1.226.391c-.34.026-.354-.13-.363-.2a1,1,0,0,1,0-.23,1.3,1.3,0,0,0,0-.308.639.639,0,0,0-.086-.259l0,0a1.1,1.1,0,0,0,.391-.957,1.535,1.535,0,0,0-1.719-1.263l-.326.065a6.644,6.644,0,0,0-2.884,2.136,5.576,5.576,0,0,0-.972,1.661c-.123.172-.249.345-.389.529a5.89,5.89,0,0,1-1.254,1.2,3.786,3.786,0,0,1-1.757.645,2.988,2.988,0,0,1-2.591-.815,15.952,15.952,0,0,1-1.81-2.353l-.829-1.184c-.065-.089-.105-.151-.128-.187a1.347,1.347,0,0,1,.223-.053,10.952,10.952,0,0,0,5.135-2.495,17.389,17.389,0,0,0,3.59-4.1c.892-1.465,1.288-2.491,1.209-3.138a.685.685,0,0,0-.186-.431.436.436,0,0,0-.361-.124.455.455,0,0,0-.252.114.334.334,0,0,0-.109.324l.068.221c.061.51-.408,1.51-1.4,2.97a19.175,19.175,0,0,1-4.1,4.247,8.72,8.72,0,0,1-4.236,1.621,1.194,1.194,0,0,1-.657-.065.509.509,0,0,1-.254-.427l.005-.471a38.95,38.95,0,0,1,.955-6.736l.023-.149a.109.109,0,0,0,0-.033.373.373,0,0,0-.177-.3.461.461,0,0,0-.3-.061.483.483,0,0,0-.347.268,11.638,11.638,0,0,0-.475,2.211c-.231,1.314-.433,3-.6,5.026a.411.411,0,0,1-.158.41.5.5,0,0,0-.27.5.576.576,0,0,0,.13.31,1.668,1.668,0,0,1,.14.2.648.648,0,0,1,.07.235,6.848,6.848,0,0,1-.009,1.258,34.23,34.23,0,0,0,.1,5.24l.145,1.023a1,1,0,0,0,.286.624.585.585,0,0,0,.377.158c.019,0,.037,0,.056,0a.474.474,0,0,0,.279-.133.366.366,0,0,0,.1-.335l-.063-.179a6.16,6.16,0,0,1-.273-1.246,24.757,24.757,0,0,1-.161-2.672c-.014-1,0-1.882.032-2.617a8.272,8.272,0,0,1,.082-1.067c.194-.019.42.119.664.419a14.936,14.936,0,0,1,.918,1.286c.377.582.809,1.186,1.286,1.8a4.342,4.342,0,0,0,3.954,1.812,4.788,4.788,0,0,0,1.85-.61,5.324,5.324,0,0,0,1.216-.914c.131-.144.266-.3.4-.471a1.044,1.044,0,0,0,.753.242c.058,0,.119,0,.184-.009a2.97,2.97,0,0,0,1.221-.45c.385-.242.946-.646,1.664-1.2l.752-.554a1.134,1.134,0,0,0,1.388.93l.061-.007a3.706,3.706,0,0,0,1.214-.333,5.116,5.116,0,0,0,.743-.442.871.871,0,0,1,.35-.193c.016,0,.032,0,.053.081a1.624,1.624,0,0,0,.773.914,2.133,2.133,0,0,0,1.312.215,3.238,3.238,0,0,0,1.013-.315,13.538,13.538,0,0,0,1.305-.715c.314-.186.617-.382.911-.583a3.019,3.019,0,0,0-.079.937,1.281,1.281,0,0,0,.382.788,1.131,1.131,0,0,0,.969.249,3.915,3.915,0,0,0,1.491-.631c1.128-.739,2.451-1.691,3.931-2.826l1.141-.853a3.054,3.054,0,0,0,.585,1.044.847.847,0,0,1,.275.429.165.165,0,0,1-.067.161,1.709,1.709,0,0,1-.347.208,4.53,4.53,0,0,0-1.6,1.437,1.018,1.018,0,0,0-.177.638c.028.224.175.491.725.491h.021a2.932,2.932,0,0,0,1.335-.722,3.041,3.041,0,0,0,1.049-1.412c.021-.084.138-.27.689-.573a28.237,28.237,0,0,1,3.367-1.486c.105-.04.193-.075.284-.112a3.247,3.247,0,0,0,.005.7,1.857,1.857,0,0,0,.82,1.361,2.234,2.234,0,0,0,1.291.392,2.809,2.809,0,0,0,.34-.021,3.835,3.835,0,0,0,1.144-.335,27.344,27.344,0,0,0,3.108-1.983c.8-.55,1.554-1.049,2.25-1.484.268-.17.506-.3.724-.417-.058.163-.116.333-.166.517a3.569,3.569,0,0,0-.128,1.4,1.494,1.494,0,0,0,.454.937,1.117,1.117,0,0,0,.788.31,1.459,1.459,0,0,0,.173-.01,2.359,2.359,0,0,0,1.309-.671,3.321,3.321,0,0,0,.9-1.372c.049-.159.114-.168.116-.17.095,0,.189.007.284.016a3.17,3.17,0,0,0,.357.011,4.944,4.944,0,0,0,.494-.039,10.222,10.222,0,0,0,2.426-.674,11.767,11.767,0,0,0,2.758-1.577.665.665,0,0,0,.3-.555C363.923,172.061,363.846,171.865,363.464,171.862Zm-7.314,1.351a1.544,1.544,0,0,1,.257.543.907.907,0,0,1-.545-.673c-.012-.1-.005-.147-.009-.161C355.883,172.93,355.976,172.973,356.15,173.212Zm-1.128.387c.007,0,.049.026.121.151a2.784,2.784,0,0,0,.387.494,2.054,2.054,0,0,0,.7.459c.081.032.131.07.135.1a.264.264,0,0,1-.026.145l0,.005a2.215,2.215,0,0,1-1.486,1.359c-.17.021-.352-.009-.4-.385a2.913,2.913,0,0,1,.067-.93,6.5,6.5,0,0,1,.284-1C354.932,173.643,355.022,173.6,355.022,173.6Zm-23.741-7.516c.145,0,.3.072.354.429a4.253,4.253,0,0,1-.3,1.638,20.567,20.567,0,0,1-2.49,4.578,26.35,26.35,0,0,1-3.159,3.849,8.424,8.424,0,0,1,.254-1.363,25.868,25.868,0,0,1,1.8-4.942,13.782,13.782,0,0,1,1.994-3.078,3.13,3.13,0,0,1,1.484-1.105A.444.444,0,0,1,331.281,166.084ZM317.2,179.761a.627.627,0,0,1,.014-.187c.165-.231.322-.454.463-.657.221-.324.352-.522.4-.608a.55.55,0,0,0,.065-.284,8.11,8.11,0,0,1,.692-.743,3.827,3.827,0,0,1,1.81-1.049,1.274,1.274,0,0,1,.158-.011.6.6,0,0,1,.408.128.6.6,0,0,1,.221.385.816.816,0,0,1-.413.745,9.234,9.234,0,0,0-1.254.909,12.445,12.445,0,0,1-1.661,1.167,2.262,2.262,0,0,1-.7.284C317.209,179.863,317.2,179.8,317.2,179.761Z" transform="translate(-281.083 -165.164)"/></g></g></svg>