<svg xmlns="http://www.w3.org/2000/svg" width="136" height="136" viewBox="0 0 136 136"><defs><style>.a{fill:#fff;}.b{fill:#cb001e;}.c{fill:#1a1311;}.d{fill:none;}</style></defs><g transform="translate(-1001 -321)"><g transform="translate(1004 325)"><g transform="translate(22.015 0)"><rect class="a" width="84.059" height="84.059" transform="translate(0.623 0.623)"/><path class="b" d="M218.3,112.189V197.5h85.315V112.189H218.3m42.656,82.459a39.8,39.8,0,1,1,39.786-39.8A39.79,39.79,0,0,1,260.954,194.648Z" transform="translate(-218.298 -112.189)"/><path class="b" d="M260.066,114.99a38.964,38.964,0,1,0,38.958,38.966,38.966,38.966,0,0,0-38.958-38.966m20.868,14.084c2.4,2.008-6.875,10.522-14.311,17.38-.258.238-.5.041-.313-.255,5.469-8.517,12.236-19.135,14.624-17.125m-2.41-2.153a10.064,10.064,0,0,0-3.01,1.828c-1.6-.159-5.353.485-6.82,1.583-.4-1.783-2.86-4.718-4.186-5.615a10.172,10.172,0,0,0-1.132-3.337,32.648,32.648,0,0,1,15.148,5.541m-18.459-5.453c3.122,0,1.484,12.487.205,22.525-.046.348-.359.348-.411,0-1.283-10.038-2.934-22.525.205-22.525m-3.234-.088a9.977,9.977,0,0,0-1.127,3.337c-1.33.9-3.8,3.8-4.207,5.592-1.459-1.106-5.22-1.775-6.816-1.608a10.081,10.081,0,0,0-3.014-1.822,32.584,32.584,0,0,1,15.164-5.5m-17.643,7.694c2.4-2.011,9.157,8.608,14.624,17.125.194.3-.047.494-.312.255-7.433-6.852-16.718-15.36-14.312-17.38m-2.539,2.008a10.2,10.2,0,0,0,1.279,3.284c-.439,1.551-.46,5.353.369,6.991-1.828.087-5.13,2-6.249,3.162a9.9,9.9,0,0,0-3.482.519,32.855,32.855,0,0,1,8.084-13.955m13.638,20.942c.338.12.283.427-.065.4-10.121-.473-22.691-1.022-22.142-4.1s12.548.7,22.206,3.7M230.2,167.369a32.668,32.668,0,0,1-2.873-13.413c0-.822.043-1.645.1-2.464a9.652,9.652,0,0,0,3.084,1.68c.665,1.476,3.088,4.4,4.777,5.121-1.342,1.244-2.645,4.831-2.757,6.428a10.116,10.116,0,0,0-2.329,2.647m1.737,2.835c-1.57-2.722,10.071-7.527,19.4-11.439.327-.134.485.146.2.35-8.049,6.143-18.038,13.805-19.6,11.089m13.883,13.232a32.673,32.673,0,0,1-12.334-10.385,10.249,10.249,0,0,0,3.449-.69c1.441.7,5.189,1.376,6.934.845-.223,1.818,1.094,5.408,2.029,6.712a9.7,9.7,0,0,0-.078,3.518m3.135,1.04c-2.934-1.064,2.873-12.232,7.514-21.225.163-.311.46-.2.382.146-2.221,9.872-4.944,22.16-7.9,21.079m11.112,2.235a32.59,32.59,0,0,1-8.106-1.03,9.957,9.957,0,0,0,2.21-2.755c1.56-.392,4.867-2.271,5.858-3.815,1,1.543,4.3,3.445,5.858,3.85a9.985,9.985,0,0,0,2.2,2.74,32.449,32.449,0,0,1-8.024,1.009m11.108-2.235c-2.947,1.081-5.67-11.207-7.891-21.079-.074-.348.223-.457.382-.146,4.635,8.994,10.447,20.161,7.51,21.225m3.065-1a9.823,9.823,0,0,0-.076-3.542c.943-1.29,2.269-4.859,2.037-6.683,1.754.544,5.515-.124,6.957-.823a9.854,9.854,0,0,0,3.447.689,32.906,32.906,0,0,1-12.365,10.359M288.2,170.2c-1.579,2.709-11.567-4.963-19.612-11.089-.275-.211-.116-.485.205-.35,9.332,3.9,20.976,8.717,19.407,11.439m4.6-16.248a32.6,32.6,0,0,1-2.9,13.49,10.287,10.287,0,0,0-2.328-2.656c-.12-1.588-1.395-5.178-2.74-6.422,1.693-.71,4.151-3.644,4.8-5.109a9.872,9.872,0,0,0,3.084-1.684c.061.791.09,1.58.09,2.381m-.741-5.633c.54,3.075-12.039,3.632-22.147,4.1-.357.024-.408-.292-.068-.4,9.666-3,21.67-6.785,22.215-3.7m-3.963-3.742c-1.115-1.147-4.4-3.073-6.235-3.156.849-1.645.84-5.458.4-7.011a9.7,9.7,0,0,0,1.277-3.272,32.781,32.781,0,0,1,8.055,13.974A10.1,10.1,0,0,0,288.093,144.581Z" transform="translate(-217.411 -111.302)"/></g><g transform="translate(0 92.56)"><path class="c" d="M613.108,192.4c0,1.139-.686,1.63-1.779,1.63a1.861,1.861,0,0,1-1.371-.524,1.583,1.583,0,0,1-.337-1.048v-2.869h.922v2.8c0,.607.345.875.766.875.622,0,.877-.305.877-.831v-2.847h.922Z" transform="translate(-483.108 -158.365)"/><path class="c" d="M297.3,193.919h-.908v-3.562h-1.31v-.765H298.6v.765h-1.3Z" transform="translate(-294.17 -158.364)"/><path class="c" d="M307.691,191.977v1.942h-.9v-4.327h.9v1.639h1.684v-1.639h.905v4.327h-.905v-1.942Z" transform="translate(-301.201 -158.364)"/><path class="c" d="M322.545,190.356h-2.294v.906h2.107v.769h-2.107v1.122h2.4v.765h-3.29v-4.327h3.186Z" transform="translate(-308.753 -158.364)"/><path class="c" d="M338.444,189.3a2.289,2.289,0,1,1-2.077,2.281,2.023,2.023,0,0,1,2.077-2.281m0,3.8c.49,0,1.177-.305,1.177-1.515s-.687-1.511-1.177-1.511-1.173.3-1.173,1.511S337.96,193.092,338.444,193.092Z" transform="translate(-318.969 -158.187)"/><path class="c" d="M350.2,189.592h2.19a1.219,1.219,0,0,1,1.363,1.222,1.033,1.033,0,0,1-.671,1.03c.355.157.549.289.549,1.1,0,.633,0,.789.19.861v.116h-1a2.917,2.917,0,0,1-.095-.876c0-.59-.038-.819-.709-.819h-.935v1.695H350.2v-4.327m1.947,1.9c.471,0,.7-.161.7-.592,0-.228-.105-.567-.632-.567h-1.13v1.159Z" transform="translate(-327.276 -158.365)"/><rect class="c" width="0.906" height="4.327" transform="translate(27.843 31.227)"/><path class="c" d="M370.261,191.407h1.8v2.335h-.6l-.093-.544a1.583,1.583,0,0,1-1.344.657,2.016,2.016,0,0,1-1.993-2.264,2.082,2.082,0,0,1,2.114-2.294,1.72,1.72,0,0,1,1.9,1.46h-.9a.957.957,0,0,0-.95-.714c-.639,0-1.236.45-1.236,1.559,0,1.18.644,1.49,1.256,1.49a1.079,1.079,0,0,0,1.051-.955h-1Z" transform="translate(-337.991 -158.187)"/><rect class="c" width="0.903" height="4.327" transform="translate(35.493 31.227)"/><path class="c" d="M390.246,189.592h.839v4.327h-.9l-1.765-3.089h-.009v3.089h-.847v-4.327h.955l1.713,3.009h.018Z" transform="translate(-349.72 -158.364)"/><path class="c" d="M400.282,193.919h-.948l1.537-4.327h1.045l1.523,4.327h-.983l-.277-.892h-1.593l-.3.892m.544-1.64h1.1l-.536-1.711h-.013Z" transform="translate(-356.792 -158.365)"/><path class="c" d="M413.579,193.134h2.154v.784h-3.055v-4.327h.9Z" transform="translate(-364.808 -158.364)"/><path class="c" d="M429.629,192.408c0,.242.121.7.914.7.432,0,.9-.1.9-.561,0-.334-.322-.427-.779-.536l-.462-.109c-.7-.16-1.384-.317-1.384-1.272,0-.48.261-1.333,1.668-1.333,1.327,0,1.684.869,1.687,1.4h-.87c-.024-.194-.09-.654-.884-.654-.341,0-.753.13-.753.521,0,.341.276.413.46.448l1.052.266c.591.143,1.135.381,1.135,1.16,0,1.3-1.329,1.416-1.705,1.416-1.58,0-1.85-.909-1.85-1.447Z" transform="translate(-374.469 -158.187)"/><path class="c" d="M441.822,191.977v1.942h-.906v-4.327h.906v1.639h1.683v-1.639h.908v4.327h-.908v-1.942Z" transform="translate(-381.77 -158.364)"/><rect class="c" width="0.906" height="4.327" transform="translate(64.097 31.227)"/><path class="c" d="M461.886,189.592h.841v4.327h-.905l-1.765-3.089h-.01v3.089h-.84v-4.327h.949l1.713,3.009h.017Z" transform="translate(-392.757 -158.364)"/><path class="c" d="M473.785,192.666a1.2,1.2,0,0,1-1.342,1.36c-1.436,0-1.436-.918-1.436-1.742h.839c0,.68.046,1.013.532,1.013.471,0,.5-.3.5-.632v-3.074h.9Z" transform="translate(-399.845 -158.365)"/><path class="c" d="M485.241,192.4c0,1.139-.687,1.63-1.775,1.63a1.877,1.877,0,0,1-1.377-.524,1.588,1.588,0,0,1-.333-1.048v-2.869h.92v2.8c0,.607.349.875.771.875.621,0,.871-.305.871-.831v-2.847h.924Z" transform="translate(-406.301 -158.365)"/><path class="c" d="M495.38,193.919h-.907v-4.327h.907v1.762l1.654-1.762H498.2l-1.769,1.771,1.873,2.556h-1.164l-1.341-1.9-.42.433Z" transform="translate(-413.941 -158.364)"/><path class="c" d="M510.249,192.4c0,1.139-.683,1.63-1.773,1.63a1.866,1.866,0,0,1-1.375-.524,1.608,1.608,0,0,1-.339-1.048v-2.869h.926v2.8c0,.607.346.875.766.875.623,0,.874-.305.874-.831v-2.847h.921Z" transform="translate(-421.322 -158.365)"/><path class="c" d="M525.145,189.592h1.908c1.455,0,1.763,1.238,1.763,2.057,0,.932-.375,2.27-1.8,2.27h-1.871v-4.327m.886,3.575h.878c.738,0,.981-.739.981-1.45,0-1.277-.611-1.382-.992-1.382h-.866Z" transform="translate(-432.365 -158.365)"/><path class="c" d="M539.246,189.3a2.289,2.289,0,1,1-2.077,2.281,2.022,2.022,0,0,1,2.077-2.281m0,3.8c.486,0,1.173-.305,1.173-1.515s-.686-1.511-1.173-1.511-1.177.3-1.177,1.511S538.758,193.092,539.246,193.092Z" transform="translate(-439.587 -158.187)"/><path class="c" d="M553.575,189.592h.839v4.327h-.9l-1.765-3.089h-.014v3.089h-.845v-4.327h.953l1.721,3.009h.013Z" transform="translate(-447.828 -158.364)"/><path class="c" d="M564.571,193.919h-.907v-4.327h.907v1.762l1.653-1.762h1.165l-1.762,1.771,1.865,2.556h-1.161L565,192.02l-.427.433Z" transform="translate(-455.503 -158.364)"/><path class="c" d="M576.127,193.919h-.952l1.539-4.327h1.043l1.527,4.327H578.3l-.276-.892h-1.6l-.3.892m.541-1.64h1.1l-.533-1.711h-.016Z" transform="translate(-462.417 -158.365)"/><path class="c" d="M588.443,193.919h-.9v-3.562h-1.308v-.765h3.519v.765h-1.308Z" transform="translate(-469.059 -158.364)"/><path class="c" d="M598.307,192.408c.008.242.13.7.916.7.428,0,.905-.1.905-.561,0-.334-.327-.427-.783-.536l-.466-.109c-.7-.16-1.374-.317-1.374-1.272,0-.48.262-1.333,1.663-1.333,1.331,0,1.684.869,1.691,1.4h-.871c-.026-.194-.091-.654-.884-.654-.345,0-.75.13-.75.521,0,.341.276.413.454.448l1.061.266c.583.143,1.127.381,1.127,1.16,0,1.3-1.321,1.416-1.7,1.416-1.577,0-1.85-.909-1.85-1.447Z" transform="translate(-475.791 -158.187)"/><path class="c" d="M292.8,131.987a14.733,14.733,0,0,0,8.19,2.836c3.526,0,5.642-1.711,5.642-3.928a3.4,3.4,0,0,0-.623-1.922c-.839-1.244-2.98-2.117-6.041-3.645-4.145-2.068-6.291-3.772-6.291-6.943,0-3.893,3.3-6.546,9.167-6.546a31.639,31.639,0,0,1,5.894.657v4.144a10.1,10.1,0,0,0-6.3-2.29c-2.945,0-4.689,1.418-4.689,3.271,0,2.182,2.043,3.275,5.561,4.944a24.367,24.367,0,0,1,5.059,2.8,5.923,5.923,0,0,1,2.333,4.691c0,4.034-4.072,7.6-10.185,7.6a22.152,22.152,0,0,1-6.553-1.2Z" transform="translate(-292.798 -111.66)"/><path class="c" d="M359.048,147.188c-3.418,0-4.775-1.14-4.775-4.02v-5.025c-4.956,1.349-7.306,1.846-7.306,4.057,0,1.715,1.5,2.959,3.914,2.959a10.739,10.739,0,0,0,2.541-.393l-1.929,2.608a9.9,9.9,0,0,1-2.212.281c-3.526,0-5.951-2.31-5.951-5.308a4.4,4.4,0,0,1,1.215-3.072c1.281-1.278,3.211-1.524,5.779-2.132,2.773-.64,3.92-1.109,3.92-2.385,0-1.427-1.43-2.424-3.853-2.424a10.766,10.766,0,0,0-4.53,1.319l2.285-3.635a23.268,23.268,0,0,1,3.139-.254,6.874,6.874,0,0,1,4.23,1.224c1.758,1.271,1.97,2.988,1.97,5.551v4.1c0,3.058.066,4.059,3.028,4.279Z" transform="translate(-323.152 -122.425)"/><path class="c" d="M397.99,134.308c3.917,0,6.382-2.538,6.382-6.526,0-3.631-2.117-6.058-5.106-6.058a8.987,8.987,0,0,0-3.127.712l1.817-3.248a12.964,12.964,0,0,1,1.915-.17c4.851,0,8.022,3.353,8.022,8.44,0,5.67-3.955,9.45-10.512,9.45a36.6,36.6,0,0,1-6.84-.864,3.878,3.878,0,0,0,1.208-3.2V114.6a3.9,3.9,0,0,0-1.208-3.211h4.527v22.169A5.8,5.8,0,0,0,397.99,134.308Z" transform="translate(-351.51 -111.39)"/><path class="c" d="M443.446,138.282c0-3.419,2.31-6.027,5.552-6.027,3.389,0,5.888,2.857,5.888,6.845,0,3.7-2.312,6.27-5.561,6.27-3.461,0-5.879-2.812-5.879-7.089M439.7,139a8.859,8.859,0,0,0,2.68,6.267,8.676,8.676,0,0,0,6.554,2.572,10.054,10.054,0,0,0,6.847-2.605,8.956,8.956,0,0,0-6.381-15.469,10.081,10.081,0,0,0-6.84,2.642A8.864,8.864,0,0,0,439.7,139Z" transform="translate(-381.038 -122.425)"/><path class="c" d="M491.3,125.5v-1.241c2.743-.25,4.456-2.6,4.56-6.637H496.9v5.428h5.015v3.169a3.64,3.64,0,0,0-2.592-.719H496.9v8.232c0,2.965.93,4.387,3.1,4.387a5.42,5.42,0,0,0,1.569-.252l-1.714,2.5c-.39.033-.749.071-1.1.071-3.422,0-5.128-1.747-5.128-5.1V125.5Z" transform="translate(-412.035 -115.133)"/><path class="c" d="M527.634,135.795a4.416,4.416,0,0,1,4.707-4.06,4.208,4.208,0,0,1,4.345,4.06h-9.052m-.255,2.389H540.47c-.074-5.488-3.179-8.775-7.91-8.775-5.182,0-8.953,3.786-8.953,9.2,0,5.278,4.1,9.053,9.695,9.053a15.658,15.658,0,0,0,5.278-1.105l1.891-3.28a13.308,13.308,0,0,1-6.136,1.814C530.341,145.089,527.562,142.489,527.379,138.184Z" transform="translate(-431.441 -122.214)"/><path class="c" d="M578.135,147.541h-5.712a3.824,3.824,0,0,0,1.214-3.171V133.81a3.871,3.871,0,0,0-1.214-3.195h.4a22.311,22.311,0,0,0,3.881-.4l.146,2.713a7.266,7.266,0,0,1,5.449-2.713,5.968,5.968,0,0,1,6.346,6.2v7.949a3.793,3.793,0,0,0,1.216,3.171h-5.746a3.793,3.793,0,0,0,1.213-3.171v-6.063c0-3.563-1.176-5.272-4.163-5.272-3.176,0-4.244,1.566-4.244,5.015v6.321A3.794,3.794,0,0,0,578.135,147.541Z" transform="translate(-460.764 -122.699)"/></g></g></g><rect class="d" width="136" height="136"/></svg>