<svg xmlns="http://www.w3.org/2000/svg" width="60.047" height="60.047" viewBox="0 0 60.047 60.047"><g transform="translate(-1 -1)"><path d="M60.078,6.811a.968.968,0,0,0,.968-.968V1.968A.968.968,0,0,0,60.078,1H13.59a.968.968,0,0,0-.968.968V5.842a.968.968,0,0,0,.968.968h.968v16a8.7,8.7,0,0,0-1.907,15.469c-.015.162-.03.324-.03.487H9.716A8.726,8.726,0,0,0,1,47.488v12.59a.968.968,0,0,0,.968.968H28.118a.968.968,0,0,0,.968-.968V52.8a4.812,4.812,0,0,1,1.419-3.425l13.51-13.51H60.078a.968.968,0,0,0,.968-.968V31.023a.968.968,0,0,0-.968-.968H59.11V6.811ZM14.559,2.937H59.11V4.874H14.559Zm2.905,21.307a6.723,6.723,0,0,1,1.493.171,8.766,8.766,0,0,1-6.336,2.734h-.713A6.772,6.772,0,0,1,17.464,24.244Zm18,7.748-1.937,1.937H25.672a8.6,8.6,0,0,0,.451-1.937Zm7.43,2.256-.25.249-3.473-3.473.25-.25A2.456,2.456,0,0,1,42.9,34.247ZM17.464,39.74a8.652,8.652,0,0,0,2.857-.491,2.895,2.895,0,0,1-5.714,0A8.652,8.652,0,0,0,17.464,39.74Zm4.812-1.456a8.8,8.8,0,0,0,2.431-2.418h6.884l-1.487,1.487a4.817,4.817,0,0,1-3.426,1.419H22.307c0-.163-.015-.325-.03-.487Zm-1.419-13.12A6.822,6.822,0,0,1,23.5,27.944a8.8,8.8,0,0,1-3.665-1.7A10.663,10.663,0,0,0,20.858,25.164ZM10.685,31.023a6.737,6.737,0,0,1,.286-1.937h1.651a10.677,10.677,0,0,0,5.634-1.63A10.745,10.745,0,0,0,24.159,30a6.776,6.776,0,1,1-13.474,1.022ZM29.136,48.006A6.736,6.736,0,0,0,27.149,52.8v6.31H10.685V48.456H8.748V59.11H2.937V47.488a6.788,6.788,0,0,1,6.779-6.779h3.316a4.833,4.833,0,0,0,8.864,0h4.782a6.739,6.739,0,0,0,4.794-1.985l6.33-6.33,3.473,3.473ZM59.11,33.929H45.3a3.571,3.571,0,0,0,.2-1.937H59.11Zm-1.937-3.874H44.8a4.389,4.389,0,0,0-6.746-.65l-.651.65H26.124A8.683,8.683,0,0,0,16.5,22.364V6.811H57.173Z"/><path d="M27.779,22.559A6.779,6.779,0,1,0,21,15.779,6.788,6.788,0,0,0,27.779,22.559Zm0-1.937a4.813,4.813,0,0,1-3.554-1.581l3.823-2.293h4.476a4.852,4.852,0,0,1-4.745,3.874Zm4.745-5.811H28.748V11.035A4.858,4.858,0,0,1,32.524,14.811Zm-5.713-3.776v4.2L23.23,17.38a4.783,4.783,0,0,1-.293-1.6A4.852,4.852,0,0,1,26.811,11.035Z" transform="translate(-0.63 -0.252)"/><path d="M39.968,23.527h15.5a.968.968,0,0,0,.968-.968V18.685a.968.968,0,0,0-.968-.968H54.5V14.811H52.559v2.905H50.622V12.874H48.685v4.842H46.748V10.937H44.811v6.779H42.874V9H40.937v8.716h-.968a.968.968,0,0,0-.968.968v3.874A.968.968,0,0,0,39.968,23.527Zm.968-3.874H54.5V21.59H40.937Z" transform="translate(-1.197 -0.252)"/><path d="M47,26h9.685v1.937H47Z" transform="translate(-1.449 -0.788)"/><path d="M28,26h6.779v1.937H28Z" transform="translate(-0.851 -0.788)"/><path d="M25.779,47H19.968a.968.968,0,0,0-.968.968v2.905a3.874,3.874,0,1,0,7.748,0V47.968A.968.968,0,0,0,25.779,47Zm-.968,3.874a1.937,1.937,0,1,1-3.874,0V48.937h3.874Z" transform="translate(-0.567 -1.449)"/></g></svg>