<svg xmlns="http://www.w3.org/2000/svg" width="1355.181" height="817.799" viewBox="0 0 1355.181 817.799"><defs><style>.a{opacity:0.826;}.b,.e{fill:#ff7350;}.b,.c{fill-rule:evenodd;}.c,.g{fill:#ebebeb;}.d{fill:#ffe375;}.f{fill:#ffefaf;}</style></defs><g class="a" transform="translate(-9.351 -6.659)"><path class="b" d="M33.778,235.212c2.194-2.194,4.4-4.378,6.578-6.583,3.2-3.228,3.212-7.038.013-10.261q-6.154-6.2-12.36-12.358c-3.061-3.034-6.837-3.078-9.865-.087q-6.733,6.656-13.392,13.388c-3.207,3.241-3.2,7.351.019,10.617q5.963,6.046,12.005,12.012c3.15,3.117,7.076,3.136,10.188.078,2.29-2.25,4.543-4.537,6.814-6.806" transform="translate(7 268.761)"/><path class="c" d="M105.407,56.093c.358,3.015.693,6.031,1.076,9.043,1.256,9.846-4.969,18.318-14.829,20.159A18.1,18.1,0,0,1,70.439,71.827c-.838-3.484-1.286-7.06-1.946-10.59a24.768,24.768,0,0,0-27.752-19.87,49.9,49.9,0,0,1-9.866.771c-7.578-.477-12.568-5.249-14.1-12.892a17.482,17.482,0,0,1,2.01-12.317c2.231-3.823,6.786-6.09,10.87-7.407A68.7,68.7,0,0,1,49.544,6.664a63,63,0,0,1,21.272,3.3,50.34,50.34,0,0,1,30.507,29.28c2.115,5.338,4.219,16.817,4.083,16.852" transform="translate(2.888 0)"/><circle class="d" cx="12.721" cy="12.721" r="12.721" transform="translate(87.016 177.34)"/><circle class="e" cx="17.491" cy="17.491" r="17.491" transform="translate(1196.77 478.452)"/><rect class="f" width="95.405" height="31.802" rx="10" transform="matrix(0.819, -0.574, 0.574, 0.819, 1182.432, 150.615)"/><rect class="g" width="143.108" height="31.802" rx="10" transform="matrix(0.819, -0.574, 0.574, 0.819, 49.496, 728.493)"/><rect class="g" width="131.977" height="43.993" rx="13.833" transform="matrix(0.819, 0.574, -0.574, 0.819, 1256.423, 712.722)"/></g></svg>