<svg xmlns="http://www.w3.org/2000/svg" width="20.684" height="18.563" viewBox="0 0 20.684 18.563"><defs><style>.a{opacity:0.795;}</style></defs><g class="a" transform="translate(-2.25 -2.75)"><path d="M22.139,12.841H3.046a.8.8,0,0,1,0-1.591H22.139a.8.8,0,0,1,0,1.591Z" transform="translate(0 0.516)"/><path d="M21.835,18.841H8.046a.8.8,0,0,1,0-1.591H21.835a.8.8,0,0,1,0,1.591Z" transform="translate(0.304 0.88)"/><path d="M5.167,18.841H3.046a.8.8,0,0,1,0-1.591H5.167a.8.8,0,0,1,0,1.591Z" transform="translate(0 0.88)"/><path d="M6.637,20.523a2.387,2.387,0,1,1,2.387-2.387A2.387,2.387,0,0,1,6.637,20.523Zm0-3.182a.8.8,0,1,0,.8.8A.806.806,0,0,0,6.637,17.341Z" transform="translate(0.121 0.789)"/><path d="M21.167,5.841H19.046a.8.8,0,0,1,0-1.591h2.121a.8.8,0,0,1,0,1.591Z" transform="translate(0.972 0.091)"/><path d="M16.835,5.841H3.046a.8.8,0,0,1,0-1.591H16.835a.8.8,0,0,1,0,1.591Z" transform="translate(0 0.091)"/><path d="M17.637,7.523a2.387,2.387,0,1,1,2.387-2.387A2.387,2.387,0,0,1,17.637,7.523Zm0-3.182a.8.8,0,1,0,.8.8.806.806,0,0,0-.8-.8Z" transform="translate(0.789 0)"/></g></svg>