<svg xmlns="http://www.w3.org/2000/svg" width="40.352" height="40.352" viewBox="0 0 40.352 40.352"><path d="M54.92,241.295a5.625,5.625,0,1,0-5.625,5.625A5.649,5.649,0,0,0,54.92,241.295Zm-9.966,0a4.4,4.4,0,1,1,4.4,4.4A4.423,4.423,0,0,1,44.954,241.295Z" transform="translate(-40.124 -216.534)"/><path d="M12.717,378.729H5.686A5.715,5.715,0,0,0,0,384.415v3.3a.578.578,0,0,0,.611.611h17.18a.578.578,0,0,0,.611-.611v-3.3A5.714,5.714,0,0,0,12.717,378.729Zm4.463,8.376H1.223v-2.69a4.488,4.488,0,0,1,4.463-4.463h7.031a4.488,4.488,0,0,1,4.463,4.463v2.69Z" transform="translate(0 -347.976)"/><path d="M314.729,241.988a5.625,5.625,0,1,0,5.625-5.564A5.649,5.649,0,0,0,314.729,241.988Zm9.966,0a4.4,4.4,0,1,1-4.4-4.4A4.423,4.423,0,0,1,324.695,241.988Z" transform="translate(-289.173 -217.226)"/><path d="M283.024,378.729h-7.031a5.715,5.715,0,0,0-5.686,5.686v3.3a.578.578,0,0,0,.611.611H288.1a.578.578,0,0,0,.611-.611v-3.3A5.715,5.715,0,0,0,283.024,378.729Zm4.463,8.376H271.53v-2.69a4.488,4.488,0,0,1,4.463-4.463h7.031a4.488,4.488,0,0,1,4.463,4.463v2.69Z" transform="translate(-248.358 -347.976)"/><path d="M18.525,0H1.223A1.226,1.226,0,0,0,0,1.223V13.267A1.226,1.226,0,0,0,1.223,14.49H2.874L1.406,18.647a.58.58,0,0,0,.245.672.642.642,0,0,0,.734,0l5.93-4.83H18.4a1.226,1.226,0,0,0,1.223-1.223V1.1A1.1,1.1,0,0,0,18.525,0ZM18.4,13.328H8.07a.656.656,0,0,0-.367.122L3.3,17.058l.978-2.935a.594.594,0,0,0-.061-.55.556.556,0,0,0-.489-.245H1.223V1.223H18.4V13.328Z"/><path d="M270.29,19.32a.614.614,0,0,0,.917-.795L269.8,14.49h1.59a1.254,1.254,0,0,0,1.284-1.284V1.284A1.254,1.254,0,0,0,271.391,0H254.272a1.254,1.254,0,0,0-1.284,1.284V13.267a1.254,1.254,0,0,0,1.284,1.284H264.3Zm-16.08-6.053V1.284a.06.06,0,0,1,.061-.061H271.33a.06.06,0,0,1,.061.061V13.267a.06.06,0,0,1-.061.061h-2.446a.755.755,0,0,0-.489.245.574.574,0,0,0-.061.55l1.039,2.935-4.4-3.607a.869.869,0,0,0-.367-.122Z" transform="translate(-232.445)"/><path d="M105.637,121.224a.919.919,0,0,0-.673.245.893.893,0,0,0,0,1.345,1.047,1.047,0,0,0,1.345,0,.893.893,0,0,0,0-1.345A.919.919,0,0,0,105.637,121.224Z" transform="translate(-96.161 -111.381)"/><path d="M86.227,34.658a1.162,1.162,0,0,1,.795-.306,1.288,1.288,0,0,1,.795.306,1.162,1.162,0,0,1,.306.795,1.288,1.288,0,0,1-.306.795l-.917.917a2.032,2.032,0,0,0-.489.672,2.281,2.281,0,0,0-.122.734V39.3h1.406v-.55a1.127,1.127,0,0,1,.245-.795l.245-.245.367-.367.306-.306c.061-.061.183-.245.367-.428a1.969,1.969,0,0,0,.428-1.223,2.3,2.3,0,0,0-.672-1.712,4.266,4.266,0,0,0-1.956-.55,2.665,2.665,0,0,0-1.834.611,2.446,2.446,0,0,0-.856,1.712h1.529A1.6,1.6,0,0,1,86.227,34.658Z" transform="translate(-77.484 -30.439)"/><path d="M334.151,49.5a.594.594,0,0,0-.856-.061l-5.747,4.83L325.9,51.823a.619.619,0,1,0-1.039.672l2.018,3.057a.619.619,0,0,0,.428.245h.061a.656.656,0,0,0,.367-.122l6.3-5.258C334.334,50.111,334.395,49.744,334.151,49.5Z" transform="translate(-298.384 -45.281)"/></svg>