<svg xmlns="http://www.w3.org/2000/svg" width="27.508" height="27.508" viewBox="0 0 27.508 27.508"><defs><style>.a{fill:#fff;}</style></defs><g transform="translate(8402 12003.446)"><g transform="translate(-8402 -12003.446)"><path class="a" d="M18.912,0H8.6A8.6,8.6,0,0,0,0,8.6V18.912a8.6,8.6,0,0,0,8.6,8.6H18.912a8.6,8.6,0,0,0,8.6-8.6V8.6A8.6,8.6,0,0,0,18.912,0Zm6.017,18.912a6.024,6.024,0,0,1-6.017,6.017H8.6a6.024,6.024,0,0,1-6.017-6.017V8.6A6.024,6.024,0,0,1,8.6,2.579H18.912A6.024,6.024,0,0,1,24.929,8.6Z"/><path class="a" d="M134.877,128a6.877,6.877,0,1,0,6.877,6.877A6.877,6.877,0,0,0,134.877,128Zm0,11.175a4.3,4.3,0,1,1,4.3-4.3A4.3,4.3,0,0,1,134.877,139.175Z" transform="translate(-121.123 -121.123)"/><circle class="a" cx="0.916" cy="0.916" r="0.916" transform="translate(20.231 5.445)"/></g></g></svg>