<svg xmlns="http://www.w3.org/2000/svg" width="25.891" height="27.235" viewBox="0 0 25.891 27.235"><defs><style>.a{fill:#fff;}</style></defs><g transform="translate(-12.582)"><path class="a" d="M274.806,62.4a2.4,2.4,0,1,0-2.4,2.4A2.406,2.406,0,0,0,274.806,62.4Zm-3.2,0a.8.8,0,1,1,.8.8A.8.8,0,0,1,271.6,62.4Z" transform="translate(-243.671 -56.796)"/><path class="a" d="M35.83,9.612H33.459a10.552,10.552,0,0,0,.88-4.005,5.607,5.607,0,1,0-11.215,0A10.553,10.553,0,0,0,24,9.612H15.225L12.582,27.235H38.474Zm-10.1,11.215H35.892l.721,4.806h-19.9Zm3-19.225a4.01,4.01,0,0,1,4.005,4.005c0,3.458-2.781,7.025-4.005,8.428-1.224-1.4-4.005-4.969-4.005-8.428A4.01,4.01,0,0,1,28.732,1.6Zm-.566,14.184.566.566.566-.566a22.3,22.3,0,0,0,3.387-4.572H34.45l1.2,8.01H25.86l-8.01-8.01h6.929A22.3,22.3,0,0,0,28.166,15.786ZM16.472,12.1,24.2,19.828l-9.656,5.15Z"/></g></svg>