<svg xmlns="http://www.w3.org/2000/svg" width="41.703" height="41.703" viewBox="0 0 41.703 41.703"><path d="M63.836,0H78.805a2.053,2.053,0,0,1,1.967,2.105v9.428a2.053,2.053,0,0,1-1.967,2.105H63.836a2.048,2.048,0,0,1-1.967-2.105V9.826L58.684,8.2a1.4,1.4,0,0,1,0-2.466c1.062-.545,2.124-1.08,3.186-1.625v-2A2.047,2.047,0,0,1,63.836,0ZM78.805,1.3H63.836a.751.751,0,0,0-.665.8v2.4a.636.636,0,0,1-.36.572c-1.182.61-2.355,1.219-3.537,1.819a.078.078,0,0,0,0,.138l3.482,1.792a.644.644,0,0,1,.415.6v2.105a.751.751,0,0,0,.665.8H78.805a.751.751,0,0,0,.665-.8V2.105a.751.751,0,0,0-.665-.8Z" transform="translate(-39.069)"/><path d="M83.1,11.392a.651.651,0,0,1,0-1.3h9.77a.651.651,0,0,1,0,1.3Zm0,5.772a.651.651,0,0,1,0-1.3h5.8a.651.651,0,0,1,0,1.3Zm0-2.89a.651.651,0,0,1,0-1.3h9.77a.651.651,0,0,1,0,1.3Z" transform="translate(-55.594 -6.803)"/><path d="M8.385,12.328a3.39,3.39,0,0,1-.517-.249l-.1.748,2.142,2.41,2.133-2.41-.1-.748a3.681,3.681,0,0,1-.508.249,4.655,4.655,0,0,1-3.047,0Zm-1.7-1.2-.065-.055A4.483,4.483,0,0,1,5.135,7.637V4.645A4.474,4.474,0,0,1,9.909,0a4.467,4.467,0,0,1,4.765,4.645V7.637a4.484,4.484,0,0,1-1.487,3.435l-.065.055.212,1.57,1.118.979,3.167,1.376a3.647,3.647,0,0,1,1.607,1.367,3.816,3.816,0,0,1,.582,2.05v1.8a.651.651,0,0,1-.646.656.658.658,0,0,1-.656-.656v-1.8a2.424,2.424,0,0,0-.379-1.348,2.323,2.323,0,0,0-1.025-.877l-2.595-1.127-1.09,3.408a.65.65,0,0,1-.813.425.721.721,0,0,1-.185-.1L10.555,17.49V20.27a.65.65,0,0,1-.646.656.659.659,0,0,1-.656-.656V17.49L7.4,18.857l-.194.092a.654.654,0,0,1-.813-.425L5.31,15.117l-2.6,1.127a2.327,2.327,0,0,0-1.025.877A2.5,2.5,0,0,0,1.3,18.468v8.172a.65.65,0,0,1-.646.656A.658.658,0,0,1,0,26.641V18.469a3.746,3.746,0,0,1,.591-2.05,3.572,3.572,0,0,1,1.6-1.367l3.167-1.376L6.473,12.7Zm1.08-.776a.443.443,0,0,1,.093.092,3.447,3.447,0,0,0,1,.674,3.528,3.528,0,0,0,2.1,0,3.458,3.458,0,0,0,1-.674.5.5,0,0,1,.1-.092c.093-.083.185-.166.268-.25a3.2,3.2,0,0,0,1.053-2.465V6.252A4.237,4.237,0,0,1,8.93,4.71a2.484,2.484,0,0,1-2.484.822V7.637A3.188,3.188,0,0,0,7.49,10.1Zm-.739,3.592-.573.5.9,2.826,1.6-1.163Zm5.753,0L10.869,16.1l1.588,1.163.9-2.826ZM3.823,22.283a.658.658,0,0,1,.656-.656.65.65,0,0,1,.646.656v4.358a.65.65,0,0,1-.646.656.658.658,0,0,1-.656-.656ZM6.464,4.2A1.477,1.477,0,0,0,8.339,3.186a.643.643,0,0,1,1.219.046s.822,2.373,3.814,1.69V4.645A3.174,3.174,0,0,0,9.909,1.3,3.155,3.155,0,0,0,6.464,4.2Z" transform="translate(0 0)"/><path d="M67.484,61.341a4.947,4.947,0,0,1-1.773-3.916v-3.38a5.3,5.3,0,0,1,10.592,0v3.38a4.941,4.941,0,0,1-1.764,3.916l.259,2.687,4.885,1.838A4.058,4.058,0,0,1,82.1,69.643v4.368a.658.658,0,0,1-.656.656.65.65,0,0,1-.646-.656V69.643a2.731,2.731,0,0,0-1.625-2.576L73.966,65.1a9.87,9.87,0,0,0-5.892-.166l-5.236,2.133a2.738,2.738,0,0,0-1.616,2.576v4.368a.658.658,0,0,1-.656.656.65.65,0,0,1-.646-.656V69.643a4.057,4.057,0,0,1,2.419-3.777l4.9-1.995ZM73,61.987h-3.98a.329.329,0,0,0-.323.3l-.111,1.182a11.238,11.238,0,0,1,4.867.138l-.129-1.321a.316.316,0,0,0-.323-.3ZM68.961,60.7h4.091a1.409,1.409,0,0,0,.794-.471A3.734,3.734,0,0,0,75,57.426v-3.38a4,4,0,0,0-7.988,0v3.38a3.745,3.745,0,0,0,1.321,2.946A1.05,1.05,0,0,0,68.961,60.7Z" transform="translate(-40.399 -32.964)"/><path d="M12.188,70.3l1.08-6.187A2.146,2.146,0,0,1,15.3,62.384h10.98A1.619,1.619,0,0,1,27.9,64.333l-1.385,7.9a2.284,2.284,0,0,1-2.17,1.847H10.221A1.615,1.615,0,0,1,8.6,72.93L8.152,71.11A.654.654,0,0,1,8.78,70.3h3.407Zm8.292-2.743a.643.643,0,0,1,.646.646.651.651,0,0,1-.646.656.658.658,0,0,1-.656-.656A.651.651,0,0,1,20.48,67.555Zm-7.314,4.673a.424.424,0,0,0,.434.545H24.34a.963.963,0,0,0,.887-.767l1.385-7.9a.323.323,0,0,0-.333-.425H15.3a.823.823,0,0,0-.748.646Zm-1.21-.628H9.611l.249,1.016a.326.326,0,0,0,.36.157H11.9a2.144,2.144,0,0,1-.019-.767Z" transform="translate(-5.483 -42.059)"/></svg>