<svg xmlns="http://www.w3.org/2000/svg" width="40" height="25.347" viewBox="0 0 40 25.347"><defs><style>.a,.b{fill:#fff;}.b{font-size:14px;font-family:SDJeongche830i, Sandoll Jeongche;}</style></defs><g transform="translate(-1380 -514.089)"><g transform="translate(1380 420.307)"><g transform="translate(0 93.782)"><path class="a" d="M37.191,93.782H33.24a.586.586,0,0,0,0,1.172h3.951a1.639,1.639,0,0,1,1.637,1.637V116.32a1.638,1.638,0,0,1-1.637,1.637H2.809a1.639,1.639,0,0,1-1.637-1.637v-7.639L14.9,94.954h16a.586.586,0,0,0,0-1.172H2.809A2.812,2.812,0,0,0,0,96.591V116.32a2.812,2.812,0,0,0,2.809,2.809H37.191A2.812,2.812,0,0,0,40,116.32V96.591A2.812,2.812,0,0,0,37.191,93.782ZM1.172,96.591a1.639,1.639,0,0,1,1.637-1.637H8.725l-7.553,7.553Zm0,7.574,9.211-9.211h2.859L1.172,107.023Z" transform="translate(0 -93.782)"/></g></g><text class="b" transform="translate(1400 532)"><tspan x="-10.906" y="0">Gift</tspan></text></g></svg>