<svg xmlns="http://www.w3.org/2000/svg" width="37" height="40" viewBox="0 0 37 40"><defs><style>.a,.c{fill:none;}.a{stroke:#fff;stroke-width:2px;}.b{stroke:none;}</style></defs><g transform="translate(-935.742 -258.104)"><g class="a" transform="translate(942.742 258.104)"><circle class="b" cx="11" cy="11" r="11"/><circle class="c" cx="11" cy="11" r="10"/></g><g class="a" transform="translate(935.742 280.104)"><path class="b" d="M18,0h1A18,18,0,0,1,37,18v0a0,0,0,0,1,0,0H0a0,0,0,0,1,0,0v0A18,18,0,0,1,18,0Z"/><path class="c" d="M16.2,1h4.6A15.2,15.2,0,0,1,36,16.2v0a.8.8,0,0,1-.8.8H1.8a.8.8,0,0,1-.8-.8v0A15.2,15.2,0,0,1,16.2,1Z"/></g></g></svg>