<svg xmlns="http://www.w3.org/2000/svg" width="61.132" height="47.267" viewBox="0 0 61.132 47.267"><defs><style>.a{fill:#b70010;}.b{fill:#090405;}</style></defs><g transform="translate(-116.899 -497.27)"><g transform="translate(133.041 497.27)"><g transform="translate(0 0)"><path class="a" d="M175.455,497.27a14.727,14.727,0,1,0,14.424,14.724,14.576,14.576,0,0,0-14.424-14.724m13.019,12.382c.223,1.292-8.234,2.029-12.9,2.322,4.484-1.356,12.677-3.619,12.9-2.322m-4.119-5.751a7.275,7.275,0,0,0,.531-1.379,13.706,13.706,0,0,1,2.018,2.725,13.89,13.89,0,0,1,1.3,3.146,6.87,6.87,0,0,0-1.436-.22l-2.572-1.332Zm-.4-2.244c.985.844-5.029,6.957-8.42,10.243,2.581-3.98,7.432-11.089,8.42-10.243m-3.977-2.344a13.368,13.368,0,0,1,2.979,1.555,7.013,7.013,0,0,0-1.238.773l-2.809.668-1.732-2.355a7.276,7.276,0,0,0-.462-1.4,13.222,13.222,0,0,1,3.262.763m-4.52-.814c1.286,0,.528,8.63,0,13.372-.53-4.742-1.29-13.372,0-13.372m-4.522.814a13.222,13.222,0,0,1,3.262-.763,7.258,7.258,0,0,0-.462,1.4L172,502.31l-2.809-.668a7.006,7.006,0,0,0-1.239-.773,13.363,13.363,0,0,1,2.98-1.555m-3.976,2.342c.985-.843,5.839,6.264,8.42,10.244-3.392-3.285-9.408-9.4-8.42-10.244m-2.951,3.591a13.69,13.69,0,0,1,2.018-2.725,7.25,7.25,0,0,0,.531,1.379l.156,2.94-2.572,1.332a6.87,6.87,0,0,0-1.436.22,13.892,13.892,0,0,1,1.3-3.146m-1.57,4.4c.223-1.293,8.417.967,12.9,2.322-4.667-.291-13.125-1.025-12.9-2.322m0,4.688a14.008,14.008,0,0,1-.17-3.412,6.97,6.97,0,0,0,1.275.708l1.971,2.15-1.132,2.708a7.116,7.116,0,0,0-.961,1.111,13.935,13.935,0,0,1-.983-3.265m1.57,4.4c-.643-1.136,7.057-4.782,11.345-6.686-3.758,2.839-10.7,7.826-11.345,6.686m5.761,5.447a13.439,13.439,0,0,1-2.809-1.857,13.61,13.61,0,0,1-2.279-2.5,6.921,6.921,0,0,0,1.423-.294l2.864.353.838,2.818a7.342,7.342,0,0,0-.037,1.482m1.166.486c-1.208-.449,2.4-8.294,4.48-12.566-1.091,4.641-3.269,13.016-4.48,12.566m4.522.814a13.171,13.171,0,0,1-3.32-.421,7.172,7.172,0,0,0,.9-1.159l2.416-1.609,2.416,1.609a7.194,7.194,0,0,0,.9,1.159,13.169,13.169,0,0,1-3.32.421m4.52-.813c-1.208.449-3.388-7.925-4.48-12.566,2.086,4.271,5.692,12.115,4.48,12.566m3.977-2.344a13.42,13.42,0,0,1-2.809,1.857,7.314,7.314,0,0,0-.037-1.482l.838-2.818,2.864-.353a6.927,6.927,0,0,0,1.423.294,13.6,13.6,0,0,1-2.279,2.5m2.951-3.589c-.643,1.137-7.585-3.848-11.344-6.686,4.288,1.9,11.989,5.546,11.344,6.686m.588-1.139a7.136,7.136,0,0,0-.961-1.111l-1.132-2.708,1.971-2.15a6.947,6.947,0,0,0,1.275-.708,14.1,14.1,0,0,1-1.153,6.677" transform="translate(-161.031 -497.27)"/></g></g><g transform="translate(116.899 533.118)"><g transform="translate(0 1.783)"><path class="b" d="M120.4,604.249c-.962-.428-1.792-.8-1.792-1.6a1.361,1.361,0,0,1,1.53-1.435,4.219,4.219,0,0,1,2.492.889v-1.43l-.24-.138a5.429,5.429,0,0,0-2.058-.383,3.48,3.48,0,0,0-2.183.7,2.124,2.124,0,0,0-.9,1.795c0,1.627,1.446,2.256,2.608,2.762l.186.081c1.047.412,1.578.938,1.578,1.563,0,.982-.632,1.481-1.877,1.481a6.133,6.133,0,0,1-2.842-1.058l.5,1.747.24.138a5.567,5.567,0,0,0,2.1.426c2,0,3.238-1.047,3.238-2.733,0-1.659-1.371-2.269-2.58-2.806" transform="translate(-116.899 -600.152)"/></g><g transform="translate(17.396 0)"><path class="b" d="M164.972,595.276h-.512a1.516,1.516,0,0,1,.512,1.129v5.472a5.162,5.162,0,0,0,1.148,3.542,3.782,3.782,0,0,0,5.666,0,5.078,5.078,0,0,0,1.17-3.542,5.407,5.407,0,0,0-1.063-3.416,3.222,3.222,0,0,0-2.743-1.4,3.388,3.388,0,0,0-2.311.892,2.434,2.434,0,0,0-.4.425l-.032.043-.073.1v-3.24Zm5.893,9.227a2.415,2.415,0,0,1-3.825,0,4.359,4.359,0,0,1-.707-2.624c0-2.132,1.079-3.566,2.686-3.566,1.565,0,2.576,1.4,2.576,3.566a4.166,4.166,0,0,1-.73,2.625" transform="translate(-164.46 -595.276)"/></g><g transform="translate(27.76 1.783)"><path class="b" d="M196.774,600.152a3.6,3.6,0,0,0-2.811,1.3,5.912,5.912,0,0,0,0,7.061,3.734,3.734,0,0,0,5.622,0,5.911,5.911,0,0,0,0-7.062,3.6,3.6,0,0,0-2.811-1.3m1.846,7.466a2.315,2.315,0,0,1-3.691,0,4.914,4.914,0,0,1,0-5.3,2.315,2.315,0,0,1,3.691,0,4.913,4.913,0,0,1,0,5.3" transform="translate(-192.793 -600.152)"/></g><g transform="translate(43.205 1.783)"><path class="b" d="M239,600.152a3.6,3.6,0,0,0-2.811,1.3,5.912,5.912,0,0,0,0,7.061,3.7,3.7,0,0,0,5.273.322,4.239,4.239,0,0,0,1.4-2.45H241.48A2.461,2.461,0,0,1,239,608.535c-1.414,0-2.435-1.2-2.6-3.046l0-.044h6.562v-.863a4.556,4.556,0,0,0-1.149-3.112A3.6,3.6,0,0,0,239,600.152m-2.575,4.113c.176-1.965,1.419-2.845,2.575-2.845s2.4.88,2.575,2.845Z" transform="translate(-235.018 -600.152)"/></g><g transform="translate(36.764 0)"><path class="b" d="M220.281,603.146V598.6h2.208v-1.253h-2.208v-2.075h-.939a4.76,4.76,0,0,1-.13,1.022,2.972,2.972,0,0,1-.292.754,2.172,2.172,0,0,1-.166.252,1.837,1.837,0,0,1-1.343.736v.569h1.509v4.515a3.247,3.247,0,0,0,.921,2.515,4,4,0,0,0,2.735.841v-1.253c-1.63-.01-2.3-.615-2.3-2.082" transform="translate(-217.411 -595.276)"/></g><g transform="translate(7.707 1.783)"><path class="b" d="M145.958,608.248v.033l0,0V604.97a5.162,5.162,0,0,0-1.149-3.542,3.652,3.652,0,0,0-2.833-1.276,3.693,3.693,0,0,0-2.854,1.3,5.127,5.127,0,0,0-1.149,3.52,5.646,5.646,0,0,0,1.041,3.436,3.33,3.33,0,0,0,2.766,1.381,3.388,3.388,0,0,0,2.311-.892,2.443,2.443,0,0,0,.4-.425l.031-.043.074-.1V609.6h1.884a1.633,1.633,0,0,1-.519-1.357m-4.05.288c-1.565,0-2.577-1.4-2.577-3.566a4.169,4.169,0,0,1,.73-2.625,2.308,2.308,0,0,1,1.912-.94,2.269,2.269,0,0,1,1.89.962,4.181,4.181,0,0,1,.73,2.6c0,2.132-1.079,3.566-2.686,3.566" transform="translate(-137.97 -600.152)"/></g><g transform="translate(53.187 1.783)"><path class="b" d="M270.255,609.6a1.491,1.491,0,0,1-.507-1.071v-4.244a4.409,4.409,0,0,0-1.017-3.049,3.919,3.919,0,0,0-5.4,0,4.409,4.409,0,0,0-1.017,3.049V609.6h1.89a1.632,1.632,0,0,1-.519-1.357v.033l-.01.009v-4c0-1.8.882-2.878,2.358-2.878s2.358,1.076,2.358,2.878V609.6Z" transform="translate(-262.31 -600.152)"/></g></g></g></svg>