<svg xmlns="http://www.w3.org/2000/svg" width="33.981" height="31.218" viewBox="0 0 33.981 31.218"><defs><style>.a{fill:#fff;}</style></defs><g transform="translate(-55.1 -77.39)"><path class="a" d="M68.717,88.8c-.013,0-.024,0-.037,0l-1.139,3.25h2.313Zm0,0c-.013,0-.024,0-.037,0l-1.139,3.25h2.313ZM72.09,77.39c-9.384,0-16.99,6.013-16.99,13.432,0,4.829,3.223,9.06,8.06,11.428-.356,1.327-1.287,4.808-1.473,5.551-.23.924.339.912.711.663.292-.195,4.656-3.161,6.539-4.441a21.516,21.516,0,0,0,3.154.232c9.384,0,16.99-6.015,16.99-13.433S81.474,77.39,72.09,77.39ZM63.728,94.508a.826.826,0,0,1-.823.825h-.18a.828.828,0,0,1-.825-.825V88.556H60.284a.845.845,0,0,1,0-1.69h4.969a.845.845,0,1,1,0,1.69H63.728Zm8.134.781a.822.822,0,0,1-1.047-.5l-.421-1.2H67l-.421,1.2a.821.821,0,1,1-1.55-.545l2.436-6.53a1.063,1.063,0,0,1,.047-.112,1.182,1.182,0,0,1,1.2-.853,1.217,1.217,0,0,1,1.16.714l.008.007,2.477,6.774A.823.823,0,0,1,71.862,95.289Zm5.332-.011H73.817a.767.767,0,0,1-.768-.768.728.728,0,0,1,.015-.146.9.9,0,0,1-.015-.147V87.665a.917.917,0,1,1,1.833,0v6.079h2.311a.767.767,0,0,1,0,1.534Zm7.22-.107a.818.818,0,0,1-1.148-.163l-2.436-3.2-.524.523v2.084a.917.917,0,0,1-1.833,0V87.665a.917.917,0,1,1,1.833,0v2.388l2.88-2.88a.807.807,0,1,1,1.142,1.141L82,90.64l2.575,3.382A.82.82,0,0,1,84.414,95.17ZM68.681,88.8l-1.139,3.25h2.313L68.717,88.8C68.7,88.8,68.694,88.8,68.681,88.8Zm.037,0c-.013,0-.024,0-.037,0l-1.139,3.25h2.313Zm0,0c-.013,0-.024,0-.037,0l-1.139,3.25h2.313Z"/><path class="a" d="M68.717,88.8c-.013,0-.024,0-.037,0l-1.139,3.25h2.313Zm0,0c-.013,0-.024,0-.037,0l-1.139,3.25h2.313ZM72.09,77.39c-9.384,0-16.99,6.013-16.99,13.432,0,4.829,3.223,9.06,8.06,11.428-.356,1.327-1.287,4.808-1.473,5.551-.23.924.339.912.711.663.292-.195,4.656-3.161,6.539-4.441a21.516,21.516,0,0,0,3.154.232c9.384,0,16.99-6.015,16.99-13.433S81.474,77.39,72.09,77.39ZM63.728,94.508a.826.826,0,0,1-.823.825h-.18a.828.828,0,0,1-.825-.825V88.556H60.284a.845.845,0,0,1,0-1.69h4.969a.845.845,0,1,1,0,1.69H63.728Zm8.134.781a.822.822,0,0,1-1.047-.5l-.421-1.2H67l-.421,1.2a.821.821,0,1,1-1.55-.545l2.436-6.53a1.063,1.063,0,0,1,.047-.112,1.182,1.182,0,0,1,1.2-.853,1.217,1.217,0,0,1,1.16.714l.008.007,2.477,6.774A.823.823,0,0,1,71.862,95.289Zm5.332-.011H73.817a.767.767,0,0,1-.768-.768.728.728,0,0,1,.015-.146.9.9,0,0,1-.015-.147V87.665a.917.917,0,1,1,1.833,0v6.079h2.311a.767.767,0,0,1,0,1.534Zm7.22-.107a.818.818,0,0,1-1.148-.163l-2.436-3.2-.524.523v2.084a.917.917,0,0,1-1.833,0V87.665a.917.917,0,1,1,1.833,0v2.388l2.88-2.88a.807.807,0,1,1,1.142,1.141L82,90.64l2.575,3.382A.82.82,0,0,1,84.414,95.17ZM68.681,88.8l-1.139,3.25h2.313L68.717,88.8C68.7,88.8,68.694,88.8,68.681,88.8Zm.037,0c-.013,0-.024,0-.037,0l-1.139,3.25h2.313Zm0,0c-.013,0-.024,0-.037,0l-1.139,3.25h2.313Z"/></g></svg>