<svg xmlns="http://www.w3.org/2000/svg" width="36.141" height="39.445" viewBox="0 0 36.141 39.445"><defs><style>.a{fill:#fff;}</style></defs><g transform="translate(-18.343 -16)"><path class="a" d="M54.4,304.343a.661.661,0,0,0-.579-.343,8.38,8.38,0,0,0-6.805,3.5l-.874,1.224-5.64,1.88h-.28l4.818-4.818a.661.661,0,0,0-.467-1.128H43.107a11.394,11.394,0,0,0-8.054,3.3H31.482a7.282,7.282,0,0,0-5.183,2.147l-7.956,7.956.934.934,7.956-7.956a5.969,5.969,0,0,1,4.248-1.76h3.844a.661.661,0,0,0,.467-.193l.137-.137a10.081,10.081,0,0,1,7.049-2.972l-6.138,6.138.934.934,1.128-1.128h1.708a.661.661,0,0,0,.209-.034l5.946-1.982a.661.661,0,0,0,.329-.243l1-1.4a7.058,7.058,0,0,1,4.452-2.831L48.751,311.4l-8.937,3.83H30.7a.661.661,0,0,0-.467.193l-3.3,3.3.934.934,3.11-3.11H39.95a.661.661,0,0,0,.26-.053l9.249-3.964a.661.661,0,0,0,.3-.253l4.624-7.267A.661.661,0,0,0,54.4,304.343Z" transform="translate(0 -264.217)"/><path class="a" d="M112.661,24.588h.661V41.765a.661.661,0,0,0,.661.661h7.267V41.1h-6.606V24.588h7.267V40.443h1.321V24.588h1.321V39.783h1.321V24.588h7.267V40.443h1.321V24.588h.661a.661.661,0,0,0,.661-.661V21.285a.661.661,0,0,0-.661-.661h-3.145A2.971,2.971,0,0,0,129.507,16a4.943,4.943,0,0,0-3.71,1.676.66.66,0,0,0-.584-.354H122.57a.66.66,0,0,0-.585.354A4.943,4.943,0,0,0,118.276,16a2.971,2.971,0,0,0-2.47,4.624h-3.145a.661.661,0,0,0-.661.661v2.643a.661.661,0,0,0,.661.661Zm12.552-2.643v1.321H122.57V21.946Zm9.249,1.321h-7.928V21.946h7.928Zm-4.955-5.946a1.652,1.652,0,0,1,0,3.3h-3.619A3.638,3.638,0,0,1,129.507,17.321Zm-4.955,1.321v1.982h-1.321V18.643Zm-7.928.33a1.653,1.653,0,0,1,1.652-1.652,3.638,3.638,0,0,1,3.619,3.3h-3.619A1.653,1.653,0,0,1,116.624,18.973Zm-3.3,2.973h7.928v1.321h-7.928Z" transform="translate(-85.923 0)"/></g></svg>