<svg xmlns="http://www.w3.org/2000/svg" width="37.711" height="42.203" viewBox="0 0 37.711 42.203"><g transform="translate(-27.25)"><path d="M146.55,437H141.6a1.855,1.855,0,0,0,0,3.709h4.946a1.855,1.855,0,1,0,0-3.709Zm0,2.473H141.6a.618.618,0,0,1,0-1.236h4.946a.618.618,0,1,1,0,1.236Z" transform="translate(-103.227 -400.979)"/><path d="M64.343,4.946H54.451V3.091A3.1,3.1,0,0,0,51.36,0H30.341A3.1,3.1,0,0,0,27.25,3.091V39.112A3.1,3.1,0,0,0,30.341,42.2H51.36a3.1,3.1,0,0,0,3.091-3.091V23.492h9.891a.618.618,0,0,0,.618-.618V5.564A.618.618,0,0,0,64.343,4.946ZM39,22.256a1.865,1.865,0,0,1,.731-1.475L47.318,15l2.168,1.652a3.1,3.1,0,0,0,3.747,0L55.4,15l7.592,5.784a1.865,1.865,0,0,1,.731,1.475H39Zm0-13.6,7.3,5.564L39,19.783Zm17.426,5.564,7.3-5.564V19.783Zm6.572-6.562-10.51,8.007a1.86,1.86,0,0,1-2.248,0L39.726,7.657A1.865,1.865,0,0,1,39,6.188V6.182H63.724a1.865,1.865,0,0,1-.731,1.475ZM53.215,39.112a1.857,1.857,0,0,1-1.855,1.855H30.341a1.857,1.857,0,0,1-1.855-1.855V3.091a1.857,1.857,0,0,1,1.855-1.855H51.36a1.857,1.857,0,0,1,1.855,1.855V4.946H51.978V3.091a.618.618,0,0,0-.618-.618H30.341a.618.618,0,0,0-.618.618V21.637a.618.618,0,0,0,1.236,0V3.709H50.742V4.946H38.378a.618.618,0,0,0-.618.618v17.31a.618.618,0,0,0,.618.618H50.742V33.548H30.959V24.11a.618.618,0,0,0-1.236,0V34.166a.618.618,0,0,0,.618.618H51.36a.618.618,0,0,0,.618-.618V23.492h1.236Z"/></g></svg>