<svg xmlns="http://www.w3.org/2000/svg" width="15.346" height="28.386" viewBox="0 0 15.346 28.386"><defs><style>.a{fill:#fff;}</style></defs><g transform="translate(-28.374 -9.999)"><path class="a" d="M32.654,26.025H29.128c-.555,0-.753-.2-.753-.758q0-2.152,0-4.3c0-.551.21-.762.758-.762h3.522c0-.1,0-2.169,0-3.123a7.788,7.788,0,0,1,.969-4,5.882,5.882,0,0,1,3.169-2.632A7.833,7.833,0,0,1,39.507,10q1.745,0,3.49,0c.5,0,.722.222.723.725q0,2.024,0,4.048c0,.509-.213.713-.725.719-.953.01-1.908,0-2.86.042A1.3,1.3,0,0,0,38.667,17c-.023,1.053-.01,2.107-.01,3.2h4.107c.581,0,.78.2.78.784q0,2.14,0,4.281c0,.576-.187.76-.772.76H38.645V37.573c0,.616-.194.812-.8.812H33.4c-.537,0-.746-.209-.746-.745,0-3.761,0-11.482,0-11.614Z"/></g></svg>