<svg xmlns="http://www.w3.org/2000/svg" width="52.751" height="47.056" viewBox="0 0 52.751 47.056"><defs><style>.a{fill:#406c5d;}.b{fill:#1a1311;}</style></defs><g transform="translate(-354.6 -501.114)"><path class="a" d="M410.336,524.868l-11.454-12.314v-3.982l13.407,14.417a13.016,13.016,0,0,1-1.953,1.88m-11.454,2.215v-3.743l3.941,4.237c-.128,0-.256.01-.386.01a12.822,12.822,0,0,1-3.555-.5m-5.818-3.557,4.751-5.108V522.4l-2.7,2.9a12.863,12.863,0,0,1-2.055-1.771m-3.3-11.123,8.046-8.65v3.882l-8.143,8.755a12.661,12.661,0,0,1,.1-3.986m.994,7.734a12.749,12.749,0,0,1-.962-2.946l8.013-8.615v3.98Zm7.052-6.641v3.982l-5.18,5.569a12.881,12.881,0,0,1-1.567-2.3Zm0,13.231a13.077,13.077,0,0,1-2.152-1.073l2.152-2.314Zm0-24.04v.122l-7.753,8.336a12.941,12.941,0,0,1,7.753-8.459m13.927,3.128-2.819,2.867-1.74-1.871,2.616-2.662a12.955,12.955,0,0,1,1.942,1.666M413.98,509a12.716,12.716,0,0,1,.966,2.656l-1.672,1.7-1.74-1.869Zm-2.882,2.017-1.739-1.869,2.813-2.862a12.945,12.945,0,0,1,1.492,2.121Zm-4.254-8.416a12.754,12.754,0,0,1,2.414,1.184l-2.511,2.552-1.739-1.869ZM404.57,504l-2.021-2.172a12.8,12.8,0,0,1,3.618.551Zm-5.689-1.193v-.478a12.633,12.633,0,0,1,2.267-.439l13.973,15.021a12.822,12.822,0,0,1-.729,2.573Zm0,.941,15.233,16.377a12.824,12.824,0,0,1-1.419,2.353l-13.814-14.85Zm7.844,23.1a12.814,12.814,0,0,1-3.073.68l-4.771-5.132v-3.981Zm-7.844-9.373v-3.982l10.936,11.756a12.8,12.8,0,0,1-2.448,1.353Zm16.406-1.953-1.576-1.693,1.4-1.42a12.905,12.905,0,0,1,.209,2.3c0,.274-.011.545-.028.815m-12.851-14.408a13.592,13.592,0,1,0,13.593,13.593,13.607,13.607,0,0,0-13.593-13.593" transform="translate(-21.461)"/><g transform="translate(354.6 536.013)"><path class="b" d="M384.352,597.269a.738.738,0,1,1-.738-.738.738.738,0,0,1,.738.738" transform="translate(-372.321 -595.811)"/><path class="b" d="M448.318,611.654v-5.665a3.14,3.14,0,0,1,.868-2.41,3.72,3.72,0,0,1,2.577-.806v1.2c-1.535.009-2.163.589-2.163,1.995v5.686" transform="translate(-413.333 -599.723)"/><path class="b" d="M483.343,611.626a1.439,1.439,0,0,1-.478-1.027v-3.9a4.27,4.27,0,0,0-.958-2.923,3.649,3.649,0,0,0-5.092,0,4.268,4.268,0,0,0-.958,2.923v4.927h1.781a1.578,1.578,0,0,1-.489-1.3v.031l-.009.009V606.7c0-1.727.83-2.758,2.221-2.758s2.222,1.031,2.222,2.758v4.927Z" transform="translate(-430.592 -599.703)"/><path class="b" d="M400.232,602.833a2.4,2.4,0,1,1-4.764,0v-1.266a2.4,2.4,0,1,1,4.764,0Zm-2.382-5.181a3.592,3.592,0,0,0-2.5.993V594.6H393.59a1.579,1.579,0,0,1,.489,1.3v-.031l0,0v5.7c0,.265.014,1.551.039,1.707a4.1,4.1,0,0,0,.568,1.656,3.928,3.928,0,0,0,.663.811v-.009a3.607,3.607,0,0,0,2.5,1.021,3.767,3.767,0,0,0,3.768-3.767V601.42a3.768,3.768,0,0,0-3.768-3.767" transform="translate(-379.035 -594.603)"/><path class="b" d="M422.233,606.7a2.4,2.4,0,1,1,4.765,0v1.266a2.4,2.4,0,1,1-4.765,0Zm2.382,5.181a3.591,3.591,0,0,0,2.5-.993v.749h1.763a1.578,1.578,0,0,1-.489-1.3v-.367l0,0v-2.01c0-.265-.014-1.551-.04-1.707a4.1,4.1,0,0,0-.567-1.656,3.942,3.942,0,0,0-.663-.812v.009a3.606,3.606,0,0,0-2.5-1.021,3.767,3.767,0,0,0-3.767,3.767v1.572a3.767,3.767,0,0,0,3.767,3.767" transform="translate(-396.118 -599.723)"/><path class="b" d="M362.088,606.019v-3.657a4.269,4.269,0,0,0-.958-2.922,3.321,3.321,0,0,0-2.546-1.035,3.432,3.432,0,0,0-2.219.729v-3.289H354.6a1.463,1.463,0,0,1,.482,1.082v5.341c0,.032,0,.062,0,.094V607.3h1.772a1.573,1.573,0,0,1-.489-1.291v-3.652c0-1.726.83-2.757,2.221-2.757s2.222,1.031,2.222,2.757V607.3h1.772a1.57,1.57,0,0,1-.489-1.285" transform="translate(-354.6 -595.381)"/><path class="b" d="M383.118,602.671v8.911h1.772a1.571,1.571,0,0,1-.489-1.285v-7.626Z" transform="translate(-372.472 -599.659)"/><path class="b" d="M465.871,597.269a.738.738,0,1,1-.738-.738.738.738,0,0,1,.738.738" transform="translate(-423.41 -595.811)"/><path class="b" d="M464.637,602.671v8.911h1.771a1.57,1.57,0,0,1-.489-1.285v-7.626Z" transform="translate(-423.561 -599.659)"/></g></g></svg>