<?xml version="1.0" encoding="utf-8"?>
<!-- Generator: Adobe Illustrator 24.2.1, SVG Export Plug-In . SVG Version: 6.00 Build 0)  -->
<svg version="1.1" id="레이어_1" xmlns="http://www.w3.org/2000/svg" xmlns:xlink="http://www.w3.org/1999/xlink" x="0px"
	 y="0px" viewBox="0 0 118.4 48.1" style="enable-background:new 0 0 118.4 48.1;" xml:space="preserve">
<style type="text/css">
	.st0{fill:#fff;}
</style>
<g>
	<path class="st0" d="M22.4,18.5c-2.7,0-3.8,2.3-4.3,3.5v-3.4l-2.6,2.1V32h2.6v-9c1.4-3.2,3.2-2,4.1-1.1l3-2
		C24.6,19.1,23.8,18.5,22.4,18.5z"/>
	<path class="st0" d="M84.9,18.5c-2.7,0-3.8,2.3-4.3,3.5v-3.4l-2.6,2.1V32h2.6v-9c1.4-3.2,3.2-2,4.1-1.1l3-2
		C87.2,19.1,86.4,18.5,84.9,18.5z"/>
	<path class="st0" d="M44.1,20.7l2.7-2.1v2.7c0.3-0.3,0.6-0.7,0.9-1c0.3-0.4,0.7-0.7,1.1-1c0.4-0.3,0.8-0.5,1.3-0.7
		c0.5-0.2,1-0.3,1.6-0.3c0.8,0,1.5,0.2,2.2,0.5c0.6,0.3,1.2,0.8,1.7,1.4c0.5,0.6,0.8,1.2,1.1,2c0.2,0.8,0.4,1.6,0.4,2.5
		c0,1.1-0.2,2.1-0.5,3.1c-0.3,0.9-0.7,1.7-1.3,2.4c-0.6,0.7-1.3,1.2-2.1,1.6c-0.8,0.4-1.7,0.6-2.7,0.6c-0.4,0-0.7,0-1-0.1
		c-0.3,0-0.6-0.1-0.9-0.2c-0.3-0.1-0.6-0.2-0.8-0.3c-0.3-0.1-0.5-0.3-0.8-0.5v4.8h-2.7V20.7z M46.8,28.4c0,0.4,0.1,0.8,0.3,1.1
		c0.2,0.4,0.4,0.7,0.7,0.9c0.3,0.3,0.7,0.5,1.1,0.6c0.4,0.2,0.9,0.2,1.4,0.2c0.5,0,1-0.1,1.4-0.4c0.4-0.3,0.8-0.6,1.1-1.1
		c0.3-0.5,0.6-1,0.8-1.7c0.2-0.7,0.3-1.4,0.3-2.2c0-1-0.1-1.9-0.3-2.6c-0.2-0.7-0.4-1.4-0.7-1.8c-0.3-0.5-0.7-0.9-1.1-1.1
		c-0.4-0.2-0.9-0.4-1.4-0.4c-0.4,0-0.8,0.1-1.1,0.2c-0.4,0.1-0.7,0.3-1,0.5c-0.3,0.2-0.6,0.4-0.9,0.7c-0.3,0.3-0.5,0.5-0.7,0.8V28.4
		z"/>
	<polygon class="st0" points="95.5,23.5 101.5,18.6 99.8,18.6 93.1,24 93.1,12.1 90.4,14.2 90.4,32 93.1,32 93.1,24.6 99.5,32 
		102.9,32 	"/>
	<g>
		<polygon class="st0" points="38.6,21.6 29.2,29 29,27.7 37.1,21.3 		"/>
		<path class="st0" d="M38.4,28c-0.3,0.4-0.7,0.7-1.1,1c-0.4,0.3-0.9,0.6-1.4,0.7c-0.5,0.2-1.1,0.3-1.7,0.3c-0.7,0-1.3-0.2-1.9-0.5
			c-0.6-0.3-1.1-0.8-1.5-1.3c-0.4-0.6-0.7-1.2-1-2c-0.2-0.8-0.3-1.6-0.3-2.5c0-0.7,0-1.1,0-1.1c0-0.5,0.2-1,0.3-1.4
			c0.2-0.4,0.4-0.8,0.7-1.1c0.3-0.3,0.6-0.6,1-0.8c0.4-0.2,0.7-0.3,1.1-0.3c0.5,0,0.9,0.1,1.3,0.3c0.4,0.2,0.8,0.4,1.1,0.8
			c0.3,0.3,0.6,0.7,0.7,1.1c0.2,0.4,0.3,0.9,0.3,1.4c0,0.1,0,0.3,0,0.5l2.7-1.8c-0.3-0.5-0.6-1-1.1-1.5c-0.5-0.5-1.1-0.9-1.9-1.2
			c-0.7-0.3-1.5-0.5-2.4-0.5c-1,0-1.9,0.2-2.7,0.6c-0.8,0.4-1.5,0.9-2.1,1.6c-0.6,0.7-1,1.4-1.3,2.4c-0.3,0.9-0.5,1.9-0.5,3
			c0,0.9,0.2,1.7,0.5,2.5c0.3,0.8,0.8,1.5,1.4,2c0.6,0.6,1.3,1,2.1,1.4c0.8,0.3,1.6,0.5,2.5,0.5c0.7,0,1.4-0.1,2-0.4
			c0.7-0.3,1.3-0.6,1.9-1.1c0.6-0.4,1.1-1,1.5-1.6c0.4-0.6,0.7-1.2,0.9-1.9l-0.7-0.3C38.9,27.2,38.7,27.6,38.4,28z"/>
	</g>
	<g>
		<polygon class="st0" points="72.4,21.6 63,29 62.9,27.7 70.9,21.3 		"/>
		<path class="st0" d="M72.3,28c-0.3,0.4-0.7,0.7-1.1,1c-0.4,0.3-0.9,0.6-1.4,0.7c-0.5,0.2-1.1,0.3-1.7,0.3c-0.7,0-1.3-0.2-1.9-0.5
			c-0.6-0.3-1.1-0.8-1.5-1.3c-0.4-0.6-0.7-1.2-1-2c-0.2-0.8-0.3-1.6-0.3-2.5c0-0.7,0-1.1,0-1.1c0-0.5,0.2-1,0.3-1.4
			c0.2-0.4,0.4-0.8,0.7-1.1c0.3-0.3,0.6-0.6,1-0.8c0.4-0.2,0.7-0.3,1.1-0.3c0.5,0,0.9,0.1,1.3,0.3c0.4,0.2,0.8,0.4,1.1,0.8
			c0.3,0.3,0.6,0.7,0.7,1.1c0.2,0.4,0.3,0.9,0.3,1.4c0,0.1,0,0.3,0,0.5l2.7-1.8c-0.3-0.5-0.6-1-1.1-1.5c-0.5-0.5-1.1-0.9-1.9-1.2
			c-0.7-0.3-1.5-0.5-2.4-0.5c-1,0-1.9,0.2-2.7,0.6c-0.8,0.4-1.5,0.9-2.1,1.6c-0.6,0.7-1,1.4-1.3,2.4c-0.3,0.9-0.5,1.9-0.5,3
			c0,0.9,0.2,1.7,0.5,2.5c0.3,0.8,0.8,1.5,1.4,2c0.6,0.6,1.3,1,2.1,1.4c0.8,0.3,1.6,0.5,2.5,0.5c0.7,0,1.4-0.1,2-0.4
			c0.7-0.3,1.3-0.6,1.9-1.1c0.6-0.4,1.1-1,1.5-1.6c0.4-0.6,0.7-1.2,0.9-1.9l-0.7-0.3C72.8,27.2,72.6,27.6,72.3,28z"/>
	</g>
</g>
</svg>
