<svg xmlns="http://www.w3.org/2000/svg" width="101.812" height="19.5" viewBox="0 0 101.812 19.5"><defs><style>.a{fill:#fff;}</style></defs><g transform="translate(674.385 -747.7)"><path class="a" d="M-661.183,774.51l-7.036-7.564V764.5l8.236,8.856a8,8,0,0,1-1.2,1.154m-7.036,1.361v-2.3l2.421,2.6c-.079,0-.157.006-.237.006a7.877,7.877,0,0,1-2.184-.31m-3.574-2.185,2.918-3.138v2.446l-1.656,1.779a7.885,7.885,0,0,1-1.262-1.088m-2.025-6.833,4.943-5.314v2.384l-5,5.378a7.906,7.906,0,0,1-.069-1.033,7.942,7.942,0,0,1,.129-1.416m.611,4.751a7.855,7.855,0,0,1-.591-1.81l4.923-5.292v2.445Zm4.332-4.08v2.446l-3.182,3.421a7.921,7.921,0,0,1-.963-1.412Zm0,8.128a8.038,8.038,0,0,1-1.322-.659l1.322-1.422Zm0-14.767v.075l-4.763,5.121a7.95,7.95,0,0,1,4.763-5.2m8.555,1.921-1.732,1.761-1.069-1.149,1.607-1.635a7.96,7.96,0,0,1,1.193,1.023m1.376,1.959a7.815,7.815,0,0,1,.594,1.631l-1.027,1.044-1.069-1.148Zm-1.77,1.239-1.068-1.148,1.728-1.758a7.942,7.942,0,0,1,.917,1.3Zm-2.614-5.17a7.835,7.835,0,0,1,1.483.727l-1.543,1.568-1.068-1.148Zm-1.4.859-1.242-1.334a7.858,7.858,0,0,1,2.222.338Zm-3.494-.733v-.294a7.752,7.752,0,0,1,1.393-.27l8.583,9.227a7.861,7.861,0,0,1-.448,1.581Zm0,.578,9.357,10.06a7.884,7.884,0,0,1-.872,1.445l-8.486-9.122Zm4.818,14.188a7.867,7.867,0,0,1-1.887.418l-2.931-3.153v-2.445Zm-4.818-5.757v-2.446l6.718,7.221a7.877,7.877,0,0,1-1.5.831Zm10.078-1.2-.968-1.04.857-.872a7.929,7.929,0,0,1,.128,1.412c0,.168-.007.335-.017.5m-7.894-8.851a8.359,8.359,0,0,0-8.35,8.35,8.358,8.358,0,0,0,8.35,8.348,8.358,8.358,0,0,0,8.35-8.348,8.359,8.359,0,0,0-8.35-8.35" transform="translate(0 -9.417)"/><path class="a" d="M-510.712,753.653a1.133,1.133,0,0,1-1.133,1.133,1.133,1.133,0,0,1-1.133-1.133,1.133,1.133,0,0,1,1.133-1.133,1.133,1.133,0,0,1,1.133,1.133" transform="translate(-124.396 -3.715)"/><path class="a" d="M-349.377,781.761v-8.7a4.822,4.822,0,0,1,1.333-3.7,5.717,5.717,0,0,1,3.958-1.238v1.843c-2.358.014-3.322.905-3.322,3.064v8.731" transform="translate(-250.48 -15.74)"/><path class="a" d="M-269.031,781.689a2.21,2.21,0,0,1-.734-1.577v-5.991a6.557,6.557,0,0,0-1.471-4.488,5.1,5.1,0,0,0-3.91-1.59,5.1,5.1,0,0,0-3.91,1.59,6.556,6.556,0,0,0-1.471,4.488v7.567h2.734a2.424,2.424,0,0,1-.751-2v.048l-.013.013v-5.632c0-2.652,1.275-4.235,3.412-4.235s3.412,1.583,3.412,4.235v7.567Z" transform="translate(-303.542 -15.679)"/><path class="a" d="M-475.994,760.339a3.951,3.951,0,0,1-3.659,4.19,3.951,3.951,0,0,1-3.659-4.19v-1.945a3.951,3.951,0,0,1,3.659-4.19,3.951,3.951,0,0,1,3.659,4.19Zm-3.659-7.956a5.518,5.518,0,0,0-3.835,1.526V747.7h-2.707a2.424,2.424,0,0,1,.751,2v-.048l0,0V758.4c0,.407.022,2.382.061,2.621a6.291,6.291,0,0,0,.872,2.543,6.032,6.032,0,0,0,1.018,1.247V764.8a5.54,5.54,0,0,0,3.835,1.568,5.786,5.786,0,0,0,5.786-5.786v-2.414a5.786,5.786,0,0,0-5.786-5.786" transform="translate(-145.036 0)"/><path class="a" d="M-415.924,774.153a3.951,3.951,0,0,1,3.659-4.19,3.951,3.951,0,0,1,3.658,4.19V776.1a3.951,3.951,0,0,1-3.658,4.19,3.951,3.951,0,0,1-3.659-4.19Zm3.659,7.956a5.517,5.517,0,0,0,3.835-1.526v1.15h2.707a2.425,2.425,0,0,1-.752-2v-.564l0,0v-3.088c0-.407-.021-2.382-.06-2.621a6.292,6.292,0,0,0-.872-2.544,6.044,6.044,0,0,0-1.018-1.246v.013a5.541,5.541,0,0,0-3.835-1.568,5.786,5.786,0,0,0-5.786,5.786v2.414a5.786,5.786,0,0,0,5.786,5.786" transform="translate(-197.554 -15.74)"/><path class="a" d="M-572.171,766.426V760.81a6.556,6.556,0,0,0-1.471-4.488,5.1,5.1,0,0,0-3.91-1.59,5.272,5.272,0,0,0-3.407,1.12V750.8h-2.71a2.248,2.248,0,0,1,.741,1.662v8.2c0,.049,0,.1,0,.145v7.59h2.721a2.416,2.416,0,0,1-.751-1.982V760.81c0-2.651,1.275-4.234,3.412-4.234s3.412,1.583,3.412,4.234v7.59h2.721a2.412,2.412,0,0,1-.751-1.974" transform="translate(-69.913 -2.39)"/><path class="a" d="M-512.375,767.868v13.686h2.721a2.412,2.412,0,0,1-.751-1.974V767.868Z" transform="translate(-124.859 -15.543)"/><path class="a" d="M-306.916,753.653a1.133,1.133,0,0,1-1.133,1.133,1.133,1.133,0,0,1-1.133-1.133,1.133,1.133,0,0,1,1.133-1.133,1.133,1.133,0,0,1,1.133,1.133" transform="translate(-281.459 -3.715)"/><path class="a" d="M-308.579,767.868v13.686h2.721a2.412,2.412,0,0,1-.751-1.974V767.868Z" transform="translate(-281.923 -15.543)"/></g></svg>