<?xml version="1.0" encoding="utf-8"?>
<!-- Generator: Adobe Illustrator 24.2.1, SVG Export Plug-In . SVG Version: 6.00 Build 0)  -->
<svg version="1.1" id="레이어_1" xmlns="http://www.w3.org/2000/svg" xmlns:xlink="http://www.w3.org/1999/xlink" x="0px"
	 y="0px" viewBox="0 0 126.6 26" style="enable-background:new 0 0 126.6 26;" xml:space="preserve" width="118px">
<style type="text/css">
	.st0{fill:#FFFFFF;}
	.st1{fill:#231815;}
	.st2{fill:#D70029;}
</style>
<g transform="translate(0)">
	<g transform="translate(32.982 10.651)">
		<path class="st0" d="M10.6,0.2H0v2.6h3.8v9.8h3V2.8h3.8L10.6,0.2z"/>
		<path class="st0" d="M13.6,0.2L8.3,12.6h3.2l0.7-1.8h5l0.7,1.8h3.3L16.1,0.2H13.6z M13.1,8.3l1.6-4.4l1.5,4.4H13.1z"/>
		<path class="st0" d="M27,10c-2,0-3.1-1.5-3.1-3.6c0-2.1,1.2-3.6,3.2-3.6c1,0,1.9,0.5,2.5,1.3L32,2.4c-1.2-1.5-3-2.4-4.9-2.4
			c-4.2,0-6.4,2.9-6.4,6.4s2.2,6.4,6.3,6.4c2,0.1,3.9-0.7,5.2-2.2l-2.5-1.9C29.1,9.6,28,10.1,27,10"/>
		<path class="st0" d="M38.7,0c-3.4-0.1-6.2,2.5-6.3,5.9c0,0.2,0,0.4,0,0.5c-0.2,3.4,2.4,6.2,5.8,6.4c0.2,0,0.4,0,0.5,0
			c3.4,0.1,6.2-2.5,6.3-5.9c0-0.2,0-0.3,0-0.5C45.2,3,42.6,0.2,39.2,0C39.1,0,38.9,0,38.7,0 M38.7,10c-2,0-3.2-1.5-3.2-3.6
			c0-2.1,1.2-3.6,3.2-3.6c2,0,3.1,1.5,3.1,3.6C41.9,8.5,40.7,10,38.7,10"/>
		<path class="st0" d="M57.3,5.9c1.1-0.4,1.8-1.6,1.7-2.8c0-1.8-1.5-2.9-4.3-2.9h-4.8v12.4h5.4c3.1,0,4.7-1.1,4.7-3.6
			C60,7.4,58.9,6.1,57.3,5.9 M52.8,2.6H54c1.5,0,2,0.3,2,1.2c0,0.9-0.6,1.3-1.7,1.3h-1.5L52.8,2.6z M54.6,10h-1.8V7.4h1.8
			c1.6,0,2.3,0.4,2.3,1.3C56.9,9.7,56.4,10,54.6,10"/>
		<path class="st0" d="M64.2,7.6h5.2V5.1h-5.2V2.8h6.3V0.2h-9.3v12.4h9.4V10h-6.4L64.2,7.6z"/>
		<path class="st0" d="M75.1,0.2h-3v12.4h8.5V10h-5.5L75.1,0.2z"/>
		<path class="st0" d="M85,0.2h-3v12.4h8.5V10H85L85,0.2z"/>
		<path class="st0" d="M93.4,10L93,10.8L92.6,10h-0.2v1.3h0.2v-1l0.3,0.6h0.2l0.3-0.6v1h0.2V10H93.4z"/>
		<path class="st0" d="M91.3,10.2h0.4v1.2h0.2v-1.2h0.4V10h-0.9V10.2z"/>
	</g>
	<path class="st0" d="M25.8,13.9L25.8,13.9c-0.5-1.2-4.7-0.3-10.5,2.8c-5.7,3.1-9.1,6.6-8.6,7.6c0.5,1.1,6.4,0.3,11.1-2.3
		C24.2,18.5,26.4,15.4,25.8,13.9z M12.1,22.7L12.1,22.7c-1,0-1.9-0.4-2.6-1c1.7-1.6,3.6-3,5.7-4.1c0.2,0.5,0.3,1,0.4,1.5
		C15.6,21,14.1,22.6,12.1,22.7z"/>
	<path class="st0" d="M3.1,25.3c0.3,0.3,0.7,0.6,1.1,0.7c0,0,0.2,0.1,0.2,0.1H0.5C0.2,26,0,25.8,0,25.6v0V14.4c0,0,0,0,0,0
		c0-4.6,2.2-9,6-11.7l0,0L5.8,2.9C5.5,3.4,5.4,4,5.7,4.5c0.2,0.4-0.3,0.9-0.5,1.2C3.8,7.1,3,9,3,11c0,2,0.3,3.9,0.9,5.8
		C4,17.4,4.1,18,4.2,18.6c0.9-0.8,1.9-1.5,2.9-2.2c1.6-1.1,2.9-1.8,4.1-2.5c2.6-1.4,3.2-1.2,1.2,0C10.5,15,8.7,16.2,7,17.6
		C1.8,22.4,2.5,24.7,3.1,25.3"/>
	<path class="st0" d="M28.7,25.6c0,0.3-0.2,0.5-0.5,0.5H10.1c0,0,0.2-0.1,0.3-0.1c2.8-0.6,5.5-1.7,8-3.1c5.6-2.9,9.3-6.7,10.3-9.4
		l0-0.1c0,0,0,0,0,0.1c0,0.2,0,0.6,0,0.9L28.7,25.6"/>
	<path class="st0" d="M8.1,1.4L8.1,1.4c2-1,4.1-1.4,6.3-1.4c6.5,0,12.2,4.4,13.9,10.6c-0.2-0.2-0.5-0.3-0.7-0.4
		C27,10,26.5,9.9,26,9.8c-1-0.1-1.9-0.3-2.8-0.8c-1.8-1-4.3-5.3-8.2-6.4c-1.3-0.4-2.6-0.5-3.9-0.2c-0.3,0.1-1,0.1-1.2-0.2
		c-0.5-0.6-0.8-1-1.5-0.8C8.3,1.4,8.1,1.4,8.1,1.4"/>
</g>
<g>
	<path class="st1" d="M229.7-136.1c0,2.9-1.7,4.1-4.5,4.1c-1,0-2.5-0.2-3.4-1.3c-0.6-0.7-0.8-1.5-0.8-2.6v-7.2h2.3v7
		c0,1.5,0.9,2.2,1.9,2.2c1.6,0,2.2-0.8,2.2-2.1v-7.1h2.3V-136.1z"/>
	<g>
		<rect x="-169.8" y="-220.1" class="st0" width="63.8" height="63.8"/>
		<path class="st2" d="M-170.3-220.5v64.8h64.8v-64.8H-170.3 M-137.9-157.9c-16.7,0-30.2-13.5-30.2-30.2c0-16.7,13.5-30.2,30.2-30.2
			c16.7,0,30.2,13.5,30.2,30.2C-107.7-171.4-121.2-157.9-137.9-157.9z"/>
		<path class="st2" d="M-137.9-217.7c-16.3,0-29.6,13.3-29.6,29.6c0,16.3,13.2,29.6,29.6,29.6c16.3,0,29.6-13.2,29.6-29.6
			C-108.3-204.5-121.6-217.7-137.9-217.7 M-122.1-207c1.8,1.5-5.2,8-10.9,13.2c-0.2,0.2-0.4,0-0.2-0.2
			C-129-200.5-123.9-208.6-122.1-207 M-123.9-208.7c-0.8,0.3-1.5,0.8-2.3,1.4c-1.2-0.1-4.1,0.4-5.2,1.2c-0.3-1.4-2.2-3.6-3.2-4.3
			c-0.2-0.9-0.4-1.8-0.9-2.5C-131.2-212.4-127.2-211-123.9-208.7 M-137.9-212.8c2.4,0,1.1,9.5,0.2,17.1c0,0.3-0.3,0.3-0.3,0
			C-139-203.3-140.3-212.8-137.9-212.8 M-140.4-212.9c-0.4,0.7-0.7,1.6-0.9,2.5c-1,0.7-2.9,2.9-3.2,4.2c-1.1-0.8-4-1.3-5.2-1.2
			c-0.8-0.6-1.5-1.1-2.3-1.4C-148.5-211-144.6-212.5-140.4-212.9 M-153.8-207c1.8-1.5,7,6.5,11.1,13c0.1,0.2,0,0.4-0.2,0.2
			C-148.5-199-155.6-205.5-153.8-207 M-155.7-205.5c0.1,0.8,0.5,1.6,1,2.5c-0.3,1.2-0.3,4.1,0.3,5.3c-1.4,0.1-3.9,1.5-4.7,2.4
			c-1,0-1.9,0.1-2.6,0.4C-160.7-199-158.6-202.6-155.7-205.5 M-145.3-189.6c0.3,0.1,0.2,0.3,0,0.3c-7.7-0.4-17.2-0.8-16.8-3.1
			C-161.8-194.8-152.7-191.9-145.3-189.6 M-160.6-178c-1.4-3.1-2.2-6.5-2.2-10.2c0-0.6,0-1.2,0.1-1.9c0.6,0.5,1.4,1,2.3,1.3
			c0.5,1.1,2.3,3.3,3.6,3.9c-1,0.9-2,3.7-2.1,4.9C-159.6-179.3-160.2-178.7-160.6-178 M-159.3-175.8c-1.2-2.1,7.6-5.7,14.7-8.7
			c0.2-0.1,0.4,0.1,0.2,0.3C-150.5-179.6-158.1-173.7-159.3-175.8 M-148.7-165.8c-3.7-1.8-7-4.5-9.4-7.9c0.8,0,1.7-0.2,2.6-0.5
			c1.1,0.5,3.9,1,5.3,0.6c-0.2,1.4,0.8,4.1,1.5,5.1C-148.8-167.5-148.9-166.5-148.7-165.8 M-146.4-165c-2.2-0.8,2.2-9.3,5.7-16.1
			c0.1-0.2,0.3-0.2,0.3,0.1C-142-173.5-144.1-164.1-146.4-165 M-137.9-163.3c-2.1,0-4.2-0.3-6.2-0.8c0.6-0.5,1.2-1.3,1.7-2.1
			c1.2-0.3,3.7-1.7,4.4-2.9c0.8,1.2,3.3,2.6,4.4,2.9c0.5,0.8,1,1.6,1.7,2.1C-133.8-163.5-135.8-163.3-137.9-163.3 M-129.5-165
			c-2.2,0.8-4.3-8.5-6-16c-0.1-0.3,0.2-0.3,0.3-0.1C-131.7-174.3-127.2-165.8-129.5-165 M-127.2-165.7c0.2-0.8,0.1-1.7-0.1-2.7
			c0.7-1,1.7-3.7,1.5-5.1c1.3,0.4,4.2-0.1,5.3-0.6c0.9,0.3,1.8,0.5,2.6,0.5C-120.2-170.2-123.4-167.5-127.2-165.7 M-116.5-175.8
			c-1.2,2.1-8.8-3.8-14.9-8.4c-0.2-0.2-0.1-0.4,0.2-0.3C-124.2-181.5-115.4-177.9-116.5-175.8 M-113.1-188.1c0,3.7-0.8,7.1-2.2,10.2
			c-0.4-0.7-1-1.4-1.8-2c-0.1-1.2-1.1-3.9-2.1-4.9c1.3-0.5,3.2-2.8,3.6-3.9c0.9-0.3,1.7-0.7,2.3-1.3
			C-113.1-189.3-113.1-188.7-113.1-188.1 M-113.6-192.4c0.4,2.3-9.1,2.8-16.8,3.1c-0.3,0-0.3-0.2-0.1-0.3
			C-123.2-191.9-114-194.8-113.6-192.4 M-116.6-195.3c-0.8-0.9-3.3-2.3-4.7-2.4c0.6-1.2,0.6-4.1,0.3-5.3c0.5-0.8,0.8-1.7,1-2.5
			c2.9,2.9,5,6.6,6.1,10.6C-114.7-195.1-115.7-195.3-116.6-195.3z"/>
		<polygon class="st1" points="-88,-132.3 -90.2,-132.3 -90.2,-141.2 -93.5,-141.2 -93.5,-143.1 -84.7,-143.1 -84.7,-141.2 
			-88,-141.2 		"/>
		<polygon class="st1" points="-79.6,-137.2 -79.6,-132.3 -81.8,-132.3 -81.8,-143.1 -79.6,-143.1 -79.6,-139 -75.3,-139 
			-75.3,-143.1 -73.1,-143.1 -73.1,-132.3 -75.3,-132.3 -75.3,-137.2 		"/>
		<polygon class="st1" points="-61.3,-141.2 -67,-141.2 -67,-138.9 -61.7,-138.9 -61.7,-137 -67,-137 -67,-134.2 -61,-134.2 
			-61,-132.3 -69.2,-132.3 -69.2,-143.1 -61.3,-143.1 		"/>
		<path class="st1" d="M-47-143.4c1.4,0,5.2,0.6,5.2,5.7c0,5.1-3.8,5.7-5.2,5.7c-1.4,0-5.2-0.6-5.2-5.7
			C-52.2-142.8-48.5-143.4-47-143.4 M-47-133.9c1.2,0,2.9-0.8,2.9-3.8c0-3-1.7-3.8-2.9-3.8c-1.2,0-2.9,0.8-2.9,3.8
			C-50-134.7-48.2-133.9-47-133.9z"/>
		<path class="st1" d="M-38.4-143.1h5.5c2.9,0,3.4,2.1,3.4,3.1c0,1.2-0.6,2.2-1.7,2.6c0.9,0.4,1.4,0.7,1.4,2.7c0,1.6,0,2,0.5,2.2
			v0.3h-2.5c-0.1-0.5-0.2-1.1-0.2-2.2c0-1.5-0.1-2.1-1.8-2.1h-2.3v4.2h-2.2V-143.1 M-33.5-138.4c1.2,0,1.8-0.4,1.8-1.5
			c0-0.6-0.3-1.4-1.6-1.4h-2.8v2.9H-33.5z"/>
		<rect x="-26.1" y="-143.1" class="st1" width="2.3" height="10.8"/>
		<path class="st1" d="M-15-138.1h4.5v5.8H-12l-0.2-1.4c-0.6,0.7-1.4,1.6-3.4,1.6c-2.6,0-5-1.9-5-5.7c0-3,1.7-5.8,5.3-5.7
			c3.3,0,4.6,2.2,4.8,3.7h-2.3c0-0.4-0.8-1.8-2.4-1.8c-1.6,0-3.1,1.1-3.1,3.9c0,3,1.6,3.7,3.1,3.7c0.5,0,2.2-0.2,2.6-2.4H-15V-138.1
			z"/>
		<rect x="-6.9" y="-143.1" class="st1" width="2.3" height="10.8"/>
		<polygon class="st1" points="5.7,-143.1 7.8,-143.1 7.8,-132.3 5.5,-132.3 1.1,-140 1.1,-140 1.1,-132.3 -1,-132.3 -1,-143.1 
			1.3,-143.1 5.6,-135.6 5.7,-135.6 		"/>
		<path class="st1" d="M13.1-132.3h-2.4l3.8-10.8h2.6l3.8,10.8h-2.5l-0.7-2.2h-4L13.1-132.3 M14.5-136.4h2.8l-1.3-4.3h0L14.5-136.4z
			"/>
		<polygon class="st1" points="26.3,-134.3 31.7,-134.3 31.7,-132.3 24.1,-132.3 24.1,-143.1 26.3,-143.1 		"/>
		<path class="st1" d="M42.3-135.6c0,0.6,0.3,1.8,2.3,1.8c1.1,0,2.3-0.3,2.3-1.4c0-0.8-0.8-1.1-2-1.3l-1.2-0.3
			c-1.8-0.4-3.5-0.8-3.5-3.2c0-1.2,0.7-3.3,4.2-3.3c3.3,0,4.2,2.2,4.2,3.5h-2.2c-0.1-0.5-0.2-1.6-2.2-1.6c-0.9,0-1.9,0.3-1.9,1.3
			c0,0.9,0.7,1,1.2,1.1l2.6,0.7c1.5,0.4,2.8,1,2.8,2.9c0,3.3-3.3,3.5-4.3,3.5c-4,0-4.6-2.3-4.6-3.6H42.3z"/>
		<polygon class="st1" points="54.6,-137.2 54.6,-132.3 52.3,-132.3 52.3,-143.1 54.6,-143.1 54.6,-139 58.8,-139 58.8,-143.1 
			61.1,-143.1 61.1,-132.3 58.8,-132.3 58.8,-137.2 		"/>
		<rect x="64.7" y="-143.1" class="st1" width="2.3" height="10.8"/>
		<polygon class="st1" points="77.3,-143.1 79.4,-143.1 79.4,-132.3 77.2,-132.3 72.7,-140 72.7,-140 72.7,-132.3 70.6,-132.3 
			70.6,-143.1 73,-143.1 77.3,-135.6 77.3,-135.6 		"/>
		<path class="st1" d="M89.4-135.4c0,2.3-1.2,3.4-3.4,3.4c-3.6,0-3.6-2.3-3.6-4.4h2.1c0,1.7,0.1,2.5,1.3,2.5c1.2,0,1.3-0.8,1.3-1.6
			v-7.7h2.3V-135.4z"/>
		<path class="st1" d="M101.9-136.1c0,2.9-1.7,4.1-4.4,4.1c-1,0-2.5-0.2-3.4-1.3c-0.6-0.7-0.8-1.5-0.8-2.6v-7.2h2.3v7
			c0,1.5,0.9,2.2,1.9,2.2c1.6,0,2.2-0.8,2.2-2.1v-7.1h2.3V-136.1z"/>
		<polygon class="st1" points="108.1,-132.3 105.9,-132.3 105.9,-143.1 108.1,-143.1 108.1,-138.7 112.3,-143.1 115.2,-143.1 
			110.8,-138.7 115.5,-132.3 112.5,-132.3 109.2,-137.1 108.1,-136 		"/>
		<path class="st1" d="M126.9-136.1c0,2.9-1.7,4.1-4.4,4.1c-1,0-2.5-0.2-3.4-1.3c-0.6-0.7-0.8-1.5-0.8-2.6v-7.2h2.3v7
			c0,1.5,0.9,2.2,1.9,2.2c1.6,0,2.2-0.8,2.2-2.1v-7.1h2.3V-136.1z"/>
		<path class="st1" d="M136.5-143.1h4.8c3.6,0,4.4,3.1,4.4,5.2c0,2.3-0.9,5.7-4.5,5.7h-4.7V-143.1 M138.8-134.2h2.2
			c1.8,0,2.5-1.9,2.5-3.6c0-3.2-1.5-3.5-2.5-3.5h-2.2V-134.2z"/>
		<path class="st1" d="M153.8-143.4c1.4,0,5.2,0.6,5.2,5.7c0,5.1-3.8,5.7-5.2,5.7c-1.4,0-5.2-0.6-5.2-5.7
			C148.6-142.8,152.3-143.4,153.8-143.4 M153.8-133.9c1.2,0,2.9-0.8,2.9-3.8c0-3-1.7-3.8-2.9-3.8c-1.2,0-2.9,0.8-2.9,3.8
			C150.8-134.7,152.5-133.9,153.8-133.9z"/>
		<polygon class="st1" points="169,-143.1 171.1,-143.1 171.1,-132.3 168.9,-132.3 164.4,-140 164.4,-140 164.4,-132.3 
			162.3,-132.3 162.3,-143.1 164.7,-143.1 169,-135.6 169,-135.6 		"/>
		<polygon class="st1" points="177.3,-132.3 175.1,-132.3 175.1,-143.1 177.3,-143.1 177.3,-138.7 181.5,-143.1 184.4,-143.1 
			180,-138.7 184.6,-132.3 181.7,-132.3 178.4,-137.1 177.3,-136 		"/>
		<path class="st1" d="M189-132.3h-2.4l3.9-10.8h2.6l3.8,10.8h-2.5l-0.7-2.2h-4L189-132.3 M190.3-136.4h2.8l-1.3-4.3h0L190.3-136.4z
			"/>
		<polygon class="st1" points="203.2,-132.3 200.9,-132.3 200.9,-141.2 197.6,-141.2 197.6,-143.1 206.4,-143.1 206.4,-141.2 
			203.2,-141.2 		"/>
		<path class="st1" d="M211-135.6c0,0.6,0.3,1.8,2.3,1.8c1.1,0,2.3-0.3,2.3-1.4c0-0.8-0.8-1.1-2-1.3l-1.2-0.3
			c-1.8-0.4-3.4-0.8-3.4-3.2c0-1.2,0.7-3.3,4.2-3.3c3.3,0,4.2,2.2,4.2,3.5h-2.2c-0.1-0.5-0.2-1.6-2.2-1.6c-0.9,0-1.9,0.3-1.9,1.3
			c0,0.9,0.7,1,1.1,1.1l2.7,0.7c1.5,0.4,2.8,1,2.8,2.9c0,3.3-3.3,3.5-4.3,3.5c-4,0-4.6-2.3-4.6-3.6H211z"/>
		<path class="st1" d="M-95.8-170.4c7.1,4.7,13.9,7.1,20.5,7.1c8.8,0,14.1-4.3,14.1-9.8c0-1.6-0.5-3.4-1.6-4.8
			c-2.1-3.1-7.5-5.3-15.1-9.1c-10.4-5.2-15.8-9.4-15.8-17.4c0-9.7,8.3-16.4,23-16.4c4.1,0,9,0.5,14.8,1.6v10.4
			c-5-3.8-10.1-5.7-15.8-5.7c-7.4,0-11.7,3.6-11.7,8.2c0,5.5,5.1,8.2,13.9,12.4c4.1,1.9,8.5,3.7,12.7,7c3.7,2.9,5.8,7.2,5.8,11.7
			c0,10.1-10.2,19-25.5,19c-4.9,0-10.4-1.1-16.4-3L-95.8-170.4z"/>
		<path class="st1" d="M-5.9-159.3c-8.6,0-12-2.9-12-10.1V-182c-12.4,3.4-18.3,4.6-18.3,10.2c0,4.3,3.8,7.4,9.8,7.4
			c1.7,0,3.9-0.3,6.4-1l-4.8,6.5c-2,0.4-3.7,0.7-5.5,0.7c-8.8,0-14.9-5.8-14.9-13.3c0-2.9,1.1-5.6,3-7.7c3.2-3.2,8-3.8,14.5-5.3
			c6.9-1.6,9.8-2.8,9.8-6c0-3.6-3.6-6.1-9.6-6.1c-3,0-6.8,1.1-11.3,3.3l5.7-9.1c3.2-0.4,5.8-0.6,7.9-0.6c4.3,0,7.9,1,10.6,3.1
			c4.4,3.2,4.9,7.5,4.9,13.9v10.3c0,7.7,0.2,10.2,7.6,10.7L-5.9-159.3z"/>
		<path class="st1" d="M20.6-163.9c9.8,0,16-6.4,16-16.3c0-9.1-5.3-15.2-12.8-15.2c-2.2,0-4.8,0.6-7.8,1.8l4.5-8.1
			c1.7-0.3,3.3-0.4,4.8-0.4c12.1,0,20.1,8.4,20.1,21.1c0,14.2-9.9,23.7-26.3,23.7c-4.3,0-10-0.7-17.1-2.2c2.2-2,3-4.5,3-8v-45.7
			c0-3.6-0.8-6.1-3-8h11.3v55.5C15.5-164.6,17.8-163.9,20.6-163.9z"/>
		<path class="st1" d="M60.5-181.6c0-8.6,5.8-15.1,13.9-15.1c8.5,0,14.7,7.2,14.7,17.1c0,9.3-5.8,15.7-13.9,15.7
			C66.5-163.9,60.5-170.9,60.5-181.6 M51.1-179.8c0,5.8,2.4,11.4,6.7,15.7c4.4,4.5,9.7,6.4,16.4,6.4c6.5,0,12.8-2.4,17.1-6.5
			c4.6-4.4,7-10.1,7-16.5c0-5.9-2.3-11.4-6.6-15.7c-4.4-4.5-9.8-6.5-16.4-6.5c-6.5,0-12.8,2.5-17.1,6.6
			C53.6-192,51.1-186.3,51.1-179.8z"/>
		<path class="st1" d="M102.7-195.4v-3.1c6.9-0.6,11.2-6.5,11.4-16.6h2.6v13.6h12.6v7.9c-1.6-1.4-3.6-1.8-6.5-1.8h-6.1v20.6
			c0,7.4,2.3,11,7.8,11c1.1,0,2.4-0.2,3.9-0.6l-4.3,6.3c-1,0.1-1.9,0.2-2.8,0.2c-8.6,0-12.8-4.4-12.8-12.8v-24.6H102.7z"/>
		<path class="st1" d="M145.1-187.3c0.8-6.3,5.3-10.2,11.8-10.2c5.9,0,10.5,4.1,10.9,10.2H145.1 M144.4-181.3h32.8
			c-0.2-13.7-8-22-19.8-22c-13,0-22.4,9.5-22.4,23c0,13.2,10.3,22.7,24.3,22.7c4,0,8.4-1,13.2-2.8l4.7-8.2c-5.6,3-10.6,4.5-15.4,4.5
			C151.9-164,144.9-170.6,144.4-181.3z"/>
		<path class="st1" d="M198.1-159.1h-14.3c2.2-2,3-4.4,3-7.9v-26.4c0-3.5-0.8-6.1-3-8c0.4,0,0.6,0,1,0c2.9,0,6.2-0.4,9.7-1l0.4,6.8
			c4.3-4.6,8.6-6.8,13.6-6.8c9.2,0,15.9,6.1,15.9,15.5v19.9c0,3.6,0.8,6,3,7.9h-14.4c2.3-2,3-4.4,3-7.9v-15.2
			c0-8.9-2.9-13.2-10.4-13.2c-8,0-10.6,3.9-10.6,12.6v15.8C195.1-163.5,195.9-161.1,198.1-159.1z"/>
	</g>
</g>
<g>
	<g>
		<g>
			<g>
				<polygon class="st0" points="-33.1,1813 -67.7,1813 -67.7,1821.5 -55.4,1821.5 -55.4,1853.5 -45.5,1853.5 -45.5,1821.5 
					-33.1,1821.5 				"/>
				<path class="st0" d="M-23.3,1813l-17.2,40.4h10.4l2.3-5.9h16.2l2.2,5.9H1.5L-15,1813H-23.3z M-24.8,1839.5l5.3-14.3l4.9,14.3
					H-24.8z"/>
				<path class="st0" d="M20.4,1845c-6.5,0-10.2-5-10.2-11.8c0-6.9,3.8-11.9,10.5-11.9c3.9,0,6.5,2,8.1,4.4l8-5.7
					c-3.6-4.5-8.5-7.7-16.1-7.7c-13.6,0-20.8,9.4-20.8,20.9s7.2,20.9,20.7,20.9c7.9,0,13.2-3.1,16.9-7.3l-8.1-6.1
					C27.6,1843.1,24.7,1845,20.4,1845"/>
				<path class="st0" d="M58.7,1812.3c-12.9,0-20.7,9.4-20.7,20.9c0,11.6,7.8,20.9,20.7,20.9c12.8,0,20.6-9.4,20.6-20.9
					C79.3,1821.7,71.5,1812.3,58.7,1812.3 M58.7,1845c-6.5,0-10.3-5-10.3-11.7c0-6.9,3.8-11.9,10.3-11.9c6.5,0,10.3,5,10.3,11.9
					C69,1840,65.2,1845,58.7,1845"/>
				<path class="st0" d="M119.4,1831.6c3.9-1.9,5.6-4.5,5.6-9c0-6-4.7-9.5-14-9.5H95.4v40.4H113c10.3,0,15.2-3.8,15.2-11.6
					C128.2,1836.4,125.2,1832.8,119.4,1831.6 M104.7,1820.9h3.9c4.7,0,6.6,1,6.6,3.9c0,3.1-1.9,4.2-5.5,4.2h-5V1820.9z M110.5,1845
					h-5.8v-8.4h6c5.3,0,7.5,1.2,7.5,4.2C118.2,1844.1,116.5,1845,110.5,1845"/>
				<polygon class="st0" points="142,1837.1 159.1,1837.1 159.1,1828.9 142,1828.9 142,1821.5 162.5,1821.5 162.5,1813 132.2,1813 
					132.2,1853.5 163,1853.5 163,1845 142,1845 				"/>
				<polygon class="st0" points="177.6,1813 167.8,1813 167.8,1853.5 195.4,1853.5 195.4,1845 177.6,1845 				"/>
				<polygon class="st0" points="210.1,1813 200.2,1813 200.2,1853.5 227.9,1853.5 227.9,1845 210.1,1845 				"/>
				<polygon class="st0" points="237.4,1845 236.1,1847.6 234.8,1845 234.2,1845 234.2,1849.3 234.8,1849.3 234.8,1846.2 
					235.8,1848.2 236.4,1848.2 237.4,1846.2 237.4,1849.3 238,1849.3 238,1845 				"/>
				<polygon class="st0" points="230.5,1845.5 231.7,1845.5 231.7,1849.3 232.2,1849.3 232.2,1845.5 233.4,1845.5 233.4,1845 
					230.5,1845 				"/>
			</g>
			<g>
				<path class="st0" d="M-91.2,1822.8c-1.6-4-15.3-1-34.3,9.2c-18.6,10-29.6,21.5-27.9,25c1.7,3.6,20.9,1.1,36.2-7.4
					C-96.5,1838.1-89.2,1827.7-91.2,1822.8z M-136,1851.6c-3.3,0.1-6.3-1.2-8.4-3.4c4.3-4.3,10.9-9.1,18.7-13.4
					c0.7,1.5,1.1,3.1,1.2,4.9C-124.4,1846.1-129.5,1851.4-136,1851.6z"/>
				<path class="st0" d="M-165.4,1860.1c0.9,0.9,1.6,1.5,3.7,2.3c0,0,0.5,0.2,0.5,0.2h-12.8c-0.8,0-1.5-0.7-1.5-1.5l0-36.5
					c0,0,0,0,0,0c0-15.7,7.7-29.6,19.6-38.1v0l-0.5,0.6c-1.3,1.6-1.1,3.1-0.3,5.1c0.5,1.4-1,2.9-1.8,3.8c-3.4,3.7-6.8,8.8-7.2,17.6
					c-0.4,8,2,15.1,2.8,18.9c0.9,4,1,5.3,1,6c3-2.6,6.3-5.1,9.5-7.3c5.3-3.5,9.5-6,13.3-8.1c8.4-4.5,10.5-4,3.9-0.2
					c-6.6,3.9-13.1,8.4-17.4,12.3C-169.7,1850.7-167.2,1858.3-165.4,1860.1"/>
				<path class="st0" d="M-81.6,1861.1c0,0.8-0.7,1.5-1.5,1.5h-59.4c0,0,0.8-0.2,0.9-0.2c7.8-1.6,16.9-4.8,26.2-10
					c18.4-9.5,30.4-21.8,33.6-30.7l0.2-0.4c0,0,0,0.1,0,0.4c0,0.7,0.1,1.9,0.1,2.8V1861.1"/>
				<path class="st0" d="M-149,1782.3L-149,1782.3c6.2-3,13.2-4.7,20.5-4.7c21.7,0,40,14.8,45.3,34.8c0,0-0.7-0.7-2.4-1.4
					c-1.2-0.5-2.8-1-5.1-1.4c-2.9-0.5-5.9-0.7-9.2-2.5c-6-3.3-14-17.3-26.7-21c-6.1-1.8-10.8-1-12.7-0.7c-1,0.2-3.2,0.4-3.9-0.6
					c-1.5-2-2.7-3.2-5-2.7C-148.4,1782.1-149,1782.3-149,1782.3"/>
			</g>
		</g>
	</g>
</g>
</svg>
