<svg xmlns="http://www.w3.org/2000/svg" width="106" height="23.616" viewBox="0 0 106 23.616"><defs><style>.a{fill:#e8390e;}</style></defs><g transform="translate(0 0)"><path class="a" d="M175.245-76.044c2.2.111,2.839.746,2.839,3.395V-55.5h4.27V-77.726l-7.108.935Z" transform="translate(-137.926 78.697)"/><path class="a" d="M203.989-58.205c2.206.112,2.84.746,2.84,3.4v11H211.1v-16.08l-7.113.936Z" transform="translate(-156.765 67.004)"/><path class="a" d="M214.162-80.543a2.333,2.333,0,0,0-2.352,2.315,2.334,2.334,0,0,0,2.313,2.354,2.41,2.41,0,0,0,2.429-2.354A2.369,2.369,0,0,0,214.162-80.543Z" transform="translate(-161.891 80.543)"/><path class="a" d="M238.427-57.181c0-1.481,1.529-1.891,2.815-1.891a9.609,9.609,0,0,1,4.778,1.649V-60a20.88,20.88,0,0,0-4.5-.586c-4.742,0-6.71,2.134-6.71,4.605,0,4.991,8.8,5.186,8.8,8.318,0,1.2-.923,2.3-3.455,2.3a10.556,10.556,0,0,1-5.306-1.784v2.677a21.988,21.988,0,0,0,5.142.622c3.982,0,7.238-1.379,7.238-4.742C247.23-54.5,238.427-54.112,238.427-57.181Z" transform="translate(-176.965 67.462)"/><path class="a" d="M285.134-59.414c2.314,0,2.565,2.127,2.565,3.539h4.652c0-2.786-2.846-4.71-6.991-4.71-5.342,0-7.6,3.439-7.6,8.144,0,5.19,3.268,8.595,8.5,8.595a12.858,12.858,0,0,0,5.3-.829v-1.507a14.183,14.183,0,0,1-3.583.479c-3.4,0-5.771-2.784-5.771-7.869C282.2-56.87,282.6-59.414,285.134-59.414Z" transform="translate(-205.115 67.462)"/><path class="a" d="M334.875-60.585c-5.454,0-8.269,2.645-8.269,8.387,0,4.809,2.254,8.352,8.269,8.352,5.525,0,8.254-2.75,8.254-8.352C343.128-57.146,340.287-60.585,334.875-60.585Zm0,15.568c-3.7,0-3.759-4.326-3.759-7.18,0-3.027.059-7.216,3.759-7.216,3.622,0,3.768,4.053,3.768,7.216C338.643-48.764,338.531-45.017,334.875-45.017Z" transform="translate(-237.128 67.462)"/><path class="a" d="M103.552-38.468c-2.843-1.489-5.968-3.359-7.76-7.412l-.5.105c.263,2.3,1.335,7.774,4.878,10.655,1.526,1.233,3.04,1.082,3.992.269A2.232,2.232,0,0,0,103.552-38.468Z" transform="translate(-85.526 57.825)"/><path class="a" d="M88.328-77.764c-7.129,0-12.092,4.348-14.275,10.387V-77.751l-7.106.935v.747c2.2.111,2.839.746,2.839,3.395v17.151h4.267v-5.2c.206-8.377,4.931-14.057,12.958-14.057,7.011,0,11.88,4.588,11.88,11.343l.005,2.489a3.5,3.5,0,0,1-3.742,3.814c-1.708,0-2.756-1.246-2.756-3.416,0-3.546,3.517-5.366,4.863-5.4l.058-.731c-2.392.077-9.3,1.5-9.3,6.769,0,2.2,1.515,4.794,5.675,4.794,2.877,0,4.5-1.2,5.2-2.361v.078a1.963,1.963,0,0,0,2.129,1.993h2.2l-.012-8.09C103.211-72.892,95.829-77.764,88.328-77.764Z" transform="translate(-66.947 78.722)"/></g></svg>