<svg xmlns="http://www.w3.org/2000/svg" width="188.117" height="192.032" viewBox="0 0 188.117 192.032"><defs><style>.a{fill:#c70017;}</style></defs><g transform="translate(-402 -577.746)"><g transform="translate(402 577.746)"><path class="a" d="M-473.94,747.364c-51.951,0-94.06,42.989-94.06,96.019s42.109,96.013,94.06,96.013,94.057-42.989,94.057-96.013-42.11-96.019-94.057-96.019m84.9,80.743c1.454,8.43-53.695,13.234-84.128,15.142,29.236-8.841,82.666-23.6,84.128-15.142m-26.863-37.5s3.017-6.108,3.461-9a89.224,89.224,0,0,1,13.159,17.767,90.483,90.483,0,0,1,8.5,20.518c-2.676-1.052-9.364-1.436-9.364-1.436l-16.776-8.684Zm-2.617-14.633c6.424,5.5-32.8,45.369-54.91,66.8,16.828-25.955,48.465-72.317,54.91-66.8m-25.934-15.284a87.042,87.042,0,0,1,19.428,10.14c-2.71.949-8.075,5.043-8.075,5.043l-18.321,4.355-11.289-15.357s-1.534-6.654-3.013-9.162a86.15,86.15,0,0,1,21.27,4.98m-29.478-5.309c8.387,0,3.447,56.275,0,87.2-3.453-30.927-8.41-87.2,0-87.2m-29.488,5.309a86.138,86.138,0,0,1,21.269-4.98c-1.478,2.508-3.01,9.162-3.01,9.162l-11.292,15.357-18.32-4.355s-5.365-4.094-8.075-5.043a87.007,87.007,0,0,1,19.428-10.14m-25.923,15.276c6.424-5.5,38.073,40.847,54.91,66.8-22.118-21.425-61.354-61.282-54.91-66.8M-548.6,799.381a89.475,89.475,0,0,1,13.156-17.767c.447,2.887,3.467,9,3.467,9l1.019,19.17-16.776,8.684s-6.687.384-9.364,1.436a90.786,90.786,0,0,1,8.5-20.518m-10.238,28.711c1.456-8.427,54.889,6.309,84.126,15.142-30.434-1.9-85.585-6.686-84.126-15.142m0,30.57a91.482,91.482,0,0,1-1.111-22.249c2.164,1.924,8.317,4.62,8.317,4.62l12.856,14.016-7.385,17.661s-4.88,4.681-6.269,7.243a91.1,91.1,0,0,1-6.409-21.29m10.238,28.711c-4.194-7.413,46.019-31.185,73.979-43.6-24.509,18.515-69.773,51.037-73.979,43.6m37.563,35.521a87.511,87.511,0,0,1-18.314-12.1,88.872,88.872,0,0,1-14.862-16.312c2.866.054,9.279-1.922,9.279-1.922l18.673,2.3,5.467,18.374s-.792,6.789-.243,9.662m7.6,3.173c-7.88-2.929,15.619-54.086,29.218-81.94-7.115,30.264-21.313,84.876-29.218,81.94m29.492,5.309a85.9,85.9,0,0,1-21.656-2.747c2.228-1.836,5.9-7.559,5.9-7.559l15.755-10.49,15.754,10.49s3.671,5.723,5.9,7.559a85.888,85.888,0,0,1-21.653,2.747m29.477-5.3c-7.88,2.927-22.094-51.679-29.218-81.94,13.6,27.853,37.12,79,29.218,81.94m25.933-15.282a87.565,87.565,0,0,1-18.32,12.1c.551-2.874-.239-9.662-.239-9.662l5.462-18.374,18.674-2.3s6.414,1.976,9.278,1.922a88.858,88.858,0,0,1-14.856,16.312m19.238-23.406c-4.19,7.415-49.463-25.09-73.978-43.6,27.965,12.411,78.185,36.165,73.978,43.6m3.833-7.43c-1.385-2.562-6.268-7.243-6.268-7.243l-7.38-17.661,12.851-14.016s6.159-2.7,8.32-4.62a91.324,91.324,0,0,1-1.112,22.249,90.677,90.677,0,0,1-6.412,21.29" transform="translate(568 -747.364)"/></g></g></svg>