<svg xmlns="http://www.w3.org/2000/svg" width="126.578" height="26.035" viewBox="0 0 126.578 26.035"><defs><style>.a{fill:#fff;}.b{fill:#480f72;}.c{fill:#8e6cab;}</style></defs><g transform="translate(0)"><g transform="translate(32.982 10.651)"><path class="a" d="M-505.865,961.731h-10.592v2.6h3.784v9.779h3.006v-9.779h3.8Z" transform="translate(516.457 -961.52)"/><path class="a" d="M-483.97,961.732l-5.27,12.378h3.183l.689-1.8h4.969l.673,1.8h3.342l-5.057-12.378Zm-.46,8.1,1.61-4.385,1.5,4.385Z" transform="translate(497.572 -961.521)"/><path class="a" d="M-442.6,971.05c-1.981,0-3.109-1.521-3.109-3.608,0-2.1,1.164-3.643,3.216-3.643a2.821,2.821,0,0,1,2.475,1.344l2.441-1.751a5.922,5.922,0,0,0-4.916-2.351c-4.17,0-6.38,2.864-6.38,6.4s2.192,6.4,6.345,6.4a6.5,6.5,0,0,0,5.181-2.246l-2.493-1.857a3.254,3.254,0,0,1-2.758,1.309" transform="translate(469.565 -961.041)"/><path class="a" d="M-404.367,961.041a6.1,6.1,0,0,0-6.331,6.4,6.1,6.1,0,0,0,6.331,6.4,6.1,6.1,0,0,0,6.313-6.4,6.1,6.1,0,0,0-6.313-6.4m0,9.99c-2,0-3.165-1.52-3.165-3.589,0-2.1,1.167-3.643,3.165-3.643,1.98,0,3.148,1.538,3.148,3.643,0,2.069-1.167,3.589-3.148,3.589" transform="translate(443.076 -961.041)"/><path class="a" d="M-345.979,967.41a2.732,2.732,0,0,0,1.715-2.758c0-1.839-1.45-2.918-4.3-2.918h-4.774v12.378h5.376c3.147,0,4.668-1.149,4.668-3.554a3.038,3.038,0,0,0-2.687-3.148m-4.51-3.271h1.185c1.45,0,2.033.3,2.033,1.184,0,.937-.567,1.291-1.7,1.291h-1.521Zm1.787,7.391h-1.787v-2.565h1.84c1.609,0,2.3.354,2.3,1.291,0,.99-.531,1.273-2.352,1.273" transform="translate(403.275 -961.522)"/><path class="a" d="M-313.559,969.109h5.235V966.6h-5.235v-2.263h6.277v-2.6h-9.283v12.378h9.424v-2.6h-6.418Z" transform="translate(377.762 -961.522)"/><path class="a" d="M-277.962,961.734h-3.008v12.378h8.471v-2.6h-5.464Z" transform="translate(353.064 -961.522)"/><path class="a" d="M-245.493,961.734H-248.5v12.378h8.471v-2.6h-5.465Z" transform="translate(330.534 -961.522)"/><path class="a" d="M-213.551,993.68l-.4.8-.4-.8h-.18V995h.18v-.955l.317.626h.173l.317-.626V995h.177V993.68Z" transform="translate(306.969 -983.688)"/><path class="a" d="M-218.285,993.844h.366V995h.18v-1.16h.369v-.164h-.915Z" transform="translate(309.57 -983.687)"/></g><path class="a" d="M-595.451,940.623a14.371,14.371,0,0,0-14.369-14.371,14.371,14.371,0,0,0-14.369,14.371s0,.009,0,.014v11.184a.464.464,0,0,0,.465.464h27.808a.465.465,0,0,0,.465-.464Z" transform="translate(624.189 -926.252)"/><path class="b" d="M-583.275,970.315c-.49-1.21-4.681-.3-10.513,2.828-5.7,3.058-9.056,6.6-8.552,7.647.533,1.114,6.385.331,11.085-2.271,6.371-3.525,8.591-6.7,7.98-8.2" transform="translate(609.064 -956.467)"/><path class="a" d="M-590.561,988.636a3.566,3.566,0,0,1-2.58-1.033,25.4,25.4,0,0,1,5.713-4.1,3.6,3.6,0,0,1,.36,1.487,3.573,3.573,0,0,1-3.494,3.644" transform="translate(602.646 -965.978)"/><path class="b" d="M-621.108,957.645a2.567,2.567,0,0,0,1.146.7c.013,0,.156.052.156.052h-3.917a.465.465,0,0,1-.465-.465V946.752c0-.005,0-.01,0-.015a14.354,14.354,0,0,1,5.987-11.674h0l-.164.2a1.443,1.443,0,0,0-.1,1.576c.151.418-.307.894-.55,1.161a7.96,7.96,0,0,0-2.195,5.378,20.491,20.491,0,0,0,.861,5.78,12.8,12.8,0,0,1,.318,1.848c.928-.784,1.92-1.548,2.923-2.249,1.61-1.061,2.92-1.849,4.065-2.465,2.571-1.383,3.23-1.235,1.2-.049a34.511,34.511,0,0,0-5.341,3.768c-5.253,4.737-4.469,7.077-3.923,7.635" transform="translate(624.189 -932.366)"/><path class="b" d="M-572.576,982.151a.466.466,0,0,1-.465.465H-591.22s.246-.051.26-.056a28.567,28.567,0,0,0,8.023-3.075c5.622-2.909,9.306-6.659,10.281-9.394l.046-.128s0,.041.008.125c.015.227.026.574.026.864v11.2" transform="translate(601.313 -956.582)"/><path class="c" d="M-597.765,927.694h0a14.312,14.312,0,0,1,6.278-1.442A14.377,14.377,0,0,1-577.6,936.9a2.629,2.629,0,0,0-.727-.431,7.418,7.418,0,0,0-1.557-.43,8.329,8.329,0,0,1-2.8-.767c-1.833-1-4.272-5.29-8.179-6.424a8.4,8.4,0,0,0-3.895-.215c-.318.055-.966.124-1.2-.178-.463-.609-.813-.967-1.531-.834-.094.017-.272.07-.272.07" transform="translate(605.855 -926.252)"/></g></svg>