<svg xmlns="http://www.w3.org/2000/svg" width="75.545" height="30.698" viewBox="0 0 75.545 30.698"><defs><style>.a{fill:#10100a;}.b{fill:#3d752e;}</style></defs><g transform="translate(-1013 -1230)"><g transform="translate(1013 1230)"><g transform="translate(0 0)"><path class="a" d="M365.678,140.782h.787v-6.629H368.9v-.7h-5.665v.7h2.439Z" transform="translate(-363.131 -133.449)"/><path class="a" d="M379.156,140.782h.787v-7.333h-.787v3.16h-3.664v-3.16h-.787v7.333h.787v-3.448h3.664Z" transform="translate(-367.278 -133.449)"/><path class="a" d="M392.08,140.078h-3.9v-2.764h3.53v-.7h-3.53v-2.456h3.778v-.7h-4.564v7.333h4.688Z" transform="translate(-371.868 -133.449)"/><path class="a" d="M381.3,156.88h-3.772v-2.764h3.414v-.7h-3.414v-2.456h3.653v-.7H376.77v7.333H381.3Z" transform="translate(-368.025 -139.527)"/><path class="a" d="M388.222,151.343l3.551,6.229.007.011h.932v-7.333h-.762v6.18l-3.551-6.168-.007-.011h-.932v7.333h.762Z" transform="translate(-371.892 -139.527)"/><path class="a" d="M400.822,157.584h.762v-6.629h2.1v-.7h-4.952v.7h2.1Z" transform="translate(-375.967 -139.527)"/><path class="a" d="M413.514,157.573l.006.011h.929l-2.063-3.473a2.422,2.422,0,0,0,.688-.183,1.8,1.8,0,0,0,.957-.97,1.886,1.886,0,0,0,.141-.74,2.093,2.093,0,0,0-.181-.915,1.591,1.591,0,0,0-.51-.611,2.158,2.158,0,0,0-.774-.338,4.283,4.283,0,0,0-.966-.1h-2.363v7.333h.762v-3.407h1.428Zm-.56-4.4a2.313,2.313,0,0,1-1.321.32h-1.492v-2.559h1.521a3.411,3.411,0,0,1,.722.072,1.585,1.585,0,0,1,.55.223,1.07,1.07,0,0,1,.351.394,1.276,1.276,0,0,1,.127.6A1.089,1.089,0,0,1,412.953,153.173Z" transform="translate(-379.821 -139.527)"/><path class="a" d="M423.064,150.251h-.649l-2.706,7.3-.012.031h.746l.679-1.915h3.2l.688,1.915h.754l-2.694-7.318Zm1,4.694h-2.688l1.344-3.78Z" transform="translate(-383.553 -139.527)"/><path class="a" d="M432.919,156.88v-6.629h-.762v7.333h4.317v-.7Z" transform="translate(-388.06 -139.527)"/><path class="a" d="M369.355,167.476H368.5l-3.17,3.251v-3.251h-.787v7.333h.787v-3.854l3.338,3.846.007.008h.886L366.2,170.8Z" transform="translate(-363.601 -145.757)"/><rect class="a" width="0.787" height="7.333" transform="translate(7.293 21.719)"/><path class="a" d="M378.464,168.18H380.9v6.629h.786V168.18h2.44v-.7h-5.665Z" transform="translate(-368.638 -145.757)"/><path class="a" d="M394.087,173.114a2.253,2.253,0,0,1-.937.816,2.852,2.852,0,0,1-1.185.255,2.981,2.981,0,0,1-1.251-.255,2.853,2.853,0,0,1-.945-.687,3.085,3.085,0,0,1-.6-1,3.474,3.474,0,0,1-.209-1.2,3.562,3.562,0,0,1,.2-1.2,3.008,3.008,0,0,1,.593-1,2.846,2.846,0,0,1,.945-.687,3.008,3.008,0,0,1,1.261-.255,2.477,2.477,0,0,1,.648.082,2.808,2.808,0,0,1,.557.214,2.063,2.063,0,0,1,.443.305,1.852,1.852,0,0,1,.3.345l.013.02.655-.48-.013-.019a2.154,2.154,0,0,0-.468-.485,3.1,3.1,0,0,0-.622-.366,3.683,3.683,0,0,0-.73-.237,3.745,3.745,0,0,0-.793-.084,3.947,3.947,0,0,0-1.517.29,3.645,3.645,0,0,0-2.014,2.019,4.035,4.035,0,0,0-.29,1.542,4.1,4.1,0,0,0,.285,1.543,3.586,3.586,0,0,0,2,2.019,4.008,4.008,0,0,0,1.532.29,3.6,3.6,0,0,0,.917-.11,3.417,3.417,0,0,0,.767-.3,2.976,2.976,0,0,0,.612-.439,3.112,3.112,0,0,0,.451-.53l.013-.019-.615-.4Z" transform="translate(-372.136 -145.653)"/><path class="a" d="M404.784,170.636H401.4v-3.16h-.786v7.333h.786v-3.448h3.388v3.448h.786v-7.333h-.786Z" transform="translate(-376.649 -145.757)"/><path class="a" d="M412.391,171.34h3.531v-.7h-3.531V168.18h3.778v-.7H411.6v7.333h4.688v-.7h-3.9Z" transform="translate(-380.626 -145.757)"/><path class="a" d="M425.793,173.655l-3.421-6.167-.007-.012H421.4v7.333h.786v-6.24l3.427,6.24h.962v-7.333h-.787Z" transform="translate(-384.17 -145.757)"/><path class="a" d="M369.022,155.889a2.253,2.253,0,0,1-.937.816,2.852,2.852,0,0,1-1.185.255,2.981,2.981,0,0,1-1.251-.255,2.853,2.853,0,0,1-.945-.687,3.085,3.085,0,0,1-.6-1,3.474,3.474,0,0,1-.209-1.2,3.562,3.562,0,0,1,.2-1.2,3.008,3.008,0,0,1,.593-1,2.853,2.853,0,0,1,.945-.687,3.008,3.008,0,0,1,1.261-.255,2.475,2.475,0,0,1,.648.082,2.806,2.806,0,0,1,.557.214,2.035,2.035,0,0,1,.443.305,1.851,1.851,0,0,1,.3.345l.013.02.655-.48-.013-.018a2.153,2.153,0,0,0-.468-.485,3.116,3.116,0,0,0-.622-.367,3.788,3.788,0,0,0-1.523-.32,3.947,3.947,0,0,0-1.517.29,3.644,3.644,0,0,0-2.014,2.019,4.035,4.035,0,0,0-.29,1.542,4.09,4.09,0,0,0,.285,1.542,3.584,3.584,0,0,0,2,2.02,4.009,4.009,0,0,0,1.532.29,3.613,3.613,0,0,0,.917-.11,3.423,3.423,0,0,0,.767-.3,2.975,2.975,0,0,0,.612-.439,3.11,3.11,0,0,0,.451-.53l.013-.019-.615-.4Z" transform="translate(-363.069 -139.422)"/></g><g transform="translate(45.358 20.243)"><path class="b" d="M441.258,171.459a.839.839,0,0,0-.245.093l-.184.09c-.184.086-.438.217-.756.391a1.592,1.592,0,0,0-.22-.474.389.389,0,0,0-.38-.138,1.061,1.061,0,0,0-.529.261c-.179.148-.347.3-.5.449a2.913,2.913,0,0,1-.327.3.144.144,0,0,1-.033.029l-.008,0c0-.006,0-.013,0-.024a1.51,1.51,0,0,1,.053-.429.156.156,0,0,0,.051-.143.154.154,0,0,0-.009-.027,2.241,2.241,0,0,1,.286-.649.188.188,0,0,0,.033-.124.137.137,0,0,0-.051-.091.152.152,0,0,0-.115-.025l-.05.015a.683.683,0,0,0-.251.341,3.015,3.015,0,0,0-.158.456l-.213.07c-.21.071-.513.154-.9.25-.281.069-.606.131-.968.184l-.011,0c-.207.03-1.037.137-1.044.139-.038,0-.068.008-.088.008a.535.535,0,0,1,.022-.087,11.443,11.443,0,0,1,.922-2.324,5.479,5.479,0,0,1,1-1.362,2.689,2.689,0,0,1,.5-.371.042.042,0,0,0,.017-.018l.006-.01a.048.048,0,0,0,.005-.015.2.2,0,0,0-.05-.188.232.232,0,0,0-.215-.02l-.015.008c-.03.017-.059.034-.093.055a4.281,4.281,0,0,0-1.113,1.231,10.1,10.1,0,0,0-.851,1.693,9.987,9.987,0,0,0-.569,1.859l-.036.193a.034.034,0,0,0,0,.014.329.329,0,0,1-.009.092c0,.013-.006.042-.015.167a1.749,1.749,0,0,0,.012.324,1.157,1.157,0,0,0,.195.544.556.556,0,0,0,.423.238.494.494,0,0,0,.053,0,.73.73,0,0,0,.5-.353.988.988,0,0,0,.168-.7,1,1,0,0,0-.43-.694l.444-.054c.3-.036.654-.1,1.065-.18a12.239,12.239,0,0,0,1.21-.323,1.489,1.489,0,0,0-.01.377.406.406,0,0,0,.088.231.216.216,0,0,0,.2.066,1.493,1.493,0,0,0,.685-.493c.137-.134.271-.258.4-.368a.679.679,0,0,1,.338-.181c.137-.015.23.115.281.388a.124.124,0,0,1-.007.067.838.838,0,0,1-.216.144,12.144,12.144,0,0,0-1.195.784,5.869,5.869,0,0,0-1.977,2.062,1.43,1.43,0,0,0-.164.754.71.71,0,0,0,.343.537.987.987,0,0,0,.535.147,1.429,1.429,0,0,0,.163-.01,2.283,2.283,0,0,0,1.3-.747,5.746,5.746,0,0,0,1.085-1.586,4.825,4.825,0,0,0,.475-1.849c0-.012,0-.05.059-.09.365-.2.655-.354.862-.444a2.777,2.777,0,0,0,.294-.144c.08-.048.117-.1.109-.169a.174.174,0,0,0-.052-.105A.142.142,0,0,0,441.258,171.459Zm-1.492,1.151a4.836,4.836,0,0,1-.477,1.621,5.455,5.455,0,0,1-.989,1.432,1.963,1.963,0,0,1-1.108.65.732.732,0,0,1-.453-.072.4.4,0,0,1-.206-.323.834.834,0,0,1,0-.14,2,2,0,0,1,.533-1.083,7.248,7.248,0,0,1,1.115-1.037,13.543,13.543,0,0,1,1.132-.778C439.571,172.722,439.7,172.647,439.767,172.61ZM434.6,174a.821.821,0,0,1-.124-.378,2.422,2.422,0,0,1,.025-.637c.024-.111.077-.13.114-.135h.022a.5.5,0,0,1,.306.167.718.718,0,0,1,.229.445.634.634,0,0,1-.29.593.225.225,0,0,1-.106.052C434.718,174.117,434.659,174.083,434.6,174Z" transform="translate(-434.133 -166.188)"/><path class="b" d="M463.158,169.075a.6.6,0,0,0-.144.4.192.192,0,0,0,.2.179c.031,0,.1-.024.111-.143l0-.022a.271.271,0,0,1,.056-.171.214.214,0,0,0,.054-.16.163.163,0,0,0-.061-.112.155.155,0,0,0-.116-.033A.167.167,0,0,0,463.158,169.075Z" transform="translate(-444.58 -166.557)"/><path class="b" d="M469.072,167.6a.348.348,0,0,0-.157.07,4.33,4.33,0,0,1-.929.525,3.285,3.285,0,0,1-.77.214c-.272.033-.32.011-.327.007a.161.161,0,0,1-.049-.112.791.791,0,0,0-.231-.484.483.483,0,0,0-.386-.174c-.107.013-.19.1-.246.249-.008.031-.018.033-.021.033l-.038,0a.2.2,0,0,0-.093.043h-.015a2.153,2.153,0,0,0-.794.366c-.336.216-.656.433-.954.646-.216.151-.379.262-.484.329a2.143,2.143,0,0,1-.731.3c-.284.034-.432-.074-.465-.343a1,1,0,0,1,.034-.38.324.324,0,0,0,.086-.052.158.158,0,0,0,.046-.131.189.189,0,0,0-.032-.08c.017-.037.032-.073.052-.111a.745.745,0,0,1,.527-.449.289.289,0,0,1,.112,0c.017.005.017.01.017.013a.1.1,0,0,1-.006.046.206.206,0,0,0-.008.084c.005.043.035.1.157.109a.167.167,0,0,0,.135-.107.326.326,0,0,0,.027-.178.3.3,0,0,0-.149-.217.466.466,0,0,0-.315-.059,1.068,1.068,0,0,0-.751.57,2.041,2.041,0,0,0-.168.336l-.028.012a12.62,12.62,0,0,0-1.448.617.882.882,0,0,1-.235.1c-.017,0-.021,0-.022,0a.415.415,0,0,1-.039-.076.577.577,0,0,0-.091-.14,1.413,1.413,0,0,1-.1-.134.3.3,0,0,1-.049-.132.327.327,0,0,1,.049-.2.141.141,0,0,0,.021-.091.165.165,0,0,0-.059-.106.163.163,0,0,0-.133-.036,4.633,4.633,0,0,0-.926.648c-.319.257-.649.507-.979.745a1.906,1.906,0,0,1-.732.378c-.082.009-.119-.017-.131-.089a1.3,1.3,0,0,1,.051-.365c.018-.082.04-.162.063-.242.129-.118.186-.214.176-.3a.145.145,0,0,0-.043-.086c.061-.135.106-.176.13-.188.1-.049.115-.113.109-.158a.229.229,0,0,0-.057-.128.139.139,0,0,0-.124-.054c-.1.012-.193.121-.3.345-.048.1-.093.211-.134.322a5.753,5.753,0,0,1-1.111.733.78.78,0,0,1-.261.082.483.483,0,0,1-.271-.043.349.349,0,0,1-.171-.243.093.093,0,0,1,.021-.078.54.54,0,0,1,.083-.078l.043-.036a10.013,10.013,0,0,0,1.3-1.574,7.4,7.4,0,0,0,.95-1.8,1.53,1.53,0,0,0,.089-.664.449.449,0,0,0-.5-.453,1.281,1.281,0,0,0-.753.527,6.4,6.4,0,0,0-.74,1.159,9.027,9.027,0,0,0-.575,1.41,5.59,5.59,0,0,0-.262,1.322c0,.033-.006.055-.022.066a3.478,3.478,0,0,1-.4.257,1.24,1.24,0,0,1-.447.142c-.124.01-.128-.047-.132-.075a.368.368,0,0,1,0-.084.507.507,0,0,0,0-.112.243.243,0,0,0-.031-.094h0a.4.4,0,0,0,.142-.349.558.558,0,0,0-.626-.46l-.118.024a2.419,2.419,0,0,0-1.051.778,2.03,2.03,0,0,0-.354.605c-.045.063-.09.126-.141.193a2.159,2.159,0,0,1-.457.437,1.382,1.382,0,0,1-.64.235,1.088,1.088,0,0,1-.944-.3,5.852,5.852,0,0,1-.66-.857l-.3-.431c-.023-.033-.038-.055-.047-.068a.5.5,0,0,1,.082-.019,3.99,3.99,0,0,0,1.871-.909,6.335,6.335,0,0,0,1.308-1.495,2.146,2.146,0,0,0,.44-1.143.246.246,0,0,0-.068-.157.157.157,0,0,0-.131-.045.164.164,0,0,0-.092.041.122.122,0,0,0-.04.118l.024.08a2.218,2.218,0,0,1-.509,1.082,6.987,6.987,0,0,1-1.494,1.547,3.179,3.179,0,0,1-1.543.59.434.434,0,0,1-.239-.024.183.183,0,0,1-.093-.156v-.172a14.19,14.19,0,0,1,.348-2.454l.009-.054a.038.038,0,0,0,0-.012.139.139,0,0,0-.064-.108.169.169,0,0,0-.11-.022.174.174,0,0,0-.126.1,4.1,4.1,0,0,0-.173.805c-.084.479-.158,1.093-.22,1.831a.15.15,0,0,1-.058.149.184.184,0,0,0-.1.182.215.215,0,0,0,.048.113.535.535,0,0,1,.05.073.236.236,0,0,1,.026.086,2.438,2.438,0,0,1,0,.458,12.562,12.562,0,0,0,.036,1.909l.054.373a.363.363,0,0,0,.1.227.213.213,0,0,0,.137.057h.02a.173.173,0,0,0,.1-.049.134.134,0,0,0,.036-.122l-.023-.065a2.2,2.2,0,0,1-.1-.454,9.167,9.167,0,0,1-.059-.973c-.005-.365,0-.685.012-.954a2.917,2.917,0,0,1,.031-.389c.07-.007.153.043.242.153a5.576,5.576,0,0,1,.334.468c.138.212.295.432.469.657a1.583,1.583,0,0,0,1.441.66,1.747,1.747,0,0,0,.675-.222,1.948,1.948,0,0,0,.442-.333c.048-.052.1-.11.147-.172a.382.382,0,0,0,.275.088c.021,0,.043,0,.067,0a1.08,1.08,0,0,0,.444-.164c.141-.088.345-.236.606-.438l.274-.2a.413.413,0,0,0,.5.339l.023,0a1.359,1.359,0,0,0,.442-.121,1.9,1.9,0,0,0,.271-.161.313.313,0,0,1,.128-.07c.006,0,.012,0,.019.029a.591.591,0,0,0,.281.333.777.777,0,0,0,.478.079,1.186,1.186,0,0,0,.369-.115,5.1,5.1,0,0,0,.475-.26c.114-.068.224-.139.331-.213a1.141,1.141,0,0,0-.029.341.471.471,0,0,0,.14.287.411.411,0,0,0,.352.091,1.419,1.419,0,0,0,.543-.23c.411-.269.893-.616,1.432-1.03l.415-.311a1.135,1.135,0,0,0,.213.38.312.312,0,0,1,.1.156.06.06,0,0,1-.024.059.642.642,0,0,1-.126.076,1.645,1.645,0,0,0-.582.523.371.371,0,0,0-.064.232c.01.082.063.179.264.179h.008a1.07,1.07,0,0,0,.487-.263,1.106,1.106,0,0,0,.382-.514c.008-.031.05-.1.251-.209a10.238,10.238,0,0,1,1.227-.541l.1-.041a1.183,1.183,0,0,0,0,.256.677.677,0,0,0,.3.5.814.814,0,0,0,.47.143,1.033,1.033,0,0,0,.124-.008,1.394,1.394,0,0,0,.416-.122,9.9,9.9,0,0,0,1.132-.723c.291-.2.566-.382.82-.541.1-.062.184-.11.264-.152-.022.059-.042.121-.061.188a1.312,1.312,0,0,0-.047.511.545.545,0,0,0,.166.341.406.406,0,0,0,.287.113.539.539,0,0,0,.063,0,.858.858,0,0,0,.476-.244,1.212,1.212,0,0,0,.328-.5c.018-.058.041-.061.042-.062.034,0,.068,0,.1.006a1.156,1.156,0,0,0,.13,0,1.794,1.794,0,0,0,.18-.014,3.724,3.724,0,0,0,.884-.246,4.286,4.286,0,0,0,1-.574.241.241,0,0,0,.108-.2C469.239,167.677,469.211,167.605,469.072,167.6Zm-2.664.492a.573.573,0,0,1,.094.2.331.331,0,0,1-.2-.245c0-.036,0-.054,0-.059S466.344,168.009,466.407,168.1Zm-.411.141s.018.01.044.055a1.008,1.008,0,0,0,.14.18.758.758,0,0,0,.254.167c.029.012.048.026.049.037a.1.1,0,0,1-.01.053v0a.807.807,0,0,1-.541.5c-.063.008-.128,0-.145-.14a1.058,1.058,0,0,1,.024-.339,2.519,2.519,0,0,1,.1-.365C465.964,168.253,466,168.239,466,168.237Zm-8.65-2.738c.053,0,.109.026.13.156a1.553,1.553,0,0,1-.111.6,7.492,7.492,0,0,1-.907,1.668,9.6,9.6,0,0,1-1.151,1.4,3.071,3.071,0,0,1,.093-.5,9.42,9.42,0,0,1,.655-1.8,5.02,5.02,0,0,1,.726-1.121,1.143,1.143,0,0,1,.54-.4Zm-5.131,4.983a.223.223,0,0,1,0-.068c.061-.084.118-.165.169-.239.08-.118.128-.19.146-.221a.2.2,0,0,0,.023-.1,3.042,3.042,0,0,1,.252-.271,1.4,1.4,0,0,1,.66-.382.466.466,0,0,1,.057,0,.218.218,0,0,1,.148.047.221.221,0,0,1,.081.14.3.3,0,0,1-.151.271,3.364,3.364,0,0,0-.457.331,4.5,4.5,0,0,1-.606.425.819.819,0,0,1-.257.1C452.221,170.519,452.217,170.5,452.215,170.482Z" transform="translate(-439.059 -165.164)"/></g></g></g></svg>