<svg xmlns="http://www.w3.org/2000/svg" width="118.359" height="48.095" viewBox="0 0 118.359 48.095"><defs><style>.a{fill:#fff;}</style></defs><g transform="translate(-1150.999 -555)"><g transform="translate(930.74 421.551)"><path class="a" d="M224.25,144.938h1.232V134.552H229.3v-1.1h-8.876v1.1h3.822Z"/><path class="a" d="M238.868,144.938H240.1V133.449h-1.232V138.4h-5.74v-4.951H231.9v11.489h1.232v-5.4h5.74Z"/><path class="a" d="M251.926,143.834h-6.112V139.5h5.531v-1.1h-5.531v-3.848h5.918v-1.1h-7.151v11.489h7.344Z"/><path class="a" d="M241.064,160.636h-5.91v-4.331H240.5v-1.1h-5.349v-3.848h5.723v-1.1H233.96V161.74h7.1Z"/><path class="a" d="M245.844,151.962l5.563,9.759.01.018h1.46V150.251h-1.194v9.682l-5.563-9.664-.01-.018h-1.46V161.74h1.194Z"/><path class="a" d="M259.2,161.74h1.194V151.354h3.282v-1.1h-7.758v1.1H259.2Z"/><path class="a" d="M273.047,161.722l.01.018h1.455L271.28,156.3a3.8,3.8,0,0,0,1.079-.287,2.822,2.822,0,0,0,1.5-1.519,2.956,2.956,0,0,0,.221-1.159,3.293,3.293,0,0,0-.284-1.434,2.511,2.511,0,0,0-.8-.957,3.386,3.386,0,0,0-1.214-.53,6.7,6.7,0,0,0-1.512-.162h-3.7V161.74h1.194V156.4H270Zm-.879-6.893a3.623,3.623,0,0,1-2.069.5h-2.337v-4.009h2.384a5.335,5.335,0,0,1,1.13.112,2.5,2.5,0,0,1,.862.349,1.665,1.665,0,0,1,.549.617,2,2,0,0,1,.2.934A1.7,1.7,0,0,1,272.168,154.829Z"/><path class="a" d="M282.161,150.251h-1.017l-4.238,11.441-.018.048h1.168l1.064-3h5.009l1.079,3h1.181l-4.219-11.466Zm1.57,7.354h-4.212l2.106-5.922Z"/><path class="a" d="M290.541,160.636V150.251h-1.194V161.74h6.763v-1.1Z"/><path class="a" d="M229.273,167.476h-1.345l-4.967,5.093v-5.093h-1.232v11.489h1.232v-6.039l5.23,6.026.011.012h1.389l-5.262-6.275Z"/><rect class="a" width="1.232" height="11.489" transform="translate(231.685 167.476)"/><path class="a" d="M235.654,168.579h3.822v10.385h1.232V168.579h3.822v-1.1h-8.876Z"/><path class="a" d="M254.651,176.474a3.532,3.532,0,0,1-1.469,1.278,4.463,4.463,0,0,1-1.856.4,4.675,4.675,0,0,1-1.961-.4,4.47,4.47,0,0,1-1.48-1.076,4.815,4.815,0,0,1-.936-1.572,5.444,5.444,0,0,1-.329-1.885,5.557,5.557,0,0,1,.321-1.884,4.711,4.711,0,0,1,.928-1.572,4.47,4.47,0,0,1,1.48-1.076,4.72,4.72,0,0,1,1.977-.4,3.887,3.887,0,0,1,1.015.128,4.388,4.388,0,0,1,.871.336,3.208,3.208,0,0,1,.694.478,2.9,2.9,0,0,1,.47.541l.021.032,1.025-.752-.019-.029a3.4,3.4,0,0,0-.734-.76,4.878,4.878,0,0,0-.974-.574,5.912,5.912,0,0,0-2.385-.5,6.181,6.181,0,0,0-2.376.454,5.7,5.7,0,0,0-3.156,3.164,6.3,6.3,0,0,0-.454,2.416,6.417,6.417,0,0,0,.446,2.417,5.61,5.61,0,0,0,3.14,3.164,6.277,6.277,0,0,0,2.4.454,5.652,5.652,0,0,0,1.436-.173,5.345,5.345,0,0,0,1.2-.47,4.637,4.637,0,0,0,.959-.688,4.785,4.785,0,0,0,.707-.83l.02-.03-.963-.619Z"/><path class="a" d="M264.339,172.427h-5.307v-4.951H257.8v11.489h1.232v-5.4h5.307v5.4h1.232V167.476h-1.232Z"/><path class="a" d="M270.026,173.53h5.531v-1.1h-5.531v-3.848h5.918v-1.1h-7.151v11.489h7.344v-1.1h-6.112Z"/><path class="a" d="M285.47,177.156l-5.359-9.662-.01-.018h-1.508v11.489h1.232v-9.776l5.37,9.776H286.7V167.476H285.47Z"/><path class="a" d="M229.586,159.249a3.538,3.538,0,0,1-1.469,1.278,4.463,4.463,0,0,1-1.856.4,4.675,4.675,0,0,1-1.961-.4,4.469,4.469,0,0,1-1.48-1.076,4.815,4.815,0,0,1-.936-1.572,5.444,5.444,0,0,1-.329-1.885,5.556,5.556,0,0,1,.321-1.884,4.71,4.71,0,0,1,.928-1.572,4.47,4.47,0,0,1,1.48-1.076,4.72,4.72,0,0,1,1.977-.4,3.887,3.887,0,0,1,1.015.128,4.388,4.388,0,0,1,.871.336,3.163,3.163,0,0,1,.694.478,2.9,2.9,0,0,1,.47.541l.021.032,1.026-.752-.02-.029a3.417,3.417,0,0,0-.733-.76,4.917,4.917,0,0,0-.975-.575,5.934,5.934,0,0,0-2.385-.5,6.181,6.181,0,0,0-2.376.454,5.7,5.7,0,0,0-3.156,3.164,6.3,6.3,0,0,0-.454,2.416,6.408,6.408,0,0,0,.446,2.416,5.608,5.608,0,0,0,3.14,3.165,6.277,6.277,0,0,0,2.4.454,5.652,5.652,0,0,0,1.436-.173,5.371,5.371,0,0,0,1.2-.47,4.657,4.657,0,0,0,.958-.688,4.785,4.785,0,0,0,.707-.83l.02-.03-.963-.619Z"/></g><g transform="translate(930.74 421.551)"><path class="a" d="M302.486,173.421a1.307,1.307,0,0,0-.385.146l-.288.141c-.289.135-.688.34-1.186.612a2.5,2.5,0,0,0-.344-.743.613.613,0,0,0-.6-.216,1.656,1.656,0,0,0-.828.409c-.28.232-.544.468-.784.7a4.567,4.567,0,0,1-.512.466.225.225,0,0,1-.052.045l-.013,0a.356.356,0,0,1-.006-.037,2.332,2.332,0,0,1,.083-.672.244.244,0,0,0,.08-.224.356.356,0,0,0-.014-.043,3.51,3.51,0,0,1,.447-1.017.288.288,0,0,0,.052-.194.21.21,0,0,0-.08-.142.236.236,0,0,0-.18-.039l-.078.024a1.065,1.065,0,0,0-.394.535,4.736,4.736,0,0,0-.246.714l-.333.11c-.329.111-.8.242-1.413.391-.44.108-.951.205-1.517.289l-.018.006c-.324.047-1.623.215-1.636.217-.06.007-.1.012-.137.013a.785.785,0,0,1,.034-.137,17.927,17.927,0,0,1,1.446-3.641A8.56,8.56,0,0,1,295.155,169a4.241,4.241,0,0,1,.775-.582.069.069,0,0,0,.028-.028l.009-.016a.076.076,0,0,0,.008-.024.309.309,0,0,0-.077-.3.363.363,0,0,0-.337-.032l-.024.013c-.047.027-.094.053-.145.086a6.7,6.7,0,0,0-1.744,1.929,15.823,15.823,0,0,0-1.333,2.653,15.562,15.562,0,0,0-.891,2.913l-.058.3a.08.08,0,0,0,0,.022.445.445,0,0,1-.014.144c0,.02-.01.066-.024.261a2.743,2.743,0,0,0,.02.508,1.813,1.813,0,0,0,.305.853.869.869,0,0,0,.662.373.754.754,0,0,0,.082,0,1.143,1.143,0,0,0,.791-.553,1.547,1.547,0,0,0,.262-1.091,1.569,1.569,0,0,0-.674-1.088l.7-.085c.465-.057,1.026-.152,1.669-.282a19.239,19.239,0,0,0,1.894-.506,2.331,2.331,0,0,0-.015.59.644.644,0,0,0,.137.362.341.341,0,0,0,.311.1,2.344,2.344,0,0,0,1.073-.773c.214-.21.424-.4.624-.576a1.062,1.062,0,0,1,.528-.284c.215-.024.36.18.441.608a.2.2,0,0,1-.011.1,1.375,1.375,0,0,1-.338.225,18.894,18.894,0,0,0-1.872,1.228,9.191,9.191,0,0,0-3.1,3.231,2.238,2.238,0,0,0-.256,1.181,1.112,1.112,0,0,0,.537.842,1.55,1.55,0,0,0,.84.23,2.254,2.254,0,0,0,.255-.016,3.579,3.579,0,0,0,2.043-1.171,9,9,0,0,0,1.7-2.485,7.581,7.581,0,0,0,.745-2.9c0-.019,0-.078.092-.141.572-.321,1.027-.555,1.352-.695a4.444,4.444,0,0,0,.46-.225c.125-.075.182-.164.17-.264a.273.273,0,0,0-.083-.165A.219.219,0,0,0,302.486,173.421Zm-2.338,1.8a7.6,7.6,0,0,1-.746,2.54,8.547,8.547,0,0,1-1.55,2.243,3.073,3.073,0,0,1-1.735,1.018,1.148,1.148,0,0,1-.711-.112.628.628,0,0,1-.323-.506,1.42,1.42,0,0,1-.005-.22,3.134,3.134,0,0,1,.836-1.7,11.31,11.31,0,0,1,1.747-1.625,21.228,21.228,0,0,1,1.772-1.219C299.842,175.4,300.047,175.282,300.148,175.225Zm-8.09,2.182a1.274,1.274,0,0,1-.194-.592,3.79,3.79,0,0,1,.039-1c.038-.174.12-.2.179-.211l.035,0a.778.778,0,0,1,.48.262,1.127,1.127,0,0,1,.359.7,1,1,0,0,1-.455.929.36.36,0,0,1-.166.081C292.24,177.586,292.147,177.532,292.058,177.407Z"/><path class="a" d="M320.431,169.108a.936.936,0,0,0-.226.632.3.3,0,0,0,.319.281c.049-.006.165-.038.175-.224l-.005-.034a.421.421,0,0,1,.089-.268.344.344,0,0,0,.085-.25.255.255,0,0,0-.1-.176.246.246,0,0,0-.182-.051A.259.259,0,0,0,320.431,169.108Z"/><path class="a" d="M338.345,168.987a.548.548,0,0,0-.247.11,6.736,6.736,0,0,1-1.456.822,5.121,5.121,0,0,1-1.207.335c-.425.052-.5.018-.512.011a.252.252,0,0,1-.075-.175,1.245,1.245,0,0,0-.363-.758.756.756,0,0,0-.6-.272c-.167.02-.3.149-.386.39-.011.049-.028.051-.033.052l-.058.006a.322.322,0,0,0-.147.068h-.022a3.382,3.382,0,0,0-1.245.573c-.525.338-1.028.679-1.494,1.012-.337.236-.593.411-.759.516a3.35,3.35,0,0,1-1.145.466c-.445.054-.676-.116-.728-.537a1.594,1.594,0,0,1,.053-.6.508.508,0,0,0,.134-.082.249.249,0,0,0,.072-.205.283.283,0,0,0-.05-.126c.027-.058.051-.115.083-.174a1.165,1.165,0,0,1,.826-.7.449.449,0,0,1,.175,0c.026.008.027.015.028.02a.194.194,0,0,1-.009.072.325.325,0,0,0-.014.132c.008.067.055.152.247.171a.263.263,0,0,0,.212-.167.509.509,0,0,0,.041-.279.463.463,0,0,0-.233-.34.732.732,0,0,0-.494-.092,1.675,1.675,0,0,0-1.178.893,3.194,3.194,0,0,0-.264.526l-.044.019a19.638,19.638,0,0,0-2.268.967,1.4,1.4,0,0,1-.369.158c-.026,0-.033,0-.033,0a.588.588,0,0,1-.061-.119.933.933,0,0,0-.142-.22,2.406,2.406,0,0,1-.158-.21.474.474,0,0,1-.077-.207.513.513,0,0,1,.078-.309.234.234,0,0,0,.033-.143.256.256,0,0,0-.093-.166.253.253,0,0,0-.207-.057,7.251,7.251,0,0,0-1.452,1.016c-.5.4-1.016.794-1.534,1.168a2.987,2.987,0,0,1-1.147.593c-.129.014-.186-.027-.206-.14a2.08,2.08,0,0,1,.08-.572c.029-.128.063-.254.1-.379.2-.185.291-.336.275-.465a.228.228,0,0,0-.068-.134c.1-.211.167-.276.2-.295.158-.077.18-.177.172-.248a.361.361,0,0,0-.091-.2.216.216,0,0,0-.193-.084c-.154.019-.3.19-.468.54-.076.161-.146.33-.21.505a9,9,0,0,1-1.74,1.148,1.229,1.229,0,0,1-.409.128.758.758,0,0,1-.426-.067.547.547,0,0,1-.267-.38.149.149,0,0,1,.032-.122.852.852,0,0,1,.131-.122L317,172.2a15.577,15.577,0,0,0,2.04-2.466,11.605,11.605,0,0,0,1.489-2.82,2.4,2.4,0,0,0,.139-1.041.7.7,0,0,0-.785-.709,2.005,2.005,0,0,0-1.178.826,9.971,9.971,0,0,0-1.161,1.816,14.14,14.14,0,0,0-.9,2.209,8.751,8.751,0,0,0-.409,2.072c0,.052-.009.086-.034.1a5.54,5.54,0,0,1-.628.4,1.954,1.954,0,0,1-.7.223c-.194.015-.2-.074-.207-.117a.572.572,0,0,1,0-.131.742.742,0,0,0,0-.176.365.365,0,0,0-.049-.148h0a.626.626,0,0,0,.223-.546.876.876,0,0,0-.981-.721l-.186.037a3.792,3.792,0,0,0-1.646,1.219,3.182,3.182,0,0,0-.555.948c-.07.1-.142.2-.222.3a3.361,3.361,0,0,1-.716.684,2.161,2.161,0,0,1-1,.368,1.706,1.706,0,0,1-1.479-.465,9.105,9.105,0,0,1-1.033-1.343l-.473-.676c-.037-.051-.06-.086-.073-.107a.769.769,0,0,1,.127-.03,6.251,6.251,0,0,0,2.931-1.424,9.926,9.926,0,0,0,2.049-2.342,3.375,3.375,0,0,0,.69-1.791.391.391,0,0,0-.106-.246.249.249,0,0,0-.206-.071.26.26,0,0,0-.144.065.191.191,0,0,0-.062.185l.039.126a3.481,3.481,0,0,1-.8,1.695,10.945,10.945,0,0,1-2.341,2.424,4.977,4.977,0,0,1-2.418.925.681.681,0,0,1-.375-.037.291.291,0,0,1-.145-.244l0-.269a22.232,22.232,0,0,1,.545-3.845l.013-.085a.062.062,0,0,0,0-.019.213.213,0,0,0-.1-.169.263.263,0,0,0-.173-.035.275.275,0,0,0-.2.153,6.641,6.641,0,0,0-.271,1.262c-.132.75-.247,1.712-.344,2.869a.235.235,0,0,1-.09.234.285.285,0,0,0-.154.285.329.329,0,0,0,.074.177.952.952,0,0,1,.08.115.37.37,0,0,1,.04.134,3.91,3.91,0,0,1,0,.718,19.54,19.54,0,0,0,.057,2.991l.083.584a.573.573,0,0,0,.163.356.334.334,0,0,0,.215.09l.032,0a.271.271,0,0,0,.159-.076.209.209,0,0,0,.055-.191l-.036-.1a3.517,3.517,0,0,1-.156-.711,14.135,14.135,0,0,1-.092-1.525c-.008-.572,0-1.074.018-1.494a4.722,4.722,0,0,1,.047-.609c.111-.011.24.068.379.239a8.523,8.523,0,0,1,.524.734c.215.332.462.677.734,1.03a2.478,2.478,0,0,0,2.257,1.034,2.733,2.733,0,0,0,1.056-.348,3.039,3.039,0,0,0,.694-.522c.075-.082.152-.172.23-.269a.6.6,0,0,0,.43.138c.033,0,.068,0,.1,0a1.7,1.7,0,0,0,.7-.257c.22-.138.54-.369.95-.687l.429-.316a.647.647,0,0,0,.792.531l.035,0a2.114,2.114,0,0,0,.693-.19,2.921,2.921,0,0,0,.424-.252.5.5,0,0,1,.2-.11c.009,0,.018,0,.03.046a.927.927,0,0,0,.441.522,1.218,1.218,0,0,0,.749.123,1.849,1.849,0,0,0,.578-.18,7.727,7.727,0,0,0,.745-.408c.179-.106.352-.218.52-.333a1.723,1.723,0,0,0-.045.535.731.731,0,0,0,.218.45.646.646,0,0,0,.553.142,2.235,2.235,0,0,0,.851-.36c.644-.422,1.4-.965,2.244-1.613l.651-.487a1.743,1.743,0,0,0,.334.6.484.484,0,0,1,.157.245.094.094,0,0,1-.038.092.976.976,0,0,1-.2.119,2.586,2.586,0,0,0-.912.82.581.581,0,0,0-.1.364c.016.128.1.28.414.28h.012a1.673,1.673,0,0,0,.762-.412,1.735,1.735,0,0,0,.6-.806c.012-.048.079-.154.393-.327a16.114,16.114,0,0,1,1.922-.848l.162-.064a1.852,1.852,0,0,0,0,.4,1.06,1.06,0,0,0,.468.777,1.275,1.275,0,0,0,.737.224,1.6,1.6,0,0,0,.194-.012,2.189,2.189,0,0,0,.653-.191,15.608,15.608,0,0,0,1.774-1.132c.455-.314.887-.6,1.284-.847.153-.1.289-.173.413-.238-.033.093-.066.19-.1.295a2.037,2.037,0,0,0-.073.8.853.853,0,0,0,.259.535.637.637,0,0,0,.45.177.832.832,0,0,0,.1-.006,1.346,1.346,0,0,0,.747-.383,1.9,1.9,0,0,0,.513-.783c.028-.091.065-.1.066-.1.054,0,.108,0,.162.009a1.813,1.813,0,0,0,.2.006,2.819,2.819,0,0,0,.282-.022,5.835,5.835,0,0,0,1.385-.385,6.716,6.716,0,0,0,1.574-.9.38.38,0,0,0,.171-.317C338.607,169.1,338.563,168.989,338.345,168.987Zm-4.175.771a.881.881,0,0,1,.147.31.518.518,0,0,1-.311-.384c-.007-.057,0-.084-.005-.092C334.018,169.6,334.071,169.621,334.17,169.758Zm-.644.221s.028.015.069.086a1.588,1.588,0,0,0,.221.282,1.172,1.172,0,0,0,.4.262c.046.018.075.04.077.058a.151.151,0,0,1-.015.083v0a1.264,1.264,0,0,1-.848.776c-.1.012-.2-.005-.227-.22a1.662,1.662,0,0,1,.038-.531,3.706,3.706,0,0,1,.162-.572C333.475,170,333.526,169.981,333.526,169.979Zm-13.551-4.29c.083,0,.17.041.2.245a2.428,2.428,0,0,1-.173.935,11.739,11.739,0,0,1-1.421,2.613,15.042,15.042,0,0,1-1.8,2.2,4.809,4.809,0,0,1,.145-.778,14.765,14.765,0,0,1,1.026-2.821,7.867,7.867,0,0,1,1.138-1.757,1.787,1.787,0,0,1,.847-.631A.256.256,0,0,1,319.975,165.689Zm-8.04,7.807a.357.357,0,0,1,.008-.107c.094-.132.184-.259.264-.375.126-.185.2-.3.228-.347a.314.314,0,0,0,.037-.162,4.625,4.625,0,0,1,.4-.424,2.184,2.184,0,0,1,1.033-.6.729.729,0,0,1,.09-.006.344.344,0,0,1,.233.073.339.339,0,0,1,.126.22.466.466,0,0,1-.236.425,5.269,5.269,0,0,0-.716.519,7.1,7.1,0,0,1-.948.666,1.291,1.291,0,0,1-.4.162C311.943,173.554,311.938,173.519,311.935,173.5Z"/></g></g></svg>