<svg xmlns="http://www.w3.org/2000/svg" width="70.254" height="66" viewBox="0 0 70.254 66"><defs><style>.a{fill:#0a0809;}.b{fill:#c50021;}</style></defs><g transform="translate(-135.275 -44.895)"><g transform="translate(135.275 96.742)"><path class="a" d="M162.614,83.262v-.851a3.94,3.94,0,0,0,3.368-3.515h.411v3.2h2.8v1.557a2.894,2.894,0,0,0-1.72-.4h-1.083v5.085c0,1.346.248,1.819,1.014,1.885a4.071,4.071,0,0,0,2.046-.756l-.479,1.827a10.053,10.053,0,0,1-1.941.207,2.656,2.656,0,0,1-2.909-2.845v-5.4Z" transform="translate(-119.711 -77.385)"/><path class="a" d="M153.117,90.776c2.023-.031,3.194-1.8,3.194-3.738,0-2.15-1.135-3.164-2.156-3.313a3.108,3.108,0,0,0-1.8.306l.829-1.894a17.47,17.47,0,0,1,2.081.19,4.332,4.332,0,0,1,3.31,4.515c0,2.82-1.853,5.232-5.684,5.232a21.081,21.081,0,0,1-3.878-.477,2.862,2.862,0,0,0,.665-2.062V81.464a3.065,3.065,0,0,0-.712-2.34l2.917-1.191a9.615,9.615,0,0,0-.119,1.442v11.2A3.859,3.859,0,0,0,153.117,90.776Z" transform="translate(-127.481 -77.933)"/><path class="a" d="M151.172,90.56a4.614,4.614,0,0,1-2.115-.937,3.507,3.507,0,0,1-.546-2.18c-.041-.907-.091-2.26-.091-2.26-.6.251-1.392.439-2.144.667-.973.293-1.588.612-1.761,1.379a1.457,1.457,0,0,0,1.351,1.753,4.591,4.591,0,0,0,2.162-.281l-.814,1.858a13.01,13.01,0,0,1-2.316-.116,2.912,2.912,0,0,1-2.508-2.886,2.479,2.479,0,0,1,.931-2,7.221,7.221,0,0,1,3-1.108c1.514-.358,2.076-.742,2.032-1.359-.049-.664-.653-1.155-1.965-1.116a7.674,7.674,0,0,0-2.7.846l.946-2.166c1.175.05,1.783-.06,2.753-.038a2.805,2.805,0,0,1,3.021,2.972c.025.577.068,3.266.1,3.933s-.006,1.659,1.591.916Z" transform="translate(-131.224 -76.406)"/><path class="a" d="M135.275,88.431c.816.516,2.969,1.9,4.73,1.974,1.836.077,2.906-.907,2.853-2.115-.063-1.434-1.974-2.053-3.8-2.911-2.484-1.166-3.473-2.368-3.335-3.991.16-1.894,1.761-3.285,4.33-3.393a22.247,22.247,0,0,1,4.143.406l.138,2.469a6.839,6.839,0,0,0-3.663-1.55c-1.442-.031-2.545.661-2.545,1.866,0,1.161.948,1.674,2.5,2.454a20.647,20.647,0,0,1,3.15,1.728,3.347,3.347,0,0,1,1.4,2.867c-.033,1.991-1.709,3.862-5.034,3.81a25.386,25.386,0,0,1-4.311-.753Z" transform="translate(-135.275 -77.904)"/><path class="a" d="M164.676,82.042a4.945,4.945,0,0,0-3.6-1.436,5.521,5.521,0,0,0-3.752,1.455,4.895,4.895,0,0,0-1.571,3.633,4.582,4.582,0,0,0,1.419,3.457,5.247,5.247,0,0,0,3.721,1.414,5.327,5.327,0,0,0,3.686-1.436,4.943,4.943,0,0,0,.094-7.087m-3.636,7.165c-1.687,0-3.088-1.549-3.088-3.906a3.053,3.053,0,0,1,2.908-3.321c1.715,0,3.048,1.646,3.048,3.771,0,2.042-1.084,3.456-2.867,3.456" transform="translate(-123.615 -76.411)"/><path class="a" d="M183.011,88.512V84.178a3.441,3.441,0,0,0-3.415-3.565,3.7,3.7,0,0,0-2.98,1.445l-.083-1.488-2.594,1.061a2.447,2.447,0,0,1,.756,1.82v5.061a2.378,2.378,0,0,1-.507,1.747h3.054a2.378,2.378,0,0,1-.507-1.747v-4a2.2,2.2,0,0,1,2.2-2.275c1.257,0,2.034,1.023,2.034,2.418v3.876a2.358,2.358,0,0,1-.507,1.726h3.054A2.371,2.371,0,0,1,183.011,88.512Z" transform="translate(-113.264 -76.432)"/><path class="a" d="M170.452,85.559a8.474,8.474,0,0,1,1.98-.179H176.7c.122-2.971-1.6-4.768-4.5-4.768a4.79,4.79,0,0,0-4.874,4.876,5.118,5.118,0,0,0,5.416,5.05,9.877,9.877,0,0,0,3.283-.565l.563-2.148a6.13,6.13,0,0,1-3.4,1.266,3.269,3.269,0,0,1-3.084-1.817,4.653,4.653,0,0,1-.182-3.382,2.743,2.743,0,0,1,2.5-2.017,2.031,2.031,0,0,1,2.1,2.271h-3.454Z" transform="translate(-117.024 -76.407)"/></g><path class="b" d="M166.21,44.895A23.605,23.605,0,1,0,189.815,68.5,23.607,23.607,0,0,0,166.21,44.895Zm14.941,9.813a19.819,19.819,0,0,1,4.474,7.748.113.113,0,0,1-.154.137c-.956-.419-4.363-1.557-4.855-2.409s.226-4.374.341-5.411A.113.113,0,0,1,181.151,54.708Zm-1.266-2.594a.058.058,0,0,1,.088.074c-.505.846-1.591,2.9-2.387,4.545a4.248,4.248,0,0,1-1.139,1.444l-5.38,4.684a.1.1,0,0,1-.148-.122l3.68-6.112a4.213,4.213,0,0,1,1.224-1.372C177.3,54.184,179.138,52.759,179.885,52.114ZM168.79,48.33a19.856,19.856,0,0,1,8.407,3.059.113.113,0,0,1-.03.2c-1,.292-4.344,1.612-5.268,1.276s-2.638-3.5-3.217-4.364A.113.113,0,0,1,168.79,48.33Zm-2.58-1.222a.057.057,0,0,1,.057.05c.157.973.65,3.247,1.094,5.015a4.225,4.225,0,0,1,.055,1.838l-1.109,7.046a.1.1,0,0,1-.1.082.1.1,0,0,1-.1-.08L165,54.011a4.226,4.226,0,0,1,.056-1.838c.444-1.769.935-4.043,1.092-5.015A.057.057,0,0,1,166.21,47.108ZM155.22,51.39a19.831,19.831,0,0,1,8.407-3.06.113.113,0,0,1,.108.174c-.579.868-2.291,4.027-3.215,4.364s-4.269-.982-5.27-1.276A.113.113,0,0,1,155.22,51.39Zm-2.762.723a.056.056,0,0,1,.075,0c.747.645,2.585,2.07,4.061,3.14a4.213,4.213,0,0,1,1.224,1.372l3.68,6.112a.1.1,0,0,1-.148.124l-5.38-4.686a4.248,4.248,0,0,1-1.139-1.444c-.8-1.64-1.882-3.7-2.387-4.545A.055.055,0,0,1,152.458,52.114Zm-5.665,10.343a19.832,19.832,0,0,1,4.473-7.749.115.115,0,0,1,.2.064c.113,1.039.833,4.559.341,5.411s-3.9,1.99-4.855,2.41A.114.114,0,0,1,146.793,62.457Zm-1.651,2.329a.058.058,0,0,1,.058-.049c.986.016,3.31-.074,5.128-.2a4.208,4.208,0,0,1,1.82.264l6.748,2.316a.1.1,0,0,1,.063.108.1.1,0,0,1-.1.082l-7.132-.132a4.214,4.214,0,0,1-1.8-.373c-1.665-.744-3.818-1.623-4.75-1.946A.057.057,0,0,1,145.142,64.786Zm1.028,7.249a19.636,19.636,0,0,1-.273-4.494.114.114,0,0,1,.191-.075c.753.722,3.567,2.957,3.738,3.925s-1.709,4.032-2.17,4.968a.114.114,0,0,1-.206-.006A19.753,19.753,0,0,1,146.17,72.034Zm10.877,14.411a.113.113,0,0,1-.162.127,19.844,19.844,0,0,1-6.853-5.75.114.114,0,0,1,.1-.182c1.042.067,4.633-.028,5.387.6S156.8,85.432,157.047,86.445Zm-4.4-8.787c-1.753.5-3.969,1.21-4.89,1.561a.055.055,0,0,1-.071-.025.056.056,0,0,1,.014-.075c.764-.621,2.487-2.184,3.8-3.452a4.233,4.233,0,0,1,1.565-.968l6.657-2.563a.1.1,0,0,1,.1.166l-5.549,4.485A4.22,4.22,0,0,1,152.643,77.659ZM158.892,88.6a.058.058,0,0,1-.038-.066c.187-.968.5-3.274.689-5.086a4.206,4.206,0,0,1,.578-1.747l3.452-6.243a.1.1,0,0,1,.18.066l-1.367,7a4.245,4.245,0,0,1-.681,1.709c-1.023,1.51-2.263,3.478-2.743,4.339A.056.056,0,0,1,158.892,88.6Zm11.79-.265a19.813,19.813,0,0,1-8.947,0,.113.113,0,0,1-.041-.2c.841-.618,3.531-3,4.515-3s3.674,2.382,4.515,3A.113.113,0,0,1,170.682,88.338Zm2.192-4.887c.187,1.813.5,4.118.689,5.086a.058.058,0,0,1-.108.039c-.48-.862-1.72-2.829-2.742-4.339a4.2,4.2,0,0,1-.681-1.709l-1.368-7a.1.1,0,0,1,.18-.066L172.3,81.7A4.206,4.206,0,0,1,172.875,83.451Zm9.513-2.63a19.826,19.826,0,0,1-6.853,5.751.114.114,0,0,1-.162-.127c.248-1.014.775-4.568,1.53-5.2s4.345-.535,5.387-.6A.113.113,0,0,1,182.388,80.821Zm2.348-1.624a.054.054,0,0,1-.071.025c-.921-.352-3.137-1.061-4.89-1.561a4.22,4.22,0,0,1-1.62-.871l-5.549-4.483a.1.1,0,0,1,.1-.168l6.657,2.563a4.233,4.233,0,0,1,1.565.968c1.309,1.268,3.032,2.831,3.8,3.454A.054.054,0,0,1,184.736,79.2Zm1.786-11.657a19.819,19.819,0,0,1-1.554,8.81.112.112,0,0,1-.2.006c-.463-.935-2.343-4-2.172-4.967s2.985-3.2,3.74-3.926A.113.113,0,0,1,186.521,67.54Zm.716-2.69c-.931.323-3.084,1.2-4.749,1.946a4.221,4.221,0,0,1-1.8.373l-7.132.132a.1.1,0,0,1-.1-.082.094.094,0,0,1,.063-.108l6.748-2.316a4.2,4.2,0,0,1,1.819-.264c1.819.13,4.143.22,5.13.2a.059.059,0,0,1,.019.115Z" transform="translate(4.172 0)"/></g></svg>