<svg xmlns="http://www.w3.org/2000/svg" width="115.565" height="19.188" viewBox="0 0 115.565 19.188"><defs><style>.a{fill:#fff;}</style></defs><g transform="translate(-402 -575.312)"><g transform="translate(402 576.334)"><path class="a" d="M-559.1,747.364a8.992,8.992,0,0,0-8.9,9.083,8.992,8.992,0,0,0,8.9,9.083,8.992,8.992,0,0,0,8.9-9.083,8.992,8.992,0,0,0-8.9-9.083m8.031,7.638c.138.8-5.079,1.252-7.958,1.432,2.766-.836,7.82-2.232,7.958-1.432m-2.541-3.547a4.484,4.484,0,0,0,.327-.851,8.441,8.441,0,0,1,1.245,1.681,8.561,8.561,0,0,1,.8,1.941,4.256,4.256,0,0,0-.886-.136l-1.587-.822Zm-.248-1.384c.608.52-3.1,4.292-5.195,6.319,1.592-2.455,4.585-6.841,5.195-6.319m-2.453-1.446a8.233,8.233,0,0,1,1.838.959,4.326,4.326,0,0,0-.764.477l-1.733.412-1.068-1.453a4.5,4.5,0,0,0-.285-.867,8.149,8.149,0,0,1,2.012.471m-2.789-.5c.793,0,.326,5.324,0,8.249-.327-2.926-.8-8.249,0-8.249m-2.79.5a8.148,8.148,0,0,1,2.012-.471,4.5,4.5,0,0,0-.285.867l-1.068,1.453-1.733-.412a4.325,4.325,0,0,0-.764-.477,8.23,8.23,0,0,1,1.838-.959m-2.452,1.445c.608-.521,3.6,3.864,5.195,6.319-2.092-2.027-5.8-5.8-5.195-6.319m-1.821,2.215a8.466,8.466,0,0,1,1.245-1.681,4.492,4.492,0,0,0,.328.851l.1,1.813-1.587.822a4.256,4.256,0,0,0-.886.136,8.589,8.589,0,0,1,.8-1.941m-.969,2.716c.138-.8,5.193.6,7.958,1.432-2.879-.18-8.1-.633-7.958-1.432m0,2.892a8.654,8.654,0,0,1-.105-2.1,4.31,4.31,0,0,0,.787.437l1.216,1.326-.7,1.671a4.4,4.4,0,0,0-.593.685,8.617,8.617,0,0,1-.606-2.014m.969,2.716c-.4-.7,4.353-2.95,7-4.125-2.318,1.752-6.6,4.828-7,4.125m3.553,3.36a8.277,8.277,0,0,1-1.732-1.145,8.4,8.4,0,0,1-1.406-1.543,4.257,4.257,0,0,0,.878-.182l1.766.218.517,1.738a4.521,4.521,0,0,0-.023.914m.719.3c-.745-.277,1.478-5.116,2.764-7.751-.673,2.863-2.016,8.029-2.764,7.751m2.79.5a8.126,8.126,0,0,1-2.049-.26,4.418,4.418,0,0,0,.558-.715l1.49-.992,1.49.992a4.414,4.414,0,0,0,.558.715,8.125,8.125,0,0,1-2.048.26m2.788-.5c-.745.277-2.09-4.889-2.764-7.751,1.287,2.635,3.511,7.474,2.764,7.751m2.453-1.446a8.281,8.281,0,0,1-1.733,1.145,4.512,4.512,0,0,0-.023-.914l.517-1.738,1.767-.218a4.26,4.26,0,0,0,.878.182,8.4,8.4,0,0,1-1.405,1.543m1.82-2.214c-.4.7-4.679-2.373-7-4.125,2.645,1.174,7.4,3.421,7,4.125m.363-.7a4.383,4.383,0,0,0-.593-.685l-.7-1.671,1.216-1.326a4.3,4.3,0,0,0,.787-.437,8.638,8.638,0,0,1-.105,2.1,8.58,8.58,0,0,1-.607,2.014" transform="translate(568 -747.364)"/></g><g transform="translate(423.286 578.063)"><path class="a" d="M-468.268,761.342c-1.483-.659-2.763-1.229-2.763-2.468a2.1,2.1,0,0,1,2.359-2.213,6.506,6.506,0,0,1,3.843,1.371v-2.206l-.37-.212a8.382,8.382,0,0,0-3.174-.59,5.367,5.367,0,0,0-3.367,1.082,3.276,3.276,0,0,0-1.391,2.768c0,2.51,2.23,3.48,4.022,4.259l.287.125c1.615.635,2.433,1.446,2.433,2.411,0,1.515-.974,2.283-2.9,2.283a9.46,9.46,0,0,1-4.383-1.631l.772,2.694.37.212a8.582,8.582,0,0,0,3.242.657c3.08,0,4.994-1.615,4.994-4.215,0-2.56-2.114-3.5-3.979-4.328" transform="translate(473.666 -755.024)"/></g><g transform="translate(450.115 575.312)"><path class="a" d="M-353.974,742.833h-.79a2.34,2.34,0,0,1,.79,1.741v8.44a7.961,7.961,0,0,0,1.771,5.462,5.632,5.632,0,0,0,4.369,1.968,5.631,5.631,0,0,0,4.369-1.968,7.832,7.832,0,0,0,1.8-5.462,8.339,8.339,0,0,0-1.64-5.268,4.97,4.97,0,0,0-4.23-2.163,5.226,5.226,0,0,0-3.564,1.376,3.77,3.77,0,0,0-.618.655c-.016.023-.031.044-.049.066l-.113.149v-5Zm9.089,14.23a3.561,3.561,0,0,1-2.949,1.45,3.562,3.562,0,0,1-2.95-1.451,6.727,6.727,0,0,1-1.09-4.048c0-3.289,1.664-5.5,4.142-5.5,2.414,0,3.974,2.158,3.974,5.5a6.428,6.428,0,0,1-1.125,4.049" transform="translate(354.763 -742.833)"/></g><g transform="translate(466.098 578.063)"><path class="a" d="M-277.792,755.024a5.556,5.556,0,0,0-4.335,2,7.772,7.772,0,0,0-1.8,5.428,7.832,7.832,0,0,0,1.8,5.462,5.623,5.623,0,0,0,4.335,1.969,5.623,5.623,0,0,0,4.335-1.968,7.832,7.832,0,0,0,1.8-5.462,7.772,7.772,0,0,0-1.8-5.429,5.556,5.556,0,0,0-4.335-2m2.846,11.515a3.752,3.752,0,0,1-2.846,1.415,3.751,3.751,0,0,1-2.846-1.415,6.233,6.233,0,0,1-1.194-4.084,6.233,6.233,0,0,1,1.195-4.084,3.751,3.751,0,0,1,2.846-1.414,3.751,3.751,0,0,1,2.847,1.415,6.233,6.233,0,0,1,1.194,4.083,6.233,6.233,0,0,1-1.195,4.084" transform="translate(283.932 -755.024)"/></g><g transform="translate(489.917 578.063)"><path class="a" d="M-172.229,755.024a5.556,5.556,0,0,0-4.335,2,7.771,7.771,0,0,0-1.8,5.428,7.831,7.831,0,0,0,1.8,5.462,5.623,5.623,0,0,0,4.335,1.969,5.573,5.573,0,0,0,3.8-1.471,6.537,6.537,0,0,0,2.162-3.778H-168.4a3.8,3.8,0,0,1-3.826,3.318c-2.182,0-3.755-1.844-4.007-4.7l-.006-.067h10.119v-1.33a7.028,7.028,0,0,0-1.772-4.8,5.548,5.548,0,0,0-4.335-2.034m-3.971,6.344c.272-3.03,2.189-4.387,3.971-4.387s3.7,1.357,3.971,4.387Z" transform="translate(178.369 -755.024)"/></g><g transform="translate(479.985 575.312)"><path class="a" d="M-217.96,754.97v-7h3.4v-1.932h-3.4v-3.2h-1.448a7.366,7.366,0,0,1-.2,1.576,4.613,4.613,0,0,1-.451,1.163,3.429,3.429,0,0,1-.256.389,2.831,2.831,0,0,1-2.071,1.135v.877h2.327v6.964a5.006,5.006,0,0,0,1.421,3.879,6.16,6.16,0,0,0,4.218,1.3v-1.932c-2.513-.015-3.54-.949-3.54-3.211" transform="translate(222.386 -742.833)"/></g><g transform="translate(435.172 578.063)"><path class="a" d="M-408.67,767.51v.05l0,.005v-5.111a7.961,7.961,0,0,0-1.771-5.462,5.633,5.633,0,0,0-4.369-1.968,5.7,5.7,0,0,0-4.4,2,7.908,7.908,0,0,0-1.771,5.429,8.706,8.706,0,0,0,1.605,5.3,5.135,5.135,0,0,0,4.265,2.131,5.227,5.227,0,0,0,3.564-1.376,3.785,3.785,0,0,0,.619-.655c.016-.023.031-.044.048-.066l.113-.148V769.6h2.905a2.518,2.518,0,0,1-.8-2.093m-6.246.443c-2.414,0-3.974-2.159-3.974-5.5a6.428,6.428,0,0,1,1.125-4.048,3.559,3.559,0,0,1,2.949-1.45,3.5,3.5,0,0,1,2.915,1.483,6.453,6.453,0,0,1,1.125,4.015c0,3.289-1.665,5.5-4.142,5.5" transform="translate(420.989 -755.024)"/></g><g transform="translate(505.313 578.063)"><path class="a" d="M-97.885,769.592a2.3,2.3,0,0,1-.782-1.653v-6.545a6.8,6.8,0,0,0-1.568-4.7,5.481,5.481,0,0,0-4.167-1.666,5.481,5.481,0,0,0-4.167,1.666,6.8,6.8,0,0,0-1.568,4.7v8.2h2.914a2.519,2.519,0,0,1-.8-2.093v.051l-.014.014v-6.169c0-2.779,1.359-4.438,3.636-4.438s3.637,1.659,3.637,4.438v8.2Z" transform="translate(110.138 -755.025)"/></g></g></svg>