<svg xmlns="http://www.w3.org/2000/svg" width="275.104" height="45.678" viewBox="0 0 275.104 45.678"><defs><style>.a{fill:#c70017;}.b{fill:#fff;}</style></defs><g transform="translate(-402 -575.312)"><g transform="translate(402 577.746)"><path class="a" d="M-546.818,747.364A21.405,21.405,0,0,0-568,768.987a21.4,21.4,0,0,0,21.182,21.622,21.4,21.4,0,0,0,21.181-21.622,21.405,21.405,0,0,0-21.181-21.623m19.118,18.183c.328,1.9-12.092,2.98-18.945,3.41,6.584-1.991,18.616-5.314,18.945-3.41m-6.049-8.444a10.675,10.675,0,0,0,.779-2.026,20.093,20.093,0,0,1,2.963,4,20.377,20.377,0,0,1,1.914,4.62,10.134,10.134,0,0,0-2.109-.323l-3.778-1.956Zm-.589-3.3c1.447,1.239-7.386,10.217-12.365,15.042,3.79-5.845,10.914-16.285,12.365-15.042m-5.84-3.442a19.6,19.6,0,0,1,4.375,2.283,10.3,10.3,0,0,0-1.818,1.136l-4.126.981-2.542-3.458a10.715,10.715,0,0,0-.678-2.063,19.4,19.4,0,0,1,4.79,1.121m-6.638-1.2c1.889,0,.776,12.673,0,19.637-.778-6.965-1.894-19.637,0-19.637m-6.641,1.2a19.4,19.4,0,0,1,4.79-1.121,10.706,10.706,0,0,0-.678,2.063l-2.543,3.458-4.126-.981a10.3,10.3,0,0,0-1.818-1.136,19.591,19.591,0,0,1,4.375-2.283m-5.838,3.44c1.447-1.239,8.574,9.2,12.365,15.043-4.981-4.825-13.816-13.8-12.365-15.043m-4.335,5.272a20.146,20.146,0,0,1,2.963-4,10.7,10.7,0,0,0,.781,2.026l.229,4.317-3.778,1.956a10.134,10.134,0,0,0-2.109.323,20.445,20.445,0,0,1,1.914-4.62m-2.306,6.466c.328-1.9,12.361,1.421,18.945,3.41-6.854-.427-19.273-1.506-18.945-3.41m0,6.884a20.6,20.6,0,0,1-.25-5.01,10.253,10.253,0,0,0,1.873,1.04l2.9,3.156-1.663,3.977a10.479,10.479,0,0,0-1.412,1.631,20.515,20.515,0,0,1-1.443-4.794m2.306,6.466c-.944-1.669,10.363-7.023,16.659-9.819-5.519,4.17-15.712,11.493-16.659,9.819m8.459,8a19.708,19.708,0,0,1-4.124-2.726,20.012,20.012,0,0,1-3.347-3.673,10.133,10.133,0,0,0,2.089-.433l4.205.518,1.231,4.138a10.76,10.76,0,0,0-.055,2.176m1.712.714c-1.775-.66,3.517-12.18,6.58-18.452-1.6,6.815-4.8,19.114-6.58,18.452m6.641,1.2a19.343,19.343,0,0,1-4.877-.619,10.514,10.514,0,0,0,1.329-1.7l3.548-2.362,3.548,2.362a10.506,10.506,0,0,0,1.328,1.7,19.34,19.34,0,0,1-4.876.619m6.638-1.195c-1.774.659-4.975-11.638-6.58-18.452,3.063,6.272,8.359,17.791,6.58,18.452m5.84-3.441a19.721,19.721,0,0,1-4.125,2.726,10.745,10.745,0,0,0-.054-2.176l1.23-4.138,4.205-.518a10.141,10.141,0,0,0,2.089.433,20.01,20.01,0,0,1-3.345,3.673m4.332-5.271c-.943,1.67-11.139-5.65-16.659-9.818,6.3,2.795,17.607,8.144,16.659,9.818m.863-1.673a10.429,10.429,0,0,0-1.411-1.631l-1.662-3.977,2.894-3.156a10.228,10.228,0,0,0,1.874-1.04,20.566,20.566,0,0,1-.25,5.01,20.418,20.418,0,0,1-1.444,4.794" transform="translate(568 -747.364)"/></g><g transform="translate(452.671 581.86)"><path class="b" d="M-460.815,770.064c-3.53-1.569-6.578-2.924-6.578-5.874,0-2.86,1.653-5.268,5.617-5.268a15.487,15.487,0,0,1,9.149,3.265v-5.252l-.88-.5a19.954,19.954,0,0,0-7.557-1.405,12.775,12.775,0,0,0-8.015,2.575,7.8,7.8,0,0,0-3.31,6.59c0,5.974,5.309,8.284,9.575,10.139l.683.3c3.843,1.512,5.792,3.443,5.792,5.74,0,3.606-2.319,5.435-6.892,5.435-3.26,0-7.914-2.17-10.434-3.883l1.837,6.413.88.5a20.426,20.426,0,0,0,7.716,1.563c7.333,0,11.889-3.844,11.889-10.033,0-6.093-5.033-8.33-9.472-10.3" transform="translate(473.666 -755.024)"/></g><g transform="translate(516.538 575.312)"><path class="b" d="M-352.884,742.833h-1.879a5.569,5.569,0,0,1,1.879,4.146v20.091c0,5.484,1.419,9.859,4.216,13a13.406,13.406,0,0,0,10.4,4.685,13.405,13.405,0,0,0,10.4-4.685c2.891-3.237,4.3-7.491,4.3-13a19.852,19.852,0,0,0-3.9-12.54,11.831,11.831,0,0,0-10.07-5.148,12.441,12.441,0,0,0-8.484,3.275,8.968,8.968,0,0,0-1.472,1.559c-.038.054-.075.1-.116.158l-.269.354V742.833Zm21.637,33.874a8.476,8.476,0,0,1-7.021,3.452,8.479,8.479,0,0,1-7.023-3.454c-1.722-2.34-2.6-5.581-2.6-9.635,0-7.829,3.962-13.089,9.859-13.089,5.746,0,9.459,5.138,9.459,13.089,0,4.148-.876,7.3-2.679,9.638" transform="translate(354.763 -742.833)"/></g><g transform="translate(554.584 581.86)"><path class="b" d="M-269.316,755.024a13.226,13.226,0,0,0-10.321,4.766c-2.85,3.114-4.3,7.462-4.3,12.922,0,5.512,1.406,9.766,4.3,13a13.386,13.386,0,0,0,10.321,4.686A13.385,13.385,0,0,0-259,785.715c2.891-3.238,4.3-7.491,4.3-13,0-5.46-1.445-9.808-4.3-12.923a13.226,13.226,0,0,0-10.32-4.764m6.776,27.41a8.931,8.931,0,0,1-6.776,3.367,8.93,8.93,0,0,1-6.776-3.369c-1.886-2.257-2.843-5.529-2.843-9.721s.957-7.463,2.844-9.722a8.928,8.928,0,0,1,6.775-3.367,8.93,8.93,0,0,1,6.777,3.368c1.886,2.258,2.843,5.529,2.843,9.72s-.957,7.464-2.844,9.723" transform="translate(283.932 -755.024)"/></g><g transform="translate(611.287 581.86)"><path class="b" d="M-163.753,755.024a13.225,13.225,0,0,0-10.321,4.766c-2.85,3.114-4.3,7.461-4.3,12.922,0,5.513,1.406,9.766,4.3,13a13.386,13.386,0,0,0,10.321,4.686,13.267,13.267,0,0,0,9.037-3.5,15.562,15.562,0,0,0,5.146-8.995h-5.074c-1.17,5.261-4.652,7.9-9.109,7.9-5.194,0-8.938-4.389-9.539-11.183l-.014-.16h24.089v-3.167a16.731,16.731,0,0,0-4.218-11.426,13.206,13.206,0,0,0-10.318-4.841m-9.454,15.1c.648-7.214,5.211-10.444,9.454-10.444s8.805,3.23,9.453,10.444Z" transform="translate(178.369 -755.024)"/></g><g transform="translate(587.643 575.312)"><path class="b" d="M-211.85,771.725V755.05h8.1v-4.6h-8.1v-7.619H-215.3a17.534,17.534,0,0,1-.476,3.752,10.982,10.982,0,0,1-1.073,2.77,8.171,8.171,0,0,1-.609.925,6.738,6.738,0,0,1-4.93,2.7v2.088h5.54v16.577c0,4.085,1.138,7.191,3.383,9.234,2.226,2.026,5.6,3.064,10.04,3.088v-4.6c-5.983-.036-8.426-2.258-8.426-7.643" transform="translate(222.386 -742.833)"/></g><g transform="translate(480.966 581.86)"><path class="b" d="M-391.664,784.746v.12l-.012.012V772.711c0-5.484-1.419-9.859-4.217-13a13.408,13.408,0,0,0-10.4-4.685,13.559,13.559,0,0,0-10.48,4.764c-2.8,3.144-4.216,7.492-4.216,12.923a20.725,20.725,0,0,0,3.821,12.616,12.223,12.223,0,0,0,10.153,5.072,12.442,12.442,0,0,0,8.485-3.275,9.007,9.007,0,0,0,1.473-1.559c.038-.054.074-.1.115-.158l.27-.353v4.674h6.916c-1.4-1.219-1.907-2.771-1.907-4.982m-14.869,1.056c-5.746,0-9.459-5.138-9.459-13.09,0-4.148.876-7.3,2.679-9.637a8.473,8.473,0,0,1,7.021-3.452,8.331,8.331,0,0,1,6.94,3.531c1.778,2.3,2.679,5.52,2.679,9.558,0,7.83-3.962,13.09-9.86,13.09" transform="translate(420.989 -755.024)"/></g><g transform="translate(647.936 581.86)"><path class="b" d="M-80.971,789.7a5.483,5.483,0,0,1-1.862-3.934V770.187c0-4.673-1.291-8.544-3.733-11.2a13.048,13.048,0,0,0-9.92-3.966,13.047,13.047,0,0,0-9.919,3.966c-2.442,2.652-3.733,6.524-3.733,11.2V789.7h6.937c-1.4-1.219-1.906-2.772-1.906-4.983v.12l-.034.032V770.187c0-6.615,3.236-10.565,8.655-10.565s8.657,3.95,8.657,10.565V789.7Z" transform="translate(110.138 -755.025)"/></g></g></svg>