<svg xmlns="http://www.w3.org/2000/svg" width="100" height="100" viewBox="0 0 100 100"><defs><style>.a{fill:#fff;}</style></defs><g transform="translate(-1 -1)"><path class="a" d="M96.161,10.677H92.935V9.065A4.845,4.845,0,0,0,88.1,4.226H70.355A3.229,3.229,0,0,0,67.129,1H34.871a3.229,3.229,0,0,0-3.226,3.226H13.9A4.845,4.845,0,0,0,9.065,9.065v1.613H5.839A4.845,4.845,0,0,0,1,15.516V33.258a6.445,6.445,0,0,0,4.839,6.223V88.1A4.845,4.845,0,0,0,1,92.935v6.452A1.612,1.612,0,0,0,2.613,101H99.387A1.612,1.612,0,0,0,101,99.387V92.935A4.845,4.845,0,0,0,96.161,88.1V39.481A6.445,6.445,0,0,0,101,33.258V15.516A4.845,4.845,0,0,0,96.161,10.677ZM88.1,7.452A1.615,1.615,0,0,1,89.71,9.065v1.613H70.355V7.452ZM34.871,4.226H67.129l0,12.9H34.871ZM12.29,9.065A1.615,1.615,0,0,1,13.9,7.452H31.645v3.226H12.29ZM5.839,13.9H31.645v3.226a3.229,3.229,0,0,0,3.226,3.226H67.129a3.229,3.229,0,0,0,3.226-3.226V13.9H96.161a1.615,1.615,0,0,1,1.613,1.613v8.065H4.226V15.516A1.615,1.615,0,0,1,5.839,13.9Zm75.806,12.9H88.1v6.452a3.226,3.226,0,1,1-6.452,0Zm-9.677,0h6.452v6.452a3.226,3.226,0,1,1-6.452,0Zm-9.677,0h6.452v6.452a3.226,3.226,0,1,1-6.452,0Zm-9.677,0h6.452v6.452a3.226,3.226,0,0,1-6.452,0Zm-9.677,0h6.452v6.452a3.226,3.226,0,1,1-6.452,0Zm-9.677,0H39.71v6.452a3.226,3.226,0,1,1-6.452,0Zm-9.677,0h6.452v6.452a3.226,3.226,0,0,1-6.452,0Zm-9.677,0h6.452v6.452a3.226,3.226,0,1,1-6.452,0ZM4.226,33.258V26.806h6.452v6.452a3.226,3.226,0,1,1-6.452,0ZM9.065,52.613H54.226V75.194H9.065Zm45.161-3.226H9.065V46.161H54.226ZM9.065,78.419H54.226V88.1H9.065Zm88.71,14.516v4.839H4.226V92.935a1.615,1.615,0,0,1,1.613-1.613H96.161A1.615,1.615,0,0,1,97.774,92.935ZM86.484,49.387H63.9V46.161H86.484ZM63.9,52.613H86.484V88.1H63.9ZM89.71,88.1V44.548A1.612,1.612,0,0,0,88.1,42.935H62.29a1.612,1.612,0,0,0-1.613,1.613V88.1H57.452V44.548a1.612,1.612,0,0,0-1.613-1.613H9.065V39.481a6.412,6.412,0,0,0,3.226-2,6.366,6.366,0,0,0,9.677,0,6.366,6.366,0,0,0,9.677,0,6.366,6.366,0,0,0,9.677,0,6.366,6.366,0,0,0,9.677,0,6.366,6.366,0,0,0,9.677,0,6.366,6.366,0,0,0,9.677,0,6.366,6.366,0,0,0,9.677,0,6.366,6.366,0,0,0,9.677,0,6.412,6.412,0,0,0,3.226,2V88.1Zm8.065-54.839a3.226,3.226,0,0,1-6.452,0V26.806h6.452Z" transform="translate(0 0)"/><path class="a" d="M0,0H16.6V3.355H0Z" transform="translate(14.901 69.303) rotate(-45)"/><path class="a" d="M0,0H16.6V3.355H0Z" transform="translate(28.706 69.305) rotate(-45)"/><path class="a" d="M45.806,4H29.032a5.032,5.032,0,0,0,0,10.065H45.806A5.032,5.032,0,0,0,45.806,4Zm0,6.71H29.032a1.677,1.677,0,1,1,0-3.355H45.806a1.677,1.677,0,1,1,0,3.355Z" transform="translate(13.581 2.032)"/><circle class="a" cx="2.337" cy="2.337" r="2.337" transform="translate(66.046 64.924)"/></g></svg>