<svg xmlns="http://www.w3.org/2000/svg" width="13.197" height="17" viewBox="0 0 13.197 17"><defs><style>.a{opacity:0.461;}</style></defs><g class="a" transform="translate(-26.555 0)"><g transform="translate(26.555 0)"><path d="M38.68,1.241a3.329,3.329,0,0,0-5.185,0L27.922,7.676a.554.554,0,0,0,0,.7.392.392,0,0,0,.61,0l5.574-6.435a2.545,2.545,0,0,1,3.965,0,3.6,3.6,0,0,1,0,4.577l-7.709,8.9a1.569,1.569,0,0,1-2.44,0,2.218,2.218,0,0,1,0-2.817l7.4-8.548a.587.587,0,0,1,.915,0,.83.83,0,0,1,0,1.056l-7.1,8.2a.554.554,0,0,0,0,.7.392.392,0,0,0,.61,0l7.1-8.2a1.937,1.937,0,0,0,0-2.465,1.373,1.373,0,0,0-2.135,0l-7.4,8.548a3.327,3.327,0,0,0,0,4.225,2.353,2.353,0,0,0,3.66,0l7.709-8.9A4.713,4.713,0,0,0,38.68,1.241Z" transform="translate(-26.555 0)"/></g></g></svg>