<svg xmlns="http://www.w3.org/2000/svg" xmlns:xlink="http://www.w3.org/1999/xlink" width="60" height="60" viewBox="0 0 60 60"><defs><style>.a{fill:#fff;}.b{clip-path:url(#a);}</style><clipPath id="a"><rect class="a" width="60" height="60" transform="translate(1056 624)"/></clipPath></defs><g class="b" transform="translate(-1056 -624)"><g transform="translate(1056 624)"><path class="a" d="M22.324,47.724h0A23.32,23.32,0,0,1,11.05,39.418a1,1,0,1,0-1.622,1.17,25.332,25.332,0,0,0,12.248,9.028,1,1,0,0,0,.649-1.892Z"/><path class="a" d="M8.094,33.687a1,1,0,0,0-1.9.638c.236.7.511,1.4.815,2.083a1,1,0,1,0,1.825-.818C8.56,34.968,8.309,34.328,8.094,33.687Z"/><path class="a" d="M34.476,12.5a5.918,5.918,0,0,0,1.759,4.207,1,1,0,0,0,1.414-1.414,3.912,3.912,0,0,1,0-5.586c2.408-2.408,1.282-6.132-1-8.414a1,1,0,0,0-1.414,1.414c1.6,1.6,2.489,4.1,1,5.586A5.917,5.917,0,0,0,34.476,12.5Z"/><path class="a" d="M23.476,17.5a5.918,5.918,0,0,0,1.759,4.207,1,1,0,0,0,1.414-1.414,3.912,3.912,0,0,1,0-5.586c2.408-2.408,1.282-6.132-1-8.414a1,1,0,0,0-1.414,1.414c1.6,1.6,2.489,4.1,1,5.586A5.917,5.917,0,0,0,23.476,17.5Z"/><path class="a" d="M13,11.5a5.918,5.918,0,0,0,1.759,4.207,1,1,0,1,0,1.414-1.414,3.912,3.912,0,0,1,0-5.586c2.408-2.408,1.282-6.132-1-8.414a1,1,0,0,0-1.414,1.414c1.6,1.6,2.489,4.1,1,5.586A5.917,5.917,0,0,0,13,11.5Z"/><path class="a" d="M48.14,24.715c.2-4.272.664-10.021,1.789-12.831,1.38-3.452,5.562-5.96,7.3-6.878A2.661,2.661,0,0,0,54.932.21a22.288,22.288,0,0,0-9.765,7.748c-2.557,3.835-3.545,11.146-3.927,16.3C37.658,24.089,33.888,24,30,24a197.254,197.254,0,0,0-19.9.883C1.7,25.782,1,26.915,1,28c0,.023,0,.047,0,.07H1l0,.043c0,.037,0,.073.008.11.017.235.051.7.08,1.018A27.594,27.594,0,0,0,11,48.085V54c0,3.939,9.558,6,19,6s19-2.061,19-6V48.616A26.109,26.109,0,0,0,58.98,29c0-.083.01-.533.015-.792,0-.071,0-.141,0-.208C59,27.125,59,25.679,48.14,24.715ZM56.256,28a42.181,42.181,0,0,1-8.251,1.293c.007-.577.022-1.473.057-2.576A41.5,41.5,0,0,1,56.256,28ZM43.178,25.353h0c.317-4.961,1.2-12.6,3.653-16.283A20.272,20.272,0,0,1,55.71,2.053a.661.661,0,0,1,.579,1.186c-2.4,1.269-6.649,3.982-8.217,7.9-1.839,4.6-2.046,15.7-2.068,18.313q-1.439.11-3,.2C43.012,28.985,43.047,27.4,43.178,25.353ZM30,26c3.845,0,7.573.088,11.115.253-.089,1.7-.109,2.966-.114,3.493-3.583.162-7.27.253-11,.253C15.944,30,6.505,28.936,3.667,28,6.505,27.064,15.944,26,30,26ZM47,54c0,1.357-6,4-17,4s-17-2.643-17-4V49.623A29.528,29.528,0,0,0,30,55a30.745,30.745,0,0,0,17-4.933Zm.467-6.734a.983.983,0,0,0-.2.152A28.468,28.468,0,0,1,30,53C16.3,53,4.691,42.926,3.176,29.91a37.221,37.221,0,0,0,6.92,1.207A197.288,197.288,0,0,0,30,32c4.1,0,8.164-.1,12.08-.291,1.781-.09,3.475-.2,5.032-.332a47.979,47.979,0,0,0,9.809-1.485A24.1,24.1,0,0,1,47.466,47.265Z"/></g></g></svg>