<svg xmlns="http://www.w3.org/2000/svg" xmlns:xlink="http://www.w3.org/1999/xlink" width="60" height="60" viewBox="0 0 60 60"><defs><style>.a{fill:#fff;}.b{clip-path:url(#a);}</style><clipPath id="a"><rect class="a" width="60" height="60" transform="translate(804 624)"/></clipPath></defs><g class="b" transform="translate(-804 -624)"><g transform="translate(801.877 621.995)"><path class="a" d="M12.077,12.077a10.075,10.075,0,0,0,8.864,9.986l1.2,7.206v3.943a1.006,1.006,0,0,0,1.006,1.006H27.19V32.207H24.155V30.194h16.1v2.013H33.213v2.013h8.052a1.006,1.006,0,0,0,1.006-1.006V29.27l1.2-7.206a10.065,10.065,0,1,0-6.233-18.7c-.063-.036-.132-.061-.2-.1a9.691,9.691,0,0,0-.963-.472c-.044-.019-.092-.032-.137-.05a9.911,9.911,0,0,0-7.46,0c-.05.019-.1.034-.153.054a9.884,9.884,0,0,0-.933.458c-.073.04-.152.067-.223.11a10.065,10.065,0,0,0-15.1,8.712ZM24,28.181l-1.016-6.094a9.964,9.964,0,0,0,4.189-1.293c.063.036.132.061.2.1a9.691,9.691,0,0,0,.963.472c.044.019.092.032.137.05a9.9,9.9,0,0,0,7.434.013c.059-.023.12-.039.179-.063a9.621,9.621,0,0,0,.868-.426c.095-.05.2-.088.289-.142a9.964,9.964,0,0,0,4.189,1.293l-1.016,6.094ZM23.66,8.905a1.006,1.006,0,0,0,1.352-.451,8.04,8.04,0,0,1,2.777-3.1,7.569,7.569,0,0,1,.967-.544l.02-.01a8.191,8.191,0,0,1,7.865.564A8.043,8.043,0,0,1,39.422,8.5a1.006,1.006,0,1,0,1.8-.9A10.1,10.1,0,0,0,39.05,4.713a8.052,8.052,0,1,1,0,14.726,10.055,10.055,0,0,0,2.1-2.725,1.006,1.006,0,1,0-1.785-.927,8.052,8.052,0,0,1-2.775,3.033,7.649,7.649,0,0,1-.839.472c-.047.023-.094.051-.142.073a8.191,8.191,0,0,1-7.836-.575,8.043,8.043,0,0,1-2.781-3.137,1.006,1.006,0,1,0-1.8.9,10.1,10.1,0,0,0,2.179,2.891,8.052,8.052,0,1,1,0-14.727,10.086,10.086,0,0,0-2.155,2.839,1.006,1.006,0,0,0,.447,1.353Z"/><rect class="a" width="1.997" height="2.013" transform="translate(29.203 32.207)"/><path class="a" d="M12.019,40.353a9.636,9.636,0,0,0,2.763,5.111,8.838,8.838,0,0,0,7.071,2.8l5.808,5.807L24.885,56.85a3.019,3.019,0,1,0,4.269,4.27l2.777-2.777,2.777,2.777a3.02,3.02,0,1,0,4.27-4.27L36.2,54.073l5.807-5.807a8.871,8.871,0,0,0,7.072-2.8c3.139-3.14,3.778-7.61,1.423-9.964a5.407,5.407,0,0,0-4.852-1.339,9.629,9.629,0,0,0-5.111,2.763A8.84,8.84,0,0,0,37.742,44L31.935,49.8,26.128,44a8.837,8.837,0,0,0-2.8-7.072,9.626,9.626,0,0,0-5.111-2.763A5.4,5.4,0,0,0,13.362,35.5a5.4,5.4,0,0,0-1.343,4.853ZM27.73,59.7a1.027,1.027,0,0,1-1.423,0,1.006,1.006,0,0,1,0-1.423l2.78-2.777,1.423,1.423Zm11.8-14.65A1.006,1.006,0,0,0,39.8,44.1c-.423-1.757.426-4.015,2.163-5.751a7.6,7.6,0,0,1,4.019-2.2,3.453,3.453,0,0,1,3.1.777c1.543,1.543.891,4.8-1.423,7.117-1.736,1.736-3.993,2.59-5.753,2.161a1.015,1.015,0,0,0-.947.268l-6.18,6.181-1.424-1.421ZM14.781,36.924a3.455,3.455,0,0,1,3.1-.777,7.606,7.606,0,0,1,4.018,2.2c1.737,1.736,2.586,3.994,2.163,5.752a1.006,1.006,0,0,0,.267.947l9.738,9.738h0l3.488,3.49A1.006,1.006,0,1,1,36.132,59.7L22.9,46.469a1.006,1.006,0,0,0-.712-.295,1.045,1.045,0,0,0-.236.027c-1.758.428-4.016-.425-5.752-2.161A7.612,7.612,0,0,1,14,40.022a3.453,3.453,0,0,1,.776-3.1Z"/></g></g></svg>