<svg xmlns="http://www.w3.org/2000/svg" xmlns:xlink="http://www.w3.org/1999/xlink" width="60" height="60" viewBox="0 0 60 60"><defs><style>.a{fill:#fff;}.b{clip-path:url(#a);}</style><clipPath id="a"><rect class="a" width="60" height="60" transform="translate(547 624)"/></clipPath></defs><g class="b" transform="translate(-547 -624)"><g transform="translate(547 624.663)"><path class="a" d="M63.77,23.009h-.984V12.092a9.777,9.777,0,0,0-5.931-9,4.943,4.943,0,0,0-3.875,0,9.777,9.777,0,0,0-5.931,9v9.3a10.764,10.764,0,0,1-1.923-5.265h0a.983.983,0,0,0,.939-.981v-5.9a.984.984,0,0,0-.984-.984H37.213a.984.984,0,0,0-.984.984v.35c-.054-.063-.111-.123-.17-.182a3.932,3.932,0,0,0-6.223.878,3.936,3.936,0,0,0-7.279,1.02,3.933,3.933,0,0,0-1.715,6.786,3.93,3.93,0,0,0,.632,6.357v5.447h1.967V24.976H52.951V59.4H45.082V61.37H63.77a.983.983,0,0,0,.984-.984V23.992a.983.983,0,0,0-.984-.984Zm-14.754-5.9h2.951a.984.984,0,1,1,0,1.967H49.016Zm.537-7.869h2.414a.984.984,0,1,1,0,1.967h-2.9a7.871,7.871,0,0,1,.488-1.967ZM38.2,10.222h5.9v3.934H38.2ZM23.443,23.009a1.967,1.967,0,1,1,0-3.934.984.984,0,0,0,0-1.967,1.967,1.967,0,1,1,0-3.934.983.983,0,0,0,.984-.984,1.967,1.967,0,0,1,3.888-.427,3.929,3.929,0,0,0-.585,6.328,3.927,3.927,0,0,0-.807,4.918Zm6.885,0a1.967,1.967,0,1,1,0-3.934.984.984,0,0,0,0-1.967,1.967,1.967,0,1,1,0-3.934.983.983,0,0,0,.984-.984,1.967,1.967,0,1,1,3.934,0,.983.983,0,0,0,.984.984V15.14a.983.983,0,0,0,.939.981h0a10.787,10.787,0,0,1-2.907,6.471v-10.4H32.3v10.82Zm6.165,0a12.711,12.711,0,0,0,2.65-6.885h4.011a12.711,12.711,0,0,0,2.65,6.885Zm12.524,0V21.042h2.951a2.951,2.951,0,1,0,0-5.9H49.016V13.173h2.951a2.951,2.951,0,1,0,0-5.9H50.679a7.8,7.8,0,0,1,3.077-2.366,2.956,2.956,0,0,1,2.324,0,7.809,7.809,0,0,1,4.74,7.186V23.009ZM62.787,59.4H54.918V24.976h7.869Z" transform="translate(-4.754 -2.701)"/><path class="a" d="M21.967,60.656a2.956,2.956,0,0,0-2.254-2.868,8.248,8.248,0,0,0-15.164,0,2.951,2.951,0,0,0,0,5.735,8.248,8.248,0,0,0,15.164,0A2.956,2.956,0,0,0,21.967,60.656Zm-2.951.984a.984.984,0,0,0-.913.618l-.141.352a6.281,6.281,0,0,1-11.663,0l-.141-.352a.984.984,0,0,0-.913-.618.984.984,0,1,1,0-1.967.984.984,0,0,0,.913-.618L6.3,58.7a6.281,6.281,0,0,1,11.663,0l.141.352a.984.984,0,0,0,.913.618.984.984,0,1,1,0,1.967Z" transform="translate(-2.295 -9.856)"/><rect class="a" width="1.967" height="1.967" transform="translate(5.902 47.848)"/><rect class="a" width="1.967" height="1.967" transform="translate(7.869 51.783)"/><rect class="a" width="1.967" height="1.967" transform="translate(11.803 49.816)"/><path class="a" d="M27.789,47.277,29.9,43.063l-1.761-.88L26.78,44.9l-.714-.714V42.1a4.941,4.941,0,0,0-4.222-4.868l-3.508-.5a.983.983,0,0,0-1.113,1.113l.5,3.508a4.941,4.941,0,0,0,4.868,4.222h2.082l1.132,1.132a9.846,9.846,0,0,0-8.266,2.356l1.313,1.466a7.858,7.858,0,0,1,5.245-2,7.676,7.676,0,0,1,.845.046L23.828,50.8a.952.952,0,0,0-.273-.2l-1.967-.984-.88,1.761,1.7.851a3.191,3.191,0,0,0,3.607,1.312l1.575.788.88-1.761-1.967-.984a.989.989,0,0,0-.863-.009l1.264-2.527a7.869,7.869,0,1,1-5.431,14.772l-.656,1.855a9.837,9.837,0,0,0,6.97-18.393ZM24.1,42.216,22.18,40.3,20.79,41.689l1.918,1.918h-.116a2.966,2.966,0,0,1-2.921-2.534l-.315-2.208,2.208.316A2.964,2.964,0,0,1,24.1,42.1Z" transform="translate(-4.426 -7.561)"/><path class="a" d="M41.478,37.869h-.984v-.984h.984a.983.983,0,0,0,.984-.984V31.967a.983.983,0,0,0-.984-.984H31.642a.983.983,0,0,0-.984.984V35.9a.983.983,0,0,0,.984.984h.984v.984h-.984a3.941,3.941,0,0,0-2.932,1.312l1.466,1.311a1.971,1.971,0,0,1,1.467-.655H33.61a.983.983,0,0,0,.984-.984V36.885h3.934v.984H36.56v1.967h4.918A1.97,1.97,0,0,1,43.446,41.8v1.967H32.626v1.967h10.82v11.8h-5.9v1.967h5.9v1.967a1.97,1.97,0,0,1-1.967,1.967H33.61V65.41h7.869a3.939,3.939,0,0,0,3.934-3.934V41.8A3.939,3.939,0,0,0,41.478,37.869Zm-8.852-2.951V32.951h7.869v1.967Z" transform="translate(-6.069 -6.742)"/></g></g></svg>