<svg xmlns="http://www.w3.org/2000/svg" xmlns:xlink="http://www.w3.org/1999/xlink" width="60" height="60" viewBox="0 0 60 60"><defs><style>.a{fill:#fff;}.b{clip-path:url(#a);}</style><clipPath id="a"><rect class="a" width="60" height="60" transform="translate(1308 624)"/></clipPath></defs><g class="b" transform="translate(-1308 -624)"><g transform="translate(1306 622)"><path class="a" d="M39,43h2v2H39Z"/><path class="a" d="M37,45h2v2H37Z"/><path class="a" d="M39,47h2v2H39Z"/><path class="a" d="M22,30H42a1,1,0,0,0,1-1V22h1a3,3,0,0,0,3-3V15a3,3,0,0,0-3-3H43V3a1,1,0,0,0-1-1H22a1,1,0,0,0-1,1v9H20a3,3,0,0,0-3,3v4a3,3,0,0,0,3,3h1v7A1,1,0,0,0,22,30ZM43,14h1a1,1,0,0,1,1,1v4a1,1,0,0,1-1,1H43ZM23,4H41V8H23Zm0,6H41V28H23ZM20,20a1,1,0,0,1-1-1V15a1,1,0,0,1,1-1h1v6Z"/><path class="a" d="M25,12h2v2H25Z"/><path class="a" d="M37,12h2v2H37Z"/><path class="a" d="M31,15h2v6H31Z"/><path class="a" d="M14,25a4.979,4.979,0,0,0-2-3.978V10A4,4,0,0,0,8,6H7A1,1,0,0,0,6,7V21.022A4.992,4.992,0,1,0,14,25ZM8,8a2,2,0,0,1,2,2v6H8ZM8,18h2v2H8ZM9,28a3,3,0,1,1,3-3,3,3,0,0,1-3,3Z"/><path class="a" d="M25,23H39v2H25Z"/><path class="a" d="M8,50h5a.983.983,0,0,0,.817-.455L16,46.3V52H13a1,1,0,0,0-1,1,5.009,5.009,0,0,0,4,4.9V61a1,1,0,0,0,1,1H47a1,1,0,0,0,1-1V57.9A5.009,5.009,0,0,0,52,53a1,1,0,0,0-1-1H48V46.3l2.183,3.242A.983.983,0,0,0,51,50h5a4,4,0,0,0,4-4V31a1,1,0,0,0-1-1H51a1,1,0,0,0-1,1v1.556A3.959,3.959,0,0,0,48,32H16a3.959,3.959,0,0,0-2,.556V31a1,1,0,0,0-1-1H5a1,1,0,0,0-1,1V46a4,4,0,0,0,4,4ZM52,32h6V46a2,2,0,0,1-2,2H52Zm-4,2a2,2,0,0,1,2,2v9.7l-2-3ZM46,60H18V58H46ZM37.469,34H46V52H42.274a7.989,7.989,0,0,0-8.846-13.153Zm4.163,15.813a6,6,0,0,1-9.552-.385A1,1,0,0,0,31.26,49H29V43h2.26a1,1,0,0,0,.82-.428,6,6,0,1,1,9.552,7.241ZM34.865,34,32,37.438,29.135,34ZM18,34h8.531l4.7,5.641a.984.984,0,0,0,.555.312A7.955,7.955,0,0,0,30.759,41H29a2,2,0,0,0-2,2H24.829a3,3,0,1,0-5.063,3,3,3,0,1,0,5.063,3H27a2,2,0,0,0,2,2h1.76a8.01,8.01,0,0,0,.974,1H18Zm4,11a1,1,0,1,1,1-1,1,1,0,0,0,1,1h3v2H24a1,1,0,0,0-1,1,1,1,0,1,1-1-1,1,1,0,0,0,0-2Zm27.829,9A3.006,3.006,0,0,1,47,56H17a3.006,3.006,0,0,1-2.829-2ZM14,36a2,2,0,0,1,2-2v8.7l-2,3ZM6,32h6V48H8a2,2,0,0,1-2-2Z"/><path class="a" d="M60,25a4.979,4.979,0,0,0-2-3.978c0-.008,0-.014,0-.022V18h1a1,1,0,0,0,1-1V6H58v6H56V6H54v6H52V6H50V17a1,1,0,0,0,1,1h1v3.022A4.992,4.992,0,1,0,60,25Zm-8-9V14h6v2Zm4,2v2H54V18ZM55,28a3,3,0,1,1,3-3,3,3,0,0,1-3,3Z"/></g></g></svg>