<?xml version="1.0" encoding="utf-8"?>
<!-- Generator: Adobe Illustrator 24.2.1, SVG Export Plug-In . SVG Version: 6.00 Build 0)  -->
<svg version="1.1" id="레이어_1" xmlns="http://www.w3.org/2000/svg" xmlns:xlink="http://www.w3.org/1999/xlink" x="0px"
	 y="0px" viewBox="0 0 19.6 19.3" style="enable-background:new 0 0 19.6 19.3;" xml:space="preserve" width="18.867" height="18.867">
<style type="text/css">
	.st0{fill:#FFFFFF;}
</style>
<g>
	<g>
		<path class="st0" d="M9.8,11.8c-5.4,0-9.5-1.8-9.5-4.1s4.2-4.1,9.5-4.1s9.5,1.8,9.5,4.1S15.1,11.8,9.8,11.8z M9.8,4.5
			c-5.1,0-8.6,1.7-8.6,3.2s3.5,3.2,8.6,3.2s8.6-1.7,8.6-3.2S14.9,4.5,9.8,4.5z"/>
	</g>
	<g>
		<path class="st0" d="M9.8,17.9c-2.8,0-5.1-1.5-5.1-3.4h0.9c0,1.3,1.9,2.4,4.1,2.4s4.1-1.1,4.1-2.4h0.9
			C14.8,16.4,12.6,17.9,9.8,17.9z"/>
	</g>
	<g>
		<path class="st0" d="M9.8,16.1c-7.1,0-9.5-5.8-9.5-8.4c0-2.3,4.2-4.1,9.5-4.1s9.5,1.8,9.5,4.1C19.3,10.3,16.9,16.1,9.8,16.1z
			 M9.8,4.5c-5.1,0-8.6,1.7-8.6,3.2c0,1.5,1.5,7.5,8.6,7.5s8.6-6,8.6-7.5C18.4,6.2,14.9,4.5,9.8,4.5z"/>
	</g>
	<g>
		<path class="st0" d="M16.4,10.1c-0.1-0.3-0.4-0.6-0.7-0.8l-0.3-0.2l0.1-0.4c0-0.1,0.1-0.2,0.1-0.3c0-1-1.1-1.7-2-1.2l-0.6,0.3
			L12.8,7C12.7,6.4,12.1,6,11.5,6c-0.4,0-0.7,0.2-0.9,0.3l-0.4,0.3L10,6.2c-0.3-0.3-0.6-0.5-1-0.5c-0.5,0-1,0.3-1.2,0.8L7.5,7
			L7.1,6.8C6.9,6.7,6.7,6.7,6.5,6.7C5.8,6.7,5.2,7.3,5.2,8c0,0.1,0,0.1,0,0.2l0.1,0.6L4.7,8.7c-0.1,0-0.2,0-0.2,0
			c-0.7,0-1.4,0.6-1.4,1.4H2.2c0-1.2,0.9-2.2,2.1-2.3c0.1-1.2,1.1-2.1,2.3-2.1c0.2,0,0.3,0,0.5,0.1c0.4-0.6,1.1-1,1.9-1
			c0.5,0,1,0.2,1.5,0.5C10.7,5.1,11.1,5,11.5,5c0.9,0,1.7,0.5,2,1.3c0.2-0.1,0.4-0.1,0.6-0.1c1.3,0,2.3,1,2.3,2.3c0,0.1,0,0.2,0,0.2
			c0.4,0.3,0.7,0.6,0.8,1.1L16.4,10.1z"/>
	</g>
</g>
</svg>
