<svg xmlns="http://www.w3.org/2000/svg" width="764.302" height="461.227" viewBox="0 0 764.302 461.227"><defs><style>.a,.d{fill:#ff7350;}.a,.b{fill-rule:evenodd;}.b,.f{fill:#ebebeb;}.c{fill:#ffe375;}.e{fill:#ffefaf;}</style></defs><g transform="translate(-9.351 -6.659)"><path class="a" d="M20.075,221.475c1.238-1.238,2.48-2.469,3.71-3.713a3.771,3.771,0,0,0,.007-5.787q-3.471-3.5-6.971-6.97a3.674,3.674,0,0,0-5.564-.049q-3.8,3.754-7.553,7.551a3.976,3.976,0,0,0,.011,5.988q3.363,3.41,6.771,6.774a3.813,3.813,0,0,0,5.746.044c1.291-1.269,2.562-2.559,3.843-3.838" transform="translate(7 65.662)"/><path class="b" d="M66.605,34.539c.2,1.7.391,3.4.607,5.1a10.044,10.044,0,0,1-8.363,11.369,10.206,10.206,0,0,1-11.965-7.6c-.473-1.965-.725-3.982-1.1-5.973A13.969,13.969,0,0,0,30.135,26.234a28.146,28.146,0,0,1-5.565.435c-4.274-.269-7.088-2.96-7.954-7.271a9.86,9.86,0,0,1,1.134-6.946c1.258-2.156,3.827-3.435,6.13-4.177A38.744,38.744,0,0,1,35.1,6.662a35.532,35.532,0,0,1,12,1.86A28.391,28.391,0,0,1,64.3,25.035a56.735,56.735,0,0,1,2.3,9.5" transform="translate(-1.452)"/><circle class="c" cx="7.174" cy="7.174" r="7.174" transform="translate(53.153 102.921)"/><circle class="d" cx="9.865" cy="9.865" r="9.865" transform="translate(679.038 272.743)"/><rect class="e" width="53.807" height="17.936" rx="8.968" transform="matrix(0.819, -0.574, 0.574, 0.819, 670.951, 87.848)"/><rect class="f" width="80.711" height="17.936" rx="8.968" transform="matrix(0.819, -0.574, 0.574, 0.819, 31.992, 413.763)"/><rect class="f" width="74.433" height="24.811" rx="12.406" transform="matrix(0.819, 0.574, -0.574, 0.819, 712.681, 404.868)"/></g></svg>