<svg xmlns="http://www.w3.org/2000/svg" width="13.266" height="14.001" viewBox="0 0 13.266 14.001"><defs><style>.b{fill:#fff;}</style></defs><g class="a" transform="translate(-13.45 0)"><path class="b" d="M50.138,320.37l.262.055.055.262a3.448,3.448,0,0,1-.563,2.8,2.706,2.706,0,0,1-1.92.644,4.65,4.65,0,0,1-.881-.082L46.829,324l-.055-.262a3.448,3.448,0,0,1,.563-2.8A3.448,3.448,0,0,1,50.138,320.37Zm-2.6,2.921a2.336,2.336,0,0,0,1.777-.383,2.348,2.348,0,0,0,.382-1.777,2.348,2.348,0,0,0-1.777.382A2.349,2.349,0,0,0,47.535,323.291Z" transform="translate(-24.73 -311.529)"/><path class="b" d="M13.849,139.273l-.262-.055-.055-.262a3.448,3.448,0,0,1,.563-2.8,3.448,3.448,0,0,1,2.8-.563l.262.055.055.262a3.448,3.448,0,0,1-.563,2.8,2.705,2.705,0,0,1-1.92.644A4.649,4.649,0,0,1,13.849,139.273Zm2.6-2.92a2.348,2.348,0,0,0-1.777.382,2.348,2.348,0,0,0-.382,1.777,2.348,2.348,0,0,0,1.777-.382A2.348,2.348,0,0,0,16.452,136.353Z" transform="translate(9.421 -131.804)"/><path class="b" d="M185.1,170.814l-.224-.146c-.065-.042-1.583-1.048-1.583-2.379s1.518-2.337,1.583-2.379l.224-.146.224.146c.065.042,1.583,1.048,1.583,2.379s-1.518,2.337-1.583,2.379Zm.987-2.525a2.348,2.348,0,0,0-.987-1.526,1.674,1.674,0,0,0,0,3.053A2.348,2.348,0,0,0,186.084,168.289Z" transform="translate(-164.833 -161.23)"/><path class="b" d="M314.01,61.115c.042-.065,1.048-1.583,2.379-1.583s2.337,1.518,2.379,1.583l.146.224-.146.224c-.042.065-1.048,1.583-2.379,1.583s-2.337-1.518-2.379-1.583l-.146-.224Zm2.379,1.211a2.348,2.348,0,0,0,1.526-.987,1.674,1.674,0,0,0-3.053,0A2.348,2.348,0,0,0,316.389,62.326Z" transform="translate(-300.414 -57.903)"/><path class="b" d="M161.037,3.708l-.262.055a4.649,4.649,0,0,1-.881.082,2.706,2.706,0,0,1-1.92-.644,3.448,3.448,0,0,1-.563-2.8l.055-.262.262-.055a3.448,3.448,0,0,1,2.8.563,3.448,3.448,0,0,1,.563,2.8Zm-1.088-2.483a2.348,2.348,0,0,0-1.777-.382,2.348,2.348,0,0,0,.382,1.777A2.348,2.348,0,0,0,160.331,3,2.348,2.348,0,0,0,159.949,1.225Z" transform="translate(-138.393 0)"/><path class="b" d="M228.113,379.821c1.331,0,2.337,1.518,2.379,1.583l.146.224-.146.224c-.042.065-1.048,1.583-2.379,1.583s-2.337-1.518-2.379-1.583l-.146-.224.146-.224C225.776,381.339,226.782,379.821,228.113,379.821Zm0,2.794a1.082,1.082,0,1,0-1.527-.986A2.349,2.349,0,0,0,228.113,382.615Z" transform="translate(-209.724 -369.433)"/><path class="b" d="M351.3,214.666l.262-.055a2.579,2.579,0,0,1,3.364,3.364l-.055.262-.262.055a4.647,4.647,0,0,1-.881.082,2.706,2.706,0,0,1-1.921-.645,3.448,3.448,0,0,1-.563-2.8Zm1.088,2.483a1.082,1.082,0,1,0,1.4-1.4,1.082,1.082,0,1,0-1.4,1.4Z" transform="translate(-337.532 -208.662)"/></g></svg>