<svg xmlns="http://www.w3.org/2000/svg" width="19.585" height="19.259" viewBox="0 0 19.585 19.259"><defs><style>.b{fill:#fff;}</style></defs><g class="a" transform="translate(0 -4.034)"><g transform="translate(0 4.034)"><g transform="translate(8.322 7.881)"><path class="b" d="M206.029,202.194a.368.368,0,0,1-.377-.3.414.414,0,0,1,.3-.453l8.039-1.547a8.681,8.681,0,0,0-3.548-.3l-.566.075a.379.379,0,1,1-.076-.755l.566-.076a10.064,10.064,0,0,1,5.171.83.415.415,0,0,1,.226.377.461.461,0,0,1-.3.34l-9.36,1.774c-.038.038-.038.038-.075.038Z" transform="translate(-205.646 -198.78)"/></g><g transform="translate(8.473 2.486)"><path class="b" d="M209.725,74.083a.375.375,0,0,1-.34-.415.385.385,0,0,1,.189-.3c.3-.189,6.416-4.19,9.964-6.53l-.6-.528-6.907,4.378a2.138,2.138,0,0,0-.34.226.377.377,0,0,1-.453-.6c.226-.151.377-.264.377-.264l7.134-4.529a.4.4,0,0,1,.453.038l1.17,1.057a.313.313,0,0,1,.113.3.466.466,0,0,1-.151.3C210.4,73.743,209.913,74.083,209.725,74.083Z" transform="translate(-209.379 -65.462)"/></g><g transform="translate(0 0)"><path class="b" d="M4.063,23.292c-1.812,0-3.661-2.755-3.85-3.057A1.319,1.319,0,0,1,.062,19.1c.453-1.434,3.17-2.642,3.774-2.869l2.3-2.68a106.479,106.479,0,0,0,5.926-9.323.38.38,0,0,1,.415-.189.406.406,0,0,1,.3.34,10.952,10.952,0,0,1-.981,5.7,27.357,27.357,0,0,1-2.982,5.36A45.324,45.324,0,0,0,5.875,21.82a1.989,1.989,0,0,1-1.623,1.434.34.34,0,0,1-.189.038Zm8-17.551c-1.359,2.3-4.416,7.36-5.36,8.3L4.365,16.8a.521.521,0,0,1-.151.113c-1.17.491-3.17,1.547-3.435,2.453a.559.559,0,0,0,.075.491c.755,1.132,2.265,2.831,3.321,2.718.415-.038.717-.34.981-.981a50.959,50.959,0,0,1,3.095-6.643A26.541,26.541,0,0,0,11.083,9.78,10.088,10.088,0,0,0,12.065,5.742Z" transform="translate(0 -4.034)"/><g transform="translate(0 12.125)"><path class="b" d="M4.063,310.8c-1.812,0-3.661-2.755-3.85-3.057a1.319,1.319,0,0,1-.151-1.132c.453-1.51,3.51-2.793,3.888-2.906a.41.41,0,0,1,.189-.038A3.326,3.326,0,0,1,6.931,306.5v.038a.227.227,0,0,1-.038.151c-.3.83-.679,1.736-1.057,2.68A1.988,1.988,0,0,1,4.214,310.8H4.063Zm.038-6.379c-1.208.491-3.057,1.547-3.321,2.416a.559.559,0,0,0,.075.491c.755,1.132,2.265,2.831,3.321,2.718.415-.038.717-.34.981-.981.377-.906.717-1.774,1.019-2.567A2.54,2.54,0,0,0,4.1,304.425Z" transform="translate(0 -303.67)"/></g></g></g></g></svg>