<svg xmlns="http://www.w3.org/2000/svg" width="17.275" height="11.986" viewBox="0 0 17.275 11.986"><defs><style>.b{fill:#fff;}</style></defs><g class="a" transform="translate(0 -78.385)"><g transform="translate(11.402 83.603)"><g transform="translate(0 0)"><path class="b" d="M338.274,233.024a.337.337,0,1,0,.337.337A.337.337,0,0,0,338.274,233.024Z" transform="translate(-337.937 -233.024)"/></g></g><g transform="translate(0 78.385)"><g transform="translate(0 0)"><path class="b" d="M6.359,78.452A13.293,13.293,0,0,0,3.529,79C2.014,79.48.139,80.479,0,82.064v0S0,85,0,85a1.733,1.733,0,0,0,1.245,1.611,7.177,7.177,0,0,0,2.584.127,4.266,4.266,0,0,1,3.209,1.274c1.5,1.212,2.919,2.356,5.247,2.356,2.635,0,4.987-1.035,4.987-3.647,0,0,0-2.318,0-2.336C17.44,79.718,11.143,78.014,6.359,78.452ZM16.59,84.426A3.336,3.336,0,0,1,14.4,87.294l.979-5.876A3.791,3.791,0,0,1,16.59,84.426Zm-4.478-4.779-.484,2.907a.337.337,0,1,0,.666.111l.467-2.8a8.109,8.109,0,0,1,2.02,1.05l-1.1,6.588a4.7,4.7,0,0,1-2.207.074l.374-2.246a.337.337,0,0,0-.666-.111l-.355,2.127a11.6,11.6,0,0,1-2.163-1.536l1.106-6.637A13.832,13.832,0,0,1,12.113,79.646ZM6.68,79.1a16.094,16.094,0,0,1,2.419,0L8.062,85.329a6.266,6.266,0,0,0-2.243-1.057Zm-2.733.476a12.629,12.629,0,0,1,2.038-.409l-.828,4.969A9.059,9.059,0,0,0,3.2,84.062ZM.674,82.117a1.625,1.625,0,0,1,.419-.944,5.4,5.4,0,0,1,2.13-1.351L2.509,84.1A1.815,1.815,0,0,1,.674,82.439v-.322ZM16.6,86.724c0,2.683-3.016,2.973-4.312,2.973-2.09,0-3.357-1.023-4.823-2.207a4.922,4.922,0,0,0-3.632-1.424,6.8,6.8,0,0,1-2.393-.1A1.06,1.06,0,0,1,.674,85V84a2.657,2.657,0,0,0,2.151.766h.016a8.541,8.541,0,0,1,2.526.094,5.563,5.563,0,0,1,2.4,1.088c1.652,1.3,2.688,2.4,4.573,2.4a7.413,7.413,0,0,0,1.916-.3A4.2,4.2,0,0,0,16.6,86.39v.334Z" transform="translate(0 -78.385)"/></g></g></g></svg>