<svg xmlns="http://www.w3.org/2000/svg" width="18.867" height="18.867" viewBox="0 0 18.867 18.867"><defs><style>.b{fill:#fff;}</style></defs><g class="a"><path class="b" d="M12.2,5A6.9,6.9,0,0,0,7.509,2.578V.553A.553.553,0,0,0,6.4.553V2.573A6.939,6.939,0,0,0,6.67,16.426,6.93,6.93,0,1,0,12.2,5Zm-11.1,4.5a5.819,5.819,0,0,1,9.644-4.4,6.941,6.941,0,0,0-4.9,10.131A5.839,5.839,0,0,1,1.105,9.492Zm10.835,8.27a5.833,5.833,0,1,1,5.821-5.833A5.833,5.833,0,0,1,11.941,17.762Zm0,0"/><path class="b" d="M192.152,186.543A5.055,5.055,0,1,0,197.2,191.6,5.056,5.056,0,0,0,192.152,186.543Zm.553,1.144a3.915,3.915,0,0,1,1.815.756l-1.815,1.819Zm-1.105,2.574-1.815-1.819a3.916,3.916,0,0,1,1.815-.756Zm-.78.783h-2.57a3.934,3.934,0,0,1,.754-1.819Zm0,1.105L189,193.97a3.934,3.934,0,0,1-.754-1.819Zm.78.783v2.574a3.917,3.917,0,0,1-1.815-.756Zm1.105,0,1.815,1.819a3.918,3.918,0,0,1-1.815.756Zm.78-.783h2.57a3.934,3.934,0,0,1-.754,1.819Zm0-1.105,1.816-1.819a3.934,3.934,0,0,1,.754,1.819Zm0,0" transform="translate(-180.211 -179.669)"/></g></svg>