<svg xmlns="http://www.w3.org/2000/svg" width="117.608" height="19.528" viewBox="0 0 117.608 19.528"><defs><style>.a{fill:#c70017;}.b{fill:#fff;}</style></defs><g transform="translate(-402 -575.312)"><g transform="translate(402 576.352)"><path class="a" d="M-558.945,747.364A9.151,9.151,0,0,0-568,756.608a9.151,9.151,0,0,0,9.055,9.243,9.151,9.151,0,0,0,9.055-9.243,9.151,9.151,0,0,0-9.055-9.244m8.173,7.773c.14.812-5.169,1.274-8.1,1.458,2.815-.851,7.958-2.272,8.1-1.458m-2.586-3.61a4.562,4.562,0,0,0,.333-.866,8.593,8.593,0,0,1,1.267,1.711,8.71,8.71,0,0,1,.818,1.975,4.331,4.331,0,0,0-.9-.138l-1.615-.836Zm-.252-1.409c.618.53-3.158,4.368-5.286,6.431,1.62-2.5,4.666-6.962,5.286-6.431m-2.5-1.471a8.38,8.38,0,0,1,1.87.976,4.406,4.406,0,0,0-.777.485l-1.764.419-1.087-1.478a4.579,4.579,0,0,0-.29-.882,8.3,8.3,0,0,1,2.048.479m-2.838-.511c.807,0,.332,5.418,0,8.4-.332-2.977-.81-8.4,0-8.4m-2.839.511a8.294,8.294,0,0,1,2.048-.479,4.579,4.579,0,0,0-.29.882l-1.087,1.478-1.764-.419a4.405,4.405,0,0,0-.777-.485,8.378,8.378,0,0,1,1.87-.976m-2.5,1.471c.618-.53,3.665,3.932,5.286,6.431-2.129-2.063-5.907-5.9-5.286-6.431m-1.853,2.254a8.612,8.612,0,0,1,1.267-1.711,4.574,4.574,0,0,0,.334.866l.1,1.846-1.615.836a4.331,4.331,0,0,0-.9.138,8.741,8.741,0,0,1,.818-1.975m-.986,2.764c.14-.811,5.284.607,8.1,1.458-2.93-.183-8.239-.644-8.1-1.458m0,2.943a8.808,8.808,0,0,1-.107-2.142,4.384,4.384,0,0,0,.8.445l1.238,1.349-.711,1.7a4.478,4.478,0,0,0-.6.7,8.768,8.768,0,0,1-.617-2.05m.986,2.764c-.4-.714,4.43-3,7.122-4.2-2.359,1.782-6.717,4.913-7.122,4.2m3.616,3.42a8.427,8.427,0,0,1-1.763-1.165,8.553,8.553,0,0,1-1.431-1.57,4.333,4.333,0,0,0,.893-.185l1.8.222.526,1.769a4.6,4.6,0,0,0-.023.93m.732.305c-.759-.282,1.5-5.207,2.813-7.888-.685,2.914-2.052,8.171-2.813,7.888m2.839.511a8.27,8.27,0,0,1-2.085-.264,4.5,4.5,0,0,0,.568-.728l1.517-1.01,1.517,1.01a4.492,4.492,0,0,0,.568.728,8.269,8.269,0,0,1-2.085.264m2.838-.511c-.759.282-2.127-4.975-2.813-7.888,1.31,2.681,3.573,7.606,2.813,7.888m2.5-1.471a8.431,8.431,0,0,1-1.764,1.165,4.6,4.6,0,0,0-.023-.93l.526-1.769,1.8-.222a4.336,4.336,0,0,0,.893.185,8.554,8.554,0,0,1-1.43,1.57m1.852-2.253c-.4.714-4.762-2.416-7.122-4.2,2.692,1.195,7.527,3.482,7.122,4.2m.369-.715a4.459,4.459,0,0,0-.6-.7l-.71-1.7,1.237-1.349a4.373,4.373,0,0,0,.8-.445,8.792,8.792,0,0,1-.107,2.142,8.728,8.728,0,0,1-.617,2.05" transform="translate(568 -747.364)"/></g><g transform="translate(423.662 578.111)"><path class="b" d="M-468.172,761.453c-1.509-.671-2.812-1.25-2.812-2.511a2.137,2.137,0,0,1,2.4-2.252,6.621,6.621,0,0,1,3.911,1.4v-2.245l-.376-.216a8.53,8.53,0,0,0-3.23-.6,5.461,5.461,0,0,0-3.427,1.1,3.334,3.334,0,0,0-1.415,2.817c0,2.554,2.27,3.541,4.093,4.335l.292.128c1.643.646,2.476,1.472,2.476,2.454,0,1.542-.991,2.323-2.946,2.323a9.626,9.626,0,0,1-4.461-1.66l.785,2.742.376.216a8.733,8.733,0,0,0,3.3.668c3.135,0,5.082-1.643,5.082-4.289,0-2.6-2.151-3.561-4.049-4.4" transform="translate(473.666 -755.024)"/></g><g transform="translate(450.966 575.312)"><path class="b" d="M-353.96,742.833h-.8a2.381,2.381,0,0,1,.8,1.772v8.589a8.1,8.1,0,0,0,1.8,5.559,5.731,5.731,0,0,0,4.446,2,5.731,5.731,0,0,0,4.446-2,7.97,7.97,0,0,0,1.837-5.559,8.486,8.486,0,0,0-1.669-5.361,5.058,5.058,0,0,0-4.305-2.2,5.319,5.319,0,0,0-3.627,1.4,3.836,3.836,0,0,0-.629.666c-.016.023-.032.045-.049.068l-.115.151v-5.085Zm9.25,14.481a3.624,3.624,0,0,1-3,1.476,3.625,3.625,0,0,1-3-1.477,6.846,6.846,0,0,1-1.11-4.119c0-3.347,1.694-5.6,4.215-5.6,2.457,0,4.044,2.2,4.044,5.6a6.542,6.542,0,0,1-1.145,4.12" transform="translate(354.763 -742.833)"/></g><g transform="translate(467.23 578.111)"><path class="b" d="M-277.684,755.024a5.654,5.654,0,0,0-4.412,2.037,7.909,7.909,0,0,0-1.836,5.524,7.97,7.97,0,0,0,1.836,5.558,5.723,5.723,0,0,0,4.412,2,5.722,5.722,0,0,0,4.412-2,7.971,7.971,0,0,0,1.837-5.559,7.91,7.91,0,0,0-1.837-5.525,5.654,5.654,0,0,0-4.412-2.037m2.9,11.718a3.818,3.818,0,0,1-2.9,1.44,3.818,3.818,0,0,1-2.9-1.44,6.343,6.343,0,0,1-1.215-4.156,6.343,6.343,0,0,1,1.216-4.156,3.817,3.817,0,0,1,2.9-1.439,3.818,3.818,0,0,1,2.9,1.44,6.343,6.343,0,0,1,1.215,4.156,6.343,6.343,0,0,1-1.216,4.157" transform="translate(283.932 -755.024)"/></g><g transform="translate(491.471 578.111)"><path class="b" d="M-172.121,755.024a5.654,5.654,0,0,0-4.412,2.037,7.909,7.909,0,0,0-1.836,5.524,7.97,7.97,0,0,0,1.836,5.558,5.723,5.723,0,0,0,4.412,2,5.672,5.672,0,0,0,3.863-1.5,6.653,6.653,0,0,0,2.2-3.845h-2.169a3.862,3.862,0,0,1-3.894,3.377c-2.22,0-3.821-1.876-4.078-4.781l-.006-.068h10.3v-1.354a7.153,7.153,0,0,0-1.8-4.885,5.646,5.646,0,0,0-4.411-2.07m-4.041,6.456c.277-3.084,2.228-4.465,4.041-4.465s3.764,1.381,4.041,4.465Z" transform="translate(178.369 -755.024)"/></g><g transform="translate(481.363 575.312)"><path class="b" d="M-217.882,755.185v-7.129h3.465V746.09h-3.465v-3.257h-1.474a7.5,7.5,0,0,1-.2,1.6,4.7,4.7,0,0,1-.459,1.184,3.5,3.5,0,0,1-.26.4,2.881,2.881,0,0,1-2.108,1.155v.893h2.368v7.087a5.1,5.1,0,0,0,1.446,3.947,6.27,6.27,0,0,0,4.292,1.32v-1.966c-2.558-.015-3.6-.965-3.6-3.268" transform="translate(222.386 -742.833)"/></g><g transform="translate(435.758 578.111)"><path class="b" d="M-408.453,767.73v.051l-.005.005v-5.2a8.1,8.1,0,0,0-1.8-5.559,5.732,5.732,0,0,0-4.446-2,5.8,5.8,0,0,0-4.48,2.037,8.048,8.048,0,0,0-1.8,5.525,8.86,8.86,0,0,0,1.633,5.394,5.225,5.225,0,0,0,4.34,2.168,5.319,5.319,0,0,0,3.627-1.4,3.849,3.849,0,0,0,.63-.667c.016-.023.032-.045.049-.068l.115-.151v2h2.957a2.563,2.563,0,0,1-.815-2.13m-6.356.451c-2.457,0-4.044-2.2-4.044-5.6a6.541,6.541,0,0,1,1.145-4.12,3.622,3.622,0,0,1,3-1.476,3.562,3.562,0,0,1,2.967,1.509,6.567,6.567,0,0,1,1.145,4.086c0,3.347-1.694,5.6-4.215,5.6" transform="translate(420.989 -755.024)"/></g><g transform="translate(507.139 578.111)"><path class="b" d="M-97.669,769.85a2.344,2.344,0,0,1-.8-1.682v-6.661a6.919,6.919,0,0,0-1.6-4.786,5.578,5.578,0,0,0-4.241-1.7,5.577,5.577,0,0,0-4.241,1.7,6.919,6.919,0,0,0-1.6,4.786v8.343h2.966a2.564,2.564,0,0,1-.815-2.13v.051l-.014.014v-6.278c0-2.828,1.383-4.516,3.7-4.516s3.7,1.688,3.7,4.516v8.343Z" transform="translate(110.138 -755.025)"/></g></g></svg>