<svg xmlns="http://www.w3.org/2000/svg" width="60.07" height="60.07" viewBox="0 0 60.07 60.07"><g transform="translate(-1 -1)"><path d="M29,18.893h2.907a4.081,4.081,0,0,0,3.671-2.269l.1-.2-1.733-.867-.1.205a2.154,2.154,0,0,1-1.938,1.2H29Z" transform="translate(-0.872 -0.453)"/><path d="M11,28.893h2.907a4.081,4.081,0,0,0,3.671-2.269l.1-.2-1.733-.867-.1.205a2.154,2.154,0,0,1-1.938,1.2H11Z" transform="translate(-0.311 -0.764)"/><path d="M0,0H1.938V4.333H0Z" transform="translate(9.814 16.93) rotate(-26.565)"/><path d="M0,0H1.938V4.333H0Z" transform="translate(13.688 16.931) rotate(-26.565)"/><path d="M0,0H1.938V4.333H0Z" transform="translate(46.616 15.001) rotate(-26.565)"/><path d="M0,0H1.938V4.333H0Z" transform="translate(50.49 15.002) rotate(-26.565)"/><path d="M61.07,17.471a10.656,10.656,0,0,0-20.009-5.106l.4-1.586A7.868,7.868,0,0,0,33.822,1H28.248a7.868,7.868,0,0,0-7.635,9.779l.108.43a10.178,10.178,0,0,0-6.614-2.458H11.928a4.857,4.857,0,0,0-4.75,3.895l-.233,1.163a6.108,6.108,0,0,0-3.7,7.663l.261.782a3.837,3.837,0,0,0-.573,2,3.879,3.879,0,0,0,3.875,3.875h.1a4.844,4.844,0,0,0,2.333,3.207l-.28.841A11.186,11.186,0,0,0,1,42.9V58.265l10.367-1.037A18.728,18.728,0,0,0,22.706,61.07H32.973a2.91,2.91,0,0,0,2.907-2.907,2.874,2.874,0,0,0-.178-.969h1.147a2.91,2.91,0,0,0,2.907-2.907,2.874,2.874,0,0,0-.181-.978A18.723,18.723,0,0,0,50.7,49.478L61.07,50.514V35.96a7.9,7.9,0,0,0-1.595-4.773,7.436,7.436,0,0,0,1.595-4.614ZM50.412,8.751a8.73,8.73,0,0,1,8.72,8.72v9.1a5.506,5.506,0,0,1-1.029,3.2,7.9,7.9,0,0,0-3.072-1.512l-.545-1.636a7.207,7.207,0,0,0,2.709-5.651V16.5H55.257v4.471A5.283,5.283,0,0,1,51.922,25.9a4.081,4.081,0,0,1-3.018,0,5.283,5.283,0,0,1-3.336-4.927V16.5H43.63v4.471a7.2,7.2,0,0,0,2.71,5.65l-.545,1.637a7.906,7.906,0,0,0-3.068,1.517,5.5,5.5,0,0,1-1.034-3.205v-9.1a8.73,8.73,0,0,1,8.72-8.72ZM39.542,47.618a2.881,2.881,0,0,0-1.7-3.8,5.563,5.563,0,0,1,1.77-3.677,5.028,5.028,0,0,0,3.642,1.552h.375V39.755h-.375a3.109,3.109,0,0,1-2.8-1.738,3.836,3.836,0,0,0-3.451-2.137H35.876a1.938,1.938,0,0,1-1.934-1.938h5.423a16.771,16.771,0,0,1,10.079,3.4V47.984a16.774,16.774,0,0,1-7.879,3.235,2.842,2.842,0,0,0-2.023-3.6Zm-19.164-25.3a1.938,1.938,0,1,1,0,3.875ZM24.253,16.5a1.938,1.938,0,0,1,0-3.875Zm0,1.938h.1a4.844,4.844,0,0,0,2.333,3.207l-.28.841a11.147,11.147,0,0,0-2.239.957,3.8,3.8,0,0,0-.432-1.093,10.071,10.071,0,0,0,.52-3.172V18.9c0-.153-.014-.306-.02-.459l.02,0Zm13.564-5.813a1.938,1.938,0,1,1,0,3.875ZM48.184,27.7a6.012,6.012,0,0,0,4.457,0c.047-.019.09-.047.138-.067l.541,1.622v.811H47.506v-.811l.541-1.623c.047.02.09.048.138.068Zm2.294,7.987c-.377-.279-.762-.546-1.157-.8A6.061,6.061,0,0,1,47.686,32h5.453A5.974,5.974,0,0,1,50.478,35.688Zm-4.431-2.425a18.7,18.7,0,0,0-3.143-.9,5.968,5.968,0,0,1,2.663-1.992v.21A7.937,7.937,0,0,0,46.048,33.262Zm-5.259-1.2c-.474-.037-.949-.059-1.424-.059H33.942a1.989,1.989,0,0,0-.366.037l-.517-1.81.514-.77,2.84,2.271,1.671-5.849a9.27,9.27,0,0,1,1.761,1.787,7.4,7.4,0,0,0,1.51,3.522,7.8,7.8,0,0,0-.565.872ZM29.1,22.315h3.875a4.691,4.691,0,0,0,.575-.058l.224.67L31.035,24.98,28.3,22.928l.224-.67A4.851,4.851,0,0,0,29.1,22.315Zm3.52,3.9L35.1,24.351a9.287,9.287,0,0,1,1.264.482L35.348,28.4Zm-5.645-1.86,2.48,1.86L26.723,28.4,25.7,24.837a9.244,9.244,0,0,1,1.268-.482Zm4.062,3.077,1.018.814-.568.852h-.9l-.568-.852Zm-.238,3.6h.477l.757,2.649a1.887,1.887,0,0,0-.026.258,3.836,3.836,0,0,0,.539,1.938H29.413Zm6.923-12.6h.1a3.836,3.836,0,0,0,1.938-.539v6.842a11.192,11.192,0,0,0-4.089-2.256l-.28-.841a4.844,4.844,0,0,0,2.333-3.207Zm-1.84-.969a2.91,2.91,0,0,1-2.907,2.907H29.1a2.91,2.91,0,0,1-2.907-2.907V11.516a1.927,1.927,0,0,1,.957-1.672,5.237,5.237,0,0,0,3.772,2.194l4.96.5ZM20.28,28.128h.1a3.863,3.863,0,0,0,3.425-2.1c.061-.049.125-.092.187-.14l1.669,5.844,2.84-2.271.514.77L27.4,35.879H25.222a2.878,2.878,0,0,0-1.268.3,11.123,11.123,0,0,0-5.727-4.007l-.28-.841a4.84,4.84,0,0,0,2.333-3.206ZM17.662,34.04a9.283,9.283,0,0,1,1.268.473l-1.022,3.575L15.178,35.9ZM13.6,37.121l1.018.814-.568.852h-.9l-.568-.852Zm-.238,3.6h.477l.32,1.12q-.682.35-1.332.757Zm2.583.322-.322-1.126.514-.77,1.616,1.293a18.915,18.915,0,0,0-1.808.6Zm4.7-5.478A9.26,9.26,0,0,1,22.575,37.6a2.788,2.788,0,0,0-.078,2.163,18.479,18.479,0,0,0-3.139.307Zm3.609,3.219a.97.97,0,0,1,.969-.969H37.006a1.892,1.892,0,0,1,1.48.72,7.521,7.521,0,0,0-1.12,1.218H25.222a.97.97,0,0,1-.969-.969ZM36.33,41.693a7.5,7.5,0,0,0-.413,1.938H29.524a3.836,3.836,0,0,0,.539-1.939H36.33ZM55.257,30.578v-.216a5.952,5.952,0,0,1,3.791,4.649l-5.542.554A7.936,7.936,0,0,0,55.257,30.578ZM28.248,2.938h5.575a5.932,5.932,0,0,1,5.755,7.371l-.181.724a3.842,3.842,0,0,0-1.579-.344H36.9l-5.786-.578a3.3,3.3,0,0,1-2.984-3.3H26.191a5.276,5.276,0,0,0,.152,1.263,3.846,3.846,0,0,0-1.993,2.612h-.1a3.842,3.842,0,0,0-1.579.344l-.181-.725a5.931,5.931,0,0,1,5.755-7.37ZM4.875,24.253a1.94,1.94,0,0,1,1.938-1.938v3.875A1.94,1.94,0,0,1,4.875,24.253ZM6.813,18.44v1.938a3.821,3.821,0,0,0-1.737.43,4.154,4.154,0,0,1,2.941-5.3l.595-.148.466-2.329a2.914,2.914,0,0,1,2.849-2.338h2.179a8.231,8.231,0,0,1,6.365,3.048,3.82,3.82,0,0,0-.094.827,3.865,3.865,0,0,0,1.865,3.3,8.391,8.391,0,0,1,.073,1.036v.283a8.186,8.186,0,0,1-.171,1.644,3.817,3.817,0,0,0-1.766-.447V18.44H18.44v8.72a2.91,2.91,0,0,1-2.907,2.907H11.658A2.91,2.91,0,0,1,8.751,27.16V18.44ZM11.658,32h3.875a4.69,4.69,0,0,0,.575-.058l.224.67L13.6,34.668,10.86,32.617l.224-.67a4.852,4.852,0,0,0,.574.057ZM9.527,34.039,12.014,35.9,9.283,38.088,8.263,34.52A9.378,9.378,0,0,1,9.527,34.039ZM6.546,35.562,8.22,41.42l2.84-2.271.514.77-1.027,3.595-7.6-.76a9.241,9.241,0,0,1,3.6-7.193ZM2.938,44.7l7.751.775V55.35l-7.751.774ZM36.848,55.257h-12.6v1.938h8.72a.969.969,0,0,1,0,1.938H22.706a16.771,16.771,0,0,1-10.079-3.4V45.09a16.771,16.771,0,0,1,10.079-3.4h5.419a1.938,1.938,0,0,1-1.934,1.938H24.253v1.938h12.6a.969.969,0,0,1,0,1.938h-12.6v1.938H38.786a.969.969,0,1,1,0,1.938H24.253v1.938h12.6a.969.969,0,1,1,0,1.938ZM51.381,47.6V37.725l7.751-.775V48.372Z" transform="translate(0 0)"/></g></svg>