<svg xmlns="http://www.w3.org/2000/svg" width="60.07" height="60.07" viewBox="0 0 60.07 60.07"><g transform="translate(-16 -16)"><path d="M25.01,138.021A9.01,9.01,0,1,0,16,129.01,9.01,9.01,0,0,0,25.01,138.021Zm0-16.019A7.008,7.008,0,1,1,18,129.01,7.008,7.008,0,0,1,25.01,122Z" transform="translate(0 -90.985)"/><path d="M70.5,154v-2a5,5,0,0,0-2.5.671l1,1.732A3,3,0,0,1,70.5,154Z" transform="translate(-45.485 -118.98)"/><path d="M49.692,178.247l1.324-1.5a3.005,3.005,0,0,1-.616-3.753l-1.733-1a5.007,5.007,0,0,0,1.025,6.259Z" transform="translate(-27.992 -136.467)"/><path d="M75.069,193.02H70.063a1,1,0,0,0-1,1v1.1a4.9,4.9,0,0,0-3.733,3.69l-.229.918-1.481,3.949-.508,1.357-1.844-5.531a6.548,6.548,0,0,0-6.221-4.485H51.315a7.991,7.991,0,0,0,2.66-5.006h.07a3,3,0,0,0,0-6.007,8.009,8.009,0,1,0-16.019,0,3,3,0,0,0,0,6.007h.07a7.991,7.991,0,0,0,2.66,5.006H37.024a6.546,6.546,0,0,0-6.22,4.484l-1.845,5.532-.508-1.357-1.481-3.949-.231-.918a4.893,4.893,0,0,0-3.732-3.69v-1.1a1,1,0,0,0-1-1H17a1,1,0,0,0-1,1v3a4.007,4.007,0,0,0,3.258,3.93l1.131,3.394h0l2.4,7.213a6.557,6.557,0,0,0,12.441,0l.788-2.363v5.845a1,1,0,0,0,1,1H55.045a1,1,0,0,0,1-1V209.2l.787,2.362a6.557,6.557,0,0,0,12.441,0l2.405-7.214h0l1.131-3.394a4.007,4.007,0,0,0,3.259-3.929v-3A1,1,0,0,0,75.069,193.02Zm-5.06,10.012H66l.751-2h3.924Zm-23.974,10.6-1-1V198.106l1-.8,1,.8v14.522Zm-4.413-15.358-.311-1.247h1.871Zm7.267-1.247h1.87l-.311,1.247Zm6.157-10.012a1,1,0,0,1-1,1v-2A1,1,0,0,1,55.045,187.013ZM46.035,178a6.018,6.018,0,0,1,5.778,4.362L48.745,179.3a1,1,0,0,0-1.194-.167l-7.48,4.155A6.017,6.017,0,0,1,46.035,178Zm-9.01,9.01a1,1,0,0,1,1-1v2A1,1,0,0,1,37.024,187.013Zm3,2v-3c0-.148.025-.288.038-.433l7.8-4.332,4.127,4.126a5.511,5.511,0,0,1,.052.639v3a6.007,6.007,0,1,1-12.014,0ZM21.394,201.029h3.924l.751,2H22.061Zm-3.391-4v-2h3v1a1,1,0,0,0,1,1,2.824,2.824,0,0,1,2.711,2H20A2,2,0,0,1,18,197.024Zm19.182,5.018a1.008,1.008,0,0,0-1.11.672l-2.74,8.215a4.554,4.554,0,0,1-8.642,0l-1.965-5.9h4.091l1.258,3.355a1,1,0,0,0,1.887-.035l2.74-8.215a4.546,4.546,0,0,1,4.32-3.114h2.222l.812,3.246a1,1,0,0,0,.651.705.988.988,0,0,0,.32.053,1,1,0,0,0,.626-.22l1.376-1.1v13.335a1,1,0,0,0,.293.708l.293.293H38.026V203.031A1,1,0,0,0,37.185,202.043Zm30.19,8.887a4.554,4.554,0,0,1-8.642,0l-2.739-8.215a1,1,0,0,0-.948-.685,1.046,1.046,0,0,0-.161.013,1,1,0,0,0-.841.989v11.013H48.452l.293-.293a1,1,0,0,0,.293-.708V199.708l1.377,1.1a1,1,0,0,0,.626.219.984.984,0,0,0,.32-.053,1,1,0,0,0,.651-.705l.812-3.246h2.222a4.548,4.548,0,0,1,4.321,3.115l2.739,8.215a1,1,0,0,0,.931.684.975.975,0,0,0,.956-.65l1.258-3.355h4.091Zm6.692-13.905a2,2,0,0,1-2,2H67.352a2.824,2.824,0,0,1,2.711-2,1,1,0,0,0,1-1v-1h3Z" transform="translate(0 -139.977)"/><rect width="2" height="3" transform="translate(42 44.047)"/><rect width="2" height="3" transform="translate(48 44.047)"/><path d="M236.179,278.19a3.4,3.4,0,0,0,2.835-1.517l-1.666-1.111a1.444,1.444,0,0,1-2.339,0l-1.666,1.111A3.4,3.4,0,0,0,236.179,278.19Z" transform="translate(-190.144 -227.079)"/><path d="M207.017,32.019a1,1,0,0,0,1-1V17a1,1,0,0,0-1-1H193a1,1,0,0,0-1,1V31.017a1,1,0,0,0,1,1ZM194,18h12.014V30.016H194Z" transform="translate(-153.974)"/><path d="M369.525,120.135a1,1,0,0,0-1-.008l-16.019,9.01a1,1,0,0,0,0,1.745l16.019,9.01a1,1,0,0,0,1.492-.873V121a1,1,0,0,0-.5-.864Zm-1.507,17.173-12.975-7.3,12.975-7.3Z" transform="translate(-293.951 -90.983)"/><rect width="2" height="2" transform="translate(42 20.046)"/><rect width="5.838" height="2.002" transform="translate(66.507 38.183) rotate(-30.954)"/><rect width="2" height="4" transform="translate(42 24.046)"/></g></svg>