<svg xmlns="http://www.w3.org/2000/svg" width="60.45" height="55.172" viewBox="0 0 60.45 55.172"><g transform="translate(-0.001 -22.352)"><path d="M46.836,109.518l-.239,1.393a1.664,1.664,0,0,0,2.417,1.756l1.251-.658,1.251.658a1.666,1.666,0,0,0,2.417-1.756l-.239-1.393,1.012-.987a1.666,1.666,0,0,0-.923-2.842l-1.4-.2-.626-1.268a1.666,1.666,0,0,0-2.988,0l-.626,1.268-1.4.2a1.666,1.666,0,0,0-.923,2.842Zm1.624-2.28a1.665,1.665,0,0,0,1.255-.911l.551-1.116.551,1.116a1.666,1.666,0,0,0,1.254.911l1.231.179-.891.868a1.666,1.666,0,0,0-.479,1.475l.21,1.226-1.1-.579a1.665,1.665,0,0,0-1.551,0l-1.1.579.21-1.226a1.666,1.666,0,0,0-.479-1.475l-.891-.868Z" transform="translate(-39.967 -71.381)"/><path d="M3.915,200.809a1.356,1.356,0,0,0,1.968-1.43l-.112-.653.475-.463a1.356,1.356,0,0,0-.752-2.313l-.656-.1-.293-.594a1.356,1.356,0,0,0-2.432,0l-.293.594-.656.1a1.356,1.356,0,0,0-.751,2.313l.475.463-.112.653a1.354,1.354,0,0,0,1.968,1.43l.587-.308ZM2.7,198.822l-.025.013,0-.028a1.355,1.355,0,0,0-.39-1.2l-.02-.02.028,0a1.356,1.356,0,0,0,1.021-.742l.012-.025.012.025a1.356,1.356,0,0,0,1.021.742l.028,0-.02.019a1.355,1.355,0,0,0-.39,1.2l0,.028-.025-.013a1.356,1.356,0,0,0-1.262,0Z" transform="translate(0 -151.827)"/><path d="M77.3,63.767l-.24-1.4,1.067-1.04a1.739,1.739,0,0,0-.964-2.966l-1.474-.214-.659-1.336a1.739,1.739,0,0,0-3.119,0l-.479.97A20.478,20.478,0,0,0,63.058,54.6a11.9,11.9,0,0,0,2.222-5.022c1.893-.612,3.305-3.032,3.461-5.155a3.694,3.694,0,0,0-3.26-4.183V34.865a5.655,5.655,0,0,1,.588-2.473,7.1,7.1,0,0,0-4.64-10,1.25,1.25,0,0,0-1.421.665,3.975,3.975,0,0,1-3.6,2.26H48.762a7.277,7.277,0,0,0-7.268,7.268v7.63a3.713,3.713,0,0,0-3.415,4.208c.165,2.234,1.687,4.683,3.625,5.2a11.893,11.893,0,0,0,2.2,4.953,20.626,20.626,0,0,0-17.777,20.4,2.552,2.552,0,0,0,2.549,2.549H64.481a.89.89,0,1,0,0-1.779H28.672a.771.771,0,0,1-.77-.77A18.837,18.837,0,0,1,45.384,56.211a12.066,12.066,0,0,0,3.84,2.375,2.615,2.615,0,0,0,.53,2.923l.738.738-.417,8.2a5.437,5.437,0,0,1-.953-2.413l-.983-7.21a.89.89,0,1,0-1.763.241l.983,7.21a7.21,7.21,0,0,0,3.281,5.119L53.009,74.9a.889.889,0,0,0,.966-.007l2.285-1.5a7.222,7.222,0,0,0,3.191-5.062l1.587-11.64c.184-.149.364-.3.539-.462a18.711,18.711,0,0,1,7.668,2.31,1.739,1.739,0,0,0-.428,2.8l1.067,1.04-.252,1.468a1.737,1.737,0,0,0,2.523,1.833l1.319-.693,1.319.693a1.726,1.726,0,0,0,1.652-.019q.409.715.753,1.46a.922.922,0,0,0-.007.968l.705,1.164a.915.915,0,0,0,.2.23,18.835,18.835,0,0,1,.821,5.5.771.771,0,0,1-.77.77h-9.91a.89.89,0,0,0,0,1.779h9.91A2.552,2.552,0,0,0,80.7,74.976a20.524,20.524,0,0,0-3.223-11.065.337.337,0,0,0-.17-.144ZM43.36,48.717a.89.89,0,0,0-.882-.774h-.027c-1.134,0-2.466-1.869-2.6-3.653-.133-1.8,1.14-2.274,2.231-2.354.536-.039,1.189-.164,1.189-.888V37.33a2.811,2.811,0,0,1,2.808-2.808h.7a.89.89,0,0,0,0-1.779h-.7a4.563,4.563,0,0,0-2.808.964V32.583a5.5,5.5,0,0,1,5.489-5.489H56.4a5.819,5.819,0,0,0,4.99-2.863,5.322,5.322,0,0,1,3.077,7.378,7.566,7.566,0,0,0-.682,2.168,4.565,4.565,0,0,0-2.9-1.033H50.74a.89.89,0,1,0,0,1.779H60.893A2.811,2.811,0,0,1,63.7,37.33v3.713c0,.639.514.857,1.034.893,1.091.08,2.364.554,2.231,2.354-.128,1.734-1.4,3.576-2.528,3.65a.889.889,0,0,0-.824.773,10.215,10.215,0,0,1-20.255,0ZM53.487,59.373a11.935,11.935,0,0,0,2.375-.241.834.834,0,0,1-.055,1.117L54,62.058a.834.834,0,0,1-1.179,0L51.013,60.25a.834.834,0,0,1-.031-1.144,11.936,11.936,0,0,0,2.506.267Zm-.008,13.712L51.777,72l.419-8.221a2.624,2.624,0,0,0,2.428,0l.421,8.275Zm4.21-5a5.443,5.443,0,0,1-.943,2.4l-.419-8.238.738-.738a2.615,2.615,0,0,0,.554-2.872,12.006,12.006,0,0,0,1.447-.646Zm17.546-5.459.224,1.309-1.175-.618a1.739,1.739,0,0,0-1.619,0l-1.175.618.224-1.309a1.739,1.739,0,0,0-.5-1.539l-.951-.927,1.314-.191a1.739,1.739,0,0,0,1.309-.951l.588-1.191.588,1.191a1.738,1.738,0,0,0,1.309.951l1.314.191-.951.927A1.738,1.738,0,0,0,75.235,62.626Z" transform="translate(-23.038 0)"/><circle cx="1.491" cy="1.491" r="1.491" transform="translate(24.246 42.076)"/><circle cx="1.491" cy="1.491" r="1.491" transform="translate(33.668 42.076)"/><path d="M225.213,243.168a1.246,1.246,0,0,0-1.04-1.932h-7.29a1.246,1.246,0,0,0-1.04,1.932,5.606,5.606,0,0,0,9.37,0Zm-4.685.748a3.817,3.817,0,0,1-2.467-.9H223A3.816,3.816,0,0,1,220.528,243.916Z" transform="translate(-190.177 -193.041)"/><path d="M488.275,320.79a.923.923,0,0,0-1.109-.69l-1.326.309a.923.923,0,1,0,.419,1.8l1.326-.309A.923.923,0,0,0,488.275,320.79Z" transform="translate(-427.848 -262.572)"/><path d="M459.018,282.7a.923.923,0,0,0,1.289-.209l.8-1.1a.923.923,0,0,0-1.5-1.08l-.8,1.1A.923.923,0,0,0,459.018,282.7Z" transform="translate(-404.484 -227.164)"/><path d="M483.783,364.511l-1.267-.5a.923.923,0,0,0-.674,1.72l1.267.5a.923.923,0,0,0,.674-1.72Z" transform="translate(-424.434 -301.267)"/><path d="M420.282,265.592a.923.923,0,0,0,.923-.923v-1.411a.923.923,0,0,0-1.847,0v1.411A.924.924,0,0,0,420.282,265.592Z" transform="translate(-369.846 -211.648)"/><path d="M344.629,322.232a.924.924,0,0,0,.209-1.823l-1.326-.309a.923.923,0,1,0-.419,1.8l1.326.309A.927.927,0,0,0,344.629,322.232Z" transform="translate(-301.955 -262.572)"/><path d="M375.687,400.656a.923.923,0,0,0,1.268-.311l.705-1.164a.923.923,0,0,0-1.58-.957l-.705,1.164A.924.924,0,0,0,375.687,400.656Z" transform="translate(-330.938 -331.101)"/><path d="M373.743,280.1a.923.923,0,0,0-.209,1.289l.8,1.1a.923.923,0,1,0,1.5-1.08l-.8-1.1A.923.923,0,0,0,373.743,280.1Z" transform="translate(-329.277 -227.165)"/><path d="M348.6,364.014l-1.267.5a.923.923,0,1,0,.674,1.72l1.267-.5a.923.923,0,0,0-.674-1.72Z" transform="translate(-305.805 -301.267)"/><path d="M421.225,409.973v-1.411a.923.923,0,0,0-1.847,0v1.411a.923.923,0,0,0,1.847,0Z" transform="translate(-369.862 -339.796)"/></g></svg>