<svg xmlns="http://www.w3.org/2000/svg" width="25.612" height="25.046" viewBox="0 0 25.612 25.046"><defs><style>.a{fill:#fff;}</style></defs><g transform="translate(0)"><path class="a" d="M38.4,11.37h-.42V6.71a4.173,4.173,0,0,0-2.532-3.84,2.11,2.11,0,0,0-1.654,0,4.173,4.173,0,0,0-2.532,3.84v3.968a4.6,4.6,0,0,1-.821-2.247h0a.42.42,0,0,0,.4-.419V5.492a.42.42,0,0,0-.42-.42H27.066a.42.42,0,0,0-.42.42v.15c-.023-.027-.047-.052-.072-.078a1.679,1.679,0,0,0-2.656.375,1.68,1.68,0,0,0-3.107.436,1.679,1.679,0,0,0-.732,2.9,1.678,1.678,0,0,0,.27,2.713v2.325h.84v-2.1h12.6v14.7H30.425v.84H38.4a.42.42,0,0,0,.42-.42V11.79a.42.42,0,0,0-.42-.42ZM32.1,8.851h1.26a.42.42,0,0,1,0,.84H32.1Zm.229-3.359h1.03a.42.42,0,0,1,0,.84H32.125A3.36,3.36,0,0,1,32.334,5.492Zm-4.848.42H30V7.591H27.486Zm-6.3,5.458a.84.84,0,1,1,0-1.679.42.42,0,0,0,0-.84.84.84,0,1,1,0-1.679.42.42,0,0,0,.42-.42.84.84,0,0,1,1.66-.182,1.677,1.677,0,0,0-.25,2.7,1.676,1.676,0,0,0-.344,2.1Zm2.939,0a.84.84,0,1,1,0-1.679.42.42,0,0,0,0-.84.84.84,0,1,1,0-1.679.42.42,0,0,0,.42-.42.84.84,0,1,1,1.679,0,.42.42,0,0,0,.42.42v.84a.42.42,0,0,0,.4.419h0a4.6,4.6,0,0,1-1.241,2.762V6.751h-.84V11.37Zm2.632,0a5.426,5.426,0,0,0,1.131-2.939H29.6a5.426,5.426,0,0,0,1.131,2.939Zm5.346,0v-.84h1.26a1.26,1.26,0,0,0,0-2.519H32.1v-.84h1.26a1.26,1.26,0,0,0,0-2.519h-.55a3.331,3.331,0,0,1,1.314-1.01,1.262,1.262,0,0,1,.992,0A3.334,3.334,0,0,1,37.143,6.71v4.66Zm5.878,15.535H34.624V12.21h3.359Z" transform="translate(-13.21 -2.701)"/><path class="a" d="M10.693,56.146a1.262,1.262,0,0,0-.962-1.224,3.521,3.521,0,0,0-6.473,0,1.26,1.26,0,0,0,0,2.448,3.521,3.521,0,0,0,6.473,0A1.262,1.262,0,0,0,10.693,56.146Zm-1.26.42a.42.42,0,0,0-.39.264l-.06.15A2.681,2.681,0,0,1,4,56.98l-.06-.15a.42.42,0,0,0-.39-.264.42.42,0,1,1,0-.84.42.42,0,0,0,.39-.264l.06-.15a2.681,2.681,0,0,1,4.978,0l.06.15a.42.42,0,0,0,.39.264.42.42,0,0,1,0,.84Z" transform="translate(-2.295 -34.461)"/><rect class="a" width="0.84" height="0.84" transform="translate(2.519 20.425)"/><rect class="a" width="0.84" height="0.84" transform="translate(3.359 22.105)"/><rect class="a" width="0.84" height="0.84" transform="translate(5.038 21.265)"/><path class="a" d="M21.728,41.227l.9-1.8-.752-.376L21.3,40.211l-.3-.3v-.889a2.109,2.109,0,0,0-1.8-2.078l-1.5-.214a.42.42,0,0,0-.475.475l.214,1.5a2.109,2.109,0,0,0,2.078,1.8H20.4l.483.483a4.2,4.2,0,0,0-3.529,1.006l.561.626a3.354,3.354,0,0,1,2.239-.855,3.275,3.275,0,0,1,.361.019l-.476.952a.406.406,0,0,0-.117-.087l-.84-.42-.376.752.727.363a1.362,1.362,0,0,0,1.54.56l.672.336.376-.752-.84-.42a.422.422,0,0,0-.368,0l.54-1.079a3.359,3.359,0,1,1-2.318,6.306l-.28.792a4.2,4.2,0,0,0,2.975-7.852Zm-1.576-2.16-.819-.819-.594.594.819.819h-.049a1.266,1.266,0,0,1-1.247-1.082l-.134-.943.943.135a1.265,1.265,0,0,1,1.082,1.247Z" transform="translate(-11.755 -24.274)"/><path class="a" d="M34.161,33.923h-.42V33.5h.42a.42.42,0,0,0,.42-.42V31.4a.42.42,0,0,0-.42-.42h-4.2a.42.42,0,0,0-.42.42v1.679a.42.42,0,0,0,.42.42h.42v.42h-.42a1.682,1.682,0,0,0-1.252.56l.626.559a.841.841,0,0,1,.626-.28h.84a.42.42,0,0,0,.42-.42V33.5H32.9v.42h-.84v.84h2.1a.841.841,0,0,1,.84.84v.84H30.382v.84H35V42.32H32.481v.84H35V44a.841.841,0,0,1-.84.84H30.8v.84h3.359A1.681,1.681,0,0,0,35.84,44V35.6A1.681,1.681,0,0,0,34.161,33.923Zm-3.779-1.26v-.84h3.359v.84Z" transform="translate(-19.045 -20.635)"/></g></svg>