<svg xmlns="http://www.w3.org/2000/svg" width="100.602" height="19.269" viewBox="0 0 100.602 19.269"><defs><style>.a{fill:#fff;}</style></defs><g transform="translate(-30 -34)"><g transform="translate(30 34)"><path class="a" d="M1807.2,1653.134l-6.952-7.474v-2.417l8.138,8.751a7.877,7.877,0,0,1-1.186,1.141m-6.952,1.344v-2.272l2.392,2.572c-.078,0-.156.006-.235.006a7.788,7.788,0,0,1-2.158-.306m-3.531-2.159,2.884-3.1v2.418l-1.636,1.758a7.816,7.816,0,0,1-1.247-1.075m-2-6.751,4.884-5.251v2.356l-4.943,5.314a7.7,7.7,0,0,1,.059-2.419m.6,4.694a7.739,7.739,0,0,1-.584-1.788l4.864-5.229v2.416Zm4.281-4.031v2.417l-3.144,3.38a7.842,7.842,0,0,1-.951-1.395Zm0,8.031a7.944,7.944,0,0,1-1.306-.651l1.306-1.4Zm0-14.592v.074l-4.706,5.06a7.854,7.854,0,0,1,4.706-5.134m8.453,1.9-1.711,1.74-1.056-1.135,1.588-1.616a7.867,7.867,0,0,1,1.179,1.011m1.359,1.936a7.714,7.714,0,0,1,.587,1.612l-1.015,1.032-1.056-1.135Zm-1.749,1.224-1.056-1.134,1.707-1.738a7.846,7.846,0,0,1,.906,1.287Zm-2.582-5.108a7.744,7.744,0,0,1,1.465.719l-1.524,1.549-1.055-1.135Zm-1.38.848-1.227-1.318a7.769,7.769,0,0,1,2.2.335Zm-3.453-.724v-.29a7.655,7.655,0,0,1,1.376-.266l8.481,9.117a7.757,7.757,0,0,1-.443,1.562Zm0,.572,9.246,9.941a7.752,7.752,0,0,1-.861,1.428l-8.385-9.014Zm4.761,14.02a7.77,7.77,0,0,1-1.865.413l-2.9-3.115v-2.416Zm-4.761-5.689v-2.417l6.638,7.136a7.781,7.781,0,0,1-1.486.821Zm9.958-1.186-.957-1.028.847-.862a7.822,7.822,0,0,1,.127,1.395c0,.166-.006.331-.017.5m-7.8-8.746a8.25,8.25,0,1,0,8.251,8.25,8.26,8.26,0,0,0-8.251-8.25" transform="translate(-1794.155 -1635.947)"/><g transform="translate(20.554)"><path class="a" d="M1957.8,1632.436a1.119,1.119,0,1,1-1.119-1.119,1.119,1.119,0,0,1,1.119,1.119" transform="translate(-1939.545 -1630.225)"/><path class="a" d="M2119.163,1660.4v-8.6a4.765,4.765,0,0,1,1.317-3.657,5.651,5.651,0,0,1,3.911-1.223v1.821c-2.33.014-3.282.895-3.282,3.028v8.628" transform="translate(-2066.075 -1642.292)"/><path class="a" d="M2199.371,1660.324a2.186,2.186,0,0,1-.725-1.558v-5.919a6.478,6.478,0,0,0-1.454-4.435,5.536,5.536,0,0,0-7.727,0,6.478,6.478,0,0,0-1.454,4.435v7.478h2.7a2.4,2.4,0,0,1-.743-1.974v.048l-.013.013v-5.565c0-2.62,1.26-4.185,3.371-4.185s3.372,1.564,3.372,4.185v7.478Z" transform="translate(-2119.324 -1642.231)"/><path class="a" d="M1992.425,1638.986a3.649,3.649,0,1,1-7.23,0v-1.921a3.649,3.649,0,1,1,7.23,0Zm-3.615-7.862a5.452,5.452,0,0,0-3.79,1.508V1626.5h-2.675a2.4,2.4,0,0,1,.742,1.973v-.047l0,0v8.655c0,.4.021,2.354.06,2.59a6.22,6.22,0,0,0,.861,2.513,5.98,5.98,0,0,0,1.007,1.232v-.013a5.473,5.473,0,0,0,3.79,1.549,5.717,5.717,0,0,0,5.717-5.717v-2.385a5.717,5.717,0,0,0-5.717-5.717" transform="translate(-1960.259 -1626.496)"/><path class="a" d="M2052.591,1652.878a3.648,3.648,0,1,1,7.23,0v1.921a3.648,3.648,0,1,1-7.23,0Zm3.615,7.862a5.453,5.453,0,0,0,3.79-1.508v1.136h2.675a2.4,2.4,0,0,1-.743-1.973v-.558l0,0v-3.051c0-.4-.021-2.354-.06-2.59a6.222,6.222,0,0,0-.861-2.514,5.972,5.972,0,0,0-1.007-1.231v.013a5.476,5.476,0,0,0-3.79-1.549,5.717,5.717,0,0,0-5.717,5.717v2.385a5.717,5.717,0,0,0,5.717,5.717" transform="translate(-2012.962 -1642.292)"/><path class="a" d="M1896.231,1645.038v-5.55a6.477,6.477,0,0,0-1.454-4.434,5.037,5.037,0,0,0-3.863-1.571,5.208,5.208,0,0,0-3.367,1.107V1629.6h-2.678a2.22,2.22,0,0,1,.732,1.642v8.1c0,.048-.005.094-.005.143v7.5h2.688a2.39,2.39,0,0,1-.742-1.959v-5.541c0-2.62,1.26-4.184,3.372-4.184s3.371,1.564,3.371,4.184v7.5h2.688a2.382,2.382,0,0,1-.742-1.951" transform="translate(-1884.869 -1628.895)"/><path class="a" d="M1956.164,1646.665v13.523h2.688a2.384,2.384,0,0,1-.742-1.951v-11.572Z" transform="translate(-1940.009 -1642.095)"/><path class="a" d="M2161.6,1632.436a1.119,1.119,0,1,1-1.119-1.119,1.119,1.119,0,0,1,1.119,1.119" transform="translate(-2097.163 -1630.225)"/><path class="a" d="M2159.96,1646.665v13.523h2.688a2.383,2.383,0,0,1-.742-1.951v-11.572Z" transform="translate(-2097.628 -1642.095)"/></g></g></g></svg>