<svg xmlns="http://www.w3.org/2000/svg" width="25.275" height="16.016" viewBox="0 0 25.275 16.016"><defs><style>.a,.b{fill:#fff;}.b{font-size:8px;font-family:SDJeongche830i, Sandoll Jeongche;}</style></defs><g transform="translate(-1380 -515.089)"><g transform="translate(1380 515.089)"><path class="a" d="M23.5,93.782H21a.37.37,0,0,0,0,.74h2.5a1.035,1.035,0,0,1,1.034,1.034v12.467a1.035,1.035,0,0,1-1.034,1.034H1.775A1.035,1.035,0,0,1,.74,108.023V103.2l8.674-8.674H19.523a.37.37,0,1,0,0-.74H1.775A1.777,1.777,0,0,0,0,95.557v12.467A1.777,1.777,0,0,0,1.775,109.8H23.5a1.777,1.777,0,0,0,1.775-1.775V95.557A1.777,1.777,0,0,0,23.5,93.782ZM.74,95.557a1.035,1.035,0,0,1,1.034-1.034H5.513L.74,99.3Zm0,4.786,5.82-5.82H8.367L.74,102.149Z" transform="translate(0 -93.782)"/></g><text class="b" transform="translate(1392.638 525.335)"><tspan x="-6.232" y="0">Gift</tspan></text></g></svg>