<svg xmlns="http://www.w3.org/2000/svg" width="23.213" height="21.326" viewBox="0 0 23.213 21.326"><defs><style>.a{fill:#fff;}</style></defs><g transform="translate(-55.1 -77.39)"><path class="a" d="M64.4,85.186l-.025,0L63.6,87.4h1.58Zm0,0-.025,0L63.6,87.4h1.58Zm2.3-7.8C60.3,77.39,55.1,81.5,55.1,86.566c0,3.3,2.2,6.189,5.506,7.807-.243.907-.879,3.284-1.007,3.792-.157.631.231.623.486.453.2-.133,3.181-2.159,4.467-3.034a14.7,14.7,0,0,0,2.154.159c6.41,0,11.607-4.109,11.607-9.176S73.117,77.39,66.707,77.39ZM60.994,89.084a.565.565,0,0,1-.562.563h-.123a.566.566,0,0,1-.563-.563V85.018h-1.1a.577.577,0,0,1,0-1.154h3.394a.577.577,0,1,1,0,1.154H60.994Zm5.557.533a.561.561,0,0,1-.716-.343l-.287-.821H63.232l-.287.821a.561.561,0,1,1-1.059-.372l1.664-4.461a.726.726,0,0,1,.032-.076.808.808,0,0,1,.823-.583.831.831,0,0,1,.792.488l.005,0L66.894,88.9A.562.562,0,0,1,66.55,89.617Zm3.643-.008H67.886a.524.524,0,0,1-.524-.524.5.5,0,0,1,.01-.1.611.611,0,0,1-.01-.1V84.409a.626.626,0,1,1,1.252,0v4.153h1.578a.524.524,0,0,1,0,1.048Zm4.932-.073a.559.559,0,0,1-.784-.111l-1.664-2.183-.358.357v1.424a.626.626,0,0,1-1.252,0V84.409a.626.626,0,1,1,1.252,0V86.04l1.967-1.967a.551.551,0,0,1,.78.779l-1.589,1.59,1.759,2.31A.56.56,0,0,1,75.125,89.536ZM64.377,85.184,63.6,87.4h1.58L64.4,85.186Zm.025,0-.025,0L63.6,87.4h1.58Zm0,0-.025,0L63.6,87.4h1.58Z"/><path class="a" d="M64.4,85.186l-.025,0L63.6,87.4h1.58Zm0,0-.025,0L63.6,87.4h1.58Zm2.3-7.8C60.3,77.39,55.1,81.5,55.1,86.566c0,3.3,2.2,6.189,5.506,7.807-.243.907-.879,3.284-1.007,3.792-.157.631.231.623.486.453.2-.133,3.181-2.159,4.467-3.034a14.7,14.7,0,0,0,2.154.159c6.41,0,11.607-4.109,11.607-9.176S73.117,77.39,66.707,77.39ZM60.994,89.084a.565.565,0,0,1-.562.563h-.123a.566.566,0,0,1-.563-.563V85.018h-1.1a.577.577,0,0,1,0-1.154h3.394a.577.577,0,1,1,0,1.154H60.994Zm5.557.533a.561.561,0,0,1-.716-.343l-.287-.821H63.232l-.287.821a.561.561,0,1,1-1.059-.372l1.664-4.461a.726.726,0,0,1,.032-.076.808.808,0,0,1,.823-.583.831.831,0,0,1,.792.488l.005,0L66.894,88.9A.562.562,0,0,1,66.55,89.617Zm3.643-.008H67.886a.524.524,0,0,1-.524-.524.5.5,0,0,1,.01-.1.611.611,0,0,1-.01-.1V84.409a.626.626,0,1,1,1.252,0v4.153h1.578a.524.524,0,0,1,0,1.048Zm4.932-.073a.559.559,0,0,1-.784-.111l-1.664-2.183-.358.357v1.424a.626.626,0,0,1-1.252,0V84.409a.626.626,0,1,1,1.252,0V86.04l1.967-1.967a.551.551,0,0,1,.78.779l-1.589,1.59,1.759,2.31A.56.56,0,0,1,75.125,89.536ZM64.377,85.184,63.6,87.4h1.58L64.4,85.186Zm.025,0-.025,0L63.6,87.4h1.58Zm0,0-.025,0L63.6,87.4h1.58Z"/></g></svg>