<svg xmlns="http://www.w3.org/2000/svg" width="56.022" height="57.188" viewBox="0 0 56.022 57.188"><defs><style>.a{fill:#c70017;}</style></defs><g transform="translate(-402 -577.746)"><g transform="translate(402 577.746)"><path class="a" d="M-539.988,747.364c-15.471,0-28.012,12.8-28.012,28.595s12.54,28.593,28.012,28.593,28.011-12.8,28.011-28.593-12.541-28.595-28.011-28.595m25.282,24.046c.433,2.51-15.991,3.941-25.054,4.51,8.707-2.633,24.618-7.028,25.054-4.51m-8-11.167a14.122,14.122,0,0,0,1.031-2.679,26.571,26.571,0,0,1,3.919,5.291,26.943,26.943,0,0,1,2.531,6.11,13.4,13.4,0,0,0-2.789-.428l-5-2.586Zm-.779-4.358c1.913,1.639-9.768,13.511-16.353,19.893,5.012-7.729,14.433-21.536,16.353-19.893m-7.723-4.552a25.92,25.92,0,0,1,5.786,3.02,13.622,13.622,0,0,0-2.4,1.5l-5.456,1.3-3.362-4.573a14.172,14.172,0,0,0-.9-2.728,25.656,25.656,0,0,1,6.334,1.483m-8.779-1.581c2.5,0,1.026,16.759,0,25.969-1.028-9.21-2.5-25.969,0-25.969m-8.782,1.581a25.653,25.653,0,0,1,6.334-1.483,14.157,14.157,0,0,0-.9,2.728l-3.363,4.573-5.456-1.3a13.618,13.618,0,0,0-2.4-1.5,25.91,25.91,0,0,1,5.786-3.02m-7.72,4.549c1.913-1.639,11.338,12.164,16.353,19.893-6.587-6.38-18.271-18.25-16.353-19.893m-5.732,6.973a26.645,26.645,0,0,1,3.918-5.291,14.151,14.151,0,0,0,1.032,2.679l.3,5.709-5,2.586a13.4,13.4,0,0,0-2.789.428,27.032,27.032,0,0,1,2.531-6.11m-3.049,8.55c.433-2.509,16.346,1.879,25.053,4.509-9.063-.565-25.488-1.991-25.053-4.509m0,9.1a27.241,27.241,0,0,1-.331-6.626,13.56,13.56,0,0,0,2.477,1.376l3.829,4.174-2.2,5.259a13.859,13.859,0,0,0-1.867,2.157,27.132,27.132,0,0,1-1.909-6.34m3.049,8.55c-1.249-2.208,13.7-9.287,22.031-12.985-7.3,5.514-20.779,15.2-22.031,12.985m11.186,10.578a26.059,26.059,0,0,1-5.454-3.6,26.464,26.464,0,0,1-4.426-4.858,13.4,13.4,0,0,0,2.763-.572l5.561.686,1.628,5.472a14.231,14.231,0,0,0-.073,2.878m2.264.945c-2.347-.872,4.652-16.107,8.7-24.4-2.119,9.013-6.347,25.277-8.7,24.4m8.783,1.581a25.58,25.58,0,0,1-6.449-.818,13.905,13.905,0,0,0,1.757-2.251l4.692-3.124,4.692,3.124a13.892,13.892,0,0,0,1.757,2.251,25.577,25.577,0,0,1-6.448.818m8.778-1.58c-2.347.872-6.58-15.39-8.7-24.4,4.051,8.295,11.055,23.527,8.7,24.4m7.723-4.551a26.077,26.077,0,0,1-5.456,3.6,14.21,14.21,0,0,0-.071-2.878l1.627-5.472,5.561-.686a13.409,13.409,0,0,0,2.763.572,26.461,26.461,0,0,1-4.424,4.858m5.729-6.971c-1.248,2.208-14.73-7.472-22.031-12.984,8.328,3.7,23.284,10.77,22.031,12.984m1.141-2.213a13.794,13.794,0,0,0-1.867-2.157l-2.2-5.259,3.827-4.174a13.527,13.527,0,0,0,2.478-1.376,27.2,27.2,0,0,1-.331,6.626,27,27,0,0,1-1.91,6.34" transform="translate(568 -747.364)"/></g></g></svg>