<svg xmlns="http://www.w3.org/2000/svg" width="34.345" height="31.553" viewBox="0 0 34.345 31.553"><defs><style>.a{fill:#391b1b;}.b{fill:#fae300;}</style></defs><g transform="translate(-932 -672)"><g transform="translate(932 672)"><path class="a" d="M72.271,77.391c-9.485,0-17.173,6.078-17.173,13.576,0,4.88,3.258,9.157,8.147,11.55-.359,1.341-1.3,4.858-1.49,5.611-.232.934.343.921.719.67.3-.2,4.706-3.195,6.609-4.489a21.746,21.746,0,0,0,3.188.234c9.484,0,17.173-6.079,17.173-13.576S81.755,77.391,72.271,77.391" transform="translate(-55.098 -77.391)"/><g transform="translate(4.386 9.457)"><path class="b" d="M110.276,185.048h-5.022a.854.854,0,1,0,0,1.708h1.632v6.016a.836.836,0,0,0,.833.833h.182a.835.835,0,0,0,.832-.833v-6.016h1.542a.854.854,0,1,0,0-1.708Z" transform="translate(-104.4 -184.928)"/><path class="b" d="M263.221,190.765h-2.335v-6.144a.926.926,0,1,0-1.853,0v6.623a.9.9,0,0,0,.014.148.792.792,0,0,0-.014.148.775.775,0,0,0,.775.776h3.413a.775.775,0,0,0,0-1.551Z" transform="translate(-245.276 -183.694)"/><path class="b" d="M326.819,191.047l-2.6-3.418,2.351-2.352a.816.816,0,1,0-1.154-1.153l-2.911,2.911v-2.413a.927.927,0,1,0-1.853,0v6.826a.927.927,0,1,0,1.853,0v-2.106l.529-.529,2.462,3.23a.829.829,0,1,0,1.325-1Z" transform="translate(-301.412 -183.694)"/><path class="b" d="M174.88,191.269l-2.5-6.846-.008-.008a1.23,1.23,0,0,0-1.173-.721,1.194,1.194,0,0,0-1.217.862,1.138,1.138,0,0,0-.048.113l-2.461,6.6a.83.83,0,1,0,1.566.55l.426-1.216h3.425l.426,1.216a.83.83,0,1,0,1.566-.55Zm-4.874-2.217,1.151-3.284c.013,0,.024,0,.037,0l1.15,3.281Z" transform="translate(-161.817 -183.694)"/></g></g></g></svg>