<svg xmlns="http://www.w3.org/2000/svg" width="39.508" height="30.548" viewBox="0 0 39.508 30.548"><defs><style>.a{fill:#b70010;}.b{fill:#090405;}</style></defs><g transform="translate(-116.899 -497.27)"><g transform="translate(127.331 497.27)"><g transform="translate(0 0)"><path class="a" d="M170.353,497.27a9.518,9.518,0,1,0,9.322,9.516,9.42,9.42,0,0,0-9.322-9.516m8.414,8c.144.835-5.321,1.311-8.337,1.5,2.9-.876,8.193-2.339,8.337-1.5m-2.662-3.717a4.7,4.7,0,0,0,.343-.891,8.856,8.856,0,0,1,1.3,1.761,8.976,8.976,0,0,1,.842,2.033,4.438,4.438,0,0,0-.928-.142L176,503.456Zm-.259-1.45c.637.545-3.25,4.5-5.442,6.62,1.668-2.572,4.8-7.167,5.442-6.62m-2.57-1.515A8.641,8.641,0,0,1,175.2,499.6a4.53,4.53,0,0,0-.8.5l-1.816.432-1.119-1.522a4.7,4.7,0,0,0-.3-.908,8.548,8.548,0,0,1,2.108.493m-2.921-.526c.831,0,.341,5.577,0,8.642-.342-3.065-.834-8.642,0-8.642m-2.922.526a8.548,8.548,0,0,1,2.108-.493,4.69,4.69,0,0,0-.3.908l-1.119,1.522-1.816-.432a4.526,4.526,0,0,0-.8-.5,8.638,8.638,0,0,1,1.926-1.005m-2.569,1.514c.637-.545,3.773,4.048,5.442,6.62-2.192-2.123-6.08-6.073-5.442-6.62m-1.907,2.321a8.846,8.846,0,0,1,1.3-1.761,4.686,4.686,0,0,0,.343.891l.1,1.9-1.662.861a4.438,4.438,0,0,0-.928.142,8.978,8.978,0,0,1,.842-2.033m-1.015,2.845c.144-.835,5.44.625,8.337,1.5-3.016-.188-8.482-.663-8.337-1.5m0,3.03a9.053,9.053,0,0,1-.11-2.205,4.506,4.506,0,0,0,.824.458l1.274,1.389-.732,1.75a4.6,4.6,0,0,0-.621.718,9.007,9.007,0,0,1-.635-2.11m1.014,2.845c-.416-.734,4.561-3.09,7.332-4.321-2.429,1.835-6.915,5.058-7.332,4.321m3.723,3.521a8.687,8.687,0,0,1-1.815-1.2,8.794,8.794,0,0,1-1.473-1.617,4.47,4.47,0,0,0,.92-.19l1.851.228.542,1.821a4.747,4.747,0,0,0-.024.958m.754.314c-.781-.29,1.548-5.36,2.9-8.121-.705,3-2.112,8.412-2.9,8.121m2.922.526a8.507,8.507,0,0,1-2.146-.272,4.634,4.634,0,0,0,.585-.749l1.561-1.04,1.561,1.04a4.647,4.647,0,0,0,.585.749,8.506,8.506,0,0,1-2.146.272m2.921-.526c-.781.29-2.189-5.122-2.9-8.121,1.348,2.761,3.679,7.83,2.9,8.121m2.57-1.515a8.675,8.675,0,0,1-1.815,1.2,4.727,4.727,0,0,0-.024-.958l.542-1.821,1.851-.228a4.474,4.474,0,0,0,.92.19,8.785,8.785,0,0,1-1.473,1.617m1.907-2.32c-.416.735-4.9-2.487-7.332-4.321,2.771,1.23,7.748,3.584,7.332,4.321m.38-.736a4.612,4.612,0,0,0-.621-.718l-.732-1.75,1.274-1.389a4.491,4.491,0,0,0,.824-.458,9.111,9.111,0,0,1-.745,4.315" transform="translate(-161.031 -497.27)"/></g></g><g transform="translate(116.899 520.437)"><g transform="translate(0 1.153)"><path class="b" d="M119.161,602.8c-.621-.276-1.158-.515-1.158-1.034a.88.88,0,0,1,.989-.927,2.727,2.727,0,0,1,1.611.575v-.924l-.155-.089a3.509,3.509,0,0,0-1.33-.247,2.25,2.25,0,0,0-1.411.453,1.373,1.373,0,0,0-.583,1.16c0,1.052.935,1.458,1.686,1.785l.12.053c.677.266,1.02.606,1.02,1.01,0,.635-.408.957-1.213.957a3.963,3.963,0,0,1-1.837-.684l.323,1.129.155.089a3.6,3.6,0,0,0,1.358.275c1.291,0,2.093-.677,2.093-1.766,0-1.073-.886-1.466-1.667-1.814" transform="translate(-116.899 -600.152)"/></g><g transform="translate(11.243 0)"><path class="b" d="M164.791,595.276h-.331a.979.979,0,0,1,.331.73v3.536a3.336,3.336,0,0,0,.742,2.289,2.444,2.444,0,0,0,3.662,0,3.281,3.281,0,0,0,.756-2.289,3.5,3.5,0,0,0-.687-2.207,2.083,2.083,0,0,0-1.773-.906,2.19,2.19,0,0,0-1.493.577,1.573,1.573,0,0,0-.259.274l-.021.028-.047.062v-2.094Zm3.809,5.963a1.56,1.56,0,0,1-2.472,0,2.817,2.817,0,0,1-.457-1.7c0-1.378.7-2.3,1.736-2.3,1.012,0,1.665.9,1.665,2.3a2.692,2.692,0,0,1-.472,1.7" transform="translate(-164.46 -595.276)"/></g><g transform="translate(17.94 1.153)"><path class="b" d="M195.366,600.152a2.328,2.328,0,0,0-1.817.839,3.82,3.82,0,0,0,0,4.563,2.413,2.413,0,0,0,3.633,0,3.82,3.82,0,0,0,0-4.564,2.328,2.328,0,0,0-1.817-.839m1.193,4.825a1.5,1.5,0,0,1-2.386,0,3.176,3.176,0,0,1,0-3.423,1.5,1.5,0,0,1,2.385,0,3.175,3.175,0,0,1,0,3.423" transform="translate(-192.793 -600.152)"/></g><g transform="translate(27.922 1.153)"><path class="b" d="M237.591,600.152a2.327,2.327,0,0,0-1.817.839,3.82,3.82,0,0,0,0,4.563,2.388,2.388,0,0,0,3.407.208,2.739,2.739,0,0,0,.906-1.583h-.893a1.591,1.591,0,0,1-1.6,1.39c-.914,0-1.573-.773-1.679-1.968l0-.028h4.241v-.558a2.944,2.944,0,0,0-.742-2.011,2.324,2.324,0,0,0-1.816-.852m-1.664,2.658a1.672,1.672,0,1,1,3.328,0Z" transform="translate(-235.018 -600.152)"/></g><g transform="translate(23.76 0)"><path class="b" d="M219.266,600.362v-2.935h1.427v-.81h-1.427v-1.341h-.607a3.079,3.079,0,0,1-.084.661,1.923,1.923,0,0,1-.189.487,1.411,1.411,0,0,1-.107.163,1.187,1.187,0,0,1-.868.475v.367h.975v2.918a2.1,2.1,0,0,0,.6,1.626,2.583,2.583,0,0,0,1.767.544v-.81c-1.053-.006-1.483-.4-1.483-1.346" transform="translate(-217.411 -595.276)"/></g><g transform="translate(4.981 1.153)"><path class="b" d="M143.132,605.384v.021l0,0v-2.142a3.336,3.336,0,0,0-.742-2.289,2.36,2.36,0,0,0-1.831-.825,2.387,2.387,0,0,0-1.845.839,3.313,3.313,0,0,0-.742,2.275,3.649,3.649,0,0,0,.673,2.221,2.152,2.152,0,0,0,1.787.893,2.19,2.19,0,0,0,1.493-.577,1.58,1.58,0,0,0,.259-.274l.02-.028.048-.062v.823h1.217a1.055,1.055,0,0,1-.336-.877m-2.618.186c-1.012,0-1.665-.9-1.665-2.3a2.694,2.694,0,0,1,.472-1.7,1.492,1.492,0,0,1,1.236-.608,1.466,1.466,0,0,1,1.222.622,2.7,2.7,0,0,1,.472,1.683c0,1.378-.7,2.3-1.736,2.3" transform="translate(-137.97 -600.152)"/></g><g transform="translate(34.373 1.153)"><path class="b" d="M267.445,606.256a.964.964,0,0,1-.328-.692v-2.743a2.849,2.849,0,0,0-.657-1.971,2.533,2.533,0,0,0-3.493,0,2.85,2.85,0,0,0-.657,1.971v3.435h1.221a1.055,1.055,0,0,1-.335-.877v.021l-.006.006v-2.585c0-1.164.57-1.86,1.524-1.86s1.524.7,1.524,1.86v3.435Z" transform="translate(-262.31 -600.152)"/></g></g></g></svg>