<svg xmlns="http://www.w3.org/2000/svg" width="35.936" height="32.055" viewBox="0 0 35.936 32.055"><defs><style>.a{fill:#406c5d;}.b{fill:#1a1311;}</style></defs><g transform="translate(-354.6 -501.114)"><path class="a" d="M403.485,517.3l-7.8-8.389v-2.713l9.133,9.821a8.867,8.867,0,0,1-1.331,1.28m-7.8,1.509v-2.55l2.685,2.887c-.087,0-.175.007-.263.007a8.734,8.734,0,0,1-2.421-.344m-3.963-2.423,3.236-3.48v2.713l-1.837,1.973a8.759,8.759,0,0,1-1.4-1.206m-2.245-7.577,5.481-5.893v2.644l-5.548,5.964a8.626,8.626,0,0,1,.066-2.715m.677,5.268a8.686,8.686,0,0,1-.655-2.007l5.459-5.869v2.712Zm4.8-4.524v2.713l-3.529,3.794a8.778,8.778,0,0,1-1.068-1.565Zm0,9.013a8.91,8.91,0,0,1-1.466-.731l1.466-1.577Zm0-16.376v.083l-5.282,5.679a8.816,8.816,0,0,1,5.282-5.762m9.487,2.131-1.92,1.953-1.185-1.274,1.782-1.814a8.823,8.823,0,0,1,1.323,1.135m1.526,2.172a8.666,8.666,0,0,1,.658,1.809l-1.139,1.158-1.185-1.273ZM404,507.863l-1.185-1.273,1.916-1.95a8.815,8.815,0,0,1,1.017,1.445Zm-2.9-5.733a8.683,8.683,0,0,1,1.644.807l-1.711,1.739-1.185-1.273Zm-1.549.952-1.377-1.48a8.717,8.717,0,0,1,2.464.375Zm-3.875-.813v-.326a8.6,8.6,0,0,1,1.545-.3l9.519,10.233a8.737,8.737,0,0,1-.5,1.753Zm0,.641,10.377,11.156a8.733,8.733,0,0,1-.967,1.6l-9.41-10.117Zm5.343,15.735a8.73,8.73,0,0,1-2.093.463l-3.25-3.5V512.9Zm-5.343-6.385v-2.713l7.45,8.008a8.72,8.72,0,0,1-1.668.922Zm11.176-1.331-1.074-1.154.951-.967a8.8,8.8,0,0,1,.142,1.565c0,.186-.007.372-.019.555m-8.754-9.815a9.259,9.259,0,1,0,9.26,9.26,9.27,9.27,0,0,0-9.26-9.26" transform="translate(-25.536)"/><g transform="translate(354.6 524.888)"><path class="b" d="M383.882,597.034a.5.5,0,1,1-.5-.5.5.5,0,0,1,.5.5" transform="translate(-375.686 -596.041)"/><path class="b" d="M448.318,608.823v-3.859a2.139,2.139,0,0,1,.591-1.642,2.534,2.534,0,0,1,1.756-.549v.818c-1.046.006-1.473.4-1.473,1.359v3.873" transform="translate(-424.486 -600.695)"/><path class="b" d="M480.957,608.794a.98.98,0,0,1-.326-.7v-2.657a2.909,2.909,0,0,0-.653-1.991,2.486,2.486,0,0,0-3.469,0,2.908,2.908,0,0,0-.653,1.991v3.357h1.213a1.075,1.075,0,0,1-.333-.886v.021l-.006.006v-2.5c0-1.176.566-1.879,1.513-1.879s1.514.7,1.514,1.879v3.357Z" transform="translate(-445.021 -600.672)"/><path class="b" d="M398.115,600.21a1.638,1.638,0,1,1-3.246,0v-.863a1.638,1.638,0,1,1,3.246,0Zm-1.623-3.529a2.447,2.447,0,0,0-1.7.677V594.6h-1.2a1.075,1.075,0,0,1,.333.886v-.021l0,0v3.885c0,.181.009,1.057.027,1.163a2.793,2.793,0,0,0,.387,1.128,2.677,2.677,0,0,0,.452.553v-.006a2.457,2.457,0,0,0,1.7.7,2.566,2.566,0,0,0,2.567-2.566v-1.071a2.567,2.567,0,0,0-2.567-2.566" transform="translate(-383.675 -594.603)"/><path class="b" d="M421.791,605.448a1.638,1.638,0,1,1,3.246,0v.863a1.638,1.638,0,1,1-3.246,0Zm1.623,3.529a2.447,2.447,0,0,0,1.7-.677v.51h1.2a1.075,1.075,0,0,1-.333-.886v-.25l0,0v-1.37c0-.181-.009-1.057-.027-1.163a2.793,2.793,0,0,0-.387-1.128,2.685,2.685,0,0,0-.452-.553v.006a2.457,2.457,0,0,0-1.7-.7,2.566,2.566,0,0,0-2.566,2.566v1.071a2.566,2.566,0,0,0,2.566,2.566" transform="translate(-404.001 -600.695)"/><path class="b" d="M359.7,602.775v-2.491a2.908,2.908,0,0,0-.653-1.991,2.262,2.262,0,0,0-1.735-.705,2.338,2.338,0,0,0-1.511.5v-2.241h-1.2a1,1,0,0,1,.329.737v3.639c0,.022,0,.042,0,.064v3.367h1.207a1.072,1.072,0,0,1-.333-.879v-2.488c0-1.176.566-1.878,1.513-1.878s1.514.7,1.514,1.878v3.367h1.207a1.07,1.07,0,0,1-.333-.876" transform="translate(-354.6 -595.528)"/><path class="b" d="M383.118,602.671v6.071h1.207a1.07,1.07,0,0,1-.333-.876v-5.2Z" transform="translate(-375.866 -600.619)"/><path class="b" d="M465.4,597.034a.5.5,0,1,1-.5-.5.5.5,0,0,1,.5.5" transform="translate(-436.475 -596.041)"/><path class="b" d="M464.637,602.671v6.071h1.207a1.07,1.07,0,0,1-.333-.876v-5.2Z" transform="translate(-436.655 -600.619)"/></g></g></svg>