<svg xmlns="http://www.w3.org/2000/svg" width="19.497" height="28.915" viewBox="0 0 19.497 28.915"><defs><style>.a{fill:#fff;}</style></defs><g transform="translate(0 0)"><path class="a" d="M12.077,6.859a4.855,4.855,0,0,0,4.272,4.813l.579,3.473v1.9a.485.485,0,0,0,.485.485h1.948v-.97H17.9v-.97h7.761v.97h-3.4v.97h3.88a.485.485,0,0,0,.485-.485v-1.9l.579-3.473a4.85,4.85,0,1,0-3-9.013c-.031-.017-.064-.03-.094-.046a4.671,4.671,0,0,0-.464-.227c-.021-.009-.044-.016-.066-.024a4.776,4.776,0,0,0-3.6,0l-.074.026a4.763,4.763,0,0,0-.45.221c-.035.019-.073.032-.108.053a4.85,4.85,0,0,0-7.276,4.2Zm5.746,7.761-.489-2.937a4.8,4.8,0,0,0,2.019-.623c.031.017.064.03.094.046a4.67,4.67,0,0,0,.464.227c.021.009.044.016.066.024a4.772,4.772,0,0,0,3.582.006c.029-.011.058-.019.086-.031a4.637,4.637,0,0,0,.418-.205c.046-.024.094-.042.139-.068a4.8,4.8,0,0,0,2.019.623l-.489,2.937ZM17.659,5.33a.485.485,0,0,0,.651-.217,3.874,3.874,0,0,1,1.338-1.494,3.647,3.647,0,0,1,.466-.262l.01,0a3.947,3.947,0,0,1,3.791.272,3.876,3.876,0,0,1,1.34,1.512.485.485,0,1,0,.869-.432A4.868,4.868,0,0,0,25.076,3.31a3.88,3.88,0,1,1,0,7.1,4.846,4.846,0,0,0,1.012-1.313.485.485,0,1,0-.86-.447,3.88,3.88,0,0,1-1.337,1.462,3.687,3.687,0,0,1-.4.227c-.023.011-.045.025-.068.035a3.947,3.947,0,0,1-3.776-.277A3.876,3.876,0,0,1,18.3,8.583a.485.485,0,1,0-.869.432,4.868,4.868,0,0,0,1.05,1.393,3.88,3.88,0,1,1,0-7.1,4.861,4.861,0,0,0-1.038,1.368.485.485,0,0,0,.215.652Z" transform="translate(-11.989 -2.004)"/><rect class="a" width="0.962" height="0.97" transform="translate(8.342 14.555)"/><path class="a" d="M11.955,37.08a4.644,4.644,0,0,0,1.331,2.463,4.259,4.259,0,0,0,3.408,1.35l2.8,2.8-1.338,1.338a1.455,1.455,0,1,0,2.058,2.058L21.55,45.75l1.338,1.338a1.455,1.455,0,1,0,2.058-2.058l-1.338-1.338,2.8-2.8a4.275,4.275,0,0,0,3.408-1.35c1.513-1.513,1.821-3.667.686-4.8a2.606,2.606,0,0,0-2.338-.645A4.64,4.64,0,0,0,25.7,35.428a4.26,4.26,0,0,0-1.349,3.408l-2.8,2.8-2.8-2.8A4.259,4.259,0,0,0,17.4,35.428,4.639,4.639,0,0,0,14.94,34.1a2.459,2.459,0,0,0-2.985,2.984ZM19.526,46.4a.5.5,0,0,1-.686,0,.485.485,0,0,1,0-.686l1.34-1.338.686.686Zm5.689-7.06a.485.485,0,0,0,.129-.457,3.151,3.151,0,0,1,1.042-2.771,3.665,3.665,0,0,1,1.937-1.06,1.664,1.664,0,0,1,1.493.374c.744.744.429,2.314-.686,3.43A3.143,3.143,0,0,1,26.357,39.9a.489.489,0,0,0-.456.129l-2.978,2.979-.686-.685ZM13.285,35.428a1.665,1.665,0,0,1,1.493-.374,3.665,3.665,0,0,1,1.936,1.06,3.151,3.151,0,0,1,1.042,2.772.485.485,0,0,0,.129.456l4.693,4.693h0l1.681,1.682a.485.485,0,1,1-.685.685L17.2,40.028a.485.485,0,0,0-.343-.142.5.5,0,0,0-.114.013,3.145,3.145,0,0,1-2.772-1.041,3.668,3.668,0,0,1-1.06-1.937A1.664,1.664,0,0,1,13.285,35.428Z" transform="translate(-11.894 -18.599)"/></g></svg>