<svg xmlns="http://www.w3.org/2000/svg" width="83.855" height="18.682" viewBox="0 0 83.855 18.682"><defs><style>.a{fill:#f4f4f4;}</style></defs><g transform="translate(0 0)"><path class="a" d="M175.245-76.4c1.744.088,2.246.59,2.246,2.686v13.568h3.378V-77.726l-5.623.74Z" transform="translate(-145.722 78.494)"/><path class="a" d="M203.989-58.557c1.745.089,2.247.59,2.247,2.69v8.7h3.38V-59.886l-5.627.74Z" transform="translate(-166.631 65.517)"/><path class="a" d="M213.67-80.543a1.846,1.846,0,0,0-1.86,1.831,1.847,1.847,0,0,0,1.83,1.862,1.906,1.906,0,0,0,1.922-1.862A1.874,1.874,0,0,0,213.67-80.543Z" transform="translate(-172.32 80.543)"/><path class="a" d="M237.671-57.892c0-1.171,1.209-1.5,2.227-1.5a7.6,7.6,0,0,1,3.78,1.3v-2.038a16.518,16.518,0,0,0-3.56-.464c-3.751,0-5.308,1.688-5.308,3.643,0,3.948,6.961,4.1,6.961,6.58,0,.951-.73,1.82-2.733,1.82a8.35,8.35,0,0,1-4.2-1.411v2.118a17.394,17.394,0,0,0,4.068.492c3.15,0,5.726-1.091,5.726-3.752C244.635-55.774,237.671-55.465,237.671-57.892Z" transform="translate(-189.05 66.026)"/><path class="a" d="M283.594-59.658c1.831,0,2.029,1.683,2.029,2.8h3.68c0-2.2-2.251-3.726-5.53-3.726-4.226,0-6.012,2.721-6.012,6.443,0,4.106,2.585,6.8,6.721,6.8A10.172,10.172,0,0,0,288.675-48v-1.192a11.219,11.219,0,0,1-2.835.379c-2.688,0-4.565-2.2-4.565-6.225C281.275-57.646,281.587-59.658,283.594-59.658Z" transform="translate(-220.292 66.026)"/><path class="a" d="M333.147-60.585c-4.314,0-6.541,2.093-6.541,6.635,0,3.8,1.783,6.607,6.541,6.607,4.37,0,6.529-2.175,6.529-6.607C339.677-57.864,337.428-60.585,333.147-60.585Zm0,12.315c-2.927,0-2.974-3.422-2.974-5.68,0-2.395.046-5.708,2.974-5.708,2.866,0,2.981,3.206,2.981,5.708C336.128-51.234,336.04-48.27,333.147-48.27Z" transform="translate(-255.822 66.026)"/><path class="a" d="M101.827-40.016c-2.249-1.178-4.722-2.658-6.139-5.864l-.393.083c.208,1.816,1.056,6.15,3.859,8.429a2.377,2.377,0,0,0,3.158.213A1.766,1.766,0,0,0,101.827-40.016Z" transform="translate(-87.567 55.329)"/><path class="a" d="M83.861-77.764c-5.64,0-9.565,3.439-11.293,8.217v-8.207l-5.622.74v.591c1.743.088,2.246.59,2.246,2.686V-60.17h3.376v-4.11c.163-6.627,3.9-11.12,10.251-11.12,5.546,0,9.4,3.629,9.4,8.973l0,1.969a2.771,2.771,0,0,1-2.96,3.017c-1.351,0-2.18-.986-2.18-2.7a4.555,4.555,0,0,1,3.847-4.273l.046-.578c-1.892.061-7.359,1.19-7.359,5.355,0,1.744,1.2,3.792,4.49,3.792,2.276,0,3.559-.948,4.117-1.868v.061a1.553,1.553,0,0,0,1.684,1.577h1.739l-.01-6.4C95.635-73.91,89.8-77.764,83.861-77.764Z" transform="translate(-66.947 78.522)"/></g></svg>