<svg xmlns="http://www.w3.org/2000/svg" width="71.927" height="16.025" viewBox="0 0 71.927 16.025"><defs><style>.a{fill:#fff;}</style></defs><g transform="translate(0 0)"><g transform="translate(0 0)"><path class="a" d="M175.245-76.585c1.5.075,1.926.506,1.926,2.3v11.638h2.9V-77.726l-4.823.634Z" transform="translate(-149.922 78.385)"/><path class="a" d="M203.989-58.746c1.5.076,1.927.506,1.927,2.307v7.464h2.9V-59.886l-4.827.635Z" transform="translate(-171.945 64.716)"/><path class="a" d="M213.406-80.543a1.583,1.583,0,0,0-1.6,1.571,1.584,1.584,0,0,0,1.57,1.6,1.635,1.635,0,0,0,1.648-1.6A1.607,1.607,0,0,0,213.406-80.543Z" transform="translate(-177.937 80.543)"/><path class="a" d="M237.264-58.275c0-1,1.037-1.283,1.91-1.283a6.521,6.521,0,0,1,3.242,1.119v-1.748a14.167,14.167,0,0,0-3.054-.4c-3.218,0-4.553,1.448-4.553,3.125,0,3.387,5.971,3.519,5.971,5.644,0,.816-.626,1.561-2.344,1.561a7.163,7.163,0,0,1-3.6-1.211v1.817a14.92,14.92,0,0,0,3.489.422c2.7,0,4.912-.936,4.912-3.218C243.237-56.458,237.264-56.193,237.264-58.275Z" transform="translate(-195.559 65.252)"/><path class="a" d="M282.764-59.79c1.57,0,1.741,1.443,1.741,2.4h3.156c0-1.891-1.931-3.2-4.743-3.2-3.625,0-5.157,2.334-5.157,5.526,0,3.522,2.218,5.832,5.765,5.832a8.725,8.725,0,0,0,3.6-.563v-1.023a9.624,9.624,0,0,1-2.431.325c-2.306,0-3.916-1.889-3.916-5.339C280.775-58.064,281.043-59.79,282.764-59.79Z" transform="translate(-228.466 65.252)"/><path class="a" d="M332.217-60.585c-3.7,0-5.611,1.8-5.611,5.691,0,3.263,1.529,5.667,5.611,5.667,3.749,0,5.6-1.866,5.6-5.667C337.817-58.251,335.889-60.585,332.217-60.585Zm0,10.564c-2.511,0-2.551-2.935-2.551-4.872,0-2.054.04-4.9,2.551-4.9,2.458,0,2.557,2.75,2.557,4.9C334.774-52.564,334.7-50.021,332.217-50.021Z" transform="translate(-265.89 65.252)"/><path class="a" d="M100.9-40.85a10.376,10.376,0,0,1-5.265-5.03l-.337.072c.178,1.558.906,5.275,3.31,7.23a2.039,2.039,0,0,0,2.709.182A1.515,1.515,0,0,0,100.9-40.85Z" transform="translate(-88.666 53.985)"/><path class="a" d="M81.455-77.764a10.035,10.035,0,0,0-9.686,7.048v-7.039l-4.822.634v.507c1.5.075,1.927.506,1.927,2.3v11.638h2.9V-66.2c.14-5.685,3.346-9.539,8.793-9.539,4.757,0,8.062,3.113,8.062,7.7l0,1.689a2.377,2.377,0,0,1-2.539,2.588c-1.159,0-1.87-.846-1.87-2.318a3.907,3.907,0,0,1,3.3-3.665l.039-.5c-1.623.052-6.312,1.021-6.312,4.593,0,1.5,1.028,3.253,3.851,3.253A3.9,3.9,0,0,0,88.627-64v.053a1.332,1.332,0,0,0,1.445,1.353h1.491l-.008-5.49C91.555-74.458,86.545-77.764,81.455-77.764Z" transform="translate(-66.947 78.414)"/></g></g></svg>