<svg xmlns="http://www.w3.org/2000/svg" width="54.822" height="58.063" viewBox="0 0 54.822 58.063"><defs><style>.a{fill:#fff;}</style></defs><g transform="translate(-1 -3.759)"><path class="a" d="M53.17,6.305H51.4V5.421a2.656,2.656,0,0,0-2.653-2.653H39.022A1.77,1.77,0,0,0,37.253,1H19.569A1.77,1.77,0,0,0,17.8,2.768H8.074A2.656,2.656,0,0,0,5.421,5.421v.884H3.653A2.656,2.656,0,0,0,1,8.958v9.727A3.533,3.533,0,0,0,3.653,22.1V48.748A2.656,2.656,0,0,0,1,51.4v3.537a.884.884,0,0,0,.884.884H54.938a.884.884,0,0,0,.884-.884V51.4a2.656,2.656,0,0,0-2.653-2.653V22.1a3.533,3.533,0,0,0,2.653-3.411V8.958A2.656,2.656,0,0,0,53.17,6.305ZM48.748,4.537a.885.885,0,0,1,.884.884v.884H39.022V4.537ZM19.569,2.768H37.253V9.842H19.569ZM7.19,5.421a.885.885,0,0,1,.884-.884H17.8V6.305H7.19ZM3.653,8.074H17.8V9.842a1.77,1.77,0,0,0,1.768,1.768H37.253a1.77,1.77,0,0,0,1.768-1.768V8.074H53.17a.885.885,0,0,1,.884.884v4.421H2.768V8.958A.885.885,0,0,1,3.653,8.074Zm41.559,7.074h3.537v3.537a1.768,1.768,0,1,1-3.537,0Zm-5.305,0h3.537v3.537a1.768,1.768,0,0,1-3.537,0Zm-5.305,0h3.537v3.537a1.768,1.768,0,1,1-3.537,0Zm-5.305,0h3.537v3.537a1.768,1.768,0,0,1-3.537,0Zm-5.305,0h3.537v3.537a1.768,1.768,0,1,1-3.537,0Zm-5.305,0h3.537v3.537a1.768,1.768,0,1,1-3.537,0Zm-5.305,0h3.537v3.537a1.768,1.768,0,0,1-3.537,0Zm-5.305,0h3.537v3.537a1.768,1.768,0,0,1-3.537,0ZM2.768,18.685V15.148H6.305v3.537a1.768,1.768,0,0,1-3.537,0ZM5.421,29.3H30.18V41.675H5.421ZM30.18,27.527H5.421V25.758H30.18ZM5.421,43.443H30.18v5.305H5.421ZM54.054,51.4v2.653H2.768V51.4a.885.885,0,0,1,.884-.884H53.17A.885.885,0,0,1,54.054,51.4Zm-6.19-23.874H35.485V25.758H47.864ZM35.485,29.3H47.864V48.748H35.485ZM49.633,48.748V24.874a.884.884,0,0,0-.884-.884H34.6a.884.884,0,0,0-.884.884V48.748H31.948V24.874a.884.884,0,0,0-.884-.884H5.421V22.1A3.515,3.515,0,0,0,7.19,21a3.49,3.49,0,0,0,5.305,0A3.49,3.49,0,0,0,17.8,21a3.49,3.49,0,0,0,5.305,0,3.49,3.49,0,0,0,5.305,0,3.49,3.49,0,0,0,5.305,0,3.49,3.49,0,0,0,5.305,0,3.49,3.49,0,0,0,5.305,0,3.49,3.49,0,0,0,5.305,0A3.515,3.515,0,0,0,51.4,22.1V48.748Zm4.421-30.064a1.768,1.768,0,1,1-3.537,0V15.148h3.537Z" transform="translate(0 6)"/><path class="a" d="M0,0H9.1V1.839H0Z" transform="translate(8.621 38.445) rotate(-45)"/><path class="a" d="M0,0H9.1V1.839H0Z" transform="translate(16.189 38.446) rotate(-45)"/><path class="a" d="M35.955,4h-9.2a2.759,2.759,0,1,0,0,5.518h9.2a2.759,2.759,0,0,0,0-5.518Zm0,3.678h-9.2a.92.92,0,1,1,0-1.839h9.2a.92.92,0,1,1,0,1.839Z" transform="translate(-2.946 -0.241)"/><circle class="a" cx="1.281" cy="1.281" r="1.281" transform="translate(36.66 36.045)"/></g></svg>