<svg xmlns="http://www.w3.org/2000/svg" width="22.924" height="25.019" viewBox="0 0 22.924 25.019"><defs><style>.a{fill:#fff;}</style></defs><g transform="translate(-18.343 -16)"><path class="a" d="M41.215,304.217a.419.419,0,0,0-.367-.217,5.315,5.315,0,0,0-4.316,2.221l-.555.776L32.4,308.19h-.177l3.056-3.056a.419.419,0,0,0-.3-.715H34.05a7.227,7.227,0,0,0-5.109,2.1H26.677a4.619,4.619,0,0,0-3.287,1.362l-5.047,5.046.593.593,5.047-5.047a3.786,3.786,0,0,1,2.695-1.116h2.438a.419.419,0,0,0,.3-.123l.087-.087a6.394,6.394,0,0,1,4.471-1.885l-3.894,3.893.593.593.715-.715h1.083a.42.42,0,0,0,.132-.021l3.771-1.257a.419.419,0,0,0,.208-.154l.634-.887a4.477,4.477,0,0,1,2.824-1.8l-2.406,3.782-5.668,2.429h-5.78a.419.419,0,0,0-.3.123l-2.1,2.1.593.593,1.972-1.972h5.693a.419.419,0,0,0,.165-.034l5.866-2.514a.419.419,0,0,0,.188-.16l2.933-4.609A.419.419,0,0,0,41.215,304.217Z" transform="translate(0 -272.915)"/><path class="a" d="M112.419,21.447h.419V32.342a.419.419,0,0,0,.419.419h4.609v-.838h-4.19V21.447h4.609V31.5h.838V21.447h.838v9.638h.838V21.447h4.609V31.5h.838V21.447h.419a.419.419,0,0,0,.419-.419V19.352a.419.419,0,0,0-.419-.419h-1.995A1.885,1.885,0,0,0,123.1,16a3.136,3.136,0,0,0-2.353,1.063.419.419,0,0,0-.371-.225H118.7a.419.419,0,0,0-.371.224A3.135,3.135,0,0,0,115.981,16a1.885,1.885,0,0,0-1.567,2.933h-1.995a.419.419,0,0,0-.419.419v1.676a.419.419,0,0,0,.419.419Zm7.962-1.676v.838H118.7v-.838Zm5.866.838h-5.028v-.838h5.028ZM123.1,16.838a1.048,1.048,0,1,1,0,2.1h-2.3A2.308,2.308,0,0,1,123.1,16.838Zm-3.143.838v1.257h-.838V17.676Zm-5.028.21a1.049,1.049,0,0,1,1.048-1.048,2.308,2.308,0,0,1,2.3,2.1h-2.3A1.049,1.049,0,0,1,114.933,17.886Zm-2.1,1.886h5.028v.838h-5.028Z" transform="translate(-88.752 0)"/></g></svg>