<svg xmlns="http://www.w3.org/2000/svg" width="19.127" height="19.127" viewBox="0 0 19.127 19.127"><path d="M60.649,0h6.866a.942.942,0,0,1,.9.966V5.29a.942.942,0,0,1-.9.966H60.649a.939.939,0,0,1-.9-.966V4.507l-1.461-.746a.643.643,0,0,1,0-1.131c.487-.25.974-.5,1.461-.746V.966a.939.939,0,0,1,.9-.966Zm6.866.6H60.649a.344.344,0,0,0-.3.368v1.1a.292.292,0,0,1-.165.263c-.542.28-1.08.559-1.622.834a.036.036,0,0,0,0,.064l1.6.822a.3.3,0,0,1,.191.275V5.29a.344.344,0,0,0,.3.368h6.865a.344.344,0,0,0,.3-.368V.966A.345.345,0,0,0,67.515.6Z" transform="translate(-49.29)"/><path d="M82.755,10.687a.3.3,0,0,1,0-.6h4.481a.3.3,0,0,1,0,.6Zm0,2.647a.3.3,0,0,1,0-.6h2.66a.3.3,0,0,1,0,.6Zm0-1.326a.3.3,0,0,1,0-.6h4.481a.3.3,0,0,1,0,.6Z" transform="translate(-70.137 -8.582)"/><path d="M3.846,5.654a1.555,1.555,0,0,1-.237-.114l-.047.343.983,1.105.978-1.105L5.476,5.54a1.688,1.688,0,0,1-.233.114,2.135,2.135,0,0,1-1.4,0ZM3.066,5.1l-.03-.025A2.056,2.056,0,0,1,2.355,3.5V2.13A2.052,2.052,0,0,1,4.545,0,2.049,2.049,0,0,1,6.73,2.13V3.5a2.057,2.057,0,0,1-.682,1.576l-.03.025.1.72.513.449L8.081,6.9a1.673,1.673,0,0,1,.737.627,1.75,1.75,0,0,1,.267.94V9.3a.3.3,0,0,1-.3.3.3.3,0,0,1-.3-.3V8.471a1.112,1.112,0,0,0-.174-.618,1.065,1.065,0,0,0-.47-.4l-1.19-.517L6.154,8.5a.3.3,0,0,1-.373.195A.331.331,0,0,1,5.7,8.645l-.856-.623V9.3a.3.3,0,0,1-.3.3.3.3,0,0,1-.3-.3V8.022l-.851.627L3.3,8.691A.3.3,0,0,1,2.931,8.5l-.5-1.563L1.241,7.45a1.067,1.067,0,0,0-.47.4A1.149,1.149,0,0,0,.6,8.471v3.748a.3.3,0,0,1-.3.3.3.3,0,0,1-.3-.3V8.471a1.718,1.718,0,0,1,.271-.94A1.639,1.639,0,0,1,1,6.9l1.453-.631.513-.449Zm.5-.356A.2.2,0,0,1,3.6,4.79a1.581,1.581,0,0,0,.457.309,1.618,1.618,0,0,0,.962,0,1.586,1.586,0,0,0,.457-.309.228.228,0,0,1,.047-.042c.042-.038.085-.076.123-.114A1.466,1.466,0,0,0,6.133,3.5V2.867A1.943,1.943,0,0,1,4.1,2.16a1.139,1.139,0,0,1-1.139.377V3.5a1.462,1.462,0,0,0,.479,1.131ZM3.223,6.4l-.263.229.411,1.3L4.1,7.387Zm2.639,0-.877.991.728.534.411-1.3ZM1.753,10.22a.3.3,0,0,1,.3-.3.3.3,0,0,1,.3.3v2a.3.3,0,0,1-.3.3.3.3,0,0,1-.3-.3ZM2.965,1.927a.678.678,0,0,0,.86-.466.3.3,0,0,1,.559.021,1.389,1.389,0,0,0,1.749.775V2.13A1.456,1.456,0,0,0,4.545.6a1.447,1.447,0,0,0-1.58,1.33Z" transform="translate(0 0)"/><path d="M63.39,54.6a2.269,2.269,0,0,1-.813-1.8v-1.55a2.43,2.43,0,0,1,4.858,0v1.55a2.266,2.266,0,0,1-.809,1.8l.119,1.232,2.24.843a1.861,1.861,0,0,1,1.11,1.732v2a.3.3,0,0,1-.3.3.3.3,0,0,1-.3-.3v-2a1.253,1.253,0,0,0-.746-1.182l-2.389-.9a4.527,4.527,0,0,0-2.7-.076l-2.4.978a1.256,1.256,0,0,0-.741,1.182v2a.3.3,0,0,1-.3.3.3.3,0,0,1-.3-.3v-2a1.861,1.861,0,0,1,1.11-1.732l2.249-.915Zm2.529.3H64.093a.151.151,0,0,0-.148.135l-.051.542a5.155,5.155,0,0,1,2.232.064l-.059-.606A.145.145,0,0,0,65.918,54.9Zm-1.851-.589h1.876a.646.646,0,0,0,.364-.216,1.713,1.713,0,0,0,.529-1.288v-1.55a1.833,1.833,0,0,0-3.664,0v1.55a1.718,1.718,0,0,0,.606,1.351A.482.482,0,0,0,64.067,54.31Z" transform="translate(-50.967 -41.587)"/><path d="M9.993,66.014l.5-2.838a.984.984,0,0,1,.932-.792h5.036a.742.742,0,0,1,.741.894L16.562,66.9a1.048,1.048,0,0,1-1,.847H9.09a.741.741,0,0,1-.746-.525l-.2-.834a.3.3,0,0,1,.288-.373H9.993Zm3.8-1.258a.3.3,0,0,1,.3.3.3.3,0,0,1-.3.3.3.3,0,0,1-.3-.3A.3.3,0,0,1,13.8,64.756ZM10.441,66.9a.2.2,0,0,0,.2.25h4.926a.442.442,0,0,0,.407-.352l.635-3.621a.148.148,0,0,0-.153-.195H11.42a.378.378,0,0,0-.343.3Zm-.555-.288H8.811l.114.466a.15.15,0,0,0,.165.072h.771a.983.983,0,0,1-.009-.352Z" transform="translate(-6.918 -53.062)"/></svg>