<svg xmlns="http://www.w3.org/2000/svg" width="15.918" height="19.959" viewBox="0 0 15.918 19.959"><g transform="translate(0)"><g transform="translate(0)"><path d="M67.437,12.47a.309.309,0,0,0,.309-.309v-.99a1.7,1.7,0,0,0-.91-1.5V1.334a.309.309,0,0,0-.309-.309h-.775V.309A.309.309,0,0,0,65.444,0H55.549a.309.309,0,0,0,0,.618h9.586V9.472H59.856a1.076,1.076,0,0,1-1.007-.686l-.274-.7A1.69,1.69,0,0,0,56.993,7.01H53.7V.618h.822a.309.309,0,1,0,0-.618H53.389a.309.309,0,0,0-.309.309V7.07a1.7,1.7,0,0,0-1.252,1.639v9.679a1.572,1.572,0,0,0,1.57,1.57H66.176a1.572,1.572,0,0,0,1.571-1.57v-5.2a.309.309,0,0,0-.618,0v5.2a.954.954,0,0,1-.953.953H53.4a.954.954,0,0,1-.953-.953V8.709a1.083,1.083,0,0,1,1.082-1.082h3.465A1.076,1.076,0,0,1,58,8.314l.274.7a1.69,1.69,0,0,0,1.582,1.078h6.191a1.083,1.083,0,0,1,1.082,1.082v.99A.309.309,0,0,0,67.437,12.47ZM66.219,9.48a1.711,1.711,0,0,0-.172-.009h-.294V1.643h.466Z" transform="translate(-51.828)"/></g></g><g transform="translate(2.979 1.691)"><g transform="translate(0)"><path d="M130.857,46.362a1.649,1.649,0,1,0-1.918,0,1.647,1.647,0,0,0-.69,1.34.309.309,0,1,0,.618,0,1.031,1.031,0,0,1,2.062,0,.309.309,0,1,0,.618,0A1.647,1.647,0,0,0,130.857,46.362Zm-.959-.309a1.031,1.031,0,1,1,1.031-1.031A1.032,1.032,0,0,1,129.9,46.053Z" transform="translate(-128.249 -43.373)"/></g></g><g transform="translate(11.051 2.074)"><g transform="translate(0)"><path d="M336.292,53.194h-.656a.309.309,0,0,0,0,.618h.656a.309.309,0,0,0,0-.618Z" transform="translate(-335.327 -53.194)"/></g></g><g transform="translate(7.42 2.074)"><g transform="translate(0)"><path d="M245.075,53.194h-2.6a.309.309,0,1,0,0,.618h2.6a.309.309,0,1,0,0-.618Z" transform="translate(-242.164 -53.194)"/></g></g><g transform="translate(7.42 8.122)"><g transform="translate(0)"><path d="M246.76,208.351h-4.287a.309.309,0,1,0,0,.618h4.287a.309.309,0,1,0,0-.618Z" transform="translate(-242.164 -208.351)"/></g></g><g transform="translate(9.507 6.61)"><g transform="translate(0)"><path d="M298.222,169.562h-2.2a.309.309,0,1,0,0,.618h2.2a.309.309,0,1,0,0-.618Z" transform="translate(-295.713 -169.562)"/></g></g><g transform="translate(7.42 6.61)"><g transform="translate(0)"><path d="M243.531,169.562h-1.058a.309.309,0,1,0,0,.618h1.058a.309.309,0,0,0,0-.618Z" transform="translate(-242.164 -169.562)"/></g></g><g transform="translate(7.42 3.586)"><g transform="translate(0)"><path d="M246.76,91.982h-4.287a.309.309,0,1,0,0,.618h4.287a.309.309,0,0,0,0-.618Z" transform="translate(-242.164 -91.982)"/></g></g><g transform="translate(7.42 5.098)"><g transform="translate(0)"><path d="M246.76,130.773h-4.287a.309.309,0,1,0,0,.618h4.287a.309.309,0,1,0,0-.618Z" transform="translate(-242.164 -130.773)"/></g></g></svg>