<svg xmlns="http://www.w3.org/2000/svg" width="20.389" height="20.389" viewBox="0 0 20.389 20.389"><path d="M49.354,238.512a2.842,2.842,0,1,0-2.842,2.842A2.854,2.854,0,0,0,49.354,238.512Zm-5.035,0a2.224,2.224,0,1,1,2.224,2.224A2.235,2.235,0,0,1,44.319,238.512Z" transform="translate(-41.878 -226.001)"/><path d="M6.426,378.729H2.873A2.887,2.887,0,0,0,0,381.6v1.668a.292.292,0,0,0,.309.309H8.99a.292.292,0,0,0,.309-.309V381.6A2.887,2.887,0,0,0,6.426,378.729Zm2.255,4.232H.618V381.6a2.268,2.268,0,0,1,2.255-2.255H6.426A2.268,2.268,0,0,1,8.681,381.6v1.359Z" transform="translate(0 -363.19)"/><path d="M314.729,239.235a2.842,2.842,0,1,0,2.842-2.811A2.854,2.854,0,0,0,314.729,239.235Zm5.035,0a2.224,2.224,0,1,1-2.224-2.224A2.235,2.235,0,0,1,319.764,239.235Z" transform="translate(-301.816 -226.724)"/><path d="M276.733,378.729H273.18a2.887,2.887,0,0,0-2.873,2.873v1.668a.292.292,0,0,0,.309.309H279.3a.292.292,0,0,0,.309-.309V381.6A2.887,2.887,0,0,0,276.733,378.729Zm2.255,4.232h-8.063V381.6a2.268,2.268,0,0,1,2.255-2.255h3.553a2.268,2.268,0,0,1,2.255,2.255v1.359Z" transform="translate(-259.217 -363.19)"/><path d="M9.36,0H.618A.62.62,0,0,0,0,.618V6.7a.62.62,0,0,0,.618.618h.834L.71,9.422a.293.293,0,0,0,.124.34.325.325,0,0,0,.371,0l3-2.44H9.3A.62.62,0,0,0,9.916,6.7V.556A.554.554,0,0,0,9.36,0ZM9.3,6.734H4.078a.331.331,0,0,0-.185.062L1.668,8.619l.494-1.483a.3.3,0,0,0-.031-.278.281.281,0,0,0-.247-.124H.618V.618H9.3V6.734Z"/><path d="M261.731,9.762a.31.31,0,0,0,.463-.4l-.711-2.039h.8a.633.633,0,0,0,.649-.649V.649A.633.633,0,0,0,262.287,0h-8.65a.633.633,0,0,0-.649.649V6.7a.633.633,0,0,0,.649.649H258.7ZM253.606,6.7V.649a.03.03,0,0,1,.031-.031h8.619a.03.03,0,0,1,.031.031V6.7a.03.03,0,0,1-.031.031H261.02a.381.381,0,0,0-.247.124.29.29,0,0,0-.031.278l.525,1.483L259.043,6.8a.439.439,0,0,0-.185-.062Z" transform="translate(-242.608)"/><path d="M105.153,121.224a.465.465,0,0,0-.34.124.451.451,0,0,0,0,.68.529.529,0,0,0,.68,0,.451.451,0,0,0,0-.68A.464.464,0,0,0,105.153,121.224Z" transform="translate(-100.365 -116.25)"/><path d="M85.29,33.9a.587.587,0,0,1,.4-.154.651.651,0,0,1,.4.154.587.587,0,0,1,.154.4.651.651,0,0,1-.154.4l-.463.463a1.027,1.027,0,0,0-.247.34,1.152,1.152,0,0,0-.062.371v.371h.711v-.278a.57.57,0,0,1,.124-.4l.124-.124.185-.185.154-.154c.031-.031.093-.124.185-.216a1,1,0,0,0,.216-.618,1.163,1.163,0,0,0-.34-.865,2.155,2.155,0,0,0-.989-.278,1.347,1.347,0,0,0-.927.309,1.236,1.236,0,0,0-.432.865H85.1A.808.808,0,0,1,85.29,33.9Z" transform="translate(-80.872 -31.77)"/><path d="M329.5,49.392a.3.3,0,0,0-.432-.031l-2.9,2.44-.834-1.236a.313.313,0,1,0-.525.34l1.019,1.545a.313.313,0,0,0,.216.124h.031a.331.331,0,0,0,.185-.062l3.182-2.657C329.595,49.7,329.626,49.516,329.5,49.392Z" transform="translate(-311.43 -47.261)"/></svg>