<svg xmlns="http://www.w3.org/2000/svg" width="25.313" height="26.186" viewBox="0 0 25.313 26.186"><defs><style>.a{fill:#fff;}</style></defs><g transform="translate(0 0)"><path class="a" d="M14.947,42.806h0a10.178,10.178,0,0,1-4.921-3.625.436.436,0,1,0-.708.511,11.056,11.056,0,0,0,5.345,3.94.436.436,0,0,0,.283-.826Z" transform="translate(-5.641 -21.978)"/><path class="a" d="M7,33.3a.436.436,0,0,0-.827.278c.1.306.223.612.356.909a.436.436,0,0,0,.8-.357C7.2,33.862,7.09,33.583,7,33.3Z" transform="translate(-3.9 -18.601)"/><path class="a" d="M34.476,6.021a2.583,2.583,0,0,0,.768,1.836.436.436,0,0,0,.617-.617,1.707,1.707,0,0,1,0-2.438c1.051-1.051.559-2.676-.436-3.672a.436.436,0,0,0-.617.617c.7.7,1.086,1.788.436,2.438A2.582,2.582,0,0,0,34.476,6.021Z" transform="translate(-19.866 -0.566)"/><path class="a" d="M23.476,11.021a2.583,2.583,0,0,0,.768,1.836.436.436,0,0,0,.617-.617,1.707,1.707,0,0,1,0-2.438c1.051-1.051.559-2.676-.436-3.672a.436.436,0,0,0-.617.617c.7.7,1.086,1.788.436,2.438A2.582,2.582,0,0,0,23.476,11.021Z" transform="translate(-13.667 -3.384)"/><path class="a" d="M13,5.021a2.583,2.583,0,0,0,.768,1.836.436.436,0,1,0,.617-.617,1.707,1.707,0,0,1,0-2.438c1.051-1.051.559-2.676-.436-3.672a.436.436,0,0,0-.617.617c.7.7,1.086,1.788.436,2.438A2.582,2.582,0,0,0,13,5.021Z" transform="translate(-7.763 -0.002)"/><path class="a" d="M21.574,10.787a21.728,21.728,0,0,1,.781-5.6,7.1,7.1,0,0,1,3.184-3,1.161,1.161,0,0,0-1-2.093,9.727,9.727,0,0,0-4.262,3.382c-1.116,1.674-1.547,4.865-1.714,7.114-1.564-.073-3.209-.112-4.906-.112a86.09,86.09,0,0,0-8.687.386C1.306,11.252,1,11.747,1,12.22c0,.01,0,.02,0,.03H1v.019c0,.016,0,.032,0,.048.007.1.022.3.035.444a12.043,12.043,0,0,0,4.324,8.224v2.581c0,1.719,4.172,2.619,8.292,2.619s8.292-.9,8.292-2.619v-2.35A11.4,11.4,0,0,0,26.3,12.657c0-.036,0-.233.007-.346,0-.031,0-.062,0-.091C26.313,11.839,26.312,11.207,21.574,10.787Zm3.542,1.433a18.41,18.41,0,0,1-3.6.564c0-.252.01-.643.025-1.124A18.113,18.113,0,0,1,25.116,12.22Zm-5.708-1.155h0c.138-2.165.523-5.5,1.595-7.106A8.847,8.847,0,0,1,24.877.9a.288.288,0,0,1,.253.517,7.764,7.764,0,0,0-3.586,3.449c-.8,2.007-.893,6.85-.9,7.992q-.628.048-1.309.086C19.336,12.65,19.351,11.958,19.408,11.065Zm-5.752.282c1.678,0,3.305.038,4.851.111-.039.741-.048,1.294-.05,1.525-1.564.071-3.173.111-4.8.111-6.134,0-10.254-.464-11.493-.873C3.4,11.812,7.522,11.347,13.657,11.347Zm7.419,12.22c0,.592-2.619,1.746-7.419,1.746S6.237,24.16,6.237,23.568v-1.91A12.887,12.887,0,0,0,13.657,24a13.419,13.419,0,0,0,7.419-2.153Zm.2-2.939a.429.429,0,0,0-.086.066,12.424,12.424,0,0,1-7.537,2.436A11.686,11.686,0,0,1,1.95,13.054a16.245,16.245,0,0,0,3.02.527,86.1,86.1,0,0,0,8.687.385c1.789,0,3.563-.043,5.272-.127.777-.039,1.517-.088,2.2-.145a20.94,20.94,0,0,0,4.281-.648A10.517,10.517,0,0,1,21.28,20.628Z" transform="translate(-1 0)"/></g></svg>