<svg xmlns="http://www.w3.org/2000/svg" width="24.712" height="26.477" viewBox="0 0 24.712 26.477"><defs><style>.a{fill:#fff;}</style></defs><g transform="translate(0)"><path class="a" d="M39,43h.883v.883H39Z" transform="translate(-23.555 -24.907)"/><path class="a" d="M37,45h.883v.883H37Z" transform="translate(-22.438 -26.025)"/><path class="a" d="M39,47h.883v.883H39Z" transform="translate(-23.555 -27.142)"/><path class="a" d="M19.206,14.356h8.826a.441.441,0,0,0,.441-.441V10.826h.441A1.324,1.324,0,0,0,30.239,9.5V7.737a1.324,1.324,0,0,0-1.324-1.324h-.441V2.441A.441.441,0,0,0,28.032,2H19.206a.441.441,0,0,0-.441.441V6.413h-.441A1.324,1.324,0,0,0,17,7.737V9.5a1.324,1.324,0,0,0,1.324,1.324h.441v3.089A.441.441,0,0,0,19.206,14.356ZM28.473,7.3h.441a.441.441,0,0,1,.441.441V9.5a.441.441,0,0,1-.441.441h-.441ZM19.648,2.883h7.943V4.648H19.648Zm0,2.648h7.943v7.943H19.648ZM18.324,9.943a.441.441,0,0,1-.441-.441V7.737a.441.441,0,0,1,.441-.441h.441V9.943Z" transform="translate(-11.263 -2)"/><path class="a" d="M25,12h.883v.883H25Z" transform="translate(-15.733 -7.587)"/><path class="a" d="M37,12h.883v.883H37Z" transform="translate(-22.438 -7.587)"/><path class="a" d="M31,15h.883v2.648H31Z" transform="translate(-19.085 -9.263)"/><path class="a" d="M8.422,14.384a2.2,2.2,0,0,0-.883-1.755V7.765A1.765,1.765,0,0,0,5.774,6H5.333a.441.441,0,0,0-.441.441v6.188a2.2,2.2,0,1,0,3.53,1.755Zm-2.648-7.5a.883.883,0,0,1,.883.883v2.648H5.774Zm0,4.413h.883v.883H5.774Zm.441,4.413a1.324,1.324,0,1,1,1.324-1.324A1.324,1.324,0,0,1,6.215,15.708Z" transform="translate(-4.009 -4.235)"/><path class="a" d="M25,23h6.178v.883H25Z" transform="translate(-15.733 -13.733)"/><path class="a" d="M5.765,38.826H7.972a.434.434,0,0,0,.361-.2L9.3,37.193v2.515H7.972a.441.441,0,0,0-.441.441A2.21,2.21,0,0,0,9.3,42.312V43.68a.441.441,0,0,0,.441.441H22.975a.441.441,0,0,0,.441-.441V42.312a2.21,2.21,0,0,0,1.765-2.162.441.441,0,0,0-.441-.441H23.417V37.193l.963,1.431a.434.434,0,0,0,.361.2h2.206a1.765,1.765,0,0,0,1.765-1.765V30.441A.441.441,0,0,0,28.271,30H24.74a.441.441,0,0,0-.441.441v.687a1.747,1.747,0,0,0-.883-.245H9.3a1.747,1.747,0,0,0-.883.245v-.687A.441.441,0,0,0,7.972,30H4.441A.441.441,0,0,0,4,30.441v6.619A1.765,1.765,0,0,0,5.765,38.826Zm19.417-7.943h2.648v6.178a.883.883,0,0,1-.883.883H25.182Zm-1.765.883a.883.883,0,0,1,.883.883v4.28L23.417,35.6Zm-.883,11.473H10.178v-.883H22.534ZM18.769,31.765h3.765v7.943H20.89a3.526,3.526,0,0,0-3.9-5.8Zm1.837,6.978a2.648,2.648,0,0,1-4.215-.17.441.441,0,0,0-.362-.189h-1V35.737h1a.441.441,0,0,0,.362-.189,2.648,2.648,0,1,1,4.215,3.2ZM17.62,31.765l-1.264,1.517-1.264-1.517Zm-7.442,0h3.765l2.074,2.489a.434.434,0,0,0,.245.138,3.512,3.512,0,0,0-.453.462h-.776a.883.883,0,0,0-.883.883h-.958a1.324,1.324,0,1,0-2.234,1.324,1.324,1.324,0,1,0,2.234,1.324h.958a.883.883,0,0,0,.883.883h.777a3.535,3.535,0,0,0,.43.441H10.178Zm1.765,4.854a.441.441,0,1,1,.441-.441.441.441,0,0,0,.441.441H14.15V37.5H12.826a.441.441,0,0,0-.441.441.441.441,0,1,1-.441-.441.441.441,0,0,0,0-.883Zm12.281,3.972a1.327,1.327,0,0,1-1.248.883H9.737a1.326,1.326,0,0,1-1.248-.883ZM8.413,32.648a.883.883,0,0,1,.883-.883V35.6l-.883,1.324Zm-3.53-1.765H7.53v7.061H5.765a.883.883,0,0,1-.883-.883Z" transform="translate(-4 -17.644)"/><path class="a" d="M54.413,14.384a2.2,2.2,0,0,0-.883-1.755s0-.006,0-.01V11.3h.441a.441.441,0,0,0,.441-.441V6H53.53V8.648h-.883V6h-.883V8.648h-.883V6H50v4.854a.441.441,0,0,0,.441.441h.441v1.334a2.2,2.2,0,1,0,3.53,1.755Zm-3.53-3.972V9.53H53.53v.883Zm1.765.883v.883h-.883V11.3Zm-.441,4.413a1.324,1.324,0,1,1,1.324-1.324A1.324,1.324,0,0,1,52.206,15.708Z" transform="translate(-29.701 -4.235)"/></g></svg>